<?xml version="1.0" encoding="UTF-8" standalone="no" ?>
<!DOCTYPE sesx>
<sesx version="1.6">

  <session appBuild="11.1.0.184" appVersion="11.1" audioChannelType="stereo" bitDepth="32" duration="1440000" sampleRate="48000">
    <tracks>
      <audioTrack automationLaneOpenState="false" id="10001" index="1" select="false" visible="true">
        <trackParameters trackHeight="93" trackHue="-1" trackMinimized="false">
          <name>Track 1</name>
        </trackParameters>
        <trackAudioParameters audioChannelType="stereo" automationMode="1" monitoring="false" recordArmed="false" solo="false" soloSafe="false">
          <trackOutput outputID="10000" type="trackID"/>
          <trackInput inputID="2"/>
          <component componentGuid="c82536bb-7572-4507-8662-7fe309b06da1" componentID="Audition.Fader" id="trackFader" name="volume" powered="true">
            <parameter index="0" name="volume" parameterValue="1"/>
            <parameter index="1" name="static gain" parameterValue="1"/>
          </component>
          <component componentGuid="5f445ec6-45d5-4a32-abaa-ffaeca7e8205" componentID="Audition.Mute" id="trackMute" name="Mute" powered="true">
            <parameter index="0" parameterValue="0"/>
            <parameter index="1" name="mute" parameterValue="1"/>
          </component>
          <component componentGuid="59e72334-86e7-4649-941a-ee8678c91768" componentID="Audition.StereoPanner" id="trackPan" name="StereoPanner" powered="true">
            <parameter index="0" name="Pan" parameterValue="0"/>
          </component>
          <component componentGuid="1cd57cb3-8c99-47e5-980e-847b652f7002" componentID="Audition.EQ" id="trackEQ" name="EQ" powered="false">
            <parameter index="0" name="Low Shelf Frequency" parameterValue="0.000834"/>
            <parameter index="1" name="Low Shelf Gain" parameterValue="0.5"/>
            <parameter index="2" name="High Shelf Frequency" parameterValue="0.7497915"/>
            <parameter index="3" name="High Shelf Gain" parameterValue="0.5"/>
            <parameter index="4" name="EQ Band 1 Center Frequency" parameterValue="0.001251"/>
            <parameter index="5" name="EQ Band 1 Q" parameterValue="0.0002"/>
            <parameter index="6" name="EQ Band 1 Gain" parameterValue="0.5"/>
            <parameter index="7" name="EQ Band 1 Enable" parameterValue="1"/>
            <parameter index="8" name="EQ Band 2 Center Frequency" parameterValue="0.0075063"/>
            <parameter index="9" name="EQ Band 2 Q" parameterValue="0.0002"/>
            <parameter index="10" name="EQ Band 2 Gain" parameterValue="0.5"/>
            <parameter index="11" name="EQ Band 2 Enable" parameterValue="1"/>
            <parameter index="12" name="EQ Band 3 Center Frequency" parameterValue="0.0325271"/>
            <parameter index="13" name="EQ Band 3 Q" parameterValue="0.0002"/>
            <parameter index="14" name="EQ Band 3 Gain" parameterValue="0.5"/>
            <parameter index="15" name="EQ Band 3 Enable" parameterValue="1"/>
            <parameter index="16" name="EQ Band 4 Center Frequency" parameterValue="0.1326105"/>
            <parameter index="17" name="EQ Band 4 Q" parameterValue="0.0002"/>
            <parameter index="18" name="EQ Band 4 Gain" parameterValue="0.5"/>
            <parameter index="19" name="EQ Band 4 Enable" parameterValue="1"/>
            <parameter index="20" name="EQ Band 5 Center Frequency" parameterValue="0.5329441"/>
            <parameter index="21" name="EQ Band 5 Q" parameterValue="0.0002"/>
            <parameter index="22" name="EQ Band 5 Gain" parameterValue="0.5"/>
            <parameter index="23" name="EQ Band 5 Enable" parameterValue="1"/>
            <parameter index="24" name="Master Gain" parameterValue="0.6666667"/>
            <parameter index="25" name="ConstantQ" parameterValue="1"/>
            <parameter index="26" name="Low Shelf Filter Order" parameterValue="0"/>
            <parameter index="27" name="High Shelf Filter Order" parameterValue="0"/>
            <parameter index="28" name="Ultra-Quiet Mode" parameterValue="0"/>
            <parameter index="29" name="Low Shelf Enable" parameterValue="1"/>
            <parameter index="30" name="High Shelf Enable" parameterValue="1"/>
            <parameter index="31" name="Original Sample Rate" parameterValue="0.25"/>
            <parameter index="32" name="EQ Band 1 Bandwidth" parameterValue="0.0025"/>
            <parameter index="33" name="EQ Band 2 Bandwidth" parameterValue="0.01"/>
            <parameter index="34" name="EQ Band 3 Bandwidth" parameterValue="0.04"/>
            <parameter index="35" name="EQ Band 4 Bandwidth" parameterValue="0.16"/>
            <parameter index="36" name="EQ Band 5 Bandwidth" parameterValue="0.64"/>
            <parameter index="37" name="High-Pass Filter Enable" parameterValue="0"/>
            <parameter index="38" name="High-Pass Cutoff Frequency" parameterValue="0"/>
            <parameter index="39" name="High-Pass Slope" parameterValue="0.4"/>
            <parameter index="40" name="Low-Pass Filter Enable" parameterValue="0"/>
            <parameter index="41" name="Low-Pass Cutoff Frequency" parameterValue="0.8331943"/>
            <parameter index="42" name="Low-Pass Slope" parameterValue="0.4"/>
            <parameter index="43" name="Bypass" parameterValue="0"/>
            <parameter index="44" name="LowGraphRange" parameterValue="1"/>
          </component>
        </trackAudioParameters>
        <editParameter parameterIndex="0" slotIndex="4294967280"/>
        <audioClip clipAutoCrossfade="true" crossFadeHeadClipID="-1" crossFadeTailClipID="1" endPoint="9600" fileID="0" hue="-1" id="0" lockedInTime="false" looped="false" name="Track 1_001" offline="false" select="false" sourceInPoint="90932" sourceOutPoint="100532" startPoint="0" zOrder="0">
          <component componentGuid="10b94129-ca82-4fc8-b957-54d5884b372b" componentID="Audition.Fader" id="clipGain" name="volume" powered="true">
            <parameter index="0" name="volume" parameterValue="1"/>
            <parameter index="1" name="static gain" parameterValue="1"/>
          </component>
          <component componentGuid="f4ee98d3-63ee-4ad6-9d9a-39f330853417" componentID="Audition.Mute" id="clipMute" name="Mute" powered="true">
            <parameter index="0" parameterValue="0"/>
            <parameter index="1" name="mute" parameterValue="0"/>
          </component>
          <component componentGuid="d133eee6-90cd-4ea7-b910-fc3a2ec5d912" componentID="Audition.StereoPanner" id="clipPan" name="StereoPanner" powered="true">
            <parameter index="0" name="Pan" parameterValue="0"/>
          </component>
          <fadeIn crossFadeLinkType="linkedAsymmetric" endPoint="0" shape="0" startPoint="0" type="cosine"/>
          <fadeOut crossFadeLinkType="linkedAsymmetric" endPoint="9600" shape="19" startPoint="7065" type="log"/>
          <clipStretch adaptiveWindowSize="37" pitchAdjustment="0" preserveFormants="true" stretchMode="realtime" stretchQuality="high" stretchRatio="1.1876808598594459" stretchType="solo" transientSensitivity="40"/>
          <editParameter parameterIndex="0" slotIndex="4294967280"/>
          <editParameter parameterIndex="0" slotIndex="4294967281"/>
          <channelMap>
            <channel index="0" sourceIndex="0"/>
          </channelMap>
        </audioClip>
        <audioClip clipAutoCrossfade="true" crossFadeHeadClipID="0" crossFadeTailClipID="2" endPoint="16665" fileID="0" hue="-1" id="1" lockedInTime="false" looped="false" name="Track 1_001" offline="false" select="false" sourceInPoint="724043" sourceOutPoint="733643" startPoint="7065" zOrder="2">
          <component componentGuid="993b762f-751e-46d4-8112-81a9aa76f4d4" componentID="Audition.Fader" id="clipGain" name="volume" powered="true">
            <parameter index="0" name="volume" parameterValue="1"/>
            <parameter index="1" name="static gain" parameterValue="1"/>
          </component>
          <component componentGuid="d398b0d6-0797-4902-ac23-672a315ffaf2" componentID="Audition.Mute" id="clipMute" name="Mute" powered="true">
            <parameter index="0" parameterValue="0"/>
            <parameter index="1" name="mute" parameterValue="0"/>
          </component>
          <component componentGuid="05fa63d5-d0ec-47c3-b6d5-f56c0041c536" componentID="Audition.StereoPanner" id="clipPan" name="StereoPanner" powered="true">
            <parameter index="0" name="Pan" parameterValue="0"/>
          </component>
          <fadeIn crossFadeLinkType="linkedAsymmetric" endPoint="2535" shape="18" startPoint="0" type="log"/>
          <fadeOut crossFadeLinkType="linkedAsymmetric" endPoint="9600" shape="18" startPoint="7404" type="log"/>
          <clipStretch adaptiveWindowSize="37" pitchAdjustment="0" preserveFormants="true" stretchMode="realtime" stretchQuality="high" stretchRatio="8" stretchType="solo" transientSensitivity="40"/>
          <editParameter parameterIndex="0" slotIndex="4294967280"/>
          <editParameter parameterIndex="0" slotIndex="4294967281"/>
          <channelMap>
            <channel index="0" sourceIndex="0"/>
          </channelMap>
        </audioClip>
        <audioClip clipAutoCrossfade="true" crossFadeHeadClipID="1" crossFadeTailClipID="3" endPoint="19200" fileID="0" hue="-1" id="2" lockedInTime="false" looped="false" name="Track 1_001" offline="false" select="false" sourceInPoint="728912" sourceOutPoint="733643" startPoint="14469" zOrder="1">
          <component componentGuid="fd12ca2a-ec0a-4f71-a357-85dcd32b49ff" componentID="Audition.Fader" id="clipGain" name="volume" powered="true">
            <parameter index="0" name="volume" parameterValue="1"/>
            <parameter index="1" name="static gain" parameterValue="1"/>
          </component>
          <component componentGuid="158cb7fc-5f1d-4c20-ae47-bd49a2628fd8" componentID="Audition.Mute" id="clipMute" name="Mute" powered="true">
            <parameter index="0" parameterValue="0"/>
            <parameter index="1" name="mute" parameterValue="0"/>
          </component>
          <component componentGuid="2b06d629-202a-4336-82fa-8015df9f3301" componentID="Audition.StereoPanner" id="clipPan" name="StereoPanner" powered="true">
            <parameter index="0" name="Pan" parameterValue="0"/>
          </component>
          <fadeIn crossFadeLinkType="linkedAsymmetric" endPoint="2196" shape="19" startPoint="0" type="log"/>
          <fadeOut crossFadeLinkType="linkedAsymmetric" endPoint="4731" shape="19" startPoint="2920" type="log"/>
          <clipStretch adaptiveWindowSize="37" pitchAdjustment="0" preserveFormants="true" stretchMode="realtime" stretchQuality="high" stretchRatio="8" stretchType="solo" transientSensitivity="40"/>
          <editParameter parameterIndex="0" slotIndex="4294967280"/>
          <editParameter parameterIndex="0" slotIndex="4294967281"/>
          <channelMap>
            <channel index="0" sourceIndex="0"/>
          </channelMap>
        </audioClip>
        <audioClip clipAutoCrossfade="true" crossFadeHeadClipID="2" crossFadeTailClipID="-1" endPoint="24000" fileID="0" hue="-1" id="3" lockedInTime="false" looped="false" name="Track 1_001" offline="false" select="false" sourceInPoint="724043" sourceOutPoint="730654" startPoint="17389" zOrder="3">
          <component componentGuid="7167cfa5-a4eb-41ed-9527-5b0e9e4236c4" componentID="Audition.Fader" id="clipGain" name="volume" powered="true">
            <parameter index="0" name="volume" parameterValue="1"/>
            <parameter index="1" name="static gain" parameterValue="1"/>
          </component>
          <component componentGuid="3a574ddf-24d9-4d2f-9c5e-d5d35871e166" componentID="Audition.Mute" id="clipMute" name="Mute" powered="true">
            <parameter index="0" parameterValue="0"/>
            <parameter index="1" name="mute" parameterValue="0"/>
          </component>
          <component componentGuid="60d47d13-8ac6-4185-86bc-f78a92439df0" componentID="Audition.StereoPanner" id="clipPan" name="StereoPanner" powered="true">
            <parameter index="0" name="Pan" parameterValue="0"/>
          </component>
          <fadeIn crossFadeLinkType="linkedAsymmetric" endPoint="1811" shape="18" startPoint="0" type="log"/>
          <fadeOut crossFadeLinkType="linkedAsymmetric" endPoint="6611" shape="19" startPoint="6611" type="log"/>
          <clipStretch adaptiveWindowSize="37" pitchAdjustment="0" preserveFormants="true" stretchMode="realtime" stretchQuality="high" stretchRatio="8" stretchType="solo" transientSensitivity="40"/>
          <editParameter parameterIndex="0" slotIndex="4294967280"/>
          <editParameter parameterIndex="0" slotIndex="4294967281"/>
          <channelMap>
            <channel index="0" sourceIndex="0"/>
          </channelMap>
        </audioClip>
      </audioTrack>
      <audioTrack automationLaneOpenState="false" id="10002" index="2" select="false" visible="true">
        <trackParameters trackHeight="93" trackHue="290.6964826583862305" trackMinimized="false">
          <name>Track 2</name>
        </trackParameters>
        <trackAudioParameters audioChannelType="stereo" automationMode="1" monitoring="false" recordArmed="false" solo="false" soloSafe="false">
          <trackOutput outputID="10000" type="trackID"/>
          <trackInput inputID="1"/>
          <component componentGuid="b215f319-ae96-47ce-99b4-6489c6244181" componentID="Audition.Fader" id="trackFader" name="volume" powered="true">
            <parameter index="0" name="volume" parameterValue="1"/>
            <parameter index="1" name="static gain" parameterValue="1"/>
          </component>
          <component componentGuid="271ab649-b388-4359-9944-b1eebfee9cab" componentID="Audition.Mute" id="trackMute" name="Mute" powered="true">
            <parameter index="0" parameterValue="0"/>
            <parameter index="1" name="mute" parameterValue="1"/>
          </component>
          <component componentGuid="417751d0-b697-4aa8-b12c-62258a3565e5" componentID="Audition.StereoPanner" id="trackPan" name="StereoPanner" powered="true">
            <parameter index="0" name="Pan" parameterValue="0"/>
          </component>
          <component componentGuid="de1a62ed-a033-44d9-92d1-768da285f401" componentID="Audition.EQ" id="trackEQ" name="EQ" powered="false">
            <parameter index="0" name="Low Shelf Frequency" parameterValue="0.000834"/>
            <parameter index="1" name="Low Shelf Gain" parameterValue="0.5"/>
            <parameter index="2" name="High Shelf Frequency" parameterValue="0.7497915"/>
            <parameter index="3" name="High Shelf Gain" parameterValue="0.5"/>
            <parameter index="4" name="EQ Band 1 Center Frequency" parameterValue="0.001251"/>
            <parameter index="5" name="EQ Band 1 Q" parameterValue="0.0002"/>
            <parameter index="6" name="EQ Band 1 Gain" parameterValue="0.5"/>
            <parameter index="7" name="EQ Band 1 Enable" parameterValue="1"/>
            <parameter index="8" name="EQ Band 2 Center Frequency" parameterValue="0.0075063"/>
            <parameter index="9" name="EQ Band 2 Q" parameterValue="0.0002"/>
            <parameter index="10" name="EQ Band 2 Gain" parameterValue="0.5"/>
            <parameter index="11" name="EQ Band 2 Enable" parameterValue="1"/>
            <parameter index="12" name="EQ Band 3 Center Frequency" parameterValue="0.0325271"/>
            <parameter index="13" name="EQ Band 3 Q" parameterValue="0.0002"/>
            <parameter index="14" name="EQ Band 3 Gain" parameterValue="0.5"/>
            <parameter index="15" name="EQ Band 3 Enable" parameterValue="1"/>
            <parameter index="16" name="EQ Band 4 Center Frequency" parameterValue="0.1326105"/>
            <parameter index="17" name="EQ Band 4 Q" parameterValue="0.0002"/>
            <parameter index="18" name="EQ Band 4 Gain" parameterValue="0.5"/>
            <parameter index="19" name="EQ Band 4 Enable" parameterValue="1"/>
            <parameter index="20" name="EQ Band 5 Center Frequency" parameterValue="0.5329441"/>
            <parameter index="21" name="EQ Band 5 Q" parameterValue="0.0002"/>
            <parameter index="22" name="EQ Band 5 Gain" parameterValue="0.5"/>
            <parameter index="23" name="EQ Band 5 Enable" parameterValue="1"/>
            <parameter index="24" name="Master Gain" parameterValue="0.6666667"/>
            <parameter index="25" name="ConstantQ" parameterValue="1"/>
            <parameter index="26" name="Low Shelf Filter Order" parameterValue="0"/>
            <parameter index="27" name="High Shelf Filter Order" parameterValue="0"/>
            <parameter index="28" name="Ultra-Quiet Mode" parameterValue="0"/>
            <parameter index="29" name="Low Shelf Enable" parameterValue="1"/>
            <parameter index="30" name="High Shelf Enable" parameterValue="1"/>
            <parameter index="31" name="Original Sample Rate" parameterValue="0.25"/>
            <parameter index="32" name="EQ Band 1 Bandwidth" parameterValue="0.0025"/>
            <parameter index="33" name="EQ Band 2 Bandwidth" parameterValue="0.01"/>
            <parameter index="34" name="EQ Band 3 Bandwidth" parameterValue="0.04"/>
            <parameter index="35" name="EQ Band 4 Bandwidth" parameterValue="0.16"/>
            <parameter index="36" name="EQ Band 5 Bandwidth" parameterValue="0.64"/>
            <parameter index="37" name="High-Pass Filter Enable" parameterValue="0"/>
            <parameter index="38" name="High-Pass Cutoff Frequency" parameterValue="0"/>
            <parameter index="39" name="High-Pass Slope" parameterValue="0.4"/>
            <parameter index="40" name="Low-Pass Filter Enable" parameterValue="0"/>
            <parameter index="41" name="Low-Pass Cutoff Frequency" parameterValue="0.8331943"/>
            <parameter index="42" name="Low-Pass Slope" parameterValue="0.4"/>
            <parameter index="43" name="Bypass" parameterValue="0"/>
            <parameter index="44" name="LowGraphRange" parameterValue="1"/>
          </component>
        </trackAudioParameters>
        <effectsRack preFader="true">
          <component componentGuid="ec4f7e00-4d52-409d-baae-ee513b99ffcf" id="rackMix" powered="true">
            <parameter index="0" parameterValue="0"/>
            <parameter index="1" parameterValue="0"/>
          </component>
          <component componentGuid="a880b0df-7a27-4019-8a8f-77233f27f90b" id="rackInput" powered="true">
            <parameter index="0" parameterValue="1"/>
            <parameter index="1" parameterValue="0"/>
          </component>
          <component componentGuid="1971ee0c-4765-45ef-b8ee-6e1e2973576d" id="rackOutput" powered="true">
            <parameter index="0" parameterValue="1"/>
            <parameter index="1" parameterValue="0"/>
          </component>
          <slot powered="true" slotIndex="0">
            <component componentGuid="84b26f59-aa42-42aa-aa86-9a6492132a28" componentID="4f327230-f04c-4c34-9ea5-a998b4459221" name="FFT Filter">
              <channelMap direction="input">
                <channel index="0" sourceIndex="0"/>
                <channel index="1" sourceIndex="1"/>
              </channelMap>
              <channelMap direction="output">
                <channel index="0" sourceIndex="0"/>
                <channel index="1" sourceIndex="1"/>
              </channelMap>
              <presetChunkData><![CDATA[AIA7RwAAAAD+Qqw9AADAPgAAAAAOdFo6AACAPwAAAAAAAIA/AADgQNOmWjoAAAAAc6OEO2WxaT94qVg9u1B0P12XGj4R8H4/+Eb4PgAAgD8VP3w/AACAPwAAgD8AAEA/]]></presetChunkData>
            </component>
          </slot>
          <slot powered="true" slotIndex="2">
            <component componentGuid="8e631ea5-6449-4906-888b-a23b574d8902" componentID="9b66ab13-4d1b-469a-88c6-b807fcf1df16" editorHeight="551" editorLeft="613" editorTop="244" editorWidth="708" name="Distortion">
              <channelMap direction="input">
                <channel index="0" sourceIndex="0"/>
                <channel index="1" sourceIndex="1"/>
              </channelMap>
              <channelMap direction="output">
                <channel index="0" sourceIndex="0"/>
                <channel index="1" sourceIndex="1"/>
              </channelMap>
              <presetChunkData><![CDATA[BSBuYWZldFMHAAAAAQAAAAAAAAAAAAAAAAAAAAAAcMIAAQFABgAAAAAAgAAAekMAgAlCrApJQ1XVEUJV9RRDrCr+QqpqoEIAIDJDqapYQgAAekMAAAAAAACAvwAAAAAAAAAAAAAAAAAAAAAAAAAAAAAAAAAAAAAAAAAAAAAAAAAAAAAAAAAAAAAAAAAAAAAAAAAAAAAAAAAAAAAAAAAAAAAAAAAAAAAAAAAAAAAAAAAAAAAAAAAAAAAAAAAAAAAAAAAAAAAAAAAAAAAAAAAAAAAAAAAAAAAAAAAAAAAAAAAAAAAAAAAAAAAAAAAAAAAAAAAAAAAAAAAAAAAAAAAAAAAAAAAAAAAAAAAAAAAAAAAAAAAAAAAAAAAAAAAAAAAAAAAAAAAAAAAAAAAAAAAAAAAAAAAAAAAAAAAAAAAAAAAAAAAAAAAAAAAAAAAAAAAAAAAAAAAAAAAAAAAAAAAAAAAAAAAAAAAAAAAAAAAAAAAAAAAAAAAAAAAAAAAAAAAAAAAAAAAAAAAAAAAAAAAAAAAAAAAAAAAAAAAAAAAAAAAAAAAAAAAAAAAAAAAAAAAAAAAAAAAAAAAAAAAAAAAAAAAAAAAAAAAAAAAAAAAAAAAAAAAAAAAAAAAAAAAAAAAAAAAAAAAAAAAAAAAAAAAAAAAAAAAAAAAAAAAAAAAAAAAAAAAAAAAAAAAAAAAAAAAAAAAAAAAAAAAAAAAAAAAAAAAAAAAAAAAAAAAAAAAAAAAAAAAAAAAAAAAAAAAAAAAAAAAAAAAAAAAAAAAAAAAAAAAAAAAAAAAAAAAAAAAAAAAAAAAAAAAAAAAAAAAAAAAAAAAAAAAAAAAAAAAAAAAAAAAAAAAAAAAAAAAAAAAAAAAAAAAAAAAAAAAAAAAAAAAAAAAAAAAAAAAAAAAAAAAAAAAAAAAAAAAAAAAAAAAAAAAAAAAAAAAAAAAAAAAAAAAAAAAAAAAAAAAAAAAAAAAAAAAAAAAAAAAAAAAAAAAAAAAAAAAAAAAAAAAAAAAAAAAAAAAAAAAAAAAAAAAAAAAAAAAAAAAAAAAAAAAAAAAAAAAAAAAAAAAAAAAAAAAAAAAAAAAAAAAAAAAAAAAAAAAAAAAAAAAAAAAAAACAAAB6Q6yqjUGqSk9DqqrxQQDAD0OsqqZCAAD6QqoqAUNUVVBCrupFQ/5/VEIAAHpDAAAAAAAAgL8AAAAAAAAAAAAAAAAAAAAAAAAAAAAAAAAAAAAAAAAAAAAAAAAAAAAAAAAAAAAAAAAAAAAAAAAAAAAAAAAAAAAAAAAAAAAAAAAAAAAAAAAAAAAAAAAAAAAAAAAAAAAAAAAAAAAAAAAAAAAAAAAAAAAAAAAAAAAAAAAAAAAAAAAAAAAAAAAAAAAAAAAAAAAAAAAAAAAAAAAAAAAAAAAAAAAAAAAAAAAAAAAAAAAAAAAAAAAAAAAAAAAAAAAAAAAAAAAAAAAAAAAAAAAAAAAAAAAAAAAAAAAAAAAAAAAAAAAAAAAAAAAAAAAAAAAAAAAAAAAAAAAAAAAAAAAAAAAAAAAAAAAAAAAAAAAAAAAAAAAAAAAAAAAAAAAAAAAAAAAAAAAAAAAAAAAAAAAAAAAAAAAAAAAAAAAAAAAAAAAAAAAAAAAAAAAAAAAAAAAAAAAAAAAAAAAAAAAAAAAAAAAAAAAAAAAAAAAAAAAAAAAAAAAAAAAAAAAAAAAAAAAAAAAAAAAAAAAAAAAAAAAAAAAAAAAAAAAAAAAAAAAAAAAAAAAAAAAAAAAAAAAAAAAAAAAAAAAAAAAAAAAAAAAAAAAAAAAAAAAAAAAAAAAAAAAAAAAAAAAAAAAAAAAAAAAAAAAAAAAAAAAAAAAAAAAAAAAAAAAAAAAAAAAAAAAAAAAAAAAAAAAAAAAAAAAAAAAAAAAAAAAAAAAAAAAAAAAAAAAAAAAAAAAAAAAAAAAAAAAAAAAAAAAAAAAAAAAAAAAAAAAAAAAAAAAAAAAAAAAAAAAAAAAAAAAAAAAAAAAAAAAAAAAAAAAAAAAAAAAAAAAAAAAAAAAAAAAAAAAAAAAAAAAAAAAAAAAAAAAAAAAAAAAAAAAAAAAAAAAAAAAAAAAAAAAAAAAAAAAAAAAAAAAAAAAAAAAAAAAAAAAAAAAAAAAAAAAAAAAAAAAAAAAAAAAAAAAAAAAAAAAAAAAAAAAAAAAAAAAAAAAAAA==]]></presetChunkData>
            </component>
          </slot>
        </effectsRack>
        <editParameter parameterIndex="0" slotIndex="4294967280"/>
        <audioClip clipAutoCrossfade="true" crossFadeHeadClipID="-1" crossFadeTailClipID="1" endPoint="27186" fileID="1" hue="-1" id="0" lockedInTime="false" looped="false" name="Track 2_002" offline="false" select="false" sourceInPoint="29018" sourceOutPoint="33042" startPoint="23162" zOrder="93">
          <component componentGuid="5dd95d1b-0c88-4e36-9d1f-36f3417edfbb" componentID="Audition.Fader" id="clipGain" name="volume" powered="true">
            <parameter index="0" name="volume" parameterValue="1"/>
            <parameter index="1" name="static gain" parameterValue="1"/>
          </component>
          <component componentGuid="9cf54e99-f4eb-4574-b58b-4e353dfea31f" componentID="Audition.Mute" id="clipMute" name="Mute" powered="true">
            <parameter index="0" parameterValue="0"/>
            <parameter index="1" name="mute" parameterValue="0"/>
          </component>
          <component componentGuid="d428727b-e438-46d6-aa06-a86be5c69279" componentID="Audition.StereoPanner" id="clipPan" name="StereoPanner" powered="true">
            <parameter index="0" name="Pan" parameterValue="0"/>
          </component>
          <fadeIn crossFadeLinkType="linkedAsymmetric" endPoint="0" shape="0" startPoint="0" type="cosine"/>
          <fadeOut crossFadeLinkType="linkedAsymmetric" endPoint="4024" shape="19" startPoint="3580" type="log"/>
          <editParameter parameterIndex="0" slotIndex="4294967280"/>
          <editParameter parameterIndex="0" slotIndex="4294967281"/>
          <channelMap>
            <channel index="0" sourceIndex="0"/>
            <channel index="1" sourceIndex="1"/>
          </channelMap>
        </audioClip>
        <audioClip clipAutoCrossfade="true" crossFadeHeadClipID="0" crossFadeTailClipID="2" endPoint="32762" fileID="1" hue="-1" id="1" lockedInTime="false" looped="false" name="Track 2_002" offline="false" select="false" sourceInPoint="91183" sourceOutPoint="97203" startPoint="26742" zOrder="94">
          <component componentGuid="462b3abb-fd93-4e8b-ac5c-bab79b446735" componentID="Audition.Fader" id="clipGain" name="volume" powered="true">
            <parameter index="0" name="volume" parameterValue="1"/>
            <parameter index="1" name="static gain" parameterValue="1"/>
          </component>
          <component componentGuid="0c00a077-f0c4-452c-9311-19f7108486aa" componentID="Audition.Mute" id="clipMute" name="Mute" powered="true">
            <parameter index="0" parameterValue="0"/>
            <parameter index="1" name="mute" parameterValue="0"/>
          </component>
          <component componentGuid="ab23fc60-1854-448d-bd66-9dd2a90f058b" componentID="Audition.StereoPanner" id="clipPan" name="StereoPanner" powered="true">
            <parameter index="0" name="Pan" parameterValue="0"/>
          </component>
          <fadeIn crossFadeLinkType="linkedAsymmetric" endPoint="444" shape="18" startPoint="0" type="log"/>
          <fadeOut crossFadeLinkType="linkedAsymmetric" endPoint="6020" shape="19" startPoint="5887" type="log"/>
          <clipStretch adaptiveWindowSize="37" pitchAdjustment="0" preserveFormants="true" stretchMode="realtime" stretchQuality="high" stretchRatio="2.5682593856655291" stretchType="solo" transientSensitivity="40"/>
          <editParameter parameterIndex="0" slotIndex="4294967280"/>
          <editParameter parameterIndex="0" slotIndex="4294967281"/>
          <channelMap>
            <channel index="0" sourceIndex="0"/>
            <channel index="1" sourceIndex="1"/>
          </channelMap>
        </audioClip>
        <audioClip clipAutoCrossfade="true" crossFadeHeadClipID="1" crossFadeTailClipID="3" endPoint="38649" fileID="1" hue="-1" id="2" lockedInTime="false" looped="false" name="Track 2_002" offline="false" select="false" sourceInPoint="91183" sourceOutPoint="97203" startPoint="32629" zOrder="92">
          <component componentGuid="0329ed48-4442-474e-95fa-988a82efff6e" componentID="Audition.Fader" id="clipGain" name="volume" powered="true">
            <parameter index="0" name="volume" parameterValue="1"/>
            <parameter index="1" name="static gain" parameterValue="1"/>
          </component>
          <component componentGuid="85185317-3793-4c4b-8783-4cc90e69ab48" componentID="Audition.Mute" id="clipMute" name="Mute" powered="true">
            <parameter index="0" parameterValue="0"/>
            <parameter index="1" name="mute" parameterValue="0"/>
          </component>
          <component componentGuid="ca4c3c9e-ec41-4141-9fbf-1d3adf840a46" componentID="Audition.StereoPanner" id="clipPan" name="StereoPanner" powered="true">
            <parameter index="0" name="Pan" parameterValue="0"/>
          </component>
          <fadeIn crossFadeLinkType="linkedAsymmetric" endPoint="133" shape="18" startPoint="0" type="log"/>
          <fadeOut crossFadeLinkType="linkedAsymmetric" endPoint="6020" shape="18" startPoint="3861" type="log"/>
          <clipStretch adaptiveWindowSize="37" pitchAdjustment="0" preserveFormants="true" stretchMode="realtime" stretchQuality="high" stretchRatio="2.5682593856655291" stretchType="solo" transientSensitivity="40"/>
          <editParameter parameterIndex="0" slotIndex="4294967280"/>
          <editParameter parameterIndex="0" slotIndex="4294967281"/>
          <channelMap>
            <channel index="0" sourceIndex="0"/>
            <channel index="1" sourceIndex="1"/>
          </channelMap>
        </audioClip>
        <audioClip clipAutoCrossfade="true" crossFadeHeadClipID="2" crossFadeTailClipID="-1" endPoint="40551" fileID="1" hue="-1" id="3" lockedInTime="false" looped="false" name="Track 2_002" offline="false" select="false" sourceInPoint="91183" sourceOutPoint="95244" startPoint="36490" zOrder="96">
          <component componentGuid="2f4e5900-d7b3-4287-9a0d-86730a2fafd9" componentID="Audition.Fader" id="clipGain" name="volume" powered="true">
            <parameter index="0" name="volume" parameterValue="1"/>
            <parameter index="1" name="static gain" parameterValue="1"/>
          </component>
          <component componentGuid="9697fecd-c2f1-42aa-b190-7e016a639b09" componentID="Audition.Mute" id="clipMute" name="Mute" powered="true">
            <parameter index="0" parameterValue="0"/>
            <parameter index="1" name="mute" parameterValue="0"/>
          </component>
          <component componentGuid="5133262f-442d-46fb-b854-0a576a28fd9c" componentID="Audition.StereoPanner" id="clipPan" name="StereoPanner" powered="true">
            <parameter index="0" name="Pan" parameterValue="0"/>
          </component>
          <fadeIn crossFadeLinkType="linkedAsymmetric" endPoint="2159" shape="19" startPoint="0" type="log"/>
          <fadeOut crossFadeLinkType="linkedAsymmetric" endPoint="4061" shape="0" startPoint="4061" type="cosine"/>
          <clipStretch adaptiveWindowSize="37" pitchAdjustment="0" preserveFormants="true" stretchMode="realtime" stretchQuality="high" stretchRatio="2.5682593856655291" stretchType="solo" transientSensitivity="40"/>
          <editParameter parameterIndex="0" slotIndex="4294967280"/>
          <editParameter parameterIndex="0" slotIndex="4294967281"/>
          <channelMap>
            <channel index="0" sourceIndex="0"/>
            <channel index="1" sourceIndex="1"/>
          </channelMap>
        </audioClip>
        <audioClip clipAutoCrossfade="true" crossFadeHeadClipID="-1" crossFadeTailClipID="5" endPoint="46324" fileID="1" hue="-1" id="4" lockedInTime="false" looped="false" name="Track 2_002" offline="false" select="false" sourceInPoint="44300" sourceOutPoint="50073" startPoint="40551" zOrder="91">
          <component componentGuid="c2b13706-790f-400f-8185-887ff016d0c5" componentID="Audition.Fader" id="clipGain" name="volume" powered="true">
            <parameter index="0" name="volume" parameterValue="1"/>
            <parameter index="1" name="static gain" parameterValue="1"/>
          </component>
          <component componentGuid="8c4f2261-707e-4f03-b8b0-23a1933ad62b" componentID="Audition.Mute" id="clipMute" name="Mute" powered="true">
            <parameter index="0" parameterValue="0"/>
            <parameter index="1" name="mute" parameterValue="0"/>
          </component>
          <component componentGuid="4a3897d4-04ba-499a-a2d2-8b949f564b08" componentID="Audition.StereoPanner" id="clipPan" name="StereoPanner" powered="true">
            <parameter index="0" name="Pan" parameterValue="0"/>
          </component>
          <fadeIn crossFadeLinkType="linkedAsymmetric" endPoint="0" shape="0" startPoint="0" type="cosine"/>
          <fadeOut crossFadeLinkType="linkedAsymmetric" endPoint="5773" shape="19" startPoint="4211" type="log"/>
          <editParameter parameterIndex="0" slotIndex="4294967280"/>
          <editParameter parameterIndex="0" slotIndex="4294967281"/>
          <channelMap>
            <channel index="0" sourceIndex="0"/>
            <channel index="1" sourceIndex="1"/>
          </channelMap>
        </audioClip>
        <audioClip clipAutoCrossfade="true" crossFadeHeadClipID="4" crossFadeTailClipID="-1" endPoint="47162" fileID="1" hue="-1" id="5" lockedInTime="false" looped="false" name="Track 2_002" offline="false" select="false" sourceInPoint="48511" sourceOutPoint="50911" startPoint="44762" zOrder="95">
          <component componentGuid="34b18198-dc78-41d2-97f0-d2602b81c858" componentID="Audition.Fader" id="clipGain" name="volume" powered="true">
            <parameter index="0" name="volume" parameterValue="0.787498"/>
            <parameter index="1" name="static gain" parameterValue="1"/>
          </component>
          <component componentGuid="52c33388-b8c6-4dc2-8c8f-17d6ffc11bcc" componentID="Audition.Mute" id="clipMute" name="Mute" powered="true">
            <parameter index="0" parameterValue="0"/>
            <parameter index="1" name="mute" parameterValue="0"/>
          </component>
          <component componentGuid="cc437d23-1d33-47d4-b12b-c2dc5e138e01" componentID="Audition.StereoPanner" id="clipPan" name="StereoPanner" powered="true">
            <parameter index="0" name="Pan" parameterValue="0"/>
          </component>
          <fadeIn crossFadeLinkType="linkedAsymmetric" endPoint="1562" shape="18" startPoint="0" type="log"/>
          <fadeOut crossFadeLinkType="linkedAsymmetric" endPoint="2400" shape="0" startPoint="2400" type="cosine"/>
          <editParameter parameterIndex="0" slotIndex="4294967281"/>
          <editParameter parameterIndex="0" slotIndex="4294967280"/>
          <channelMap>
            <channel index="0" sourceIndex="0"/>
            <channel index="1" sourceIndex="1"/>
          </channelMap>
        </audioClip>
      </audioTrack>
      <audioTrack automationLaneOpenState="false" id="10007" index="3" select="true" visible="true">
        <trackParameters trackHeight="93" trackHue="-1" trackMinimized="false">
          <name>Bounce_1</name>
        </trackParameters>
        <trackAudioParameters audioChannelType="stereo" automationMode="1" monitoring="false" recordArmed="false" solo="false" soloSafe="false">
          <trackOutput outputID="10000" type="trackID"/>
          <trackInput inputID="1"/>
          <component componentGuid="d2a1c164-d1b5-4057-bcd8-83f4da47c015" componentID="Audition.Fader" id="trackFader" name="volume" powered="true">
            <parameter index="0" name="volume" parameterValue="1"/>
            <parameter index="1" name="static gain" parameterValue="1"/>
          </component>
          <component componentGuid="4c5fc2e9-b790-4594-b1a4-ac7d324bd3d7" componentID="Audition.Mute" id="trackMute" name="Mute" powered="true">
            <parameter index="0" parameterValue="0"/>
            <parameter index="1" name="mute" parameterValue="0"/>
          </component>
          <component componentGuid="ff28108d-1df1-4d30-ad2f-d55502d443f0" componentID="Audition.StereoPanner" id="trackPan" name="StereoPanner" powered="true">
            <parameter index="0" name="Pan" parameterValue="0"/>
          </component>
          <component componentGuid="e9f82494-09b4-4a56-a293-b2a71f44b1be" componentID="Audition.EQ" id="trackEQ" name="EQ" powered="false">
            <parameter index="0" name="Low Shelf Frequency" parameterValue="0.000834"/>
            <parameter index="1" name="Low Shelf Gain" parameterValue="0.5"/>
            <parameter index="2" name="High Shelf Frequency" parameterValue="0.7497915"/>
            <parameter index="3" name="High Shelf Gain" parameterValue="0.5"/>
            <parameter index="4" name="EQ Band 1 Center Frequency" parameterValue="0.001251"/>
            <parameter index="5" name="EQ Band 1 Q" parameterValue="0.0002"/>
            <parameter index="6" name="EQ Band 1 Gain" parameterValue="0.5"/>
            <parameter index="7" name="EQ Band 1 Enable" parameterValue="1"/>
            <parameter index="8" name="EQ Band 2 Center Frequency" parameterValue="0.0075063"/>
            <parameter index="9" name="EQ Band 2 Q" parameterValue="0.0002"/>
            <parameter index="10" name="EQ Band 2 Gain" parameterValue="0.5"/>
            <parameter index="11" name="EQ Band 2 Enable" parameterValue="1"/>
            <parameter index="12" name="EQ Band 3 Center Frequency" parameterValue="0.0325271"/>
            <parameter index="13" name="EQ Band 3 Q" parameterValue="0.0002"/>
            <parameter index="14" name="EQ Band 3 Gain" parameterValue="0.5"/>
            <parameter index="15" name="EQ Band 3 Enable" parameterValue="1"/>
            <parameter index="16" name="EQ Band 4 Center Frequency" parameterValue="0.1326105"/>
            <parameter index="17" name="EQ Band 4 Q" parameterValue="0.0002"/>
            <parameter index="18" name="EQ Band 4 Gain" parameterValue="0.5"/>
            <parameter index="19" name="EQ Band 4 Enable" parameterValue="1"/>
            <parameter index="20" name="EQ Band 5 Center Frequency" parameterValue="0.5329441"/>
            <parameter index="21" name="EQ Band 5 Q" parameterValue="0.0002"/>
            <parameter index="22" name="EQ Band 5 Gain" parameterValue="0.5"/>
            <parameter index="23" name="EQ Band 5 Enable" parameterValue="1"/>
            <parameter index="24" name="Master Gain" parameterValue="0.6666667"/>
            <parameter index="25" name="ConstantQ" parameterValue="1"/>
            <parameter index="26" name="Low Shelf Filter Order" parameterValue="0"/>
            <parameter index="27" name="High Shelf Filter Order" parameterValue="0"/>
            <parameter index="28" name="Ultra-Quiet Mode" parameterValue="0"/>
            <parameter index="29" name="Low Shelf Enable" parameterValue="1"/>
            <parameter index="30" name="High Shelf Enable" parameterValue="1"/>
            <parameter index="31" name="Original Sample Rate" parameterValue="0.25"/>
            <parameter index="32" name="EQ Band 1 Bandwidth" parameterValue="0.0025"/>
            <parameter index="33" name="EQ Band 2 Bandwidth" parameterValue="0.01"/>
            <parameter index="34" name="EQ Band 3 Bandwidth" parameterValue="0.04"/>
            <parameter index="35" name="EQ Band 4 Bandwidth" parameterValue="0.16"/>
            <parameter index="36" name="EQ Band 5 Bandwidth" parameterValue="0.64"/>
            <parameter index="37" name="High-Pass Filter Enable" parameterValue="0"/>
            <parameter index="38" name="High-Pass Cutoff Frequency" parameterValue="0"/>
            <parameter index="39" name="High-Pass Slope" parameterValue="0.4"/>
            <parameter index="40" name="Low-Pass Filter Enable" parameterValue="0"/>
            <parameter index="41" name="Low-Pass Cutoff Frequency" parameterValue="0.8331943"/>
            <parameter index="42" name="Low-Pass Slope" parameterValue="0.4"/>
            <parameter index="43" name="Bypass" parameterValue="0"/>
            <parameter index="44" name="LowGraphRange" parameterValue="1"/>
          </component>
        </trackAudioParameters>
        <effectsRack preFader="true">
          <component componentGuid="dde05ef6-ca85-4a08-814e-8d4271c52f01" id="rackMix" powered="true">
            <parameter index="0" parameterValue="0"/>
            <parameter index="1" parameterValue="0"/>
          </component>
          <component componentGuid="4f4ac678-5e7c-42fc-9d74-220c77e1e3af" id="rackInput" powered="true">
            <parameter index="0" parameterValue="1"/>
            <parameter index="1" parameterValue="0"/>
          </component>
          <component componentGuid="4bb610a0-bc8f-497e-9142-509ce94d621b" id="rackOutput" powered="true">
            <parameter index="0" parameterValue="1"/>
            <parameter index="1" parameterValue="0"/>
          </component>
          <slot powered="true" slotIndex="0">
            <component componentGuid="65971728-dc1e-400c-bcc8-54c795bff87e" componentID="4f327230-f04c-4c34-9ea5-a998b4459221" editorHeight="505" editorLeft="670" editorTop="268" editorWidth="580" name="FFT Filter">
              <channelMap direction="input">
                <channel index="0" sourceIndex="0"/>
                <channel index="1" sourceIndex="1"/>
              </channelMap>
              <channelMap direction="output">
                <channel index="0" sourceIndex="0"/>
                <channel index="1" sourceIndex="1"/>
              </channelMap>
              <presetChunkData><![CDATA[AIA7RwAAAAD+Qqw9AADAPgAAAAAOdFo6AACAPwAAAAAAAIA/AADgQNOmWjoAAAAAXcCZO2H1qT54qVg9u1B0P12XGj4R8H4/+Eb4PgAAgD8VP3w/AACAPwAAgD8AAEA/]]></presetChunkData>
            </component>
          </slot>
          <slot powered="true" slotIndex="1">
            <component componentGuid="d8455837-e170-4eb3-a428-6a9a2105dcb6" componentID="164b4e8a-7105-406b-b23b-1ef2cc4d8957" editorHeight="439" editorLeft="705" editorTop="301" editorWidth="511" name="Pitch Shifter">
              <channelMap direction="input">
                <channel index="0" sourceIndex="0"/>
                <channel index="1" sourceIndex="1"/>
              </channelMap>
              <channelMap direction="output">
                <channel index="0" sourceIndex="0"/>
                <channel index="1" sourceIndex="1"/>
              </channelMap>
              <parameter index="0" name="Transpose Ratio" parameterValue="0.063069"/>
              <parameter index="1" name="Precision" parameterValue="1"/>
              <parameter index="2" name="Frequency" parameterValue="0.1028324"/>
              <parameter index="3" name="Overlapping" parameterValue="0.6572513"/>
              <parameter index="4" name="Use Default Setting" parameterValue="0.75"/>
            </component>
          </slot>
          <slot powered="true" slotIndex="2">
            <component componentGuid="e09f07bb-47af-4733-8fad-826d5e8869cf" componentID="9b66ab13-4d1b-469a-88c6-b807fcf1df16" editorHeight="551" editorLeft="606" editorTop="245" editorWidth="708" name="Distortion">
              <channelMap direction="input">
                <channel index="0" sourceIndex="0"/>
                <channel index="1" sourceIndex="1"/>
              </channelMap>
              <channelMap direction="output">
                <channel index="0" sourceIndex="0"/>
                <channel index="1" sourceIndex="1"/>
              </channelMap>
              <presetChunkData><![CDATA[BSBuYWZldFMHAAAAAQAAAAAAAAAAAAAAAAAAAAAAcMIAAQFABgAAAAAAgAAAekMAgAlCqwpJQ1ZVnkKrCjBDrCr+QqpqoEKqiiNDAuArQwAAekMAAAAAAACAvwAAAAAAAAAAAAAAAAAAAAAAAAAAAAAAAAAAAAAAAAAAAAAAAAAAAAAAAAAAAAAAAAAAAAAAAAAAAAAAAAAAAAAAAAAAAAAAAAAAAAAAAAAAAAAAAAAAAAAAAAAAAAAAAAAAAAAAAAAAAAAAAAAAAAAAAAAAAAAAAAAAAAAAAAAAAAAAAAAAAAAAAAAAAAAAAAAAAAAAAAAAAAAAAAAAAAAAAAAAAAAAAAAAAAAAAAAAAAAAAAAAAAAAAAAAAAAAAAAAAAAAAAAAAAAAAAAAAAAAAAAAAAAAAAAAAAAAAAAAAAAAAAAAAAAAAAAAAAAAAAAAAAAAAAAAAAAAAAAAAAAAAAAAAAAAAAAAAAAAAAAAAAAAAAAAAAAAAAAAAAAAAAAAAAAAAAAAAAAAAAAAAAAAAAAAAAAAAAAAAAAAAAAAAAAAAAAAAAAAAAAAAAAAAAAAAAAAAAAAAAAAAAAAAAAAAAAAAAAAAAAAAAAAAAAAAAAAAAAAAAAAAAAAAAAAAAAAAAAAAAAAAAAAAAAAAAAAAAAAAAAAAAAAAAAAAAAAAAAAAAAAAAAAAAAAAAAAAAAAAAAAAAAAAAAAAAAAAAAAAAAAAAAAAAAAAAAAAAAAAAAAAAAAAAAAAAAAAAAAAAAAAAAAAAAAAAAAAAAAAAAAAAAAAAAAAAAAAAAAAAAAAAAAAAAAAAAAAAAAAAAAAAAAAAAAAAAAAAAAAAAAAAAAAAAAAAAAAAAAAAAAAAAAAAAAAAAAAAAAAAAAAAAAAAAAAAAAAAAAAAAAAAAAAAAAAAAAAAAAAAAAAAAAAAAAAAAAAAAAAAAAAAAAAAAAAAAAAAAAAAAAAAAAAAAAAAAAAAAAAAAAAAAAAAAAAAAAAAAAAAAAAAAAAAAAAAAAAAAAAAAAAAAAAAAAAAAAAAAAAAAAAAAAAAAAAAAAAAAAAAAAAAAAAAAAAAAAAAAAAAAAAAAAAAAAAAAAAAAAAAAAAAAAAAAAAAAAAAAAAACAAAB6Q6uqjUGqSk9Dq6qmQgAA+kKqKgFDVFVQQq3qRUP+f1RCAAB6QwAAAAAAAIC/AAAAAAAAAAAAAAAAAAAAAAAAAAAAAAAAAAAAAAAAAAAAAAAAAAAAAAAAAAAAAAAAAAAAAAAAAAAAAAAAAAAAAAAAAAAAAAAAAAAAAAAAAAAAAAAAAAAAAAAAAAAAAAAAAAAAAAAAAAAAAAAAAAAAAAAAAAAAAAAAAAAAAAAAAAAAAAAAAAAAAAAAAAAAAAAAAAAAAAAAAAAAAAAAAAAAAAAAAAAAAAAAAAAAAAAAAAAAAAAAAAAAAAAAAAAAAAAAAAAAAAAAAAAAAAAAAAAAAAAAAAAAAAAAAAAAAAAAAAAAAAAAAAAAAAAAAAAAAAAAAAAAAAAAAAAAAAAAAAAAAAAAAAAAAAAAAAAAAAAAAAAAAAAAAAAAAAAAAAAAAAAAAAAAAAAAAAAAAAAAAAAAAAAAAAAAAAAAAAAAAAAAAAAAAAAAAAAAAAAAAAAAAAAAAAAAAAAAAAAAAAAAAAAAAAAAAAAAAAAAAAAAAAAAAAAAAAAAAAAAAAAAAAAAAAAAAAAAAAAAAAAAAAAAAAAAAAAAAAAAAAAAAAAAAAAAAAAAAAAAAAAAAAAAAAAAAAAAAAAAAAAAAAAAAAAAAAAAAAAAAAAAAAAAAAAAAAAAAAAAAAAAAAAAAAAAAAAAAAAAAAAAAAAAAAAAAAAAAAAAAAAAAAAAAAAAAAAAAAAAAAAAAAAAAAAAAAAAAAAAAAAAAAAAAAAAAAAAAAAAAAAAAAAAAAAAAAAAAAAAAAAAAAAAAAAAAAAAAAAAAAAAAAAAAAAAAAAAAAAAAAAAAAAAAAAAAAAAAAAAAAAAAAAAAAAAAAAAAAAAAAAAAAAAAAAAAAAAAAAAAAAAAAAAAAAAAAAAAAAAAAAAAAAAAAAAAAAAAAAAAAAAAAAAAAAAAAAAAAAAAAAAAAAAAAAAAAAAAAAAAAAAAAAAAAAAAAAAAAAAAAAAAAAAAAAAAAAAAAAAAAAAAAAAAAAAAAAAAAAAAAAAAAAAAAAAAAAAAA==]]></presetChunkData>
            </component>
          </slot>
        </effectsRack>
        <editParameter parameterIndex="0" slotIndex="4294967280"/>
        <audioClip clipAutoCrossfade="true" crossFadeHeadClipID="-1" crossFadeTailClipID="-1" endPoint="48000" fileID="2" hue="-1" id="0" lockedInTime="false" looped="false" name="Bounce_1" offline="false" select="false" sourceInPoint="0" sourceOutPoint="24000" startPoint="24000" zOrder="0">
          <component componentGuid="40a7660c-181d-438b-88d6-7864f6946417" componentID="Audition.Fader" id="clipGain" name="volume" powered="true">
            <parameter index="0" name="volume" parameterValue="1"/>
            <parameter index="1" name="static gain" parameterValue="1"/>
          </component>
          <component componentGuid="2307c29e-78c0-47e3-b124-a12b251ec57f" componentID="Audition.Mute" id="clipMute" name="Mute" powered="true">
            <parameter index="0" parameterValue="0"/>
            <parameter index="1" name="mute" parameterValue="0"/>
          </component>
          <component componentGuid="ce216740-9124-43d2-8ce2-479b25e2d6db" componentID="Audition.StereoPanner" id="clipPan" name="StereoPanner" powered="true">
            <parameter index="0" name="Pan" parameterValue="0"/>
          </component>
          <fadeIn crossFadeLinkType="linkedAsymmetric" endPoint="0" shape="0" startPoint="0" type="cosine"/>
          <fadeOut crossFadeLinkType="linkedAsymmetric" endPoint="24000" shape="0" startPoint="24000" type="cosine"/>
          <editParameter parameterIndex="0" slotIndex="4294967280"/>
          <editParameter parameterIndex="0" slotIndex="4294967281"/>
          <channelMap>
            <channel index="0" sourceIndex="0"/>
            <channel index="1" sourceIndex="1"/>
          </channelMap>
        </audioClip>
        <audioClip clipAutoCrossfade="true" crossFadeHeadClipID="-1" crossFadeTailClipID="-1" endPoint="72000" fileID="2" hue="-1" id="1" lockedInTime="false" looped="false" name="Bounce_1" offline="false" select="false" sourceInPoint="0" sourceOutPoint="24000" startPoint="48000" zOrder="1">
          <component componentGuid="9d644227-c922-492e-8633-ea103e08aa15" componentID="Audition.Fader" id="clipGain" name="volume" powered="true">
            <parameter index="0" name="volume" parameterValue="1"/>
            <parameter index="1" name="static gain" parameterValue="1"/>
          </component>
          <component componentGuid="3c1c5d83-9053-4d1c-beb4-d6f950d820f7" componentID="Audition.Mute" id="clipMute" name="Mute" powered="true">
            <parameter index="0" parameterValue="0"/>
            <parameter index="1" name="mute" parameterValue="0"/>
          </component>
          <component componentGuid="7e98f741-a68c-4295-8a9c-dec9feb2b96d" componentID="Audition.StereoPanner" id="clipPan" name="StereoPanner" powered="true">
            <parameter index="0" name="Pan" parameterValue="0"/>
          </component>
          <fadeIn crossFadeLinkType="linkedAsymmetric" endPoint="0" shape="0" startPoint="0" type="cosine"/>
          <fadeOut crossFadeLinkType="linkedAsymmetric" endPoint="24000" shape="0" startPoint="24000" type="cosine"/>
          <editParameter parameterIndex="0" slotIndex="4294967280"/>
          <editParameter parameterIndex="0" slotIndex="4294967281"/>
          <channelMap>
            <channel index="0" sourceIndex="0"/>
            <channel index="1" sourceIndex="1"/>
          </channelMap>
        </audioClip>
        <audioClip clipAutoCrossfade="true" crossFadeHeadClipID="-1" crossFadeTailClipID="-1" endPoint="144000" fileID="2" hue="-1" id="2" lockedInTime="false" looped="false" name="Bounce_1" offline="false" select="false" sourceInPoint="0" sourceOutPoint="24000" startPoint="120000" zOrder="2">
          <component componentGuid="5d91c585-7878-498c-a7b0-0130d068acc7" componentID="Audition.Fader" id="clipGain" name="volume" powered="true">
            <parameter index="0" name="volume" parameterValue="1"/>
            <parameter index="1" name="static gain" parameterValue="1"/>
          </component>
          <component componentGuid="99d18b55-fb07-485d-9ea1-c068870209c7" componentID="Audition.Mute" id="clipMute" name="Mute" powered="true">
            <parameter index="0" parameterValue="0"/>
            <parameter index="1" name="mute" parameterValue="0"/>
          </component>
          <component componentGuid="a396d397-ffd2-4a65-8e8c-94bb1ef1b8e7" componentID="Audition.StereoPanner" id="clipPan" name="StereoPanner" powered="true">
            <parameter index="0" name="Pan" parameterValue="0"/>
          </component>
          <fadeIn crossFadeLinkType="linkedAsymmetric" endPoint="0" shape="18" startPoint="0" type="log"/>
          <fadeOut crossFadeLinkType="linkedAsymmetric" endPoint="24000" shape="0" startPoint="24000" type="cosine"/>
          <editParameter parameterIndex="0" slotIndex="4294967281"/>
          <editParameter parameterIndex="0" slotIndex="4294967280"/>
          <channelMap>
            <channel index="0" sourceIndex="0"/>
            <channel index="1" sourceIndex="1"/>
          </channelMap>
        </audioClip>
        <audioClip clipAutoCrossfade="true" crossFadeHeadClipID="-1" crossFadeTailClipID="-1" endPoint="168000" fileID="2" hue="-1" id="3" lockedInTime="false" looped="false" name="Bounce_1" offline="false" select="false" sourceInPoint="0" sourceOutPoint="24000" startPoint="144000" zOrder="4">
          <component componentGuid="41352707-12c4-4728-8174-e59ef3cc0ade" componentID="Audition.Fader" id="clipGain" name="volume" powered="true">
            <parameter index="0" name="volume" parameterValue="1"/>
            <parameter index="1" name="static gain" parameterValue="1"/>
          </component>
          <component componentGuid="ecbc3244-f9ce-4fd3-b2e9-bb9ee0913b39" componentID="Audition.Mute" id="clipMute" name="Mute" powered="true">
            <parameter index="0" parameterValue="0"/>
            <parameter index="1" name="mute" parameterValue="0"/>
          </component>
          <component componentGuid="19e9c70c-1dd5-42ca-b694-550546a9ed26" componentID="Audition.StereoPanner" id="clipPan" name="StereoPanner" powered="true">
            <parameter index="0" name="Pan" parameterValue="0"/>
          </component>
          <fadeIn crossFadeLinkType="linkedAsymmetric" endPoint="0" shape="0" startPoint="0" type="cosine"/>
          <fadeOut crossFadeLinkType="linkedAsymmetric" endPoint="24000" shape="19" startPoint="24000" type="log"/>
          <editParameter parameterIndex="0" slotIndex="4294967280"/>
          <editParameter parameterIndex="0" slotIndex="4294967281"/>
          <channelMap>
            <channel index="0" sourceIndex="0"/>
            <channel index="1" sourceIndex="1"/>
          </channelMap>
        </audioClip>
        <audioClip clipAutoCrossfade="true" crossFadeHeadClipID="-1" crossFadeTailClipID="-1" endPoint="192000" fileID="2" hue="-1" id="4" lockedInTime="false" looped="false" name="Bounce_1" offline="false" select="false" sourceInPoint="0" sourceOutPoint="24000" startPoint="168000" zOrder="3">
          <component componentGuid="ba9e2a4b-9000-40d9-b595-dd7438462fa4" componentID="Audition.Fader" id="clipGain" name="volume" powered="true">
            <parameter index="0" name="volume" parameterValue="1"/>
            <parameter index="1" name="static gain" parameterValue="1"/>
          </component>
          <component componentGuid="0fc3d886-8725-4fbc-a433-2116a3793491" componentID="Audition.Mute" id="clipMute" name="Mute" powered="true">
            <parameter index="0" parameterValue="0"/>
            <parameter index="1" name="mute" parameterValue="0"/>
          </component>
          <component componentGuid="d474844b-1b8b-4d61-a917-e87ccf4109ad" componentID="Audition.StereoPanner" id="clipPan" name="StereoPanner" powered="true">
            <parameter index="0" name="Pan" parameterValue="0"/>
          </component>
          <fadeIn crossFadeLinkType="linkedAsymmetric" endPoint="0" shape="0" startPoint="0" type="cosine"/>
          <fadeOut crossFadeLinkType="linkedAsymmetric" endPoint="24000" shape="19" startPoint="24000" type="log"/>
          <editParameter parameterIndex="0" slotIndex="4294967280"/>
          <editParameter parameterIndex="0" slotIndex="4294967281"/>
          <channelMap>
            <channel index="0" sourceIndex="0"/>
            <channel index="1" sourceIndex="1"/>
          </channelMap>
        </audioClip>
        <audioClip clipAutoCrossfade="true" crossFadeHeadClipID="-1" crossFadeTailClipID="-1" endPoint="240000" fileID="2" hue="-1" id="5" lockedInTime="false" looped="false" name="Bounce_1" offline="false" select="false" sourceInPoint="0" sourceOutPoint="24000" startPoint="216000" zOrder="5">
          <component componentGuid="67cc2eaa-bc41-4977-906e-edff7efc6ff9" componentID="Audition.Fader" id="clipGain" name="volume" powered="true">
            <parameter index="0" name="volume" parameterValue="1"/>
            <parameter index="1" name="static gain" parameterValue="1"/>
          </component>
          <component componentGuid="190dc1b9-c586-4926-b668-5aa28df59a8a" componentID="Audition.Mute" id="clipMute" name="Mute" powered="true">
            <parameter index="0" parameterValue="0"/>
            <parameter index="1" name="mute" parameterValue="0"/>
          </component>
          <component componentGuid="523b3eff-0e23-43ab-b993-51e97cd8bcf2" componentID="Audition.StereoPanner" id="clipPan" name="StereoPanner" powered="true">
            <parameter index="0" name="Pan" parameterValue="0"/>
          </component>
          <fadeIn crossFadeLinkType="linkedAsymmetric" endPoint="0" shape="18" startPoint="0" type="log"/>
          <fadeOut crossFadeLinkType="linkedAsymmetric" endPoint="24000" shape="0" startPoint="24000" type="cosine"/>
          <editParameter parameterIndex="0" slotIndex="4294967280"/>
          <editParameter parameterIndex="0" slotIndex="4294967281"/>
          <channelMap>
            <channel index="0" sourceIndex="0"/>
            <channel index="1" sourceIndex="1"/>
          </channelMap>
        </audioClip>
        <audioClip clipAutoCrossfade="true" crossFadeHeadClipID="-1" crossFadeTailClipID="-1" endPoint="312000" fileID="2" hue="-1" id="6" lockedInTime="false" looped="false" name="Bounce_1" offline="false" select="false" sourceInPoint="0" sourceOutPoint="24000" startPoint="288000" zOrder="6">
          <component componentGuid="58abd545-f5cf-451f-abe3-7e443a3fffe3" componentID="Audition.Fader" id="clipGain" name="volume" powered="true">
            <parameter index="0" name="volume" parameterValue="1"/>
            <parameter index="1" name="static gain" parameterValue="1"/>
          </component>
          <component componentGuid="d32b6780-ad78-4c78-9924-70e13267178a" componentID="Audition.Mute" id="clipMute" name="Mute" powered="true">
            <parameter index="0" parameterValue="0"/>
            <parameter index="1" name="mute" parameterValue="0"/>
          </component>
          <component componentGuid="efbabdcb-451d-4200-a4ec-34d4c37354a6" componentID="Audition.StereoPanner" id="clipPan" name="StereoPanner" powered="true">
            <parameter index="0" name="Pan" parameterValue="0"/>
          </component>
          <fadeIn crossFadeLinkType="linkedAsymmetric" endPoint="0" shape="0" startPoint="0" type="cosine"/>
          <fadeOut crossFadeLinkType="linkedAsymmetric" endPoint="24000" shape="19" startPoint="24000" type="log"/>
          <editParameter parameterIndex="0" slotIndex="4294967280"/>
          <editParameter parameterIndex="0" slotIndex="4294967281"/>
          <channelMap>
            <channel index="0" sourceIndex="0"/>
            <channel index="1" sourceIndex="1"/>
          </channelMap>
        </audioClip>
        <audioClip clipAutoCrossfade="true" crossFadeHeadClipID="-1" crossFadeTailClipID="-1" endPoint="336000" fileID="2" hue="-1" id="7" lockedInTime="false" looped="false" name="Bounce_1" offline="false" select="false" sourceInPoint="0" sourceOutPoint="24000" startPoint="312000" zOrder="8">
          <component componentGuid="707c3b04-6380-4cc3-a51c-b659c3f48c23" componentID="Audition.Fader" id="clipGain" name="volume" powered="true">
            <parameter index="0" name="volume" parameterValue="1"/>
            <parameter index="1" name="static gain" parameterValue="1"/>
          </component>
          <component componentGuid="c94166bd-d064-4b73-9793-b4316ab921d4" componentID="Audition.Mute" id="clipMute" name="Mute" powered="true">
            <parameter index="0" parameterValue="0"/>
            <parameter index="1" name="mute" parameterValue="0"/>
          </component>
          <component componentGuid="ac079b1d-6c35-4829-864b-203ddedf4d7a" componentID="Audition.StereoPanner" id="clipPan" name="StereoPanner" powered="true">
            <parameter index="0" name="Pan" parameterValue="0"/>
          </component>
          <fadeIn crossFadeLinkType="linkedAsymmetric" endPoint="0" shape="18" startPoint="0" type="log"/>
          <fadeOut crossFadeLinkType="linkedAsymmetric" endPoint="24000" shape="0" startPoint="24000" type="cosine"/>
          <editParameter parameterIndex="0" slotIndex="4294967280"/>
          <editParameter parameterIndex="0" slotIndex="4294967281"/>
          <channelMap>
            <channel index="0" sourceIndex="0"/>
            <channel index="1" sourceIndex="1"/>
          </channelMap>
        </audioClip>
        <audioClip clipAutoCrossfade="true" crossFadeHeadClipID="-1" crossFadeTailClipID="-1" endPoint="360000" fileID="2" hue="-1" id="8" lockedInTime="false" looped="false" name="Bounce_1" offline="false" select="false" sourceInPoint="0" sourceOutPoint="24000" startPoint="336000" zOrder="7">
          <component componentGuid="72068fcb-bf7b-4cbc-9273-45a698263d1b" componentID="Audition.Fader" id="clipGain" name="volume" powered="true">
            <parameter index="0" name="volume" parameterValue="1"/>
            <parameter index="1" name="static gain" parameterValue="1"/>
          </component>
          <component componentGuid="4265ec0c-5e2d-463a-a9be-fbbea1218012" componentID="Audition.Mute" id="clipMute" name="Mute" powered="true">
            <parameter index="0" parameterValue="0"/>
            <parameter index="1" name="mute" parameterValue="0"/>
          </component>
          <component componentGuid="ad86a7fb-d645-43a1-90e5-aa9c7cbdc5ef" componentID="Audition.StereoPanner" id="clipPan" name="StereoPanner" powered="true">
            <parameter index="0" name="Pan" parameterValue="0"/>
          </component>
          <fadeIn crossFadeLinkType="linkedAsymmetric" endPoint="0" shape="0" startPoint="0" type="cosine"/>
          <fadeOut crossFadeLinkType="linkedAsymmetric" endPoint="24000" shape="19" startPoint="24000" type="log"/>
          <editParameter parameterIndex="0" slotIndex="4294967280"/>
          <editParameter parameterIndex="0" slotIndex="4294967281"/>
          <channelMap>
            <channel index="0" sourceIndex="0"/>
            <channel index="1" sourceIndex="1"/>
          </channelMap>
        </audioClip>
        <audioClip clipAutoCrossfade="true" crossFadeHeadClipID="-1" crossFadeTailClipID="-1" endPoint="432000" fileID="2" hue="-1" id="9" lockedInTime="false" looped="false" name="Bounce_1" offline="false" select="false" sourceInPoint="0" sourceOutPoint="24000" startPoint="408000" zOrder="9">
          <component componentGuid="26e626fa-8b02-4ed4-99fc-bddb90777e9f" componentID="Audition.Fader" id="clipGain" name="volume" powered="true">
            <parameter index="0" name="volume" parameterValue="1"/>
            <parameter index="1" name="static gain" parameterValue="1"/>
          </component>
          <component componentGuid="39e739cd-0d74-481a-a4ff-ffc2c45f51fe" componentID="Audition.Mute" id="clipMute" name="Mute" powered="true">
            <parameter index="0" parameterValue="0"/>
            <parameter index="1" name="mute" parameterValue="0"/>
          </component>
          <component componentGuid="e7e2c689-fc1c-4ce7-bc63-74ade05d9be3" componentID="Audition.StereoPanner" id="clipPan" name="StereoPanner" powered="true">
            <parameter index="0" name="Pan" parameterValue="0"/>
          </component>
          <fadeIn crossFadeLinkType="linkedAsymmetric" endPoint="0" shape="0" startPoint="0" type="cosine"/>
          <fadeOut crossFadeLinkType="linkedAsymmetric" endPoint="24000" shape="0" startPoint="24000" type="cosine"/>
          <editParameter parameterIndex="0" slotIndex="4294967280"/>
          <editParameter parameterIndex="0" slotIndex="4294967281"/>
          <channelMap>
            <channel index="0" sourceIndex="0"/>
            <channel index="1" sourceIndex="1"/>
          </channelMap>
        </audioClip>
        <audioClip clipAutoCrossfade="true" crossFadeHeadClipID="-1" crossFadeTailClipID="-1" endPoint="504000" fileID="2" hue="-1" id="10" lockedInTime="false" looped="false" name="Bounce_1" offline="false" select="false" sourceInPoint="0" sourceOutPoint="24000" startPoint="480000" zOrder="11">
          <component componentGuid="7ddf52e7-ed98-477d-a27d-d39981dc23f3" componentID="Audition.Fader" id="clipGain" name="volume" powered="true">
            <parameter index="0" name="volume" parameterValue="1"/>
            <parameter index="1" name="static gain" parameterValue="1"/>
          </component>
          <component componentGuid="75d1d156-abd0-4cff-9aa0-90ef9ba44726" componentID="Audition.Mute" id="clipMute" name="Mute" powered="true">
            <parameter index="0" parameterValue="0"/>
            <parameter index="1" name="mute" parameterValue="0"/>
          </component>
          <component componentGuid="bdfa4a5b-f730-42a8-b4f9-e52dff9c589c" componentID="Audition.StereoPanner" id="clipPan" name="StereoPanner" powered="true">
            <parameter index="0" name="Pan" parameterValue="0"/>
          </component>
          <fadeIn crossFadeLinkType="linkedAsymmetric" endPoint="0" shape="18" startPoint="0" type="log"/>
          <fadeOut crossFadeLinkType="linkedAsymmetric" endPoint="24000" shape="0" startPoint="24000" type="cosine"/>
          <editParameter parameterIndex="0" slotIndex="4294967280"/>
          <editParameter parameterIndex="0" slotIndex="4294967281"/>
          <channelMap>
            <channel index="0" sourceIndex="0"/>
            <channel index="1" sourceIndex="1"/>
          </channelMap>
        </audioClip>
        <audioClip clipAutoCrossfade="true" crossFadeHeadClipID="-1" crossFadeTailClipID="-1" endPoint="528000" fileID="2" hue="-1" id="11" lockedInTime="false" looped="false" name="Bounce_1" offline="false" select="false" sourceInPoint="0" sourceOutPoint="24000" startPoint="504000" zOrder="10">
          <component componentGuid="be770890-5e59-487c-85f7-40951480e3c7" componentID="Audition.Fader" id="clipGain" name="volume" powered="true">
            <parameter index="0" name="volume" parameterValue="1"/>
            <parameter index="1" name="static gain" parameterValue="1"/>
          </component>
          <component componentGuid="7b96df66-a613-4465-8f40-12f9b1fea48a" componentID="Audition.Mute" id="clipMute" name="Mute" powered="true">
            <parameter index="0" parameterValue="0"/>
            <parameter index="1" name="mute" parameterValue="0"/>
          </component>
          <component componentGuid="2b70cd9f-c771-4e93-9e56-1c54ca0afa54" componentID="Audition.StereoPanner" id="clipPan" name="StereoPanner" powered="true">
            <parameter index="0" name="Pan" parameterValue="0"/>
          </component>
          <fadeIn crossFadeLinkType="linkedAsymmetric" endPoint="0" shape="0" startPoint="0" type="cosine"/>
          <fadeOut crossFadeLinkType="linkedAsymmetric" endPoint="24000" shape="19" startPoint="24000" type="log"/>
          <editParameter parameterIndex="0" slotIndex="4294967280"/>
          <editParameter parameterIndex="0" slotIndex="4294967281"/>
          <channelMap>
            <channel index="0" sourceIndex="0"/>
            <channel index="1" sourceIndex="1"/>
          </channelMap>
        </audioClip>
        <audioClip clipAutoCrossfade="true" crossFadeHeadClipID="-1" crossFadeTailClipID="-1" endPoint="552000" fileID="2" hue="-1" id="12" lockedInTime="false" looped="false" name="Bounce_1" offline="false" select="false" sourceInPoint="0" sourceOutPoint="24000" startPoint="528000" zOrder="17">
          <component componentGuid="ccf70508-295f-419e-8597-fb54eb8aa57b" componentID="Audition.Fader" id="clipGain" name="volume" powered="true">
            <parameter index="0" name="volume" parameterValue="1"/>
            <parameter index="1" name="static gain" parameterValue="1"/>
          </component>
          <component componentGuid="b2e01399-5b8d-4cc0-b41d-a6c0e0a36379" componentID="Audition.Mute" id="clipMute" name="Mute" powered="true">
            <parameter index="0" parameterValue="0"/>
            <parameter index="1" name="mute" parameterValue="0"/>
          </component>
          <component componentGuid="b377c3f4-74b2-405c-964c-d21db0f5e570" componentID="Audition.StereoPanner" id="clipPan" name="StereoPanner" powered="true">
            <parameter index="0" name="Pan" parameterValue="0"/>
          </component>
          <fadeIn crossFadeLinkType="linkedAsymmetric" endPoint="0" shape="0" startPoint="0" type="cosine"/>
          <fadeOut crossFadeLinkType="linkedAsymmetric" endPoint="24000" shape="0" startPoint="24000" type="cosine"/>
          <editParameter parameterIndex="0" slotIndex="4294967280"/>
          <editParameter parameterIndex="0" slotIndex="4294967281"/>
          <channelMap>
            <channel index="0" sourceIndex="0"/>
            <channel index="1" sourceIndex="1"/>
          </channelMap>
        </audioClip>
        <audioClip clipAutoCrossfade="true" crossFadeHeadClipID="-1" crossFadeTailClipID="-1" endPoint="624000" fileID="2" hue="-1" id="13" lockedInTime="false" looped="false" name="Bounce_1" offline="false" select="false" sourceInPoint="0" sourceOutPoint="24000" startPoint="600000" zOrder="13">
          <component componentGuid="ebd50c7c-31d3-427a-a150-aa175aae3cf8" componentID="Audition.Fader" id="clipGain" name="volume" powered="true">
            <parameter index="0" name="volume" parameterValue="1"/>
            <parameter index="1" name="static gain" parameterValue="1"/>
          </component>
          <component componentGuid="e0f37a55-a7ab-4063-86c5-a9452d7b5ed1" componentID="Audition.Mute" id="clipMute" name="Mute" powered="true">
            <parameter index="0" parameterValue="0"/>
            <parameter index="1" name="mute" parameterValue="0"/>
          </component>
          <component componentGuid="36c1ad4c-0f2c-4bdc-976e-209b5d5a19de" componentID="Audition.StereoPanner" id="clipPan" name="StereoPanner" powered="true">
            <parameter index="0" name="Pan" parameterValue="0"/>
          </component>
          <fadeIn crossFadeLinkType="linkedAsymmetric" endPoint="0" shape="18" startPoint="0" type="log"/>
          <fadeOut crossFadeLinkType="linkedAsymmetric" endPoint="24000" shape="0" startPoint="24000" type="cosine"/>
          <editParameter parameterIndex="0" slotIndex="4294967280"/>
          <editParameter parameterIndex="0" slotIndex="4294967281"/>
          <channelMap>
            <channel index="0" sourceIndex="0"/>
            <channel index="1" sourceIndex="1"/>
          </channelMap>
        </audioClip>
        <audioClip clipAutoCrossfade="true" crossFadeHeadClipID="-1" crossFadeTailClipID="-1" endPoint="648000" fileID="2" hue="-1" id="14" lockedInTime="false" looped="false" name="Bounce_1" offline="false" select="false" sourceInPoint="0" sourceOutPoint="24000" startPoint="624000" zOrder="12">
          <component componentGuid="ee8797a9-c1b7-412b-be37-4f7204179e6d" componentID="Audition.Fader" id="clipGain" name="volume" powered="true">
            <parameter index="0" name="volume" parameterValue="1"/>
            <parameter index="1" name="static gain" parameterValue="1"/>
          </component>
          <component componentGuid="7a3fe927-758a-4f4e-9b6f-c4f62b7f3947" componentID="Audition.Mute" id="clipMute" name="Mute" powered="true">
            <parameter index="0" parameterValue="0"/>
            <parameter index="1" name="mute" parameterValue="0"/>
          </component>
          <component componentGuid="a09f20e9-aa9e-438f-9bb8-9f9180327522" componentID="Audition.StereoPanner" id="clipPan" name="StereoPanner" powered="true">
            <parameter index="0" name="Pan" parameterValue="0"/>
          </component>
          <fadeIn crossFadeLinkType="linkedAsymmetric" endPoint="0" shape="0" startPoint="0" type="cosine"/>
          <fadeOut crossFadeLinkType="linkedAsymmetric" endPoint="24000" shape="19" startPoint="24000" type="log"/>
          <editParameter parameterIndex="0" slotIndex="4294967280"/>
          <editParameter parameterIndex="0" slotIndex="4294967281"/>
          <channelMap>
            <channel index="0" sourceIndex="0"/>
            <channel index="1" sourceIndex="1"/>
          </channelMap>
        </audioClip>
        <audioClip clipAutoCrossfade="true" crossFadeHeadClipID="-1" crossFadeTailClipID="-1" endPoint="720000" fileID="2" hue="-1" id="15" lockedInTime="false" looped="false" name="Bounce_1" offline="false" select="false" sourceInPoint="0" sourceOutPoint="24000" startPoint="696000" zOrder="16">
          <component componentGuid="7fc63663-e1f0-4476-b6a3-363c5122d793" componentID="Audition.Fader" id="clipGain" name="volume" powered="true">
            <parameter index="0" name="volume" parameterValue="1"/>
            <parameter index="1" name="static gain" parameterValue="1"/>
          </component>
          <component componentGuid="5a6e574c-ee6f-498a-a23a-f29c2b3ab3be" componentID="Audition.Mute" id="clipMute" name="Mute" powered="true">
            <parameter index="0" parameterValue="0"/>
            <parameter index="1" name="mute" parameterValue="0"/>
          </component>
          <component componentGuid="a7d6ea70-3798-4f06-b2c1-ed6f38dde8af" componentID="Audition.StereoPanner" id="clipPan" name="StereoPanner" powered="true">
            <parameter index="0" name="Pan" parameterValue="0"/>
          </component>
          <fadeIn crossFadeLinkType="linkedAsymmetric" endPoint="0" shape="18" startPoint="0" type="log"/>
          <fadeOut crossFadeLinkType="linkedAsymmetric" endPoint="24000" shape="0" startPoint="24000" type="cosine"/>
          <editParameter parameterIndex="0" slotIndex="4294967280"/>
          <editParameter parameterIndex="0" slotIndex="4294967281"/>
          <channelMap>
            <channel index="0" sourceIndex="0"/>
            <channel index="1" sourceIndex="1"/>
          </channelMap>
        </audioClip>
        <audioClip clipAutoCrossfade="true" crossFadeHeadClipID="-1" crossFadeTailClipID="-1" endPoint="744000" fileID="2" hue="-1" id="16" lockedInTime="false" looped="false" name="Bounce_1" offline="false" select="false" sourceInPoint="0" sourceOutPoint="24000" startPoint="720000" zOrder="15">
          <component componentGuid="be75d16c-8285-4ff3-9593-8d4fca04f1e1" componentID="Audition.Fader" id="clipGain" name="volume" powered="true">
            <parameter index="0" name="volume" parameterValue="1"/>
            <parameter index="1" name="static gain" parameterValue="1"/>
          </component>
          <component componentGuid="462506f2-288a-4a80-afc6-4ef7a6eb0c7f" componentID="Audition.Mute" id="clipMute" name="Mute" powered="true">
            <parameter index="0" parameterValue="0"/>
            <parameter index="1" name="mute" parameterValue="0"/>
          </component>
          <component componentGuid="e7f94ae2-230b-4793-bc6a-78c87b92c33e" componentID="Audition.StereoPanner" id="clipPan" name="StereoPanner" powered="true">
            <parameter index="0" name="Pan" parameterValue="0"/>
          </component>
          <fadeIn crossFadeLinkType="linkedAsymmetric" endPoint="0" shape="0" startPoint="0" type="cosine"/>
          <fadeOut crossFadeLinkType="linkedAsymmetric" endPoint="24000" shape="19" startPoint="24000" type="log"/>
          <editParameter parameterIndex="0" slotIndex="4294967280"/>
          <editParameter parameterIndex="0" slotIndex="4294967281"/>
          <channelMap>
            <channel index="0" sourceIndex="0"/>
            <channel index="1" sourceIndex="1"/>
          </channelMap>
        </audioClip>
        <audioClip clipAutoCrossfade="true" crossFadeHeadClipID="-1" crossFadeTailClipID="-1" endPoint="768000" fileID="2" hue="-1" id="17" lockedInTime="false" looped="false" name="Bounce_1" offline="false" select="false" sourceInPoint="0" sourceOutPoint="24000" startPoint="744000" zOrder="14">
          <component componentGuid="47c09458-4d17-4a52-a653-a00e912efc60" componentID="Audition.Fader" id="clipGain" name="volume" powered="true">
            <parameter index="0" name="volume" parameterValue="1"/>
            <parameter index="1" name="static gain" parameterValue="1"/>
          </component>
          <component componentGuid="8823ed2d-4109-450a-b42a-559a055d05dc" componentID="Audition.Mute" id="clipMute" name="Mute" powered="true">
            <parameter index="0" parameterValue="0"/>
            <parameter index="1" name="mute" parameterValue="0"/>
          </component>
          <component componentGuid="b03a0fc4-fd40-4bce-afa8-12158e97f524" componentID="Audition.StereoPanner" id="clipPan" name="StereoPanner" powered="true">
            <parameter index="0" name="Pan" parameterValue="0"/>
          </component>
          <fadeIn crossFadeLinkType="linkedAsymmetric" endPoint="0" shape="0" startPoint="0" type="cosine"/>
          <fadeOut crossFadeLinkType="linkedAsymmetric" endPoint="24000" shape="19" startPoint="24000" type="log"/>
          <editParameter parameterIndex="0" slotIndex="4294967280"/>
          <editParameter parameterIndex="0" slotIndex="4294967281"/>
          <channelMap>
            <channel index="0" sourceIndex="0"/>
            <channel index="1" sourceIndex="1"/>
          </channelMap>
        </audioClip>
        <audioClip clipAutoCrossfade="true" crossFadeHeadClipID="-1" crossFadeTailClipID="-1" endPoint="816000" fileID="2" hue="-1" id="18" lockedInTime="false" looped="false" name="Bounce_1" offline="false" select="false" sourceInPoint="0" sourceOutPoint="24000" startPoint="792000" zOrder="19">
          <component componentGuid="ff2701df-d323-4adf-9473-57341b5c9db4" componentID="Audition.Fader" id="clipGain" name="volume" powered="true">
            <parameter index="0" name="volume" parameterValue="1"/>
            <parameter index="1" name="static gain" parameterValue="1"/>
          </component>
          <component componentGuid="cdbe9eaa-45ac-437b-88de-db7ccad3ba9b" componentID="Audition.Mute" id="clipMute" name="Mute" powered="true">
            <parameter index="0" parameterValue="0"/>
            <parameter index="1" name="mute" parameterValue="0"/>
          </component>
          <component componentGuid="fc8dc619-70d9-4c10-86b2-015ba46a8bb6" componentID="Audition.StereoPanner" id="clipPan" name="StereoPanner" powered="true">
            <parameter index="0" name="Pan" parameterValue="0"/>
          </component>
          <fadeIn crossFadeLinkType="linkedAsymmetric" endPoint="0" shape="18" startPoint="0" type="log"/>
          <fadeOut crossFadeLinkType="linkedAsymmetric" endPoint="24000" shape="0" startPoint="24000" type="cosine"/>
          <editParameter parameterIndex="0" slotIndex="4294967280"/>
          <editParameter parameterIndex="0" slotIndex="4294967281"/>
          <channelMap>
            <channel index="0" sourceIndex="0"/>
            <channel index="1" sourceIndex="1"/>
          </channelMap>
        </audioClip>
        <audioClip clipAutoCrossfade="true" crossFadeHeadClipID="-1" crossFadeTailClipID="-1" endPoint="840000" fileID="2" hue="-1" id="19" lockedInTime="false" looped="false" name="Bounce_1" offline="false" select="false" sourceInPoint="0" sourceOutPoint="24000" startPoint="816000" zOrder="18">
          <component componentGuid="f8041284-a4c1-41cb-ad9c-7a4f9dd9c0c3" componentID="Audition.Fader" id="clipGain" name="volume" powered="true">
            <parameter index="0" name="volume" parameterValue="1"/>
            <parameter index="1" name="static gain" parameterValue="1"/>
          </component>
          <component componentGuid="973468a5-9a31-419a-8ce8-cca407e9e76c" componentID="Audition.Mute" id="clipMute" name="Mute" powered="true">
            <parameter index="0" parameterValue="0"/>
            <parameter index="1" name="mute" parameterValue="0"/>
          </component>
          <component componentGuid="3ee96b2a-9cb3-4d4a-9999-cd260f38ae17" componentID="Audition.StereoPanner" id="clipPan" name="StereoPanner" powered="true">
            <parameter index="0" name="Pan" parameterValue="0"/>
          </component>
          <fadeIn crossFadeLinkType="linkedAsymmetric" endPoint="0" shape="0" startPoint="0" type="cosine"/>
          <fadeOut crossFadeLinkType="linkedAsymmetric" endPoint="24000" shape="19" startPoint="24000" type="log"/>
          <editParameter parameterIndex="0" slotIndex="4294967280"/>
          <editParameter parameterIndex="0" slotIndex="4294967281"/>
          <channelMap>
            <channel index="0" sourceIndex="0"/>
            <channel index="1" sourceIndex="1"/>
          </channelMap>
        </audioClip>
        <audioClip clipAutoCrossfade="true" crossFadeHeadClipID="-1" crossFadeTailClipID="-1" endPoint="936000" fileID="2" hue="-1" id="20" lockedInTime="false" looped="false" name="Bounce_1" offline="false" select="false" sourceInPoint="0" sourceOutPoint="24000" startPoint="912000" zOrder="21">
          <component componentGuid="4236caa7-1110-4fc9-8642-f88984af2542" componentID="Audition.Fader" id="clipGain" name="volume" powered="true">
            <parameter index="0" name="volume" parameterValue="1"/>
            <parameter index="1" name="static gain" parameterValue="1"/>
          </component>
          <component componentGuid="a3946d6b-fd72-4497-949e-5473d5fd01cc" componentID="Audition.Mute" id="clipMute" name="Mute" powered="true">
            <parameter index="0" parameterValue="0"/>
            <parameter index="1" name="mute" parameterValue="0"/>
          </component>
          <component componentGuid="444b128a-1615-423d-aaee-29b4c19d311a" componentID="Audition.StereoPanner" id="clipPan" name="StereoPanner" powered="true">
            <parameter index="0" name="Pan" parameterValue="0"/>
          </component>
          <fadeIn crossFadeLinkType="linkedAsymmetric" endPoint="0" shape="18" startPoint="0" type="log"/>
          <fadeOut crossFadeLinkType="linkedAsymmetric" endPoint="24000" shape="0" startPoint="24000" type="cosine"/>
          <editParameter parameterIndex="0" slotIndex="4294967280"/>
          <editParameter parameterIndex="0" slotIndex="4294967281"/>
          <channelMap>
            <channel index="0" sourceIndex="0"/>
            <channel index="1" sourceIndex="1"/>
          </channelMap>
        </audioClip>
        <audioClip clipAutoCrossfade="true" crossFadeHeadClipID="-1" crossFadeTailClipID="-1" endPoint="960000" fileID="2" hue="-1" id="21" lockedInTime="false" looped="false" name="Bounce_1" offline="false" select="true" sourceInPoint="0" sourceOutPoint="24000" startPoint="936000" zOrder="20">
          <component componentGuid="79463313-a56f-49d6-be06-eb0f3941738c" componentID="Audition.Fader" id="clipGain" name="volume" powered="true">
            <parameter index="0" name="volume" parameterValue="1"/>
            <parameter index="1" name="static gain" parameterValue="1"/>
          </component>
          <component componentGuid="11ee7123-06de-43d8-bf89-0cfdc45d877e" componentID="Audition.Mute" id="clipMute" name="Mute" powered="true">
            <parameter index="0" parameterValue="0"/>
            <parameter index="1" name="mute" parameterValue="0"/>
          </component>
          <component componentGuid="ba9a77d6-915d-46ed-92d7-27b66236b1e2" componentID="Audition.StereoPanner" id="clipPan" name="StereoPanner" powered="true">
            <parameter index="0" name="Pan" parameterValue="0"/>
          </component>
          <fadeIn crossFadeLinkType="linkedAsymmetric" endPoint="0" shape="0" startPoint="0" type="cosine"/>
          <fadeOut crossFadeLinkType="linkedAsymmetric" endPoint="24000" shape="19" startPoint="24000" type="log"/>
          <editParameter parameterIndex="0" slotIndex="4294967280"/>
          <editParameter parameterIndex="0" slotIndex="4294967281"/>
          <channelMap>
            <channel index="0" sourceIndex="0"/>
            <channel index="1" sourceIndex="1"/>
          </channelMap>
        </audioClip>
      </audioTrack>
      <audioTrack automationLaneOpenState="false" id="10013" index="4" select="false" visible="true">
        <trackParameters trackHeight="93" trackHue="-1" trackMinimized="false">
          <name>Bounce_1 1</name>
        </trackParameters>
        <trackAudioParameters audioChannelType="stereo" automationMode="1" monitoring="false" recordArmed="false" solo="false" soloSafe="false">
          <trackOutput outputID="10000" type="trackID"/>
          <trackInput inputID="1"/>
          <component componentGuid="07032a74-fdfd-4df8-b9bb-0b0c75105188" componentID="Audition.Fader" id="trackFader" name="volume" powered="true">
            <parameter index="0" name="volume" parameterValue="0.7079458"/>
            <parameter index="1" name="static gain" parameterValue="1"/>
          </component>
          <component componentGuid="c5129146-d688-463f-8a12-fe4f656c0dfa" componentID="Audition.Mute" id="trackMute" name="Mute" powered="true">
            <parameter index="0" parameterValue="0"/>
            <parameter index="1" name="mute" parameterValue="0"/>
          </component>
          <component componentGuid="4ac5c6ab-dc6f-49f5-99d3-ee317f4c85e4" componentID="Audition.StereoPanner" id="trackPan" name="StereoPanner" powered="true">
            <parameter index="0" name="Pan" parameterValue="0"/>
          </component>
          <component componentGuid="f5dab994-2213-42d7-aac6-c832790d046e" componentID="Audition.EQ" id="trackEQ" name="EQ" powered="false">
            <parameter index="0" name="Low Shelf Frequency" parameterValue="0.000834"/>
            <parameter index="1" name="Low Shelf Gain" parameterValue="0.5"/>
            <parameter index="2" name="High Shelf Frequency" parameterValue="0.7497915"/>
            <parameter index="3" name="High Shelf Gain" parameterValue="0.5"/>
            <parameter index="4" name="EQ Band 1 Center Frequency" parameterValue="0.001251"/>
            <parameter index="5" name="EQ Band 1 Q" parameterValue="0.0002"/>
            <parameter index="6" name="EQ Band 1 Gain" parameterValue="0.5"/>
            <parameter index="7" name="EQ Band 1 Enable" parameterValue="1"/>
            <parameter index="8" name="EQ Band 2 Center Frequency" parameterValue="0.0075063"/>
            <parameter index="9" name="EQ Band 2 Q" parameterValue="0.0002"/>
            <parameter index="10" name="EQ Band 2 Gain" parameterValue="0.5"/>
            <parameter index="11" name="EQ Band 2 Enable" parameterValue="1"/>
            <parameter index="12" name="EQ Band 3 Center Frequency" parameterValue="0.0325271"/>
            <parameter index="13" name="EQ Band 3 Q" parameterValue="0.0002"/>
            <parameter index="14" name="EQ Band 3 Gain" parameterValue="0.5"/>
            <parameter index="15" name="EQ Band 3 Enable" parameterValue="1"/>
            <parameter index="16" name="EQ Band 4 Center Frequency" parameterValue="0.1326105"/>
            <parameter index="17" name="EQ Band 4 Q" parameterValue="0.0002"/>
            <parameter index="18" name="EQ Band 4 Gain" parameterValue="0.5"/>
            <parameter index="19" name="EQ Band 4 Enable" parameterValue="1"/>
            <parameter index="20" name="EQ Band 5 Center Frequency" parameterValue="0.5329441"/>
            <parameter index="21" name="EQ Band 5 Q" parameterValue="0.0002"/>
            <parameter index="22" name="EQ Band 5 Gain" parameterValue="0.5"/>
            <parameter index="23" name="EQ Band 5 Enable" parameterValue="1"/>
            <parameter index="24" name="Master Gain" parameterValue="0.6666667"/>
            <parameter index="25" name="ConstantQ" parameterValue="1"/>
            <parameter index="26" name="Low Shelf Filter Order" parameterValue="0"/>
            <parameter index="27" name="High Shelf Filter Order" parameterValue="0"/>
            <parameter index="28" name="Ultra-Quiet Mode" parameterValue="0"/>
            <parameter index="29" name="Low Shelf Enable" parameterValue="1"/>
            <parameter index="30" name="High Shelf Enable" parameterValue="1"/>
            <parameter index="31" name="Original Sample Rate" parameterValue="0.25"/>
            <parameter index="32" name="EQ Band 1 Bandwidth" parameterValue="0.0025"/>
            <parameter index="33" name="EQ Band 2 Bandwidth" parameterValue="0.01"/>
            <parameter index="34" name="EQ Band 3 Bandwidth" parameterValue="0.04"/>
            <parameter index="35" name="EQ Band 4 Bandwidth" parameterValue="0.16"/>
            <parameter index="36" name="EQ Band 5 Bandwidth" parameterValue="0.64"/>
            <parameter index="37" name="High-Pass Filter Enable" parameterValue="0"/>
            <parameter index="38" name="High-Pass Cutoff Frequency" parameterValue="0"/>
            <parameter index="39" name="High-Pass Slope" parameterValue="0.4"/>
            <parameter index="40" name="Low-Pass Filter Enable" parameterValue="0"/>
            <parameter index="41" name="Low-Pass Cutoff Frequency" parameterValue="0.8331943"/>
            <parameter index="42" name="Low-Pass Slope" parameterValue="0.4"/>
            <parameter index="43" name="Bypass" parameterValue="0"/>
            <parameter index="44" name="LowGraphRange" parameterValue="1"/>
          </component>
        </trackAudioParameters>
        <effectsRack preFader="true">
          <component componentGuid="15a09718-35f9-4c72-8410-8ba59ca8cefb" id="rackMix" powered="true">
            <parameter index="0" parameterValue="0"/>
            <parameter index="1" parameterValue="0"/>
          </component>
          <component componentGuid="fd912c39-f52a-426e-9a23-739b92cb83db" id="rackInput" powered="true">
            <parameter index="0" parameterValue="1"/>
            <parameter index="1" parameterValue="0"/>
          </component>
          <component componentGuid="56fec71d-e28a-4330-96b4-da76f31b8f69" id="rackOutput" powered="true">
            <parameter index="0" parameterValue="1"/>
            <parameter index="1" parameterValue="0"/>
          </component>
          <slot powered="true" slotIndex="0">
            <component componentGuid="e2feb6b6-3e57-42d9-a13d-4196c6409449" componentID="4f327230-f04c-4c34-9ea5-a998b4459221" editorHeight="505" editorLeft="670" editorTop="268" editorWidth="580" name="FFT Filter">
              <channelMap direction="input">
                <channel index="0" sourceIndex="0"/>
                <channel index="1" sourceIndex="1"/>
              </channelMap>
              <channelMap direction="output">
                <channel index="0" sourceIndex="0"/>
                <channel index="1" sourceIndex="1"/>
              </channelMap>
              <presetChunkData><![CDATA[AIA7RwAAAAD+Qqw9AADAPgAAAAAOdFo6AACAPwAAAAAAAIA/AADgQNOmWjoAAAAAflyeOx01rj54qVg9u1B0P12XGj4R8H4/+Eb4PgAAgD8VP3w/AACAPwAAgD8AAEA/]]></presetChunkData>
            </component>
          </slot>
          <slot powered="true" slotIndex="1">
            <component componentGuid="18ad92ad-295a-4b00-bea1-00f79ba339e6" componentID="164b4e8a-7105-406b-b23b-1ef2cc4d8957" editorHeight="439" editorLeft="705" editorTop="301" editorWidth="511" name="Pitch Shifter">
              <channelMap direction="input">
                <channel index="0" sourceIndex="0"/>
                <channel index="1" sourceIndex="1"/>
              </channelMap>
              <channelMap direction="output">
                <channel index="0" sourceIndex="0"/>
                <channel index="1" sourceIndex="1"/>
              </channelMap>
              <parameter index="0" name="Transpose Ratio" parameterValue="0"/>
              <parameter index="1" name="Precision" parameterValue="1"/>
              <parameter index="2" name="Frequency" parameterValue="0.1081536"/>
              <parameter index="3" name="Overlapping" parameterValue="0.6791464"/>
              <parameter index="4" name="Use Default Setting" parameterValue="0.75"/>
            </component>
          </slot>
          <slot powered="true" slotIndex="2">
            <component componentGuid="0ad4de40-7bde-4adc-bbb5-583f09b03011" componentID="9b66ab13-4d1b-469a-88c6-b807fcf1df16" editorHeight="551" editorLeft="606" editorTop="245" editorWidth="708" name="Distortion">
              <channelMap direction="input">
                <channel index="0" sourceIndex="0"/>
                <channel index="1" sourceIndex="1"/>
              </channelMap>
              <channelMap direction="output">
                <channel index="0" sourceIndex="0"/>
                <channel index="1" sourceIndex="1"/>
              </channelMap>
              <presetChunkData><![CDATA[BSBuYWZldFMHAAAAAQAAAAAAAAAAAAAAAAAAAAAAcMIAAQFABgAAAAAAgAAAekOrqthBAIAiQ1VVaUIBgO1CrCr+QqpqoEKqiiNDA+ArQwAAekMAAAAAAACAvwAAAAAAAAAAAAAAAAAAAAAAAAAAAAAAAAAAAAAAAAAAAAAAAAAAAAAAAAAAAAAAAAAAAAAAAAAAAAAAAAAAAAAAAAAAAAAAAAAAAAAAAAAAAAAAAAAAAAAAAAAAAAAAAAAAAAAAAAAAAAAAAAAAAAAAAAAAAAAAAAAAAAAAAAAAAAAAAAAAAAAAAAAAAAAAAAAAAAAAAAAAAAAAAAAAAAAAAAAAAAAAAAAAAAAAAAAAAAAAAAAAAAAAAAAAAAAAAAAAAAAAAAAAAAAAAAAAAAAAAAAAAAAAAAAAAAAAAAAAAAAAAAAAAAAAAAAAAAAAAAAAAAAAAAAAAAAAAAAAAAAAAAAAAAAAAAAAAAAAAAAAAAAAAAAAAAAAAAAAAAAAAAAAAAAAAAAAAAAAAAAAAAAAAAAAAAAAAAAAAAAAAAAAAAAAAAAAAAAAAAAAAAAAAAAAAAAAAAAAAAAAAAAAAAAAAAAAAAAAAAAAAAAAAAAAAAAAAAAAAAAAAAAAAAAAAAAAAAAAAAAAAAAAAAAAAAAAAAAAAAAAAAAAAAAAAAAAAAAAAAAAAAAAAAAAAAAAAAAAAAAAAAAAAAAAAAAAAAAAAAAAAAAAAAAAAAAAAAAAAAAAAAAAAAAAAAAAAAAAAAAAAAAAAAAAAAAAAAAAAAAAAAAAAAAAAAAAAAAAAAAAAAAAAAAAAAAAAAAAAAAAAAAAAAAAAAAAAAAAAAAAAAAAAAAAAAAAAAAAAAAAAAAAAAAAAAAAAAAAAAAAAAAAAAAAAAAAAAAAAAAAAAAAAAAAAAAAAAAAAAAAAAAAAAAAAAAAAAAAAAAAAAAAAAAAAAAAAAAAAAAAAAAAAAAAAAAAAAAAAAAAAAAAAAAAAAAAAAAAAAAAAAAAAAAAAAAAAAAAAAAAAAAAAAAAAAAAAAAAAAAAAAAAAAAAAAAAAAAAAAAAAAAAAAAAAAAAAAAAAAAAAAAAAAAAAAAAAAAAAAAAAAAAAAAAAAAAAAAAAACAAAB6QwAAyEGrijxDq6pYQlaV1kKqKgFDVFVQQq7qRUP+f1RCAAB6QwAAAAAAAIC/AAAAAAAAAAAAAAAAAAAAAAAAAAAAAAAAAAAAAAAAAAAAAAAAAAAAAAAAAAAAAAAAAAAAAAAAAAAAAAAAAAAAAAAAAAAAAAAAAAAAAAAAAAAAAAAAAAAAAAAAAAAAAAAAAAAAAAAAAAAAAAAAAAAAAAAAAAAAAAAAAAAAAAAAAAAAAAAAAAAAAAAAAAAAAAAAAAAAAAAAAAAAAAAAAAAAAAAAAAAAAAAAAAAAAAAAAAAAAAAAAAAAAAAAAAAAAAAAAAAAAAAAAAAAAAAAAAAAAAAAAAAAAAAAAAAAAAAAAAAAAAAAAAAAAAAAAAAAAAAAAAAAAAAAAAAAAAAAAAAAAAAAAAAAAAAAAAAAAAAAAAAAAAAAAAAAAAAAAAAAAAAAAAAAAAAAAAAAAAAAAAAAAAAAAAAAAAAAAAAAAAAAAAAAAAAAAAAAAAAAAAAAAAAAAAAAAAAAAAAAAAAAAAAAAAAAAAAAAAAAAAAAAAAAAAAAAAAAAAAAAAAAAAAAAAAAAAAAAAAAAAAAAAAAAAAAAAAAAAAAAAAAAAAAAAAAAAAAAAAAAAAAAAAAAAAAAAAAAAAAAAAAAAAAAAAAAAAAAAAAAAAAAAAAAAAAAAAAAAAAAAAAAAAAAAAAAAAAAAAAAAAAAAAAAAAAAAAAAAAAAAAAAAAAAAAAAAAAAAAAAAAAAAAAAAAAAAAAAAAAAAAAAAAAAAAAAAAAAAAAAAAAAAAAAAAAAAAAAAAAAAAAAAAAAAAAAAAAAAAAAAAAAAAAAAAAAAAAAAAAAAAAAAAAAAAAAAAAAAAAAAAAAAAAAAAAAAAAAAAAAAAAAAAAAAAAAAAAAAAAAAAAAAAAAAAAAAAAAAAAAAAAAAAAAAAAAAAAAAAAAAAAAAAAAAAAAAAAAAAAAAAAAAAAAAAAAAAAAAAAAAAAAAAAAAAAAAAAAAAAAAAAAAAAAAAAAAAAAAAAAAAAAAAAAAAAAAAAAAAAAAAAAAAAAAAAAAAAAA==]]></presetChunkData>
            </component>
          </slot>
        </effectsRack>
        <editParameter parameterIndex="0" slotIndex="4294967280"/>
        <audioClip clipAutoCrossfade="true" crossFadeHeadClipID="-1" crossFadeTailClipID="-1" endPoint="48000" fileID="2" hue="-1" id="0" lockedInTime="false" looped="false" name="Bounce_1" offline="false" select="false" sourceInPoint="0" sourceOutPoint="24000" startPoint="24000" zOrder="0">
          <component componentGuid="5b06f4c1-75cd-4f0f-a6e2-85a74b0818a9" componentID="Audition.Fader" id="clipGain" name="volume" powered="true">
            <parameter index="0" name="volume" parameterValue="1"/>
            <parameter index="1" name="static gain" parameterValue="1"/>
          </component>
          <component componentGuid="6ba353cc-1782-4e16-8291-89ca04496fc6" componentID="Audition.Mute" id="clipMute" name="Mute" powered="true">
            <parameter index="0" parameterValue="0"/>
            <parameter index="1" name="mute" parameterValue="0"/>
          </component>
          <component componentGuid="da11fde6-1032-43d3-a352-ae2b65fd8f26" componentID="Audition.StereoPanner" id="clipPan" name="StereoPanner" powered="true">
            <parameter index="0" name="Pan" parameterValue="0"/>
          </component>
          <fadeIn crossFadeLinkType="linkedAsymmetric" endPoint="0" shape="0" startPoint="0" type="cosine"/>
          <fadeOut crossFadeLinkType="linkedAsymmetric" endPoint="24000" shape="0" startPoint="24000" type="cosine"/>
          <editParameter parameterIndex="0" slotIndex="4294967280"/>
          <editParameter parameterIndex="0" slotIndex="4294967281"/>
          <channelMap>
            <channel index="0" sourceIndex="0"/>
            <channel index="1" sourceIndex="1"/>
          </channelMap>
        </audioClip>
        <audioClip clipAutoCrossfade="true" crossFadeHeadClipID="-1" crossFadeTailClipID="-1" endPoint="72000" fileID="2" hue="-1" id="1" lockedInTime="false" looped="false" name="Bounce_1" offline="false" select="false" sourceInPoint="0" sourceOutPoint="24000" startPoint="48000" zOrder="1">
          <component componentGuid="bf3da85f-cc2f-4ac5-a2cd-76c5789bf730" componentID="Audition.Fader" id="clipGain" name="volume" powered="true">
            <parameter index="0" name="volume" parameterValue="1"/>
            <parameter index="1" name="static gain" parameterValue="1"/>
          </component>
          <component componentGuid="2308ae19-d677-46dc-a4cb-c78ba4e1a0fc" componentID="Audition.Mute" id="clipMute" name="Mute" powered="true">
            <parameter index="0" parameterValue="0"/>
            <parameter index="1" name="mute" parameterValue="0"/>
          </component>
          <component componentGuid="b2b732dd-538c-4e3f-b0f7-5375864f8335" componentID="Audition.StereoPanner" id="clipPan" name="StereoPanner" powered="true">
            <parameter index="0" name="Pan" parameterValue="0"/>
          </component>
          <fadeIn crossFadeLinkType="linkedAsymmetric" endPoint="0" shape="0" startPoint="0" type="cosine"/>
          <fadeOut crossFadeLinkType="linkedAsymmetric" endPoint="24000" shape="0" startPoint="24000" type="cosine"/>
          <editParameter parameterIndex="0" slotIndex="4294967280"/>
          <editParameter parameterIndex="0" slotIndex="4294967281"/>
          <channelMap>
            <channel index="0" sourceIndex="0"/>
            <channel index="1" sourceIndex="1"/>
          </channelMap>
        </audioClip>
        <audioClip clipAutoCrossfade="true" crossFadeHeadClipID="-1" crossFadeTailClipID="-1" endPoint="144000" fileID="2" hue="-1" id="2" lockedInTime="false" looped="false" name="Bounce_1" offline="false" select="false" sourceInPoint="0" sourceOutPoint="24000" startPoint="120000" zOrder="2">
          <component componentGuid="90b023f8-06a7-4a39-bf8d-1462b5f8e7f6" componentID="Audition.Fader" id="clipGain" name="volume" powered="true">
            <parameter index="0" name="volume" parameterValue="1"/>
            <parameter index="1" name="static gain" parameterValue="1"/>
          </component>
          <component componentGuid="b886f91d-0aa7-473a-abe1-e19142dc18a5" componentID="Audition.Mute" id="clipMute" name="Mute" powered="true">
            <parameter index="0" parameterValue="0"/>
            <parameter index="1" name="mute" parameterValue="0"/>
          </component>
          <component componentGuid="32cc50b6-233d-42de-9a53-45ef708f9a7d" componentID="Audition.StereoPanner" id="clipPan" name="StereoPanner" powered="true">
            <parameter index="0" name="Pan" parameterValue="0"/>
          </component>
          <fadeIn crossFadeLinkType="linkedAsymmetric" endPoint="0" shape="18" startPoint="0" type="log"/>
          <fadeOut crossFadeLinkType="linkedAsymmetric" endPoint="24000" shape="0" startPoint="24000" type="cosine"/>
          <editParameter parameterIndex="0" slotIndex="4294967280"/>
          <editParameter parameterIndex="0" slotIndex="4294967281"/>
          <channelMap>
            <channel index="0" sourceIndex="0"/>
            <channel index="1" sourceIndex="1"/>
          </channelMap>
        </audioClip>
        <audioClip clipAutoCrossfade="true" crossFadeHeadClipID="-1" crossFadeTailClipID="-1" endPoint="168000" fileID="2" hue="-1" id="3" lockedInTime="false" looped="false" name="Bounce_1" offline="false" select="false" sourceInPoint="0" sourceOutPoint="24000" startPoint="144000" zOrder="4">
          <component componentGuid="54b8af5e-2596-4389-a1ef-6d5198cf1e91" componentID="Audition.Fader" id="clipGain" name="volume" powered="true">
            <parameter index="0" name="volume" parameterValue="1"/>
            <parameter index="1" name="static gain" parameterValue="1"/>
          </component>
          <component componentGuid="d1e5cb50-668e-49ab-8061-96302687f4cb" componentID="Audition.Mute" id="clipMute" name="Mute" powered="true">
            <parameter index="0" parameterValue="0"/>
            <parameter index="1" name="mute" parameterValue="0"/>
          </component>
          <component componentGuid="c1c0fc17-267b-4826-a1b1-3dda3d052a0b" componentID="Audition.StereoPanner" id="clipPan" name="StereoPanner" powered="true">
            <parameter index="0" name="Pan" parameterValue="0"/>
          </component>
          <fadeIn crossFadeLinkType="linkedAsymmetric" endPoint="0" shape="0" startPoint="0" type="cosine"/>
          <fadeOut crossFadeLinkType="linkedAsymmetric" endPoint="24000" shape="19" startPoint="24000" type="log"/>
          <editParameter parameterIndex="0" slotIndex="4294967280"/>
          <editParameter parameterIndex="0" slotIndex="4294967281"/>
          <channelMap>
            <channel index="0" sourceIndex="0"/>
            <channel index="1" sourceIndex="1"/>
          </channelMap>
        </audioClip>
        <audioClip clipAutoCrossfade="true" crossFadeHeadClipID="-1" crossFadeTailClipID="-1" endPoint="192000" fileID="2" hue="-1" id="4" lockedInTime="false" looped="false" name="Bounce_1" offline="false" select="false" sourceInPoint="0" sourceOutPoint="24000" startPoint="168000" zOrder="3">
          <component componentGuid="e4b1b8ec-e3fd-4635-848d-fc1dd3a7c062" componentID="Audition.Fader" id="clipGain" name="volume" powered="true">
            <parameter index="0" name="volume" parameterValue="1"/>
            <parameter index="1" name="static gain" parameterValue="1"/>
          </component>
          <component componentGuid="2dbe82c5-2836-4933-8d1d-0b07db0b48cc" componentID="Audition.Mute" id="clipMute" name="Mute" powered="true">
            <parameter index="0" parameterValue="0"/>
            <parameter index="1" name="mute" parameterValue="0"/>
          </component>
          <component componentGuid="a9dc2822-01d6-4ada-9604-9496f62af5d1" componentID="Audition.StereoPanner" id="clipPan" name="StereoPanner" powered="true">
            <parameter index="0" name="Pan" parameterValue="0"/>
          </component>
          <fadeIn crossFadeLinkType="linkedAsymmetric" endPoint="0" shape="0" startPoint="0" type="cosine"/>
          <fadeOut crossFadeLinkType="linkedAsymmetric" endPoint="24000" shape="19" startPoint="24000" type="log"/>
          <editParameter parameterIndex="0" slotIndex="4294967280"/>
          <editParameter parameterIndex="0" slotIndex="4294967281"/>
          <channelMap>
            <channel index="0" sourceIndex="0"/>
            <channel index="1" sourceIndex="1"/>
          </channelMap>
        </audioClip>
        <audioClip clipAutoCrossfade="true" crossFadeHeadClipID="-1" crossFadeTailClipID="-1" endPoint="240000" fileID="2" hue="-1" id="5" lockedInTime="false" looped="false" name="Bounce_1" offline="false" select="false" sourceInPoint="0" sourceOutPoint="24000" startPoint="216000" zOrder="5">
          <component componentGuid="69d98a9e-6b4a-4736-8313-647566e8182d" componentID="Audition.Fader" id="clipGain" name="volume" powered="true">
            <parameter index="0" name="volume" parameterValue="1"/>
            <parameter index="1" name="static gain" parameterValue="1"/>
          </component>
          <component componentGuid="49bad485-5a89-44b0-86bf-f62f77b1da74" componentID="Audition.Mute" id="clipMute" name="Mute" powered="true">
            <parameter index="0" parameterValue="0"/>
            <parameter index="1" name="mute" parameterValue="0"/>
          </component>
          <component componentGuid="35e45df3-68ad-482b-99b3-710980c56d89" componentID="Audition.StereoPanner" id="clipPan" name="StereoPanner" powered="true">
            <parameter index="0" name="Pan" parameterValue="0"/>
          </component>
          <fadeIn crossFadeLinkType="linkedAsymmetric" endPoint="0" shape="18" startPoint="0" type="log"/>
          <fadeOut crossFadeLinkType="linkedAsymmetric" endPoint="24000" shape="0" startPoint="24000" type="cosine"/>
          <editParameter parameterIndex="0" slotIndex="4294967280"/>
          <editParameter parameterIndex="0" slotIndex="4294967281"/>
          <channelMap>
            <channel index="0" sourceIndex="0"/>
            <channel index="1" sourceIndex="1"/>
          </channelMap>
        </audioClip>
        <audioClip clipAutoCrossfade="true" crossFadeHeadClipID="-1" crossFadeTailClipID="-1" endPoint="312000" fileID="2" hue="-1" id="6" lockedInTime="false" looped="false" name="Bounce_1" offline="false" select="false" sourceInPoint="0" sourceOutPoint="24000" startPoint="288000" zOrder="6">
          <component componentGuid="e28d53f0-d9ea-4420-9b2b-077386af07a2" componentID="Audition.Fader" id="clipGain" name="volume" powered="true">
            <parameter index="0" name="volume" parameterValue="1"/>
            <parameter index="1" name="static gain" parameterValue="1"/>
          </component>
          <component componentGuid="4aec3e16-e501-407c-bd20-1c193bd4b448" componentID="Audition.Mute" id="clipMute" name="Mute" powered="true">
            <parameter index="0" parameterValue="0"/>
            <parameter index="1" name="mute" parameterValue="0"/>
          </component>
          <component componentGuid="1c62af7d-1a5e-460d-9388-0d0d7d2c5286" componentID="Audition.StereoPanner" id="clipPan" name="StereoPanner" powered="true">
            <parameter index="0" name="Pan" parameterValue="0"/>
          </component>
          <fadeIn crossFadeLinkType="linkedAsymmetric" endPoint="0" shape="0" startPoint="0" type="cosine"/>
          <fadeOut crossFadeLinkType="linkedAsymmetric" endPoint="24000" shape="19" startPoint="24000" type="log"/>
          <editParameter parameterIndex="0" slotIndex="4294967280"/>
          <editParameter parameterIndex="0" slotIndex="4294967281"/>
          <channelMap>
            <channel index="0" sourceIndex="0"/>
            <channel index="1" sourceIndex="1"/>
          </channelMap>
        </audioClip>
        <audioClip clipAutoCrossfade="true" crossFadeHeadClipID="-1" crossFadeTailClipID="-1" endPoint="336000" fileID="2" hue="-1" id="7" lockedInTime="false" looped="false" name="Bounce_1" offline="false" select="false" sourceInPoint="0" sourceOutPoint="24000" startPoint="312000" zOrder="8">
          <component componentGuid="a97f922f-1fee-48e1-b2f9-f99790e63cee" componentID="Audition.Fader" id="clipGain" name="volume" powered="true">
            <parameter index="0" name="volume" parameterValue="1"/>
            <parameter index="1" name="static gain" parameterValue="1"/>
          </component>
          <component componentGuid="4270e7f9-98bb-4180-b4fb-0b5b79c5323e" componentID="Audition.Mute" id="clipMute" name="Mute" powered="true">
            <parameter index="0" parameterValue="0"/>
            <parameter index="1" name="mute" parameterValue="0"/>
          </component>
          <component componentGuid="d8172810-18a1-40dd-83e2-04932d10439c" componentID="Audition.StereoPanner" id="clipPan" name="StereoPanner" powered="true">
            <parameter index="0" name="Pan" parameterValue="0"/>
          </component>
          <fadeIn crossFadeLinkType="linkedAsymmetric" endPoint="0" shape="18" startPoint="0" type="log"/>
          <fadeOut crossFadeLinkType="linkedAsymmetric" endPoint="24000" shape="0" startPoint="24000" type="cosine"/>
          <editParameter parameterIndex="0" slotIndex="4294967280"/>
          <editParameter parameterIndex="0" slotIndex="4294967281"/>
          <channelMap>
            <channel index="0" sourceIndex="0"/>
            <channel index="1" sourceIndex="1"/>
          </channelMap>
        </audioClip>
        <audioClip clipAutoCrossfade="true" crossFadeHeadClipID="-1" crossFadeTailClipID="-1" endPoint="360000" fileID="2" hue="-1" id="8" lockedInTime="false" looped="false" name="Bounce_1" offline="false" select="false" sourceInPoint="0" sourceOutPoint="24000" startPoint="336000" zOrder="7">
          <component componentGuid="0a90e7ee-9d7d-4bdb-8bc1-36e0673e697c" componentID="Audition.Fader" id="clipGain" name="volume" powered="true">
            <parameter index="0" name="volume" parameterValue="1"/>
            <parameter index="1" name="static gain" parameterValue="1"/>
          </component>
          <component componentGuid="8e1c25b0-00ec-405e-b1ec-9dbaa7341a68" componentID="Audition.Mute" id="clipMute" name="Mute" powered="true">
            <parameter index="0" parameterValue="0"/>
            <parameter index="1" name="mute" parameterValue="0"/>
          </component>
          <component componentGuid="ae0e1165-823c-4572-8dca-1bf4f49febdc" componentID="Audition.StereoPanner" id="clipPan" name="StereoPanner" powered="true">
            <parameter index="0" name="Pan" parameterValue="0"/>
          </component>
          <fadeIn crossFadeLinkType="linkedAsymmetric" endPoint="0" shape="0" startPoint="0" type="cosine"/>
          <fadeOut crossFadeLinkType="linkedAsymmetric" endPoint="24000" shape="19" startPoint="24000" type="log"/>
          <editParameter parameterIndex="0" slotIndex="4294967280"/>
          <editParameter parameterIndex="0" slotIndex="4294967281"/>
          <channelMap>
            <channel index="0" sourceIndex="0"/>
            <channel index="1" sourceIndex="1"/>
          </channelMap>
        </audioClip>
        <audioClip clipAutoCrossfade="true" crossFadeHeadClipID="-1" crossFadeTailClipID="-1" endPoint="432000" fileID="2" hue="-1" id="9" lockedInTime="false" looped="false" name="Bounce_1" offline="false" select="false" sourceInPoint="0" sourceOutPoint="24000" startPoint="408000" zOrder="9">
          <component componentGuid="75440617-2d6e-4bf6-8d45-10795aa91419" componentID="Audition.Fader" id="clipGain" name="volume" powered="true">
            <parameter index="0" name="volume" parameterValue="1"/>
            <parameter index="1" name="static gain" parameterValue="1"/>
          </component>
          <component componentGuid="2b3e9ee0-ea18-4dfe-86c7-6bc23b1200ea" componentID="Audition.Mute" id="clipMute" name="Mute" powered="true">
            <parameter index="0" parameterValue="0"/>
            <parameter index="1" name="mute" parameterValue="0"/>
          </component>
          <component componentGuid="d490f9fe-cb69-4202-941d-13e0f52c5587" componentID="Audition.StereoPanner" id="clipPan" name="StereoPanner" powered="true">
            <parameter index="0" name="Pan" parameterValue="0"/>
          </component>
          <fadeIn crossFadeLinkType="linkedAsymmetric" endPoint="0" shape="0" startPoint="0" type="cosine"/>
          <fadeOut crossFadeLinkType="linkedAsymmetric" endPoint="24000" shape="0" startPoint="24000" type="cosine"/>
          <editParameter parameterIndex="0" slotIndex="4294967280"/>
          <editParameter parameterIndex="0" slotIndex="4294967281"/>
          <channelMap>
            <channel index="0" sourceIndex="0"/>
            <channel index="1" sourceIndex="1"/>
          </channelMap>
        </audioClip>
        <audioClip clipAutoCrossfade="true" crossFadeHeadClipID="-1" crossFadeTailClipID="-1" endPoint="504000" fileID="2" hue="-1" id="10" lockedInTime="false" looped="false" name="Bounce_1" offline="false" select="false" sourceInPoint="0" sourceOutPoint="24000" startPoint="480000" zOrder="11">
          <component componentGuid="6cec7e0f-80a4-489a-ad5c-651c70d88a39" componentID="Audition.Fader" id="clipGain" name="volume" powered="true">
            <parameter index="0" name="volume" parameterValue="1"/>
            <parameter index="1" name="static gain" parameterValue="1"/>
          </component>
          <component componentGuid="b97e53b4-3ac8-4ac1-898e-c151e590d710" componentID="Audition.Mute" id="clipMute" name="Mute" powered="true">
            <parameter index="0" parameterValue="0"/>
            <parameter index="1" name="mute" parameterValue="0"/>
          </component>
          <component componentGuid="d7da8190-a74e-4a87-90ca-dc8743298d99" componentID="Audition.StereoPanner" id="clipPan" name="StereoPanner" powered="true">
            <parameter index="0" name="Pan" parameterValue="0"/>
          </component>
          <fadeIn crossFadeLinkType="linkedAsymmetric" endPoint="0" shape="18" startPoint="0" type="log"/>
          <fadeOut crossFadeLinkType="linkedAsymmetric" endPoint="24000" shape="0" startPoint="24000" type="cosine"/>
          <editParameter parameterIndex="0" slotIndex="4294967280"/>
          <editParameter parameterIndex="0" slotIndex="4294967281"/>
          <channelMap>
            <channel index="0" sourceIndex="0"/>
            <channel index="1" sourceIndex="1"/>
          </channelMap>
        </audioClip>
        <audioClip clipAutoCrossfade="true" crossFadeHeadClipID="-1" crossFadeTailClipID="-1" endPoint="528000" fileID="2" hue="-1" id="11" lockedInTime="false" looped="false" name="Bounce_1" offline="false" select="false" sourceInPoint="0" sourceOutPoint="24000" startPoint="504000" zOrder="10">
          <component componentGuid="80d752d2-0f98-443b-882e-ecdd5684aad8" componentID="Audition.Fader" id="clipGain" name="volume" powered="true">
            <parameter index="0" name="volume" parameterValue="1"/>
            <parameter index="1" name="static gain" parameterValue="1"/>
          </component>
          <component componentGuid="452510be-18ac-489f-96fd-340155091620" componentID="Audition.Mute" id="clipMute" name="Mute" powered="true">
            <parameter index="0" parameterValue="0"/>
            <parameter index="1" name="mute" parameterValue="0"/>
          </component>
          <component componentGuid="8fbc18df-a486-4d0e-b431-f1026358ea97" componentID="Audition.StereoPanner" id="clipPan" name="StereoPanner" powered="true">
            <parameter index="0" name="Pan" parameterValue="0"/>
          </component>
          <fadeIn crossFadeLinkType="linkedAsymmetric" endPoint="0" shape="0" startPoint="0" type="cosine"/>
          <fadeOut crossFadeLinkType="linkedAsymmetric" endPoint="24000" shape="19" startPoint="24000" type="log"/>
          <editParameter parameterIndex="0" slotIndex="4294967280"/>
          <editParameter parameterIndex="0" slotIndex="4294967281"/>
          <channelMap>
            <channel index="0" sourceIndex="0"/>
            <channel index="1" sourceIndex="1"/>
          </channelMap>
        </audioClip>
        <audioClip clipAutoCrossfade="true" crossFadeHeadClipID="-1" crossFadeTailClipID="-1" endPoint="552000" fileID="2" hue="-1" id="12" lockedInTime="false" looped="false" name="Bounce_1" offline="false" select="false" sourceInPoint="0" sourceOutPoint="24000" startPoint="528000" zOrder="17">
          <component componentGuid="13ba2ee6-4f89-408c-b545-098fead1ec08" componentID="Audition.Fader" id="clipGain" name="volume" powered="true">
            <parameter index="0" name="volume" parameterValue="1"/>
            <parameter index="1" name="static gain" parameterValue="1"/>
          </component>
          <component componentGuid="84499897-e72a-43c0-8822-fe6cd08b6511" componentID="Audition.Mute" id="clipMute" name="Mute" powered="true">
            <parameter index="0" parameterValue="0"/>
            <parameter index="1" name="mute" parameterValue="0"/>
          </component>
          <component componentGuid="66b13af5-b0a1-400d-be7b-dec4c0adc130" componentID="Audition.StereoPanner" id="clipPan" name="StereoPanner" powered="true">
            <parameter index="0" name="Pan" parameterValue="0"/>
          </component>
          <fadeIn crossFadeLinkType="linkedAsymmetric" endPoint="0" shape="0" startPoint="0" type="cosine"/>
          <fadeOut crossFadeLinkType="linkedAsymmetric" endPoint="24000" shape="0" startPoint="24000" type="cosine"/>
          <editParameter parameterIndex="0" slotIndex="4294967280"/>
          <editParameter parameterIndex="0" slotIndex="4294967281"/>
          <channelMap>
            <channel index="0" sourceIndex="0"/>
            <channel index="1" sourceIndex="1"/>
          </channelMap>
        </audioClip>
        <audioClip clipAutoCrossfade="true" crossFadeHeadClipID="-1" crossFadeTailClipID="-1" endPoint="624000" fileID="2" hue="-1" id="13" lockedInTime="false" looped="false" name="Bounce_1" offline="false" select="false" sourceInPoint="0" sourceOutPoint="24000" startPoint="600000" zOrder="13">
          <component componentGuid="6ddcb83a-9d51-44a4-87d9-b2322a711a47" componentID="Audition.Fader" id="clipGain" name="volume" powered="true">
            <parameter index="0" name="volume" parameterValue="1"/>
            <parameter index="1" name="static gain" parameterValue="1"/>
          </component>
          <component componentGuid="70be78df-09c7-450b-b0ef-f0b71bce8dd4" componentID="Audition.Mute" id="clipMute" name="Mute" powered="true">
            <parameter index="0" parameterValue="0"/>
            <parameter index="1" name="mute" parameterValue="0"/>
          </component>
          <component componentGuid="cd4dd9fe-e20f-4bf5-b672-5dada6258ddf" componentID="Audition.StereoPanner" id="clipPan" name="StereoPanner" powered="true">
            <parameter index="0" name="Pan" parameterValue="0"/>
          </component>
          <fadeIn crossFadeLinkType="linkedAsymmetric" endPoint="0" shape="18" startPoint="0" type="log"/>
          <fadeOut crossFadeLinkType="linkedAsymmetric" endPoint="24000" shape="0" startPoint="24000" type="cosine"/>
          <editParameter parameterIndex="0" slotIndex="4294967280"/>
          <editParameter parameterIndex="0" slotIndex="4294967281"/>
          <channelMap>
            <channel index="0" sourceIndex="0"/>
            <channel index="1" sourceIndex="1"/>
          </channelMap>
        </audioClip>
        <audioClip clipAutoCrossfade="true" crossFadeHeadClipID="-1" crossFadeTailClipID="-1" endPoint="648000" fileID="2" hue="-1" id="14" lockedInTime="false" looped="false" name="Bounce_1" offline="false" select="false" sourceInPoint="0" sourceOutPoint="24000" startPoint="624000" zOrder="12">
          <component componentGuid="e4de7b06-710a-425b-b0ec-9f808def2d18" componentID="Audition.Fader" id="clipGain" name="volume" powered="true">
            <parameter index="0" name="volume" parameterValue="1"/>
            <parameter index="1" name="static gain" parameterValue="1"/>
          </component>
          <component componentGuid="81ed85b0-d431-4b48-be95-a6cfcd439579" componentID="Audition.Mute" id="clipMute" name="Mute" powered="true">
            <parameter index="0" parameterValue="0"/>
            <parameter index="1" name="mute" parameterValue="0"/>
          </component>
          <component componentGuid="89d0b4af-dde2-42a3-b637-8e28157ae63d" componentID="Audition.StereoPanner" id="clipPan" name="StereoPanner" powered="true">
            <parameter index="0" name="Pan" parameterValue="0"/>
          </component>
          <fadeIn crossFadeLinkType="linkedAsymmetric" endPoint="0" shape="0" startPoint="0" type="cosine"/>
          <fadeOut crossFadeLinkType="linkedAsymmetric" endPoint="24000" shape="19" startPoint="24000" type="log"/>
          <editParameter parameterIndex="0" slotIndex="4294967280"/>
          <editParameter parameterIndex="0" slotIndex="4294967281"/>
          <channelMap>
            <channel index="0" sourceIndex="0"/>
            <channel index="1" sourceIndex="1"/>
          </channelMap>
        </audioClip>
        <audioClip clipAutoCrossfade="true" crossFadeHeadClipID="-1" crossFadeTailClipID="-1" endPoint="720000" fileID="2" hue="-1" id="15" lockedInTime="false" looped="false" name="Bounce_1" offline="false" select="false" sourceInPoint="0" sourceOutPoint="24000" startPoint="696000" zOrder="16">
          <component componentGuid="8e4c58de-b124-4c3d-a6ff-adeaa49d2cee" componentID="Audition.Fader" id="clipGain" name="volume" powered="true">
            <parameter index="0" name="volume" parameterValue="1"/>
            <parameter index="1" name="static gain" parameterValue="1"/>
          </component>
          <component componentGuid="25855a0a-8a7d-42bf-a9b1-a080430e323f" componentID="Audition.Mute" id="clipMute" name="Mute" powered="true">
            <parameter index="0" parameterValue="0"/>
            <parameter index="1" name="mute" parameterValue="0"/>
          </component>
          <component componentGuid="63839bbc-291e-4437-ab01-c176b1e3e3b8" componentID="Audition.StereoPanner" id="clipPan" name="StereoPanner" powered="true">
            <parameter index="0" name="Pan" parameterValue="0"/>
          </component>
          <fadeIn crossFadeLinkType="linkedAsymmetric" endPoint="0" shape="18" startPoint="0" type="log"/>
          <fadeOut crossFadeLinkType="linkedAsymmetric" endPoint="24000" shape="0" startPoint="24000" type="cosine"/>
          <editParameter parameterIndex="0" slotIndex="4294967280"/>
          <editParameter parameterIndex="0" slotIndex="4294967281"/>
          <channelMap>
            <channel index="0" sourceIndex="0"/>
            <channel index="1" sourceIndex="1"/>
          </channelMap>
        </audioClip>
        <audioClip clipAutoCrossfade="true" crossFadeHeadClipID="-1" crossFadeTailClipID="-1" endPoint="744000" fileID="2" hue="-1" id="16" lockedInTime="false" looped="false" name="Bounce_1" offline="false" select="false" sourceInPoint="0" sourceOutPoint="24000" startPoint="720000" zOrder="15">
          <component componentGuid="f02162c2-a495-4db9-b1f0-de782b007e1d" componentID="Audition.Fader" id="clipGain" name="volume" powered="true">
            <parameter index="0" name="volume" parameterValue="1"/>
            <parameter index="1" name="static gain" parameterValue="1"/>
          </component>
          <component componentGuid="339212d9-8ef3-4720-9041-692b5bad46bd" componentID="Audition.Mute" id="clipMute" name="Mute" powered="true">
            <parameter index="0" parameterValue="0"/>
            <parameter index="1" name="mute" parameterValue="0"/>
          </component>
          <component componentGuid="266eb902-3423-411d-94b3-80c29ec22905" componentID="Audition.StereoPanner" id="clipPan" name="StereoPanner" powered="true">
            <parameter index="0" name="Pan" parameterValue="0"/>
          </component>
          <fadeIn crossFadeLinkType="linkedAsymmetric" endPoint="0" shape="0" startPoint="0" type="cosine"/>
          <fadeOut crossFadeLinkType="linkedAsymmetric" endPoint="24000" shape="19" startPoint="24000" type="log"/>
          <editParameter parameterIndex="0" slotIndex="4294967280"/>
          <editParameter parameterIndex="0" slotIndex="4294967281"/>
          <channelMap>
            <channel index="0" sourceIndex="0"/>
            <channel index="1" sourceIndex="1"/>
          </channelMap>
        </audioClip>
        <audioClip clipAutoCrossfade="true" crossFadeHeadClipID="-1" crossFadeTailClipID="-1" endPoint="768000" fileID="2" hue="-1" id="17" lockedInTime="false" looped="false" name="Bounce_1" offline="false" select="false" sourceInPoint="0" sourceOutPoint="24000" startPoint="744000" zOrder="14">
          <component componentGuid="67de03c2-3080-45fb-afad-1c5122c0c042" componentID="Audition.Fader" id="clipGain" name="volume" powered="true">
            <parameter index="0" name="volume" parameterValue="1"/>
            <parameter index="1" name="static gain" parameterValue="1"/>
          </component>
          <component componentGuid="026d7c37-1704-4a72-933a-ef8ed7a9adc6" componentID="Audition.Mute" id="clipMute" name="Mute" powered="true">
            <parameter index="0" parameterValue="0"/>
            <parameter index="1" name="mute" parameterValue="0"/>
          </component>
          <component componentGuid="fe8b4ead-c442-4dff-a54d-c714f54bf340" componentID="Audition.StereoPanner" id="clipPan" name="StereoPanner" powered="true">
            <parameter index="0" name="Pan" parameterValue="0"/>
          </component>
          <fadeIn crossFadeLinkType="linkedAsymmetric" endPoint="0" shape="0" startPoint="0" type="cosine"/>
          <fadeOut crossFadeLinkType="linkedAsymmetric" endPoint="24000" shape="19" startPoint="24000" type="log"/>
          <editParameter parameterIndex="0" slotIndex="4294967280"/>
          <editParameter parameterIndex="0" slotIndex="4294967281"/>
          <channelMap>
            <channel index="0" sourceIndex="0"/>
            <channel index="1" sourceIndex="1"/>
          </channelMap>
        </audioClip>
        <audioClip clipAutoCrossfade="true" crossFadeHeadClipID="-1" crossFadeTailClipID="-1" endPoint="816000" fileID="2" hue="-1" id="18" lockedInTime="false" looped="false" name="Bounce_1" offline="false" select="false" sourceInPoint="0" sourceOutPoint="24000" startPoint="792000" zOrder="19">
          <component componentGuid="513cf713-d66e-4525-a5f8-48b568b0b724" componentID="Audition.Fader" id="clipGain" name="volume" powered="true">
            <parameter index="0" name="volume" parameterValue="1"/>
            <parameter index="1" name="static gain" parameterValue="1"/>
          </component>
          <component componentGuid="f84f6d1a-95e0-4b9c-aea2-fae53a6749d2" componentID="Audition.Mute" id="clipMute" name="Mute" powered="true">
            <parameter index="0" parameterValue="0"/>
            <parameter index="1" name="mute" parameterValue="0"/>
          </component>
          <component componentGuid="2aea5aea-a8ab-4770-b533-c400abd31269" componentID="Audition.StereoPanner" id="clipPan" name="StereoPanner" powered="true">
            <parameter index="0" name="Pan" parameterValue="0"/>
          </component>
          <fadeIn crossFadeLinkType="linkedAsymmetric" endPoint="0" shape="18" startPoint="0" type="log"/>
          <fadeOut crossFadeLinkType="linkedAsymmetric" endPoint="24000" shape="0" startPoint="24000" type="cosine"/>
          <editParameter parameterIndex="0" slotIndex="4294967280"/>
          <editParameter parameterIndex="0" slotIndex="4294967281"/>
          <channelMap>
            <channel index="0" sourceIndex="0"/>
            <channel index="1" sourceIndex="1"/>
          </channelMap>
        </audioClip>
        <audioClip clipAutoCrossfade="true" crossFadeHeadClipID="-1" crossFadeTailClipID="-1" endPoint="840000" fileID="2" hue="-1" id="19" lockedInTime="false" looped="false" name="Bounce_1" offline="false" select="false" sourceInPoint="0" sourceOutPoint="24000" startPoint="816000" zOrder="18">
          <component componentGuid="829b9143-98bd-45a4-ad03-4afb0bf1d751" componentID="Audition.Fader" id="clipGain" name="volume" powered="true">
            <parameter index="0" name="volume" parameterValue="1"/>
            <parameter index="1" name="static gain" parameterValue="1"/>
          </component>
          <component componentGuid="4d14eef3-8569-4f72-88ad-71e59bcc459f" componentID="Audition.Mute" id="clipMute" name="Mute" powered="true">
            <parameter index="0" parameterValue="0"/>
            <parameter index="1" name="mute" parameterValue="0"/>
          </component>
          <component componentGuid="05ac46e3-56ec-424c-ac09-75ec1caa1284" componentID="Audition.StereoPanner" id="clipPan" name="StereoPanner" powered="true">
            <parameter index="0" name="Pan" parameterValue="0"/>
          </component>
          <fadeIn crossFadeLinkType="linkedAsymmetric" endPoint="0" shape="0" startPoint="0" type="cosine"/>
          <fadeOut crossFadeLinkType="linkedAsymmetric" endPoint="24000" shape="19" startPoint="24000" type="log"/>
          <editParameter parameterIndex="0" slotIndex="4294967280"/>
          <editParameter parameterIndex="0" slotIndex="4294967281"/>
          <channelMap>
            <channel index="0" sourceIndex="0"/>
            <channel index="1" sourceIndex="1"/>
          </channelMap>
        </audioClip>
        <audioClip clipAutoCrossfade="true" crossFadeHeadClipID="-1" crossFadeTailClipID="-1" endPoint="936000" fileID="2" hue="-1" id="20" lockedInTime="false" looped="false" name="Bounce_1" offline="false" select="false" sourceInPoint="0" sourceOutPoint="24000" startPoint="912000" zOrder="21">
          <component componentGuid="6c9873eb-82d6-4ccb-9803-1eeb5a07aae7" componentID="Audition.Fader" id="clipGain" name="volume" powered="true">
            <parameter index="0" name="volume" parameterValue="1"/>
            <parameter index="1" name="static gain" parameterValue="1"/>
          </component>
          <component componentGuid="3489b6f9-b424-4443-ab3d-42ae7ae30cfb" componentID="Audition.Mute" id="clipMute" name="Mute" powered="true">
            <parameter index="0" parameterValue="0"/>
            <parameter index="1" name="mute" parameterValue="0"/>
          </component>
          <component componentGuid="3797226f-9f50-4799-bfd5-489b9f385846" componentID="Audition.StereoPanner" id="clipPan" name="StereoPanner" powered="true">
            <parameter index="0" name="Pan" parameterValue="0"/>
          </component>
          <fadeIn crossFadeLinkType="linkedAsymmetric" endPoint="0" shape="18" startPoint="0" type="log"/>
          <fadeOut crossFadeLinkType="linkedAsymmetric" endPoint="24000" shape="0" startPoint="24000" type="cosine"/>
          <editParameter parameterIndex="0" slotIndex="4294967280"/>
          <editParameter parameterIndex="0" slotIndex="4294967281"/>
          <channelMap>
            <channel index="0" sourceIndex="0"/>
            <channel index="1" sourceIndex="1"/>
          </channelMap>
        </audioClip>
        <audioClip clipAutoCrossfade="true" crossFadeHeadClipID="-1" crossFadeTailClipID="-1" endPoint="960000" fileID="2" hue="-1" id="21" lockedInTime="false" looped="false" name="Bounce_1" offline="false" select="true" sourceInPoint="0" sourceOutPoint="24000" startPoint="936000" zOrder="20">
          <component componentGuid="34824bf6-fa75-4faf-a97b-47c9b97b149a" componentID="Audition.Fader" id="clipGain" name="volume" powered="true">
            <parameter index="0" name="volume" parameterValue="1"/>
            <parameter index="1" name="static gain" parameterValue="1"/>
          </component>
          <component componentGuid="38e12c4b-9579-4f52-bcec-c4d659fc8feb" componentID="Audition.Mute" id="clipMute" name="Mute" powered="true">
            <parameter index="0" parameterValue="0"/>
            <parameter index="1" name="mute" parameterValue="0"/>
          </component>
          <component componentGuid="2d705354-a8d9-4019-bd88-e7648d96414d" componentID="Audition.StereoPanner" id="clipPan" name="StereoPanner" powered="true">
            <parameter index="0" name="Pan" parameterValue="0"/>
          </component>
          <fadeIn crossFadeLinkType="linkedAsymmetric" endPoint="0" shape="0" startPoint="0" type="cosine"/>
          <fadeOut crossFadeLinkType="linkedAsymmetric" endPoint="24000" shape="19" startPoint="24000" type="log"/>
          <editParameter parameterIndex="0" slotIndex="4294967280"/>
          <editParameter parameterIndex="0" slotIndex="4294967281"/>
          <channelMap>
            <channel index="0" sourceIndex="0"/>
            <channel index="1" sourceIndex="1"/>
          </channelMap>
        </audioClip>
      </audioTrack>
      <audioTrack automationLaneOpenState="false" id="10015" index="5" select="false" visible="true">
        <trackParameters trackHeight="93" trackHue="-1" trackMinimized="false">
          <name>Bounce_1 1 1</name>
        </trackParameters>
        <trackAudioParameters audioChannelType="stereo" automationMode="1" monitoring="false" recordArmed="false" solo="false" soloSafe="false">
          <trackOutput outputID="10000" type="trackID"/>
          <trackInput inputID="1"/>
          <component componentGuid="86b8f96f-273e-4056-8349-aa494886fa21" componentID="Audition.Fader" id="trackFader" name="volume" powered="true">
            <parameter index="0" name="volume" parameterValue="0.2511886"/>
            <parameter index="1" name="static gain" parameterValue="1"/>
          </component>
          <component componentGuid="1688b00f-124e-4d2b-9b03-2f9f8bf826b1" componentID="Audition.Mute" id="trackMute" name="Mute" powered="true">
            <parameter index="0" parameterValue="0"/>
            <parameter index="1" name="mute" parameterValue="0"/>
          </component>
          <component componentGuid="550377fc-36d8-4e88-bb71-044c4916806e" componentID="Audition.StereoPanner" id="trackPan" name="StereoPanner" powered="true">
            <parameter index="0" name="Pan" parameterValue="0"/>
          </component>
          <component componentGuid="027f61c8-40f9-41d6-a437-6ba5a6432481" componentID="Audition.EQ" id="trackEQ" name="EQ" powered="false">
            <parameter index="0" name="Low Shelf Frequency" parameterValue="0.000834"/>
            <parameter index="1" name="Low Shelf Gain" parameterValue="0.5"/>
            <parameter index="2" name="High Shelf Frequency" parameterValue="0.7497915"/>
            <parameter index="3" name="High Shelf Gain" parameterValue="0.5"/>
            <parameter index="4" name="EQ Band 1 Center Frequency" parameterValue="0.001251"/>
            <parameter index="5" name="EQ Band 1 Q" parameterValue="0.0002"/>
            <parameter index="6" name="EQ Band 1 Gain" parameterValue="0.5"/>
            <parameter index="7" name="EQ Band 1 Enable" parameterValue="1"/>
            <parameter index="8" name="EQ Band 2 Center Frequency" parameterValue="0.0075063"/>
            <parameter index="9" name="EQ Band 2 Q" parameterValue="0.0002"/>
            <parameter index="10" name="EQ Band 2 Gain" parameterValue="0.5"/>
            <parameter index="11" name="EQ Band 2 Enable" parameterValue="1"/>
            <parameter index="12" name="EQ Band 3 Center Frequency" parameterValue="0.0325271"/>
            <parameter index="13" name="EQ Band 3 Q" parameterValue="0.0002"/>
            <parameter index="14" name="EQ Band 3 Gain" parameterValue="0.5"/>
            <parameter index="15" name="EQ Band 3 Enable" parameterValue="1"/>
            <parameter index="16" name="EQ Band 4 Center Frequency" parameterValue="0.1326105"/>
            <parameter index="17" name="EQ Band 4 Q" parameterValue="0.0002"/>
            <parameter index="18" name="EQ Band 4 Gain" parameterValue="0.5"/>
            <parameter index="19" name="EQ Band 4 Enable" parameterValue="1"/>
            <parameter index="20" name="EQ Band 5 Center Frequency" parameterValue="0.5329441"/>
            <parameter index="21" name="EQ Band 5 Q" parameterValue="0.0002"/>
            <parameter index="22" name="EQ Band 5 Gain" parameterValue="0.5"/>
            <parameter index="23" name="EQ Band 5 Enable" parameterValue="1"/>
            <parameter index="24" name="Master Gain" parameterValue="0.6666667"/>
            <parameter index="25" name="ConstantQ" parameterValue="1"/>
            <parameter index="26" name="Low Shelf Filter Order" parameterValue="0"/>
            <parameter index="27" name="High Shelf Filter Order" parameterValue="0"/>
            <parameter index="28" name="Ultra-Quiet Mode" parameterValue="0"/>
            <parameter index="29" name="Low Shelf Enable" parameterValue="1"/>
            <parameter index="30" name="High Shelf Enable" parameterValue="1"/>
            <parameter index="31" name="Original Sample Rate" parameterValue="0.25"/>
            <parameter index="32" name="EQ Band 1 Bandwidth" parameterValue="0.0025"/>
            <parameter index="33" name="EQ Band 2 Bandwidth" parameterValue="0.01"/>
            <parameter index="34" name="EQ Band 3 Bandwidth" parameterValue="0.04"/>
            <parameter index="35" name="EQ Band 4 Bandwidth" parameterValue="0.16"/>
            <parameter index="36" name="EQ Band 5 Bandwidth" parameterValue="0.64"/>
            <parameter index="37" name="High-Pass Filter Enable" parameterValue="0"/>
            <parameter index="38" name="High-Pass Cutoff Frequency" parameterValue="0"/>
            <parameter index="39" name="High-Pass Slope" parameterValue="0.4"/>
            <parameter index="40" name="Low-Pass Filter Enable" parameterValue="0"/>
            <parameter index="41" name="Low-Pass Cutoff Frequency" parameterValue="0.8331943"/>
            <parameter index="42" name="Low-Pass Slope" parameterValue="0.4"/>
            <parameter index="43" name="Bypass" parameterValue="0"/>
            <parameter index="44" name="LowGraphRange" parameterValue="1"/>
          </component>
        </trackAudioParameters>
        <effectsRack preFader="true">
          <component componentGuid="b1ae9a0e-8240-4b4f-8038-c0fe9ab97407" id="rackMix" powered="true">
            <parameter index="0" parameterValue="0"/>
            <parameter index="1" parameterValue="0"/>
          </component>
          <component componentGuid="49a54e5a-4fd2-4ebd-89d6-c316f1557391" id="rackInput" powered="true">
            <parameter index="0" parameterValue="1"/>
            <parameter index="1" parameterValue="0"/>
          </component>
          <component componentGuid="b1b7c741-1589-4332-bf77-c2e19586bba2" id="rackOutput" powered="true">
            <parameter index="0" parameterValue="1"/>
            <parameter index="1" parameterValue="0"/>
          </component>
          <slot powered="true" slotIndex="0">
            <component componentGuid="4b2a6b8a-628f-44c0-8e69-d0ebf5e878f6" componentID="4f327230-f04c-4c34-9ea5-a998b4459221" editorHeight="505" editorLeft="670" editorTop="268" editorWidth="580" name="FFT Filter">
              <channelMap direction="input">
                <channel index="0" sourceIndex="0"/>
                <channel index="1" sourceIndex="1"/>
              </channelMap>
              <channelMap direction="output">
                <channel index="0" sourceIndex="0"/>
                <channel index="1" sourceIndex="1"/>
              </channelMap>
              <presetChunkData><![CDATA[AIA7RwAAAAD+Qqw9AADAPgAAAAAOdFo6AACAPwAAAAAAAIA/AADgQNOmWjoAAAAABLHaOpeSVj9xKzg9+IcAP12XGj4R8H4/+Eb4PgAAgD8VP3w/AACAPwAAgD8AAEA/]]></presetChunkData>
            </component>
          </slot>
          <slot powered="true" slotIndex="1">
            <component componentGuid="31909d8f-7008-41d3-a44c-967df9b0a605" componentID="164b4e8a-7105-406b-b23b-1ef2cc4d8957" editorHeight="439" editorLeft="705" editorTop="301" editorWidth="511" name="Pitch Shifter">
              <channelMap direction="input">
                <channel index="0" sourceIndex="0"/>
                <channel index="1" sourceIndex="1"/>
              </channelMap>
              <channelMap direction="output">
                <channel index="0" sourceIndex="0"/>
                <channel index="1" sourceIndex="1"/>
              </channelMap>
              <parameter index="0" name="Transpose Ratio" parameterValue="0"/>
              <parameter index="1" name="Precision" parameterValue="1"/>
              <parameter index="2" name="Frequency" parameterValue="0.1081536"/>
              <parameter index="3" name="Overlapping" parameterValue="0.6791464"/>
              <parameter index="4" name="Use Default Setting" parameterValue="0.75"/>
            </component>
          </slot>
          <slot powered="true" slotIndex="2">
            <component componentGuid="1ef653e2-05ef-4a2a-b4d7-f42bcef1cbbb" componentID="9b66ab13-4d1b-469a-88c6-b807fcf1df16" editorHeight="551" editorLeft="606" editorTop="245" editorWidth="708" name="Distortion">
              <channelMap direction="input">
                <channel index="0" sourceIndex="0"/>
                <channel index="1" sourceIndex="1"/>
              </channelMap>
              <channelMap direction="output">
                <channel index="0" sourceIndex="0"/>
                <channel index="1" sourceIndex="1"/>
              </channelMap>
              <presetChunkData><![CDATA[BSBuYWZldFMHAAAAAQAAAAAAAAAAAAAAAAAAAAAAcMIAAQFABgAAAAAAgAAAekOtqthBAoAiQ1VVaUIBgO1CrCr+QqpqoEKqiiNDBeArQwAAekMAAAAAAACAvwAAAAAAAAAAAAAAAAAAAAAAAAAAAAAAAAAAAAAAAAAAAAAAAAAAAAAAAAAAAAAAAAAAAAAAAAAAAAAAAAAAAAAAAAAAAAAAAAAAAAAAAAAAAAAAAAAAAAAAAAAAAAAAAAAAAAAAAAAAAAAAAAAAAAAAAAAAAAAAAAAAAAAAAAAAAAAAAAAAAAAAAAAAAAAAAAAAAAAAAAAAAAAAAAAAAAAAAAAAAAAAAAAAAAAAAAAAAAAAAAAAAAAAAAAAAAAAAAAAAAAAAAAAAAAAAAAAAAAAAAAAAAAAAAAAAAAAAAAAAAAAAAAAAAAAAAAAAAAAAAAAAAAAAAAAAAAAAAAAAAAAAAAAAAAAAAAAAAAAAAAAAAAAAAAAAAAAAAAAAAAAAAAAAAAAAAAAAAAAAAAAAAAAAAAAAAAAAAAAAAAAAAAAAAAAAAAAAAAAAAAAAAAAAAAAAAAAAAAAAAAAAAAAAAAAAAAAAAAAAAAAAAAAAAAAAAAAAAAAAAAAAAAAAAAAAAAAAAAAAAAAAAAAAAAAAAAAAAAAAAAAAAAAAAAAAAAAAAAAAAAAAAAAAAAAAAAAAAAAAAAAAAAAAAAAAAAAAAAAAAAAAAAAAAAAAAAAAAAAAAAAAAAAAAAAAAAAAAAAAAAAAAAAAAAAAAAAAAAAAAAAAAAAAAAAAAAAAAAAAAAAAAAAAAAAAAAAAAAAAAAAAAAAAAAAAAAAAAAAAAAAAAAAAAAAAAAAAAAAAAAAAAAAAAAAAAAAAAAAAAAAAAAAAAAAAAAAAAAAAAAAAAAAAAAAAAAAAAAAAAAAAAAAAAAAAAAAAAAAAAAAAAAAAAAAAAAAAAAAAAAAAAAAAAAAAAAAAAAAAAAAAAAAAAAAAAAAAAAAAAAAAAAAAAAAAAAAAAAAAAAAAAAAAAAAAAAAAAAAAAAAAAAAAAAAAAAAAAAAAAAAAAAAAAAAAAAAAAAAAAAAAAAAAAAAAAAAAAAAAAAAAAAAAAAAAAAAAAAAAACAAAB6QwAAFkEAoD5DrapYQlaV1kKqKgFDVFVQQrDqRUP+f1RCAAB6QwAAAAAAAIC/AAAAAAAAAAAAAAAAAAAAAAAAAAAAAAAAAAAAAAAAAAAAAAAAAAAAAAAAAAAAAAAAAAAAAAAAAAAAAAAAAAAAAAAAAAAAAAAAAAAAAAAAAAAAAAAAAAAAAAAAAAAAAAAAAAAAAAAAAAAAAAAAAAAAAAAAAAAAAAAAAAAAAAAAAAAAAAAAAAAAAAAAAAAAAAAAAAAAAAAAAAAAAAAAAAAAAAAAAAAAAAAAAAAAAAAAAAAAAAAAAAAAAAAAAAAAAAAAAAAAAAAAAAAAAAAAAAAAAAAAAAAAAAAAAAAAAAAAAAAAAAAAAAAAAAAAAAAAAAAAAAAAAAAAAAAAAAAAAAAAAAAAAAAAAAAAAAAAAAAAAAAAAAAAAAAAAAAAAAAAAAAAAAAAAAAAAAAAAAAAAAAAAAAAAAAAAAAAAAAAAAAAAAAAAAAAAAAAAAAAAAAAAAAAAAAAAAAAAAAAAAAAAAAAAAAAAAAAAAAAAAAAAAAAAAAAAAAAAAAAAAAAAAAAAAAAAAAAAAAAAAAAAAAAAAAAAAAAAAAAAAAAAAAAAAAAAAAAAAAAAAAAAAAAAAAAAAAAAAAAAAAAAAAAAAAAAAAAAAAAAAAAAAAAAAAAAAAAAAAAAAAAAAAAAAAAAAAAAAAAAAAAAAAAAAAAAAAAAAAAAAAAAAAAAAAAAAAAAAAAAAAAAAAAAAAAAAAAAAAAAAAAAAAAAAAAAAAAAAAAAAAAAAAAAAAAAAAAAAAAAAAAAAAAAAAAAAAAAAAAAAAAAAAAAAAAAAAAAAAAAAAAAAAAAAAAAAAAAAAAAAAAAAAAAAAAAAAAAAAAAAAAAAAAAAAAAAAAAAAAAAAAAAAAAAAAAAAAAAAAAAAAAAAAAAAAAAAAAAAAAAAAAAAAAAAAAAAAAAAAAAAAAAAAAAAAAAAAAAAAAAAAAAAAAAAAAAAAAAAAAAAAAAAAAAAAAAAAAAAAAAAAAAAAAAAAAAAAAAAAAAAAAAAAAAAAAAAAAA==]]></presetChunkData>
            </component>
          </slot>
        </effectsRack>
        <editParameter parameterIndex="0" slotIndex="4294967280"/>
        <audioClip clipAutoCrossfade="true" crossFadeHeadClipID="-1" crossFadeTailClipID="-1" endPoint="48000" fileID="2" hue="-1" id="0" lockedInTime="false" looped="false" name="Bounce_1" offline="false" select="false" sourceInPoint="0" sourceOutPoint="24000" startPoint="24000" zOrder="0">
          <component componentGuid="7f821c24-c7ce-432e-9a77-c062fc052416" componentID="Audition.Fader" id="clipGain" name="volume" powered="true">
            <parameter index="0" name="volume" parameterValue="1"/>
            <parameter index="1" name="static gain" parameterValue="1"/>
          </component>
          <component componentGuid="880fc3c8-d418-478f-941d-760b5039b557" componentID="Audition.Mute" id="clipMute" name="Mute" powered="true">
            <parameter index="0" parameterValue="0"/>
            <parameter index="1" name="mute" parameterValue="0"/>
          </component>
          <component componentGuid="59271a47-e0d8-44a2-a611-34048f6534b4" componentID="Audition.StereoPanner" id="clipPan" name="StereoPanner" powered="true">
            <parameter index="0" name="Pan" parameterValue="0"/>
          </component>
          <fadeIn crossFadeLinkType="linkedAsymmetric" endPoint="0" shape="0" startPoint="0" type="cosine"/>
          <fadeOut crossFadeLinkType="linkedAsymmetric" endPoint="24000" shape="0" startPoint="24000" type="cosine"/>
          <clipStretch adaptiveWindowSize="37" pitchAdjustment="0" preserveFormants="true" stretchMode="realtime" stretchQuality="high" stretchRatio="8" stretchType="solo" transientSensitivity="40"/>
          <editParameter parameterIndex="0" slotIndex="4294967280"/>
          <editParameter parameterIndex="0" slotIndex="4294967281"/>
          <channelMap>
            <channel index="0" sourceIndex="0"/>
            <channel index="1" sourceIndex="1"/>
          </channelMap>
        </audioClip>
        <audioClip clipAutoCrossfade="true" crossFadeHeadClipID="-1" crossFadeTailClipID="-1" endPoint="72000" fileID="2" hue="-1" id="1" lockedInTime="false" looped="false" name="Bounce_1" offline="false" select="false" sourceInPoint="0" sourceOutPoint="24000" startPoint="48000" zOrder="1">
          <component componentGuid="7b9d70d4-ba1d-481e-9b8e-af35cfd7c6af" componentID="Audition.Fader" id="clipGain" name="volume" powered="true">
            <parameter index="0" name="volume" parameterValue="1"/>
            <parameter index="1" name="static gain" parameterValue="1"/>
          </component>
          <component componentGuid="f3587ba7-2ce8-4851-b965-b5dae671dd25" componentID="Audition.Mute" id="clipMute" name="Mute" powered="true">
            <parameter index="0" parameterValue="0"/>
            <parameter index="1" name="mute" parameterValue="0"/>
          </component>
          <component componentGuid="06a07e10-92c0-4ee4-816d-15a8d8875646" componentID="Audition.StereoPanner" id="clipPan" name="StereoPanner" powered="true">
            <parameter index="0" name="Pan" parameterValue="0"/>
          </component>
          <fadeIn crossFadeLinkType="linkedAsymmetric" endPoint="0" shape="0" startPoint="0" type="cosine"/>
          <fadeOut crossFadeLinkType="linkedAsymmetric" endPoint="24000" shape="0" startPoint="24000" type="cosine"/>
          <clipStretch adaptiveWindowSize="37" pitchAdjustment="0" preserveFormants="true" stretchMode="realtime" stretchQuality="high" stretchRatio="8" stretchType="solo" transientSensitivity="40"/>
          <editParameter parameterIndex="0" slotIndex="4294967280"/>
          <editParameter parameterIndex="0" slotIndex="4294967281"/>
          <channelMap>
            <channel index="0" sourceIndex="0"/>
            <channel index="1" sourceIndex="1"/>
          </channelMap>
        </audioClip>
        <audioClip clipAutoCrossfade="true" crossFadeHeadClipID="-1" crossFadeTailClipID="-1" endPoint="144000" fileID="2" hue="-1" id="2" lockedInTime="false" looped="false" name="Bounce_1" offline="false" select="false" sourceInPoint="0" sourceOutPoint="24000" startPoint="120000" zOrder="2">
          <component componentGuid="b23add87-4e65-45e4-a6c4-d4f80e874142" componentID="Audition.Fader" id="clipGain" name="volume" powered="true">
            <parameter index="0" name="volume" parameterValue="1"/>
            <parameter index="1" name="static gain" parameterValue="1"/>
          </component>
          <component componentGuid="744bbb04-35c6-4497-b28e-6991c43a0715" componentID="Audition.Mute" id="clipMute" name="Mute" powered="true">
            <parameter index="0" parameterValue="0"/>
            <parameter index="1" name="mute" parameterValue="0"/>
          </component>
          <component componentGuid="d787408b-ffcf-444c-9e7f-be79193541cd" componentID="Audition.StereoPanner" id="clipPan" name="StereoPanner" powered="true">
            <parameter index="0" name="Pan" parameterValue="0"/>
          </component>
          <fadeIn crossFadeLinkType="linkedAsymmetric" endPoint="0" shape="18" startPoint="0" type="log"/>
          <fadeOut crossFadeLinkType="linkedAsymmetric" endPoint="24000" shape="0" startPoint="24000" type="cosine"/>
          <clipStretch adaptiveWindowSize="37" pitchAdjustment="0" preserveFormants="true" stretchMode="realtime" stretchQuality="high" stretchRatio="8" stretchType="solo" transientSensitivity="40"/>
          <editParameter parameterIndex="0" slotIndex="4294967280"/>
          <editParameter parameterIndex="0" slotIndex="4294967281"/>
          <channelMap>
            <channel index="0" sourceIndex="0"/>
            <channel index="1" sourceIndex="1"/>
          </channelMap>
        </audioClip>
        <audioClip clipAutoCrossfade="true" crossFadeHeadClipID="-1" crossFadeTailClipID="-1" endPoint="168000" fileID="2" hue="-1" id="3" lockedInTime="false" looped="false" name="Bounce_1" offline="false" select="false" sourceInPoint="0" sourceOutPoint="24000" startPoint="144000" zOrder="4">
          <component componentGuid="229938a3-1a6c-4d78-ac02-a5e4bc96544c" componentID="Audition.Fader" id="clipGain" name="volume" powered="true">
            <parameter index="0" name="volume" parameterValue="1"/>
            <parameter index="1" name="static gain" parameterValue="1"/>
          </component>
          <component componentGuid="d6cb1792-bddc-4860-8a3d-27baa8cbbbfc" componentID="Audition.Mute" id="clipMute" name="Mute" powered="true">
            <parameter index="0" parameterValue="0"/>
            <parameter index="1" name="mute" parameterValue="0"/>
          </component>
          <component componentGuid="8ccc0404-642a-4708-a8f3-450ebf48fa55" componentID="Audition.StereoPanner" id="clipPan" name="StereoPanner" powered="true">
            <parameter index="0" name="Pan" parameterValue="0"/>
          </component>
          <fadeIn crossFadeLinkType="linkedAsymmetric" endPoint="0" shape="0" startPoint="0" type="cosine"/>
          <fadeOut crossFadeLinkType="linkedAsymmetric" endPoint="24000" shape="19" startPoint="24000" type="log"/>
          <clipStretch adaptiveWindowSize="37" pitchAdjustment="0" preserveFormants="true" stretchMode="realtime" stretchQuality="high" stretchRatio="8" stretchType="solo" transientSensitivity="40"/>
          <editParameter parameterIndex="0" slotIndex="4294967280"/>
          <editParameter parameterIndex="0" slotIndex="4294967281"/>
          <channelMap>
            <channel index="0" sourceIndex="0"/>
            <channel index="1" sourceIndex="1"/>
          </channelMap>
        </audioClip>
        <audioClip clipAutoCrossfade="true" crossFadeHeadClipID="-1" crossFadeTailClipID="-1" endPoint="192000" fileID="2" hue="-1" id="4" lockedInTime="false" looped="false" name="Bounce_1" offline="false" select="false" sourceInPoint="0" sourceOutPoint="24000" startPoint="168000" zOrder="3">
          <component componentGuid="8aef44e0-13c9-4b93-b0b8-87d65b9cd00e" componentID="Audition.Fader" id="clipGain" name="volume" powered="true">
            <parameter index="0" name="volume" parameterValue="1"/>
            <parameter index="1" name="static gain" parameterValue="1"/>
          </component>
          <component componentGuid="7b8cd7bf-9b9d-4ba3-8fb7-9ac31a12c1a6" componentID="Audition.Mute" id="clipMute" name="Mute" powered="true">
            <parameter index="0" parameterValue="0"/>
            <parameter index="1" name="mute" parameterValue="0"/>
          </component>
          <component componentGuid="6659ee34-e5a2-4934-935e-eeaf2c456b4e" componentID="Audition.StereoPanner" id="clipPan" name="StereoPanner" powered="true">
            <parameter index="0" name="Pan" parameterValue="0"/>
          </component>
          <fadeIn crossFadeLinkType="linkedAsymmetric" endPoint="0" shape="0" startPoint="0" type="cosine"/>
          <fadeOut crossFadeLinkType="linkedAsymmetric" endPoint="24000" shape="19" startPoint="24000" type="log"/>
          <clipStretch adaptiveWindowSize="37" pitchAdjustment="0" preserveFormants="true" stretchMode="realtime" stretchQuality="high" stretchRatio="8" stretchType="solo" transientSensitivity="40"/>
          <editParameter parameterIndex="0" slotIndex="4294967280"/>
          <editParameter parameterIndex="0" slotIndex="4294967281"/>
          <channelMap>
            <channel index="0" sourceIndex="0"/>
            <channel index="1" sourceIndex="1"/>
          </channelMap>
        </audioClip>
        <audioClip clipAutoCrossfade="true" crossFadeHeadClipID="-1" crossFadeTailClipID="-1" endPoint="240000" fileID="2" hue="-1" id="5" lockedInTime="false" looped="false" name="Bounce_1" offline="false" select="false" sourceInPoint="0" sourceOutPoint="24000" startPoint="216000" zOrder="5">
          <component componentGuid="08c542d7-72df-4b53-bc73-7d393056c357" componentID="Audition.Fader" id="clipGain" name="volume" powered="true">
            <parameter index="0" name="volume" parameterValue="1"/>
            <parameter index="1" name="static gain" parameterValue="1"/>
          </component>
          <component componentGuid="f68e84d0-bd46-46e8-a127-4837a59f50d3" componentID="Audition.Mute" id="clipMute" name="Mute" powered="true">
            <parameter index="0" parameterValue="0"/>
            <parameter index="1" name="mute" parameterValue="0"/>
          </component>
          <component componentGuid="d3d529ef-dfd3-47fc-849c-904b945d92b4" componentID="Audition.StereoPanner" id="clipPan" name="StereoPanner" powered="true">
            <parameter index="0" name="Pan" parameterValue="0"/>
          </component>
          <fadeIn crossFadeLinkType="linkedAsymmetric" endPoint="0" shape="18" startPoint="0" type="log"/>
          <fadeOut crossFadeLinkType="linkedAsymmetric" endPoint="24000" shape="0" startPoint="24000" type="cosine"/>
          <clipStretch adaptiveWindowSize="37" pitchAdjustment="0" preserveFormants="true" stretchMode="realtime" stretchQuality="high" stretchRatio="8" stretchType="solo" transientSensitivity="40"/>
          <editParameter parameterIndex="0" slotIndex="4294967280"/>
          <editParameter parameterIndex="0" slotIndex="4294967281"/>
          <channelMap>
            <channel index="0" sourceIndex="0"/>
            <channel index="1" sourceIndex="1"/>
          </channelMap>
        </audioClip>
        <audioClip clipAutoCrossfade="true" crossFadeHeadClipID="-1" crossFadeTailClipID="-1" endPoint="312000" fileID="2" hue="-1" id="6" lockedInTime="false" looped="false" name="Bounce_1" offline="false" select="false" sourceInPoint="0" sourceOutPoint="24000" startPoint="288000" zOrder="6">
          <component componentGuid="1b112d4d-3220-4b1e-bffd-8c6e32f4a563" componentID="Audition.Fader" id="clipGain" name="volume" powered="true">
            <parameter index="0" name="volume" parameterValue="1"/>
            <parameter index="1" name="static gain" parameterValue="1"/>
          </component>
          <component componentGuid="c914c183-1306-42d2-bd82-be6b4327e3d2" componentID="Audition.Mute" id="clipMute" name="Mute" powered="true">
            <parameter index="0" parameterValue="0"/>
            <parameter index="1" name="mute" parameterValue="0"/>
          </component>
          <component componentGuid="a92ec43a-aa1d-48c7-8a32-d20fa2fa4a46" componentID="Audition.StereoPanner" id="clipPan" name="StereoPanner" powered="true">
            <parameter index="0" name="Pan" parameterValue="0"/>
          </component>
          <fadeIn crossFadeLinkType="linkedAsymmetric" endPoint="0" shape="0" startPoint="0" type="cosine"/>
          <fadeOut crossFadeLinkType="linkedAsymmetric" endPoint="24000" shape="19" startPoint="24000" type="log"/>
          <clipStretch adaptiveWindowSize="37" pitchAdjustment="0" preserveFormants="true" stretchMode="realtime" stretchQuality="high" stretchRatio="8" stretchType="solo" transientSensitivity="40"/>
          <editParameter parameterIndex="0" slotIndex="4294967280"/>
          <editParameter parameterIndex="0" slotIndex="4294967281"/>
          <channelMap>
            <channel index="0" sourceIndex="0"/>
            <channel index="1" sourceIndex="1"/>
          </channelMap>
        </audioClip>
        <audioClip clipAutoCrossfade="true" crossFadeHeadClipID="-1" crossFadeTailClipID="-1" endPoint="336000" fileID="2" hue="-1" id="7" lockedInTime="false" looped="false" name="Bounce_1" offline="false" select="false" sourceInPoint="0" sourceOutPoint="24000" startPoint="312000" zOrder="8">
          <component componentGuid="1c6cb907-7968-48d2-8847-c98cfb020b21" componentID="Audition.Fader" id="clipGain" name="volume" powered="true">
            <parameter index="0" name="volume" parameterValue="1"/>
            <parameter index="1" name="static gain" parameterValue="1"/>
          </component>
          <component componentGuid="2d194556-ead6-4192-8c9e-6266a7d26d9a" componentID="Audition.Mute" id="clipMute" name="Mute" powered="true">
            <parameter index="0" parameterValue="0"/>
            <parameter index="1" name="mute" parameterValue="0"/>
          </component>
          <component componentGuid="ccc8a97a-a45d-4773-828a-ca5378adcb2e" componentID="Audition.StereoPanner" id="clipPan" name="StereoPanner" powered="true">
            <parameter index="0" name="Pan" parameterValue="0"/>
          </component>
          <fadeIn crossFadeLinkType="linkedAsymmetric" endPoint="0" shape="18" startPoint="0" type="log"/>
          <fadeOut crossFadeLinkType="linkedAsymmetric" endPoint="24000" shape="0" startPoint="24000" type="cosine"/>
          <clipStretch adaptiveWindowSize="37" pitchAdjustment="0" preserveFormants="true" stretchMode="realtime" stretchQuality="high" stretchRatio="8" stretchType="solo" transientSensitivity="40"/>
          <editParameter parameterIndex="0" slotIndex="4294967280"/>
          <editParameter parameterIndex="0" slotIndex="4294967281"/>
          <channelMap>
            <channel index="0" sourceIndex="0"/>
            <channel index="1" sourceIndex="1"/>
          </channelMap>
        </audioClip>
        <audioClip clipAutoCrossfade="true" crossFadeHeadClipID="-1" crossFadeTailClipID="-1" endPoint="360000" fileID="2" hue="-1" id="8" lockedInTime="false" looped="false" name="Bounce_1" offline="false" select="false" sourceInPoint="0" sourceOutPoint="24000" startPoint="336000" zOrder="7">
          <component componentGuid="f849d346-35eb-4899-bbbb-10a1f8afd699" componentID="Audition.Fader" id="clipGain" name="volume" powered="true">
            <parameter index="0" name="volume" parameterValue="1"/>
            <parameter index="1" name="static gain" parameterValue="1"/>
          </component>
          <component componentGuid="8ea15677-cafe-4bb4-b29a-7cba140c660f" componentID="Audition.Mute" id="clipMute" name="Mute" powered="true">
            <parameter index="0" parameterValue="0"/>
            <parameter index="1" name="mute" parameterValue="0"/>
          </component>
          <component componentGuid="9081fd6f-5199-466e-84de-ff9dff8d3643" componentID="Audition.StereoPanner" id="clipPan" name="StereoPanner" powered="true">
            <parameter index="0" name="Pan" parameterValue="0"/>
          </component>
          <fadeIn crossFadeLinkType="linkedAsymmetric" endPoint="0" shape="0" startPoint="0" type="cosine"/>
          <fadeOut crossFadeLinkType="linkedAsymmetric" endPoint="24000" shape="19" startPoint="24000" type="log"/>
          <clipStretch adaptiveWindowSize="37" pitchAdjustment="0" preserveFormants="true" stretchMode="realtime" stretchQuality="high" stretchRatio="8" stretchType="solo" transientSensitivity="40"/>
          <editParameter parameterIndex="0" slotIndex="4294967280"/>
          <editParameter parameterIndex="0" slotIndex="4294967281"/>
          <channelMap>
            <channel index="0" sourceIndex="0"/>
            <channel index="1" sourceIndex="1"/>
          </channelMap>
        </audioClip>
        <audioClip clipAutoCrossfade="true" crossFadeHeadClipID="-1" crossFadeTailClipID="-1" endPoint="432000" fileID="2" hue="-1" id="9" lockedInTime="false" looped="false" name="Bounce_1" offline="false" select="false" sourceInPoint="0" sourceOutPoint="24000" startPoint="408000" zOrder="9">
          <component componentGuid="335412b4-3ec7-4cfe-ac02-66d58c5519ba" componentID="Audition.Fader" id="clipGain" name="volume" powered="true">
            <parameter index="0" name="volume" parameterValue="1"/>
            <parameter index="1" name="static gain" parameterValue="1"/>
          </component>
          <component componentGuid="31245691-4eae-4256-b1fc-7542656fbc98" componentID="Audition.Mute" id="clipMute" name="Mute" powered="true">
            <parameter index="0" parameterValue="0"/>
            <parameter index="1" name="mute" parameterValue="0"/>
          </component>
          <component componentGuid="6d40a463-5058-4f5f-a959-a2da388842a6" componentID="Audition.StereoPanner" id="clipPan" name="StereoPanner" powered="true">
            <parameter index="0" name="Pan" parameterValue="0"/>
          </component>
          <fadeIn crossFadeLinkType="linkedAsymmetric" endPoint="0" shape="0" startPoint="0" type="cosine"/>
          <fadeOut crossFadeLinkType="linkedAsymmetric" endPoint="24000" shape="0" startPoint="24000" type="cosine"/>
          <clipStretch adaptiveWindowSize="37" pitchAdjustment="0" preserveFormants="true" stretchMode="realtime" stretchQuality="high" stretchRatio="8" stretchType="solo" transientSensitivity="40"/>
          <editParameter parameterIndex="0" slotIndex="4294967280"/>
          <editParameter parameterIndex="0" slotIndex="4294967281"/>
          <channelMap>
            <channel index="0" sourceIndex="0"/>
            <channel index="1" sourceIndex="1"/>
          </channelMap>
        </audioClip>
        <audioClip clipAutoCrossfade="true" crossFadeHeadClipID="-1" crossFadeTailClipID="-1" endPoint="504000" fileID="2" hue="-1" id="10" lockedInTime="false" looped="false" name="Bounce_1" offline="false" select="false" sourceInPoint="0" sourceOutPoint="24000" startPoint="480000" zOrder="11">
          <component componentGuid="350b2e17-8477-4acf-8cb4-64ebf6fc6c93" componentID="Audition.Fader" id="clipGain" name="volume" powered="true">
            <parameter index="0" name="volume" parameterValue="1"/>
            <parameter index="1" name="static gain" parameterValue="1"/>
          </component>
          <component componentGuid="e297a80d-9724-4a09-be75-02aaf639155f" componentID="Audition.Mute" id="clipMute" name="Mute" powered="true">
            <parameter index="0" parameterValue="0"/>
            <parameter index="1" name="mute" parameterValue="0"/>
          </component>
          <component componentGuid="82c434b8-10ce-47a5-b75a-98b90fac673a" componentID="Audition.StereoPanner" id="clipPan" name="StereoPanner" powered="true">
            <parameter index="0" name="Pan" parameterValue="0"/>
          </component>
          <fadeIn crossFadeLinkType="linkedAsymmetric" endPoint="0" shape="18" startPoint="0" type="log"/>
          <fadeOut crossFadeLinkType="linkedAsymmetric" endPoint="24000" shape="0" startPoint="24000" type="cosine"/>
          <clipStretch adaptiveWindowSize="37" pitchAdjustment="0" preserveFormants="true" stretchMode="realtime" stretchQuality="high" stretchRatio="8" stretchType="solo" transientSensitivity="40"/>
          <editParameter parameterIndex="0" slotIndex="4294967280"/>
          <editParameter parameterIndex="0" slotIndex="4294967281"/>
          <channelMap>
            <channel index="0" sourceIndex="0"/>
            <channel index="1" sourceIndex="1"/>
          </channelMap>
        </audioClip>
        <audioClip clipAutoCrossfade="true" crossFadeHeadClipID="-1" crossFadeTailClipID="-1" endPoint="528000" fileID="2" hue="-1" id="11" lockedInTime="false" looped="false" name="Bounce_1" offline="false" select="false" sourceInPoint="0" sourceOutPoint="24000" startPoint="504000" zOrder="10">
          <component componentGuid="27d58987-5087-4371-af33-9a8e46fe0502" componentID="Audition.Fader" id="clipGain" name="volume" powered="true">
            <parameter index="0" name="volume" parameterValue="1"/>
            <parameter index="1" name="static gain" parameterValue="1"/>
          </component>
          <component componentGuid="9e1fd5be-f648-4e8f-bdee-293f0ceb8a60" componentID="Audition.Mute" id="clipMute" name="Mute" powered="true">
            <parameter index="0" parameterValue="0"/>
            <parameter index="1" name="mute" parameterValue="0"/>
          </component>
          <component componentGuid="65d96257-7515-4bd7-8831-222718d4c861" componentID="Audition.StereoPanner" id="clipPan" name="StereoPanner" powered="true">
            <parameter index="0" name="Pan" parameterValue="0"/>
          </component>
          <fadeIn crossFadeLinkType="linkedAsymmetric" endPoint="0" shape="0" startPoint="0" type="cosine"/>
          <fadeOut crossFadeLinkType="linkedAsymmetric" endPoint="24000" shape="19" startPoint="24000" type="log"/>
          <clipStretch adaptiveWindowSize="37" pitchAdjustment="0" preserveFormants="true" stretchMode="realtime" stretchQuality="high" stretchRatio="8" stretchType="solo" transientSensitivity="40"/>
          <editParameter parameterIndex="0" slotIndex="4294967280"/>
          <editParameter parameterIndex="0" slotIndex="4294967281"/>
          <channelMap>
            <channel index="0" sourceIndex="0"/>
            <channel index="1" sourceIndex="1"/>
          </channelMap>
        </audioClip>
        <audioClip clipAutoCrossfade="true" crossFadeHeadClipID="-1" crossFadeTailClipID="-1" endPoint="552000" fileID="2" hue="-1" id="12" lockedInTime="false" looped="false" name="Bounce_1" offline="false" select="false" sourceInPoint="0" sourceOutPoint="24000" startPoint="528000" zOrder="17">
          <component componentGuid="a24240af-d50c-4fa3-a236-c01da3417c0f" componentID="Audition.Fader" id="clipGain" name="volume" powered="true">
            <parameter index="0" name="volume" parameterValue="1"/>
            <parameter index="1" name="static gain" parameterValue="1"/>
          </component>
          <component componentGuid="a8cbb7ce-25bc-42c6-9dbc-a59b5a877a12" componentID="Audition.Mute" id="clipMute" name="Mute" powered="true">
            <parameter index="0" parameterValue="0"/>
            <parameter index="1" name="mute" parameterValue="0"/>
          </component>
          <component componentGuid="957a152c-16c3-4760-a464-92625f07e642" componentID="Audition.StereoPanner" id="clipPan" name="StereoPanner" powered="true">
            <parameter index="0" name="Pan" parameterValue="0"/>
          </component>
          <fadeIn crossFadeLinkType="linkedAsymmetric" endPoint="0" shape="0" startPoint="0" type="cosine"/>
          <fadeOut crossFadeLinkType="linkedAsymmetric" endPoint="24000" shape="0" startPoint="24000" type="cosine"/>
          <clipStretch adaptiveWindowSize="37" pitchAdjustment="0" preserveFormants="true" stretchMode="realtime" stretchQuality="high" stretchRatio="8" stretchType="solo" transientSensitivity="40"/>
          <editParameter parameterIndex="0" slotIndex="4294967280"/>
          <editParameter parameterIndex="0" slotIndex="4294967281"/>
          <channelMap>
            <channel index="0" sourceIndex="0"/>
            <channel index="1" sourceIndex="1"/>
          </channelMap>
        </audioClip>
        <audioClip clipAutoCrossfade="true" crossFadeHeadClipID="-1" crossFadeTailClipID="-1" endPoint="624000" fileID="2" hue="-1" id="13" lockedInTime="false" looped="false" name="Bounce_1" offline="false" select="false" sourceInPoint="0" sourceOutPoint="24000" startPoint="600000" zOrder="13">
          <component componentGuid="1c6435d3-5674-4365-be6c-0ef3feef1227" componentID="Audition.Fader" id="clipGain" name="volume" powered="true">
            <parameter index="0" name="volume" parameterValue="1"/>
            <parameter index="1" name="static gain" parameterValue="1"/>
          </component>
          <component componentGuid="7cb8c724-687d-4e9d-9621-41458dfefc3d" componentID="Audition.Mute" id="clipMute" name="Mute" powered="true">
            <parameter index="0" parameterValue="0"/>
            <parameter index="1" name="mute" parameterValue="0"/>
          </component>
          <component componentGuid="26637dc7-50bc-4c41-b862-e6ac6dcbd33b" componentID="Audition.StereoPanner" id="clipPan" name="StereoPanner" powered="true">
            <parameter index="0" name="Pan" parameterValue="0"/>
          </component>
          <fadeIn crossFadeLinkType="linkedAsymmetric" endPoint="0" shape="18" startPoint="0" type="log"/>
          <fadeOut crossFadeLinkType="linkedAsymmetric" endPoint="24000" shape="0" startPoint="24000" type="cosine"/>
          <clipStretch adaptiveWindowSize="37" pitchAdjustment="0" preserveFormants="true" stretchMode="realtime" stretchQuality="high" stretchRatio="8" stretchType="solo" transientSensitivity="40"/>
          <editParameter parameterIndex="0" slotIndex="4294967280"/>
          <editParameter parameterIndex="0" slotIndex="4294967281"/>
          <channelMap>
            <channel index="0" sourceIndex="0"/>
            <channel index="1" sourceIndex="1"/>
          </channelMap>
        </audioClip>
        <audioClip clipAutoCrossfade="true" crossFadeHeadClipID="-1" crossFadeTailClipID="-1" endPoint="648000" fileID="2" hue="-1" id="14" lockedInTime="false" looped="false" name="Bounce_1" offline="false" select="false" sourceInPoint="0" sourceOutPoint="24000" startPoint="624000" zOrder="12">
          <component componentGuid="84d5533c-e70a-45d9-902a-8290696e68e6" componentID="Audition.Fader" id="clipGain" name="volume" powered="true">
            <parameter index="0" name="volume" parameterValue="1"/>
            <parameter index="1" name="static gain" parameterValue="1"/>
          </component>
          <component componentGuid="d0c552e6-f232-4ac5-b055-c7e6a10ba1a7" componentID="Audition.Mute" id="clipMute" name="Mute" powered="true">
            <parameter index="0" parameterValue="0"/>
            <parameter index="1" name="mute" parameterValue="0"/>
          </component>
          <component componentGuid="197659ec-ab4c-4ba0-98fc-d47b172d0f8b" componentID="Audition.StereoPanner" id="clipPan" name="StereoPanner" powered="true">
            <parameter index="0" name="Pan" parameterValue="0"/>
          </component>
          <fadeIn crossFadeLinkType="linkedAsymmetric" endPoint="0" shape="0" startPoint="0" type="cosine"/>
          <fadeOut crossFadeLinkType="linkedAsymmetric" endPoint="24000" shape="19" startPoint="24000" type="log"/>
          <clipStretch adaptiveWindowSize="37" pitchAdjustment="0" preserveFormants="true" stretchMode="realtime" stretchQuality="high" stretchRatio="8" stretchType="solo" transientSensitivity="40"/>
          <editParameter parameterIndex="0" slotIndex="4294967280"/>
          <editParameter parameterIndex="0" slotIndex="4294967281"/>
          <channelMap>
            <channel index="0" sourceIndex="0"/>
            <channel index="1" sourceIndex="1"/>
          </channelMap>
        </audioClip>
        <audioClip clipAutoCrossfade="true" crossFadeHeadClipID="-1" crossFadeTailClipID="-1" endPoint="720000" fileID="2" hue="-1" id="15" lockedInTime="false" looped="false" name="Bounce_1" offline="false" select="false" sourceInPoint="0" sourceOutPoint="24000" startPoint="696000" zOrder="16">
          <component componentGuid="db375d64-5285-4428-a855-7658a4bca351" componentID="Audition.Fader" id="clipGain" name="volume" powered="true">
            <parameter index="0" name="volume" parameterValue="1"/>
            <parameter index="1" name="static gain" parameterValue="1"/>
          </component>
          <component componentGuid="52c5e6a8-e8a6-4a60-9a06-8ea352598b61" componentID="Audition.Mute" id="clipMute" name="Mute" powered="true">
            <parameter index="0" parameterValue="0"/>
            <parameter index="1" name="mute" parameterValue="0"/>
          </component>
          <component componentGuid="a0a22eaf-7ce1-4db8-83a1-26762fa35ba2" componentID="Audition.StereoPanner" id="clipPan" name="StereoPanner" powered="true">
            <parameter index="0" name="Pan" parameterValue="0"/>
          </component>
          <fadeIn crossFadeLinkType="linkedAsymmetric" endPoint="0" shape="18" startPoint="0" type="log"/>
          <fadeOut crossFadeLinkType="linkedAsymmetric" endPoint="24000" shape="0" startPoint="24000" type="cosine"/>
          <clipStretch adaptiveWindowSize="37" pitchAdjustment="0" preserveFormants="true" stretchMode="realtime" stretchQuality="high" stretchRatio="8" stretchType="solo" transientSensitivity="40"/>
          <editParameter parameterIndex="0" slotIndex="4294967280"/>
          <editParameter parameterIndex="0" slotIndex="4294967281"/>
          <channelMap>
            <channel index="0" sourceIndex="0"/>
            <channel index="1" sourceIndex="1"/>
          </channelMap>
        </audioClip>
        <audioClip clipAutoCrossfade="true" crossFadeHeadClipID="-1" crossFadeTailClipID="-1" endPoint="744000" fileID="2" hue="-1" id="16" lockedInTime="false" looped="false" name="Bounce_1" offline="false" select="false" sourceInPoint="0" sourceOutPoint="24000" startPoint="720000" zOrder="15">
          <component componentGuid="b5ab1230-8885-4866-88b1-9e456d9cb844" componentID="Audition.Fader" id="clipGain" name="volume" powered="true">
            <parameter index="0" name="volume" parameterValue="1"/>
            <parameter index="1" name="static gain" parameterValue="1"/>
          </component>
          <component componentGuid="bc89969f-d730-4587-930b-2fee80778aca" componentID="Audition.Mute" id="clipMute" name="Mute" powered="true">
            <parameter index="0" parameterValue="0"/>
            <parameter index="1" name="mute" parameterValue="0"/>
          </component>
          <component componentGuid="52ab2c9a-899b-4d2d-8bdf-174fdf2abc77" componentID="Audition.StereoPanner" id="clipPan" name="StereoPanner" powered="true">
            <parameter index="0" name="Pan" parameterValue="0"/>
          </component>
          <fadeIn crossFadeLinkType="linkedAsymmetric" endPoint="0" shape="0" startPoint="0" type="cosine"/>
          <fadeOut crossFadeLinkType="linkedAsymmetric" endPoint="24000" shape="19" startPoint="24000" type="log"/>
          <clipStretch adaptiveWindowSize="37" pitchAdjustment="0" preserveFormants="true" stretchMode="realtime" stretchQuality="high" stretchRatio="8" stretchType="solo" transientSensitivity="40"/>
          <editParameter parameterIndex="0" slotIndex="4294967280"/>
          <editParameter parameterIndex="0" slotIndex="4294967281"/>
          <channelMap>
            <channel index="0" sourceIndex="0"/>
            <channel index="1" sourceIndex="1"/>
          </channelMap>
        </audioClip>
        <audioClip clipAutoCrossfade="true" crossFadeHeadClipID="-1" crossFadeTailClipID="-1" endPoint="768000" fileID="2" hue="-1" id="17" lockedInTime="false" looped="false" name="Bounce_1" offline="false" select="false" sourceInPoint="0" sourceOutPoint="24000" startPoint="744000" zOrder="14">
          <component componentGuid="90038260-2f53-4cb2-be79-96a2983b881f" componentID="Audition.Fader" id="clipGain" name="volume" powered="true">
            <parameter index="0" name="volume" parameterValue="1"/>
            <parameter index="1" name="static gain" parameterValue="1"/>
          </component>
          <component componentGuid="74598f08-12c9-4fb8-83a7-33b9fe3fc3c1" componentID="Audition.Mute" id="clipMute" name="Mute" powered="true">
            <parameter index="0" parameterValue="0"/>
            <parameter index="1" name="mute" parameterValue="0"/>
          </component>
          <component componentGuid="21698d67-13f2-4ddf-aa89-6efde2f39f5b" componentID="Audition.StereoPanner" id="clipPan" name="StereoPanner" powered="true">
            <parameter index="0" name="Pan" parameterValue="0"/>
          </component>
          <fadeIn crossFadeLinkType="linkedAsymmetric" endPoint="0" shape="0" startPoint="0" type="cosine"/>
          <fadeOut crossFadeLinkType="linkedAsymmetric" endPoint="24000" shape="19" startPoint="24000" type="log"/>
          <clipStretch adaptiveWindowSize="37" pitchAdjustment="0" preserveFormants="true" stretchMode="realtime" stretchQuality="high" stretchRatio="8" stretchType="solo" transientSensitivity="40"/>
          <editParameter parameterIndex="0" slotIndex="4294967280"/>
          <editParameter parameterIndex="0" slotIndex="4294967281"/>
          <channelMap>
            <channel index="0" sourceIndex="0"/>
            <channel index="1" sourceIndex="1"/>
          </channelMap>
        </audioClip>
        <audioClip clipAutoCrossfade="true" crossFadeHeadClipID="-1" crossFadeTailClipID="-1" endPoint="816000" fileID="2" hue="-1" id="18" lockedInTime="false" looped="false" name="Bounce_1" offline="false" select="false" sourceInPoint="0" sourceOutPoint="24000" startPoint="792000" zOrder="19">
          <component componentGuid="e49f0dae-ea0d-4d52-afc7-9addd0abe876" componentID="Audition.Fader" id="clipGain" name="volume" powered="true">
            <parameter index="0" name="volume" parameterValue="1"/>
            <parameter index="1" name="static gain" parameterValue="1"/>
          </component>
          <component componentGuid="dc5006cc-6974-4740-b88b-24ed74bf1ec5" componentID="Audition.Mute" id="clipMute" name="Mute" powered="true">
            <parameter index="0" parameterValue="0"/>
            <parameter index="1" name="mute" parameterValue="0"/>
          </component>
          <component componentGuid="8029d8e4-09e5-40da-879f-cd633c9e0302" componentID="Audition.StereoPanner" id="clipPan" name="StereoPanner" powered="true">
            <parameter index="0" name="Pan" parameterValue="0"/>
          </component>
          <fadeIn crossFadeLinkType="linkedAsymmetric" endPoint="0" shape="18" startPoint="0" type="log"/>
          <fadeOut crossFadeLinkType="linkedAsymmetric" endPoint="24000" shape="0" startPoint="24000" type="cosine"/>
          <clipStretch adaptiveWindowSize="37" pitchAdjustment="0" preserveFormants="true" stretchMode="realtime" stretchQuality="high" stretchRatio="8" stretchType="solo" transientSensitivity="40"/>
          <editParameter parameterIndex="0" slotIndex="4294967280"/>
          <editParameter parameterIndex="0" slotIndex="4294967281"/>
          <channelMap>
            <channel index="0" sourceIndex="0"/>
            <channel index="1" sourceIndex="1"/>
          </channelMap>
        </audioClip>
        <audioClip clipAutoCrossfade="true" crossFadeHeadClipID="-1" crossFadeTailClipID="-1" endPoint="840000" fileID="2" hue="-1" id="19" lockedInTime="false" looped="false" name="Bounce_1" offline="false" select="false" sourceInPoint="0" sourceOutPoint="24000" startPoint="816000" zOrder="18">
          <component componentGuid="b4358644-c5cd-4408-bdf4-efda1bcff562" componentID="Audition.Fader" id="clipGain" name="volume" powered="true">
            <parameter index="0" name="volume" parameterValue="1"/>
            <parameter index="1" name="static gain" parameterValue="1"/>
          </component>
          <component componentGuid="d25f33c4-d2a1-4281-9d5f-f4073f70d099" componentID="Audition.Mute" id="clipMute" name="Mute" powered="true">
            <parameter index="0" parameterValue="0"/>
            <parameter index="1" name="mute" parameterValue="0"/>
          </component>
          <component componentGuid="bcbf6f1d-6473-4ec9-b71b-fe66da26902c" componentID="Audition.StereoPanner" id="clipPan" name="StereoPanner" powered="true">
            <parameter index="0" name="Pan" parameterValue="0"/>
          </component>
          <fadeIn crossFadeLinkType="linkedAsymmetric" endPoint="0" shape="0" startPoint="0" type="cosine"/>
          <fadeOut crossFadeLinkType="linkedAsymmetric" endPoint="24000" shape="19" startPoint="24000" type="log"/>
          <clipStretch adaptiveWindowSize="37" pitchAdjustment="0" preserveFormants="true" stretchMode="realtime" stretchQuality="high" stretchRatio="8" stretchType="solo" transientSensitivity="40"/>
          <editParameter parameterIndex="0" slotIndex="4294967280"/>
          <editParameter parameterIndex="0" slotIndex="4294967281"/>
          <channelMap>
            <channel index="0" sourceIndex="0"/>
            <channel index="1" sourceIndex="1"/>
          </channelMap>
        </audioClip>
        <audioClip clipAutoCrossfade="true" crossFadeHeadClipID="-1" crossFadeTailClipID="-1" endPoint="936000" fileID="2" hue="-1" id="20" lockedInTime="false" looped="false" name="Bounce_1" offline="false" select="false" sourceInPoint="0" sourceOutPoint="24000" startPoint="912000" zOrder="21">
          <component componentGuid="ac4a983d-aa59-44d3-905e-6a386b6dfe2e" componentID="Audition.Fader" id="clipGain" name="volume" powered="true">
            <parameter index="0" name="volume" parameterValue="1"/>
            <parameter index="1" name="static gain" parameterValue="1"/>
          </component>
          <component componentGuid="75661ead-f73b-47d7-9fec-73a93c82ae7d" componentID="Audition.Mute" id="clipMute" name="Mute" powered="true">
            <parameter index="0" parameterValue="0"/>
            <parameter index="1" name="mute" parameterValue="0"/>
          </component>
          <component componentGuid="5ed3d57a-e81b-4385-99fb-1149f667f25b" componentID="Audition.StereoPanner" id="clipPan" name="StereoPanner" powered="true">
            <parameter index="0" name="Pan" parameterValue="0"/>
          </component>
          <fadeIn crossFadeLinkType="linkedAsymmetric" endPoint="0" shape="18" startPoint="0" type="log"/>
          <fadeOut crossFadeLinkType="linkedAsymmetric" endPoint="24000" shape="0" startPoint="24000" type="cosine"/>
          <clipStretch adaptiveWindowSize="37" pitchAdjustment="0" preserveFormants="true" stretchMode="realtime" stretchQuality="high" stretchRatio="8" stretchType="solo" transientSensitivity="40"/>
          <editParameter parameterIndex="0" slotIndex="4294967280"/>
          <editParameter parameterIndex="0" slotIndex="4294967281"/>
          <channelMap>
            <channel index="0" sourceIndex="0"/>
            <channel index="1" sourceIndex="1"/>
          </channelMap>
        </audioClip>
        <audioClip clipAutoCrossfade="true" crossFadeHeadClipID="-1" crossFadeTailClipID="-1" endPoint="960000" fileID="2" hue="-1" id="21" lockedInTime="false" looped="false" name="Bounce_1" offline="false" select="true" sourceInPoint="0" sourceOutPoint="24000" startPoint="936000" zOrder="20">
          <component componentGuid="cd7a9060-5bcd-4420-b88f-b7ee676cd11c" componentID="Audition.Fader" id="clipGain" name="volume" powered="true">
            <parameter index="0" name="volume" parameterValue="1"/>
            <parameter index="1" name="static gain" parameterValue="1"/>
          </component>
          <component componentGuid="0a103cc9-9d7e-4faf-b840-55d85c6abb09" componentID="Audition.Mute" id="clipMute" name="Mute" powered="true">
            <parameter index="0" parameterValue="0"/>
            <parameter index="1" name="mute" parameterValue="0"/>
          </component>
          <component componentGuid="10fa4837-3a63-44e9-9615-430e8d67f7a0" componentID="Audition.StereoPanner" id="clipPan" name="StereoPanner" powered="true">
            <parameter index="0" name="Pan" parameterValue="0"/>
          </component>
          <fadeIn crossFadeLinkType="linkedAsymmetric" endPoint="0" shape="0" startPoint="0" type="cosine"/>
          <fadeOut crossFadeLinkType="linkedAsymmetric" endPoint="24000" shape="19" startPoint="24000" type="log"/>
          <clipStretch adaptiveWindowSize="37" pitchAdjustment="0" preserveFormants="true" stretchMode="realtime" stretchQuality="high" stretchRatio="8" stretchType="solo" transientSensitivity="40"/>
          <editParameter parameterIndex="0" slotIndex="4294967280"/>
          <editParameter parameterIndex="0" slotIndex="4294967281"/>
          <channelMap>
            <channel index="0" sourceIndex="0"/>
            <channel index="1" sourceIndex="1"/>
          </channelMap>
        </audioClip>
      </audioTrack>
      <audioTrack automationLaneOpenState="false" id="10022" index="6" select="false" visible="true">
        <trackParameters trackHeight="93" trackHue="-1" trackMinimized="false">
          <name>Bounce_1 2</name>
        </trackParameters>
        <trackAudioParameters audioChannelType="stereo" automationMode="1" monitoring="false" recordArmed="false" solo="false" soloSafe="false">
          <trackOutput outputID="10000" type="trackID"/>
          <trackInput inputID="1"/>
          <component componentGuid="8828890e-a07a-404b-907d-ed5861a479f8" componentID="Audition.Fader" id="trackFader" name="volume" powered="true">
            <parameter index="0" name="volume" parameterValue="1"/>
            <parameter index="1" name="static gain" parameterValue="1"/>
          </component>
          <component componentGuid="b2fe1808-e324-4c3f-9f8a-3444b18a4f8f" componentID="Audition.Mute" id="trackMute" name="Mute" powered="true">
            <parameter index="0" parameterValue="0"/>
            <parameter index="1" name="mute" parameterValue="0"/>
          </component>
          <component componentGuid="b93a9c5c-f8a6-4a31-93ba-12754f750c87" componentID="Audition.StereoPanner" id="trackPan" name="StereoPanner" powered="true">
            <parameter index="0" name="Pan" parameterValue="0"/>
          </component>
          <component componentGuid="7f2a3406-99bd-4d49-8847-396bc5951d0e" componentID="Audition.EQ" id="trackEQ" name="EQ" powered="false">
            <parameter index="0" name="Low Shelf Frequency" parameterValue="0.000834"/>
            <parameter index="1" name="Low Shelf Gain" parameterValue="0.5"/>
            <parameter index="2" name="High Shelf Frequency" parameterValue="0.7497915"/>
            <parameter index="3" name="High Shelf Gain" parameterValue="0.5"/>
            <parameter index="4" name="EQ Band 1 Center Frequency" parameterValue="0.001251"/>
            <parameter index="5" name="EQ Band 1 Q" parameterValue="0.0002"/>
            <parameter index="6" name="EQ Band 1 Gain" parameterValue="0.5"/>
            <parameter index="7" name="EQ Band 1 Enable" parameterValue="1"/>
            <parameter index="8" name="EQ Band 2 Center Frequency" parameterValue="0.0075063"/>
            <parameter index="9" name="EQ Band 2 Q" parameterValue="0.0002"/>
            <parameter index="10" name="EQ Band 2 Gain" parameterValue="0.5"/>
            <parameter index="11" name="EQ Band 2 Enable" parameterValue="1"/>
            <parameter index="12" name="EQ Band 3 Center Frequency" parameterValue="0.0325271"/>
            <parameter index="13" name="EQ Band 3 Q" parameterValue="0.0002"/>
            <parameter index="14" name="EQ Band 3 Gain" parameterValue="0.5"/>
            <parameter index="15" name="EQ Band 3 Enable" parameterValue="1"/>
            <parameter index="16" name="EQ Band 4 Center Frequency" parameterValue="0.1326105"/>
            <parameter index="17" name="EQ Band 4 Q" parameterValue="0.0002"/>
            <parameter index="18" name="EQ Band 4 Gain" parameterValue="0.5"/>
            <parameter index="19" name="EQ Band 4 Enable" parameterValue="1"/>
            <parameter index="20" name="EQ Band 5 Center Frequency" parameterValue="0.5329441"/>
            <parameter index="21" name="EQ Band 5 Q" parameterValue="0.0002"/>
            <parameter index="22" name="EQ Band 5 Gain" parameterValue="0.5"/>
            <parameter index="23" name="EQ Band 5 Enable" parameterValue="1"/>
            <parameter index="24" name="Master Gain" parameterValue="0.6666667"/>
            <parameter index="25" name="ConstantQ" parameterValue="1"/>
            <parameter index="26" name="Low Shelf Filter Order" parameterValue="0"/>
            <parameter index="27" name="High Shelf Filter Order" parameterValue="0"/>
            <parameter index="28" name="Ultra-Quiet Mode" parameterValue="0"/>
            <parameter index="29" name="Low Shelf Enable" parameterValue="1"/>
            <parameter index="30" name="High Shelf Enable" parameterValue="1"/>
            <parameter index="31" name="Original Sample Rate" parameterValue="0.25"/>
            <parameter index="32" name="EQ Band 1 Bandwidth" parameterValue="0.0025"/>
            <parameter index="33" name="EQ Band 2 Bandwidth" parameterValue="0.01"/>
            <parameter index="34" name="EQ Band 3 Bandwidth" parameterValue="0.04"/>
            <parameter index="35" name="EQ Band 4 Bandwidth" parameterValue="0.16"/>
            <parameter index="36" name="EQ Band 5 Bandwidth" parameterValue="0.64"/>
            <parameter index="37" name="High-Pass Filter Enable" parameterValue="0"/>
            <parameter index="38" name="High-Pass Cutoff Frequency" parameterValue="0"/>
            <parameter index="39" name="High-Pass Slope" parameterValue="0.4"/>
            <parameter index="40" name="Low-Pass Filter Enable" parameterValue="0"/>
            <parameter index="41" name="Low-Pass Cutoff Frequency" parameterValue="0.8331943"/>
            <parameter index="42" name="Low-Pass Slope" parameterValue="0.4"/>
            <parameter index="43" name="Bypass" parameterValue="0"/>
            <parameter index="44" name="LowGraphRange" parameterValue="1"/>
          </component>
        </trackAudioParameters>
        <effectsRack preFader="true">
          <component componentGuid="28dc6b54-fe06-4d96-af0b-9082a42cc047" id="rackMix" powered="true">
            <parameter index="0" parameterValue="0"/>
            <parameter index="1" parameterValue="0"/>
          </component>
          <component componentGuid="d3ec424b-f240-4986-a59d-112df19e0a66" id="rackInput" powered="true">
            <parameter index="0" parameterValue="1"/>
            <parameter index="1" parameterValue="0"/>
          </component>
          <component componentGuid="a9344824-53da-44a0-9e59-488b7b8f8700" id="rackOutput" powered="true">
            <parameter index="0" parameterValue="1"/>
            <parameter index="1" parameterValue="0"/>
          </component>
          <slot powered="true" slotIndex="0">
            <component componentGuid="8b64e9a5-9a8a-4075-bf5a-1c2561fb00dd" componentID="4f327230-f04c-4c34-9ea5-a998b4459221" editorHeight="505" editorLeft="670" editorTop="268" editorWidth="580" name="FFT Filter">
              <channelMap direction="input">
                <channel index="0" sourceIndex="0"/>
                <channel index="1" sourceIndex="1"/>
              </channelMap>
              <channelMap direction="output">
                <channel index="0" sourceIndex="0"/>
                <channel index="1" sourceIndex="1"/>
              </channelMap>
              <presetChunkData><![CDATA[AIA7RwAAAAD+Qqw9AADAPgAAAAAOdFo6AACAPwAAAAAAAIA/AADgQNOmWjoAAAAAqVxIO1PS2j54qVg9u1B0P12XGj4R8H4/+Eb4PgAAgD8VP3w/AACAPwAAgD8AAEA/]]></presetChunkData>
            </component>
          </slot>
          <slot powered="true" slotIndex="1">
            <component componentGuid="a397a111-35c9-4007-a59b-54052570e722" componentID="164b4e8a-7105-406b-b23b-1ef2cc4d8957" editorHeight="439" editorLeft="705" editorTop="301" editorWidth="511" name="Pitch Shifter">
              <channelMap direction="input">
                <channel index="0" sourceIndex="0"/>
                <channel index="1" sourceIndex="1"/>
              </channelMap>
              <channelMap direction="output">
                <channel index="0" sourceIndex="0"/>
                <channel index="1" sourceIndex="1"/>
              </channelMap>
              <parameter index="0" name="Transpose Ratio" parameterValue="0.2959162"/>
              <parameter index="1" name="Precision" parameterValue="1"/>
              <parameter index="2" name="Frequency" parameterValue="0.0886424"/>
              <parameter index="3" name="Overlapping" parameterValue="0.584326"/>
              <parameter index="4" name="Use Default Setting" parameterValue="0.75"/>
            </component>
          </slot>
          <slot powered="true" slotIndex="2">
            <component componentGuid="7ec6496d-b6e0-43e1-aed4-cf45c4f92b68" componentID="9b66ab13-4d1b-469a-88c6-b807fcf1df16" editorHeight="551" editorLeft="606" editorTop="245" editorWidth="708" name="Distortion">
              <channelMap direction="input">
                <channel index="0" sourceIndex="0"/>
                <channel index="1" sourceIndex="1"/>
              </channelMap>
              <channelMap direction="output">
                <channel index="0" sourceIndex="0"/>
                <channel index="1" sourceIndex="1"/>
              </channelMap>
              <presetChunkData><![CDATA[BSBuYWZldFMHAAAAAQAAAAAAAAAAAAAAAAAAAAAAcMIAAQFABgAAAAAAgAAAekMAgAlCqwpJQ1ZVnkKrCjBDrCr+QqpqoEKqiiNDAuArQwAAekMAAAAAAACAvwAAAAAAAAAAAAAAAAAAAAAAAAAAAAAAAAAAAAAAAAAAAAAAAAAAAAAAAAAAAAAAAAAAAAAAAAAAAAAAAAAAAAAAAAAAAAAAAAAAAAAAAAAAAAAAAAAAAAAAAAAAAAAAAAAAAAAAAAAAAAAAAAAAAAAAAAAAAAAAAAAAAAAAAAAAAAAAAAAAAAAAAAAAAAAAAAAAAAAAAAAAAAAAAAAAAAAAAAAAAAAAAAAAAAAAAAAAAAAAAAAAAAAAAAAAAAAAAAAAAAAAAAAAAAAAAAAAAAAAAAAAAAAAAAAAAAAAAAAAAAAAAAAAAAAAAAAAAAAAAAAAAAAAAAAAAAAAAAAAAAAAAAAAAAAAAAAAAAAAAAAAAAAAAAAAAAAAAAAAAAAAAAAAAAAAAAAAAAAAAAAAAAAAAAAAAAAAAAAAAAAAAAAAAAAAAAAAAAAAAAAAAAAAAAAAAAAAAAAAAAAAAAAAAAAAAAAAAAAAAAAAAAAAAAAAAAAAAAAAAAAAAAAAAAAAAAAAAAAAAAAAAAAAAAAAAAAAAAAAAAAAAAAAAAAAAAAAAAAAAAAAAAAAAAAAAAAAAAAAAAAAAAAAAAAAAAAAAAAAAAAAAAAAAAAAAAAAAAAAAAAAAAAAAAAAAAAAAAAAAAAAAAAAAAAAAAAAAAAAAAAAAAAAAAAAAAAAAAAAAAAAAAAAAAAAAAAAAAAAAAAAAAAAAAAAAAAAAAAAAAAAAAAAAAAAAAAAAAAAAAAAAAAAAAAAAAAAAAAAAAAAAAAAAAAAAAAAAAAAAAAAAAAAAAAAAAAAAAAAAAAAAAAAAAAAAAAAAAAAAAAAAAAAAAAAAAAAAAAAAAAAAAAAAAAAAAAAAAAAAAAAAAAAAAAAAAAAAAAAAAAAAAAAAAAAAAAAAAAAAAAAAAAAAAAAAAAAAAAAAAAAAAAAAAAAAAAAAAAAAAAAAAAAAAAAAAAAAAAAAAAAAAAAAAAAAAAAAAAAAAAAAAAAAAAAAAAAAAAAAACAAAB6Q6uqjUGqSk9Dq6qmQgAA+kKqKgFDVFVQQq3qRUP+f1RCAAB6QwAAAAAAAIC/AAAAAAAAAAAAAAAAAAAAAAAAAAAAAAAAAAAAAAAAAAAAAAAAAAAAAAAAAAAAAAAAAAAAAAAAAAAAAAAAAAAAAAAAAAAAAAAAAAAAAAAAAAAAAAAAAAAAAAAAAAAAAAAAAAAAAAAAAAAAAAAAAAAAAAAAAAAAAAAAAAAAAAAAAAAAAAAAAAAAAAAAAAAAAAAAAAAAAAAAAAAAAAAAAAAAAAAAAAAAAAAAAAAAAAAAAAAAAAAAAAAAAAAAAAAAAAAAAAAAAAAAAAAAAAAAAAAAAAAAAAAAAAAAAAAAAAAAAAAAAAAAAAAAAAAAAAAAAAAAAAAAAAAAAAAAAAAAAAAAAAAAAAAAAAAAAAAAAAAAAAAAAAAAAAAAAAAAAAAAAAAAAAAAAAAAAAAAAAAAAAAAAAAAAAAAAAAAAAAAAAAAAAAAAAAAAAAAAAAAAAAAAAAAAAAAAAAAAAAAAAAAAAAAAAAAAAAAAAAAAAAAAAAAAAAAAAAAAAAAAAAAAAAAAAAAAAAAAAAAAAAAAAAAAAAAAAAAAAAAAAAAAAAAAAAAAAAAAAAAAAAAAAAAAAAAAAAAAAAAAAAAAAAAAAAAAAAAAAAAAAAAAAAAAAAAAAAAAAAAAAAAAAAAAAAAAAAAAAAAAAAAAAAAAAAAAAAAAAAAAAAAAAAAAAAAAAAAAAAAAAAAAAAAAAAAAAAAAAAAAAAAAAAAAAAAAAAAAAAAAAAAAAAAAAAAAAAAAAAAAAAAAAAAAAAAAAAAAAAAAAAAAAAAAAAAAAAAAAAAAAAAAAAAAAAAAAAAAAAAAAAAAAAAAAAAAAAAAAAAAAAAAAAAAAAAAAAAAAAAAAAAAAAAAAAAAAAAAAAAAAAAAAAAAAAAAAAAAAAAAAAAAAAAAAAAAAAAAAAAAAAAAAAAAAAAAAAAAAAAAAAAAAAAAAAAAAAAAAAAAAAAAAAAAAAAAAAAAAAAAAAAAAAAAAAAAAAAAAAAAAAAAAAAAAAAAAAAAA==]]></presetChunkData>
            </component>
          </slot>
        </effectsRack>
        <editParameter parameterIndex="0" slotIndex="4294967280"/>
        <audioClip clipAutoCrossfade="true" crossFadeHeadClipID="-1" crossFadeTailClipID="-1" endPoint="96000" fileID="3" hue="-1" id="0" lockedInTime="false" looped="false" name="Bounce_12" offline="false" select="false" sourceInPoint="0" sourceOutPoint="24000" startPoint="72000" zOrder="37">
          <component componentGuid="28883bf5-c4a2-4b8c-897d-55aac479de45" componentID="Audition.Fader" id="clipGain" name="volume" powered="true">
            <parameter index="0" name="volume" parameterValue="0.2227314"/>
            <parameter index="1" name="static gain" parameterValue="1"/>
          </component>
          <component componentGuid="4ac78edf-170c-45e9-adbd-b86b76990bb2" componentID="Audition.Mute" id="clipMute" name="Mute" powered="true">
            <parameter index="0" parameterValue="0"/>
            <parameter index="1" name="mute" parameterValue="0"/>
          </component>
          <component componentGuid="ce7a514c-494a-41ee-b55d-b0fc81a3b668" componentID="Audition.StereoPanner" id="clipPan" name="StereoPanner" powered="true">
            <parameter index="0" name="Pan" parameterValue="0"/>
          </component>
          <fadeIn crossFadeLinkType="linkedAsymmetric" endPoint="0" shape="0" startPoint="0" type="cosine"/>
          <fadeOut crossFadeLinkType="linkedAsymmetric" endPoint="24000" shape="0" startPoint="24000" type="cosine"/>
          <editParameter parameterIndex="0" slotIndex="4294967281"/>
          <editParameter parameterIndex="0" slotIndex="4294967280"/>
          <channelMap>
            <channel index="0" sourceIndex="0"/>
            <channel index="1" sourceIndex="1"/>
          </channelMap>
        </audioClip>
        <audioClip clipAutoCrossfade="true" crossFadeHeadClipID="-1" crossFadeTailClipID="-1" endPoint="120000" fileID="3" hue="-1" id="1" lockedInTime="false" looped="false" name="Bounce_12" offline="false" select="false" sourceInPoint="0" sourceOutPoint="24000" startPoint="96000" zOrder="38">
          <component componentGuid="c75342a4-d6cb-41d2-a331-82bda8d017b7" componentID="Audition.Fader" id="clipGain" name="volume" powered="true">
            <parameter index="0" name="volume" parameterValue="0.2227314"/>
            <parameter index="1" name="static gain" parameterValue="1"/>
          </component>
          <component componentGuid="36a0e4e1-7d03-4d24-b82b-6006de7ac82c" componentID="Audition.Mute" id="clipMute" name="Mute" powered="true">
            <parameter index="0" parameterValue="0"/>
            <parameter index="1" name="mute" parameterValue="0"/>
          </component>
          <component componentGuid="76de427b-84a3-425d-bd1b-2fad7b236729" componentID="Audition.StereoPanner" id="clipPan" name="StereoPanner" powered="true">
            <parameter index="0" name="Pan" parameterValue="0"/>
          </component>
          <fadeIn crossFadeLinkType="linkedAsymmetric" endPoint="0" shape="0" startPoint="0" type="cosine"/>
          <fadeOut crossFadeLinkType="linkedAsymmetric" endPoint="24000" shape="0" startPoint="24000" type="cosine"/>
          <editParameter parameterIndex="0" slotIndex="4294967281"/>
          <editParameter parameterIndex="0" slotIndex="4294967280"/>
          <channelMap>
            <channel index="0" sourceIndex="0"/>
            <channel index="1" sourceIndex="1"/>
          </channelMap>
        </audioClip>
        <audioClip clipAutoCrossfade="true" crossFadeHeadClipID="-1" crossFadeTailClipID="-1" endPoint="216000" fileID="3" hue="-1" id="2" lockedInTime="false" looped="false" name="Bounce_12" offline="false" select="false" sourceInPoint="0" sourceOutPoint="24000" startPoint="192000" zOrder="51">
          <component componentGuid="c5a57a0e-6c8b-4807-b588-54efbb744c70" componentID="Audition.Fader" id="clipGain" name="volume" powered="true">
            <parameter index="0" name="volume" parameterValue="0.2227314"/>
            <parameter index="1" name="static gain" parameterValue="1"/>
          </component>
          <component componentGuid="a9327b03-48fe-481b-b0c3-85650b93f85b" componentID="Audition.Mute" id="clipMute" name="Mute" powered="true">
            <parameter index="0" parameterValue="0"/>
            <parameter index="1" name="mute" parameterValue="0"/>
          </component>
          <component componentGuid="48f6eadc-964d-43a1-bbdc-1161ba24e0fe" componentID="Audition.StereoPanner" id="clipPan" name="StereoPanner" powered="true">
            <parameter index="0" name="Pan" parameterValue="0"/>
          </component>
          <fadeIn crossFadeLinkType="linkedAsymmetric" endPoint="0" shape="0" startPoint="0" type="cosine"/>
          <fadeOut crossFadeLinkType="linkedAsymmetric" endPoint="24000" shape="0" startPoint="24000" type="cosine"/>
          <editParameter parameterIndex="0" slotIndex="4294967281"/>
          <editParameter parameterIndex="0" slotIndex="4294967280"/>
          <channelMap>
            <channel index="0" sourceIndex="0"/>
            <channel index="1" sourceIndex="1"/>
          </channelMap>
        </audioClip>
        <audioClip clipAutoCrossfade="true" crossFadeHeadClipID="-1" crossFadeTailClipID="-1" endPoint="264000" fileID="3" hue="-1" id="3" lockedInTime="false" looped="false" name="Bounce_12" offline="false" select="false" sourceInPoint="0" sourceOutPoint="24000" startPoint="240000" zOrder="39">
          <component componentGuid="6e5d2340-8297-467f-b4b5-55062791d56a" componentID="Audition.Fader" id="clipGain" name="volume" powered="true">
            <parameter index="0" name="volume" parameterValue="0.2227314"/>
            <parameter index="1" name="static gain" parameterValue="1"/>
          </component>
          <component componentGuid="85940f7d-d317-4a07-bc4d-34066d0d892b" componentID="Audition.Mute" id="clipMute" name="Mute" powered="true">
            <parameter index="0" parameterValue="0"/>
            <parameter index="1" name="mute" parameterValue="0"/>
          </component>
          <component componentGuid="d53e7af6-0c26-46d0-a1e3-19c6848e897d" componentID="Audition.StereoPanner" id="clipPan" name="StereoPanner" powered="true">
            <parameter index="0" name="Pan" parameterValue="0"/>
          </component>
          <fadeIn crossFadeLinkType="linkedAsymmetric" endPoint="0" shape="0" startPoint="0" type="cosine"/>
          <fadeOut crossFadeLinkType="linkedAsymmetric" endPoint="24000" shape="0" startPoint="24000" type="cosine"/>
          <editParameter parameterIndex="0" slotIndex="4294967281"/>
          <editParameter parameterIndex="0" slotIndex="4294967280"/>
          <channelMap>
            <channel index="0" sourceIndex="0"/>
            <channel index="1" sourceIndex="1"/>
          </channelMap>
        </audioClip>
        <audioClip clipAutoCrossfade="true" crossFadeHeadClipID="-1" crossFadeTailClipID="-1" endPoint="288000" fileID="3" hue="-1" id="4" lockedInTime="false" looped="false" name="Bounce_12" offline="false" select="false" sourceInPoint="0" sourceOutPoint="24000" startPoint="264000" zOrder="40">
          <component componentGuid="e544fa3b-f2c6-43fc-96e2-8df903922345" componentID="Audition.Fader" id="clipGain" name="volume" powered="true">
            <parameter index="0" name="volume" parameterValue="0.2227314"/>
            <parameter index="1" name="static gain" parameterValue="1"/>
          </component>
          <component componentGuid="cc1974ab-cf52-446d-9bb2-aebfebe7ceee" componentID="Audition.Mute" id="clipMute" name="Mute" powered="true">
            <parameter index="0" parameterValue="0"/>
            <parameter index="1" name="mute" parameterValue="0"/>
          </component>
          <component componentGuid="e8a1d0e6-dd80-425b-b4f5-583faf476478" componentID="Audition.StereoPanner" id="clipPan" name="StereoPanner" powered="true">
            <parameter index="0" name="Pan" parameterValue="0"/>
          </component>
          <fadeIn crossFadeLinkType="linkedAsymmetric" endPoint="0" shape="0" startPoint="0" type="cosine"/>
          <fadeOut crossFadeLinkType="linkedAsymmetric" endPoint="24000" shape="0" startPoint="24000" type="cosine"/>
          <editParameter parameterIndex="0" slotIndex="4294967281"/>
          <editParameter parameterIndex="0" slotIndex="4294967280"/>
          <channelMap>
            <channel index="0" sourceIndex="0"/>
            <channel index="1" sourceIndex="1"/>
          </channelMap>
        </audioClip>
        <audioClip clipAutoCrossfade="true" crossFadeHeadClipID="-1" crossFadeTailClipID="-1" endPoint="384000" fileID="3" hue="-1" id="5" lockedInTime="false" looped="false" name="Bounce_12" offline="false" select="false" sourceInPoint="0" sourceOutPoint="24000" startPoint="360000" zOrder="41">
          <component componentGuid="cd9e00fd-55da-4dbc-ac33-65336f502ef2" componentID="Audition.Fader" id="clipGain" name="volume" powered="true">
            <parameter index="0" name="volume" parameterValue="0.2227314"/>
            <parameter index="1" name="static gain" parameterValue="1"/>
          </component>
          <component componentGuid="76d6eb82-8d2d-402d-8280-6ee00b4b577b" componentID="Audition.Mute" id="clipMute" name="Mute" powered="true">
            <parameter index="0" parameterValue="0"/>
            <parameter index="1" name="mute" parameterValue="0"/>
          </component>
          <component componentGuid="365c46ec-e84b-4ec6-9811-3fa92920ea40" componentID="Audition.StereoPanner" id="clipPan" name="StereoPanner" powered="true">
            <parameter index="0" name="Pan" parameterValue="0"/>
          </component>
          <fadeIn crossFadeLinkType="linkedAsymmetric" endPoint="0" shape="0" startPoint="0" type="cosine"/>
          <fadeOut crossFadeLinkType="linkedAsymmetric" endPoint="24000" shape="0" startPoint="24000" type="cosine"/>
          <editParameter parameterIndex="0" slotIndex="4294967281"/>
          <editParameter parameterIndex="0" slotIndex="4294967280"/>
          <channelMap>
            <channel index="0" sourceIndex="0"/>
            <channel index="1" sourceIndex="1"/>
          </channelMap>
        </audioClip>
        <audioClip clipAutoCrossfade="true" crossFadeHeadClipID="-1" crossFadeTailClipID="-1" endPoint="408000" fileID="3" hue="-1" id="6" lockedInTime="false" looped="false" name="Bounce_12" offline="false" select="false" sourceInPoint="0" sourceOutPoint="24000" startPoint="384000" zOrder="42">
          <component componentGuid="67659ac4-fe61-48a7-9323-c1e003f29a34" componentID="Audition.Fader" id="clipGain" name="volume" powered="true">
            <parameter index="0" name="volume" parameterValue="0.2227314"/>
            <parameter index="1" name="static gain" parameterValue="1"/>
          </component>
          <component componentGuid="b4a22e62-fb5c-480d-bf8b-ae62abb5c1d6" componentID="Audition.Mute" id="clipMute" name="Mute" powered="true">
            <parameter index="0" parameterValue="0"/>
            <parameter index="1" name="mute" parameterValue="0"/>
          </component>
          <component componentGuid="a56d6f35-d74e-4767-a2ef-d2087bee1567" componentID="Audition.StereoPanner" id="clipPan" name="StereoPanner" powered="true">
            <parameter index="0" name="Pan" parameterValue="0"/>
          </component>
          <fadeIn crossFadeLinkType="linkedAsymmetric" endPoint="0" shape="0" startPoint="0" type="cosine"/>
          <fadeOut crossFadeLinkType="linkedAsymmetric" endPoint="24000" shape="0" startPoint="24000" type="cosine"/>
          <editParameter parameterIndex="0" slotIndex="4294967281"/>
          <editParameter parameterIndex="0" slotIndex="4294967280"/>
          <channelMap>
            <channel index="0" sourceIndex="0"/>
            <channel index="1" sourceIndex="1"/>
          </channelMap>
        </audioClip>
        <audioClip clipAutoCrossfade="true" crossFadeHeadClipID="-1" crossFadeTailClipID="-1" endPoint="456000" fileID="3" hue="-1" id="7" lockedInTime="false" looped="false" name="Bounce_12" offline="false" select="false" sourceInPoint="0" sourceOutPoint="24000" startPoint="432000" zOrder="43">
          <component componentGuid="c5a3d7a4-c0ba-428f-a34c-93c91cf71af2" componentID="Audition.Fader" id="clipGain" name="volume" powered="true">
            <parameter index="0" name="volume" parameterValue="0.2227314"/>
            <parameter index="1" name="static gain" parameterValue="1"/>
          </component>
          <component componentGuid="961ba653-0e03-4b23-a626-0b6ccadb531b" componentID="Audition.Mute" id="clipMute" name="Mute" powered="true">
            <parameter index="0" parameterValue="0"/>
            <parameter index="1" name="mute" parameterValue="0"/>
          </component>
          <component componentGuid="28ceeb17-5036-44a0-a79e-e48a3b1691d8" componentID="Audition.StereoPanner" id="clipPan" name="StereoPanner" powered="true">
            <parameter index="0" name="Pan" parameterValue="0"/>
          </component>
          <fadeIn crossFadeLinkType="linkedAsymmetric" endPoint="0" shape="0" startPoint="0" type="cosine"/>
          <fadeOut crossFadeLinkType="linkedAsymmetric" endPoint="24000" shape="0" startPoint="24000" type="cosine"/>
          <editParameter parameterIndex="0" slotIndex="4294967281"/>
          <editParameter parameterIndex="0" slotIndex="4294967280"/>
          <channelMap>
            <channel index="0" sourceIndex="0"/>
            <channel index="1" sourceIndex="1"/>
          </channelMap>
        </audioClip>
        <audioClip clipAutoCrossfade="true" crossFadeHeadClipID="-1" crossFadeTailClipID="-1" endPoint="480000" fileID="3" hue="-1" id="8" lockedInTime="false" looped="false" name="Bounce_12" offline="false" select="false" sourceInPoint="0" sourceOutPoint="24000" startPoint="456000" zOrder="44">
          <component componentGuid="e24aad4e-993a-485e-996d-bcd7daa6431b" componentID="Audition.Fader" id="clipGain" name="volume" powered="true">
            <parameter index="0" name="volume" parameterValue="0.2227314"/>
            <parameter index="1" name="static gain" parameterValue="1"/>
          </component>
          <component componentGuid="ebf7bdbb-0b9b-481d-a7e3-daa0373f66c4" componentID="Audition.Mute" id="clipMute" name="Mute" powered="true">
            <parameter index="0" parameterValue="0"/>
            <parameter index="1" name="mute" parameterValue="0"/>
          </component>
          <component componentGuid="7bc34b9b-db48-429b-bcba-5cde432bf238" componentID="Audition.StereoPanner" id="clipPan" name="StereoPanner" powered="true">
            <parameter index="0" name="Pan" parameterValue="0"/>
          </component>
          <fadeIn crossFadeLinkType="linkedAsymmetric" endPoint="0" shape="0" startPoint="0" type="cosine"/>
          <fadeOut crossFadeLinkType="linkedAsymmetric" endPoint="24000" shape="0" startPoint="24000" type="cosine"/>
          <editParameter parameterIndex="0" slotIndex="4294967281"/>
          <editParameter parameterIndex="0" slotIndex="4294967280"/>
          <channelMap>
            <channel index="0" sourceIndex="0"/>
            <channel index="1" sourceIndex="1"/>
          </channelMap>
        </audioClip>
        <audioClip clipAutoCrossfade="true" crossFadeHeadClipID="-1" crossFadeTailClipID="-1" endPoint="576000" fileID="3" hue="-1" id="9" lockedInTime="false" looped="false" name="Bounce_12" offline="false" select="false" sourceInPoint="0" sourceOutPoint="24000" startPoint="552000" zOrder="45">
          <component componentGuid="b07226fe-662c-45ab-8fef-da8d3baadc47" componentID="Audition.Fader" id="clipGain" name="volume" powered="true">
            <parameter index="0" name="volume" parameterValue="0.2227314"/>
            <parameter index="1" name="static gain" parameterValue="1"/>
          </component>
          <component componentGuid="92231efc-3752-4595-bce3-cd26c90bc5f2" componentID="Audition.Mute" id="clipMute" name="Mute" powered="true">
            <parameter index="0" parameterValue="0"/>
            <parameter index="1" name="mute" parameterValue="0"/>
          </component>
          <component componentGuid="b574a5aa-c725-4bff-af4d-d0f17450d8de" componentID="Audition.StereoPanner" id="clipPan" name="StereoPanner" powered="true">
            <parameter index="0" name="Pan" parameterValue="0"/>
          </component>
          <fadeIn crossFadeLinkType="linkedAsymmetric" endPoint="0" shape="0" startPoint="0" type="cosine"/>
          <fadeOut crossFadeLinkType="linkedAsymmetric" endPoint="24000" shape="0" startPoint="24000" type="cosine"/>
          <editParameter parameterIndex="0" slotIndex="4294967281"/>
          <editParameter parameterIndex="0" slotIndex="4294967280"/>
          <channelMap>
            <channel index="0" sourceIndex="0"/>
            <channel index="1" sourceIndex="1"/>
          </channelMap>
        </audioClip>
        <audioClip clipAutoCrossfade="true" crossFadeHeadClipID="-1" crossFadeTailClipID="-1" endPoint="600000" fileID="3" hue="-1" id="10" lockedInTime="false" looped="false" name="Bounce_12" offline="false" select="false" sourceInPoint="0" sourceOutPoint="24000" startPoint="576000" zOrder="46">
          <component componentGuid="06760166-3007-473b-ae90-0387d09dd854" componentID="Audition.Fader" id="clipGain" name="volume" powered="true">
            <parameter index="0" name="volume" parameterValue="0.2227314"/>
            <parameter index="1" name="static gain" parameterValue="1"/>
          </component>
          <component componentGuid="55f0df68-02a9-44d3-ab8d-26152569f1d9" componentID="Audition.Mute" id="clipMute" name="Mute" powered="true">
            <parameter index="0" parameterValue="0"/>
            <parameter index="1" name="mute" parameterValue="0"/>
          </component>
          <component componentGuid="fa041b2e-280e-4fae-abcd-cdeeec5ca232" componentID="Audition.StereoPanner" id="clipPan" name="StereoPanner" powered="true">
            <parameter index="0" name="Pan" parameterValue="0"/>
          </component>
          <fadeIn crossFadeLinkType="linkedAsymmetric" endPoint="0" shape="0" startPoint="0" type="cosine"/>
          <fadeOut crossFadeLinkType="linkedAsymmetric" endPoint="24000" shape="0" startPoint="24000" type="cosine"/>
          <editParameter parameterIndex="0" slotIndex="4294967281"/>
          <editParameter parameterIndex="0" slotIndex="4294967280"/>
          <channelMap>
            <channel index="0" sourceIndex="0"/>
            <channel index="1" sourceIndex="1"/>
          </channelMap>
        </audioClip>
        <audioClip clipAutoCrossfade="true" crossFadeHeadClipID="-1" crossFadeTailClipID="-1" endPoint="672000" fileID="3" hue="-1" id="11" lockedInTime="false" looped="false" name="Bounce_12" offline="false" select="false" sourceInPoint="0" sourceOutPoint="24000" startPoint="648000" zOrder="47">
          <component componentGuid="017d56e5-6c3a-4bc2-9fcb-fb4ab35c7ecc" componentID="Audition.Fader" id="clipGain" name="volume" powered="true">
            <parameter index="0" name="volume" parameterValue="0.2227314"/>
            <parameter index="1" name="static gain" parameterValue="1"/>
          </component>
          <component componentGuid="20de7724-7971-49a5-9d2c-cf87d2a96acb" componentID="Audition.Mute" id="clipMute" name="Mute" powered="true">
            <parameter index="0" parameterValue="0"/>
            <parameter index="1" name="mute" parameterValue="0"/>
          </component>
          <component componentGuid="e1ceaaf9-5a9a-465d-b0e6-c0e34e6d476f" componentID="Audition.StereoPanner" id="clipPan" name="StereoPanner" powered="true">
            <parameter index="0" name="Pan" parameterValue="0"/>
          </component>
          <fadeIn crossFadeLinkType="linkedAsymmetric" endPoint="0" shape="0" startPoint="0" type="cosine"/>
          <fadeOut crossFadeLinkType="linkedAsymmetric" endPoint="24000" shape="0" startPoint="24000" type="cosine"/>
          <editParameter parameterIndex="0" slotIndex="4294967281"/>
          <editParameter parameterIndex="0" slotIndex="4294967280"/>
          <channelMap>
            <channel index="0" sourceIndex="0"/>
            <channel index="1" sourceIndex="1"/>
          </channelMap>
        </audioClip>
        <audioClip clipAutoCrossfade="true" crossFadeHeadClipID="-1" crossFadeTailClipID="-1" endPoint="696000" fileID="3" hue="-1" id="12" lockedInTime="false" looped="false" name="Bounce_12" offline="false" select="false" sourceInPoint="0" sourceOutPoint="24000" startPoint="672000" zOrder="48">
          <component componentGuid="357f0fac-6834-47d4-816c-04b7b02062e6" componentID="Audition.Fader" id="clipGain" name="volume" powered="true">
            <parameter index="0" name="volume" parameterValue="0.2227314"/>
            <parameter index="1" name="static gain" parameterValue="1"/>
          </component>
          <component componentGuid="2ce42ff4-b558-4a55-9588-373a83752c83" componentID="Audition.Mute" id="clipMute" name="Mute" powered="true">
            <parameter index="0" parameterValue="0"/>
            <parameter index="1" name="mute" parameterValue="0"/>
          </component>
          <component componentGuid="37473ae9-acb3-4f86-a28f-7b319c5e2254" componentID="Audition.StereoPanner" id="clipPan" name="StereoPanner" powered="true">
            <parameter index="0" name="Pan" parameterValue="0"/>
          </component>
          <fadeIn crossFadeLinkType="linkedAsymmetric" endPoint="0" shape="0" startPoint="0" type="cosine"/>
          <fadeOut crossFadeLinkType="linkedAsymmetric" endPoint="24000" shape="0" startPoint="24000" type="cosine"/>
          <editParameter parameterIndex="0" slotIndex="4294967281"/>
          <editParameter parameterIndex="0" slotIndex="4294967280"/>
          <channelMap>
            <channel index="0" sourceIndex="0"/>
            <channel index="1" sourceIndex="1"/>
          </channelMap>
        </audioClip>
        <audioClip clipAutoCrossfade="true" crossFadeHeadClipID="-1" crossFadeTailClipID="-1" endPoint="792000" fileID="3" hue="-1" id="13" lockedInTime="false" looped="false" name="Bounce_12" offline="false" select="false" sourceInPoint="0" sourceOutPoint="24000" startPoint="768000" zOrder="52">
          <component componentGuid="7ec313d4-f602-4b9d-9666-da0820bf08cf" componentID="Audition.Fader" id="clipGain" name="volume" powered="true">
            <parameter index="0" name="volume" parameterValue="0.2227314"/>
            <parameter index="1" name="static gain" parameterValue="1"/>
          </component>
          <component componentGuid="bd1023af-52d6-4a98-b14c-02f904e6ad72" componentID="Audition.Mute" id="clipMute" name="Mute" powered="true">
            <parameter index="0" parameterValue="0"/>
            <parameter index="1" name="mute" parameterValue="0"/>
          </component>
          <component componentGuid="d5fc0a8d-9112-4bb6-9a45-407f47775927" componentID="Audition.StereoPanner" id="clipPan" name="StereoPanner" powered="true">
            <parameter index="0" name="Pan" parameterValue="0"/>
          </component>
          <fadeIn crossFadeLinkType="linkedAsymmetric" endPoint="0" shape="0" startPoint="0" type="cosine"/>
          <fadeOut crossFadeLinkType="linkedAsymmetric" endPoint="24000" shape="0" startPoint="24000" type="cosine"/>
          <editParameter parameterIndex="0" slotIndex="4294967281"/>
          <editParameter parameterIndex="0" slotIndex="4294967280"/>
          <channelMap>
            <channel index="0" sourceIndex="0"/>
            <channel index="1" sourceIndex="1"/>
          </channelMap>
        </audioClip>
        <audioClip clipAutoCrossfade="true" crossFadeHeadClipID="-1" crossFadeTailClipID="-1" endPoint="864000" fileID="3" hue="-1" id="14" lockedInTime="false" looped="false" name="Bounce_12" offline="false" select="false" sourceInPoint="0" sourceOutPoint="24000" startPoint="840000" zOrder="49">
          <component componentGuid="b49a02c5-5a43-4675-afc2-cce11dd3f282" componentID="Audition.Fader" id="clipGain" name="volume" powered="true">
            <parameter index="0" name="volume" parameterValue="0.2227314"/>
            <parameter index="1" name="static gain" parameterValue="1"/>
          </component>
          <component componentGuid="5dd361ad-9ee2-4860-b7d8-3005d40f12ec" componentID="Audition.Mute" id="clipMute" name="Mute" powered="true">
            <parameter index="0" parameterValue="0"/>
            <parameter index="1" name="mute" parameterValue="0"/>
          </component>
          <component componentGuid="f047411f-b4cc-4f96-a730-9560fb79e005" componentID="Audition.StereoPanner" id="clipPan" name="StereoPanner" powered="true">
            <parameter index="0" name="Pan" parameterValue="0"/>
          </component>
          <fadeIn crossFadeLinkType="linkedAsymmetric" endPoint="0" shape="0" startPoint="0" type="cosine"/>
          <fadeOut crossFadeLinkType="linkedAsymmetric" endPoint="24000" shape="0" startPoint="24000" type="cosine"/>
          <editParameter parameterIndex="0" slotIndex="4294967281"/>
          <editParameter parameterIndex="0" slotIndex="4294967280"/>
          <channelMap>
            <channel index="0" sourceIndex="0"/>
            <channel index="1" sourceIndex="1"/>
          </channelMap>
        </audioClip>
        <audioClip clipAutoCrossfade="true" crossFadeHeadClipID="-1" crossFadeTailClipID="-1" endPoint="888000" fileID="3" hue="-1" id="15" lockedInTime="false" looped="false" name="Bounce_12" offline="false" select="false" sourceInPoint="0" sourceOutPoint="24000" startPoint="864000" zOrder="50">
          <component componentGuid="920a493e-0c2c-49e9-a454-f9c8b1590e82" componentID="Audition.Fader" id="clipGain" name="volume" powered="true">
            <parameter index="0" name="volume" parameterValue="0.2227314"/>
            <parameter index="1" name="static gain" parameterValue="1"/>
          </component>
          <component componentGuid="32b02581-9980-4fde-a3c2-31c6e0204d0f" componentID="Audition.Mute" id="clipMute" name="Mute" powered="true">
            <parameter index="0" parameterValue="0"/>
            <parameter index="1" name="mute" parameterValue="0"/>
          </component>
          <component componentGuid="c01c11ee-29c5-474f-8c99-a34891e67166" componentID="Audition.StereoPanner" id="clipPan" name="StereoPanner" powered="true">
            <parameter index="0" name="Pan" parameterValue="0"/>
          </component>
          <fadeIn crossFadeLinkType="linkedAsymmetric" endPoint="0" shape="0" startPoint="0" type="cosine"/>
          <fadeOut crossFadeLinkType="linkedAsymmetric" endPoint="24000" shape="0" startPoint="24000" type="cosine"/>
          <editParameter parameterIndex="0" slotIndex="4294967281"/>
          <editParameter parameterIndex="0" slotIndex="4294967280"/>
          <channelMap>
            <channel index="0" sourceIndex="0"/>
            <channel index="1" sourceIndex="1"/>
          </channelMap>
        </audioClip>
        <audioClip clipAutoCrossfade="true" crossFadeHeadClipID="-1" crossFadeTailClipID="-1" endPoint="912000" fileID="3" hue="-1" id="16" lockedInTime="false" looped="false" name="Bounce_12" offline="false" select="false" sourceInPoint="0" sourceOutPoint="24000" startPoint="888000" zOrder="54">
          <component componentGuid="8f6c55e7-e977-4b65-b44b-2f346bff2dcc" componentID="Audition.Fader" id="clipGain" name="volume" powered="true">
            <parameter index="0" name="volume" parameterValue="0.2227314"/>
            <parameter index="1" name="static gain" parameterValue="1"/>
          </component>
          <component componentGuid="a0139474-39cc-4ef3-9eb6-f7f47b7d2832" componentID="Audition.Mute" id="clipMute" name="Mute" powered="true">
            <parameter index="0" parameterValue="0"/>
            <parameter index="1" name="mute" parameterValue="0"/>
          </component>
          <component componentGuid="c2cc80c9-c818-474b-86ea-f39c6df2a121" componentID="Audition.StereoPanner" id="clipPan" name="StereoPanner" powered="true">
            <parameter index="0" name="Pan" parameterValue="0"/>
          </component>
          <fadeIn crossFadeLinkType="linkedAsymmetric" endPoint="0" shape="0" startPoint="0" type="cosine"/>
          <fadeOut crossFadeLinkType="linkedAsymmetric" endPoint="24000" shape="0" startPoint="24000" type="cosine"/>
          <editParameter parameterIndex="0" slotIndex="4294967281"/>
          <editParameter parameterIndex="0" slotIndex="4294967280"/>
          <channelMap>
            <channel index="0" sourceIndex="0"/>
            <channel index="1" sourceIndex="1"/>
          </channelMap>
        </audioClip>
        <audioClip clipAutoCrossfade="true" crossFadeHeadClipID="-1" crossFadeTailClipID="-1" endPoint="984000" fileID="3" hue="-1" id="17" lockedInTime="false" looped="false" name="Bounce_12" offline="false" select="false" sourceInPoint="0" sourceOutPoint="24000" startPoint="960000" zOrder="53">
          <component componentGuid="7b758776-cb5b-48a8-b4e7-b17f6ec56a53" componentID="Audition.Fader" id="clipGain" name="volume" powered="true">
            <parameter index="0" name="volume" parameterValue="0.2227314"/>
            <parameter index="1" name="static gain" parameterValue="1"/>
          </component>
          <component componentGuid="c200bbde-45e5-41ea-bf14-af28746e836a" componentID="Audition.Mute" id="clipMute" name="Mute" powered="true">
            <parameter index="0" parameterValue="0"/>
            <parameter index="1" name="mute" parameterValue="0"/>
          </component>
          <component componentGuid="5696f723-7071-447c-9e78-89e0f8f2d9bc" componentID="Audition.StereoPanner" id="clipPan" name="StereoPanner" powered="true">
            <parameter index="0" name="Pan" parameterValue="0"/>
          </component>
          <fadeIn crossFadeLinkType="linkedAsymmetric" endPoint="0" shape="0" startPoint="0" type="cosine"/>
          <fadeOut crossFadeLinkType="linkedAsymmetric" endPoint="24000" shape="0" startPoint="24000" type="cosine"/>
          <editParameter parameterIndex="0" slotIndex="4294967281"/>
          <editParameter parameterIndex="0" slotIndex="4294967280"/>
          <channelMap>
            <channel index="0" sourceIndex="0"/>
            <channel index="1" sourceIndex="1"/>
          </channelMap>
        </audioClip>
      </audioTrack>
      <audioTrack automationLaneOpenState="false" id="10023" index="7" select="false" visible="true">
        <trackParameters trackHeight="93" trackHue="-1" trackMinimized="false">
          <name>Bounce_1 1 2</name>
        </trackParameters>
        <trackAudioParameters audioChannelType="stereo" automationMode="1" monitoring="false" recordArmed="false" solo="false" soloSafe="false">
          <trackOutput outputID="10000" type="trackID"/>
          <trackInput inputID="1"/>
          <component componentGuid="50b5fd47-4386-4041-a74c-9ef503fc7a5c" componentID="Audition.Fader" id="trackFader" name="volume" powered="true">
            <parameter index="0" name="volume" parameterValue="0.6309573"/>
            <parameter index="1" name="static gain" parameterValue="1"/>
          </component>
          <component componentGuid="ff8c61a0-8336-49da-9e3f-294836888e81" componentID="Audition.Mute" id="trackMute" name="Mute" powered="true">
            <parameter index="0" parameterValue="0"/>
            <parameter index="1" name="mute" parameterValue="0"/>
          </component>
          <component componentGuid="1e6b672d-9b8b-4e63-8e2a-494255f6a9e6" componentID="Audition.StereoPanner" id="trackPan" name="StereoPanner" powered="true">
            <parameter index="0" name="Pan" parameterValue="0"/>
          </component>
          <component componentGuid="079ccf90-d8b6-4306-accb-56d6fbc5ca4a" componentID="Audition.EQ" id="trackEQ" name="EQ" powered="false">
            <parameter index="0" name="Low Shelf Frequency" parameterValue="0.000834"/>
            <parameter index="1" name="Low Shelf Gain" parameterValue="0.5"/>
            <parameter index="2" name="High Shelf Frequency" parameterValue="0.7497915"/>
            <parameter index="3" name="High Shelf Gain" parameterValue="0.5"/>
            <parameter index="4" name="EQ Band 1 Center Frequency" parameterValue="0.001251"/>
            <parameter index="5" name="EQ Band 1 Q" parameterValue="0.0002"/>
            <parameter index="6" name="EQ Band 1 Gain" parameterValue="0.5"/>
            <parameter index="7" name="EQ Band 1 Enable" parameterValue="1"/>
            <parameter index="8" name="EQ Band 2 Center Frequency" parameterValue="0.0075063"/>
            <parameter index="9" name="EQ Band 2 Q" parameterValue="0.0002"/>
            <parameter index="10" name="EQ Band 2 Gain" parameterValue="0.5"/>
            <parameter index="11" name="EQ Band 2 Enable" parameterValue="1"/>
            <parameter index="12" name="EQ Band 3 Center Frequency" parameterValue="0.0325271"/>
            <parameter index="13" name="EQ Band 3 Q" parameterValue="0.0002"/>
            <parameter index="14" name="EQ Band 3 Gain" parameterValue="0.5"/>
            <parameter index="15" name="EQ Band 3 Enable" parameterValue="1"/>
            <parameter index="16" name="EQ Band 4 Center Frequency" parameterValue="0.1326105"/>
            <parameter index="17" name="EQ Band 4 Q" parameterValue="0.0002"/>
            <parameter index="18" name="EQ Band 4 Gain" parameterValue="0.5"/>
            <parameter index="19" name="EQ Band 4 Enable" parameterValue="1"/>
            <parameter index="20" name="EQ Band 5 Center Frequency" parameterValue="0.5329441"/>
            <parameter index="21" name="EQ Band 5 Q" parameterValue="0.0002"/>
            <parameter index="22" name="EQ Band 5 Gain" parameterValue="0.5"/>
            <parameter index="23" name="EQ Band 5 Enable" parameterValue="1"/>
            <parameter index="24" name="Master Gain" parameterValue="0.6666667"/>
            <parameter index="25" name="ConstantQ" parameterValue="1"/>
            <parameter index="26" name="Low Shelf Filter Order" parameterValue="0"/>
            <parameter index="27" name="High Shelf Filter Order" parameterValue="0"/>
            <parameter index="28" name="Ultra-Quiet Mode" parameterValue="0"/>
            <parameter index="29" name="Low Shelf Enable" parameterValue="1"/>
            <parameter index="30" name="High Shelf Enable" parameterValue="1"/>
            <parameter index="31" name="Original Sample Rate" parameterValue="0.25"/>
            <parameter index="32" name="EQ Band 1 Bandwidth" parameterValue="0.0025"/>
            <parameter index="33" name="EQ Band 2 Bandwidth" parameterValue="0.01"/>
            <parameter index="34" name="EQ Band 3 Bandwidth" parameterValue="0.04"/>
            <parameter index="35" name="EQ Band 4 Bandwidth" parameterValue="0.16"/>
            <parameter index="36" name="EQ Band 5 Bandwidth" parameterValue="0.64"/>
            <parameter index="37" name="High-Pass Filter Enable" parameterValue="0"/>
            <parameter index="38" name="High-Pass Cutoff Frequency" parameterValue="0"/>
            <parameter index="39" name="High-Pass Slope" parameterValue="0.4"/>
            <parameter index="40" name="Low-Pass Filter Enable" parameterValue="0"/>
            <parameter index="41" name="Low-Pass Cutoff Frequency" parameterValue="0.8331943"/>
            <parameter index="42" name="Low-Pass Slope" parameterValue="0.4"/>
            <parameter index="43" name="Bypass" parameterValue="0"/>
            <parameter index="44" name="LowGraphRange" parameterValue="1"/>
          </component>
        </trackAudioParameters>
        <effectsRack preFader="true">
          <component componentGuid="5290afb8-9c77-4179-a266-3dfd45fb59cd" id="rackMix" powered="true">
            <parameter index="0" parameterValue="0"/>
            <parameter index="1" parameterValue="0"/>
          </component>
          <component componentGuid="efc165c2-4b1f-40a9-82e5-03a389415265" id="rackInput" powered="true">
            <parameter index="0" parameterValue="1"/>
            <parameter index="1" parameterValue="0"/>
          </component>
          <component componentGuid="0835498d-b728-4f46-8c3f-3e1fb92911dd" id="rackOutput" powered="true">
            <parameter index="0" parameterValue="1"/>
            <parameter index="1" parameterValue="0"/>
          </component>
          <slot powered="true" slotIndex="0">
            <component componentGuid="b26d4170-ce0e-4e60-9697-64bde8277211" componentID="4f327230-f04c-4c34-9ea5-a998b4459221" name="FFT Filter">
              <channelMap direction="input">
                <channel index="0" sourceIndex="0"/>
                <channel index="1" sourceIndex="1"/>
              </channelMap>
              <channelMap direction="output">
                <channel index="0" sourceIndex="0"/>
                <channel index="1" sourceIndex="1"/>
              </channelMap>
              <presetChunkData><![CDATA[AIA7RwAAAAD+Qqw9AADAPgAAAAAOdFo6AACAPwAAAAAAAIA/AADgQNOmWjoAAAAAflyeOx01rj54qVg9u1B0P12XGj4R8H4/+Eb4PgAAgD8VP3w/AACAPwAAgD8AAEA/]]></presetChunkData>
            </component>
          </slot>
          <slot powered="true" slotIndex="1">
            <component componentGuid="46bbf773-e7f3-4a42-828b-fb8e53e86ea2" componentID="164b4e8a-7105-406b-b23b-1ef2cc4d8957" editorHeight="439" editorLeft="705" editorTop="301" editorWidth="511" name="Pitch Shifter">
              <channelMap direction="input">
                <channel index="0" sourceIndex="0"/>
                <channel index="1" sourceIndex="1"/>
              </channelMap>
              <channelMap direction="output">
                <channel index="0" sourceIndex="0"/>
                <channel index="1" sourceIndex="1"/>
              </channelMap>
              <parameter index="0" name="Transpose Ratio" parameterValue="0.4149747"/>
              <parameter index="1" name="Precision" parameterValue="1"/>
              <parameter index="2" name="Frequency" parameterValue="0.0833212"/>
              <parameter index="3" name="Overlapping" parameterValue="0.5574024"/>
              <parameter index="4" name="Use Default Setting" parameterValue="0.75"/>
            </component>
          </slot>
          <slot powered="true" slotIndex="2">
            <component componentGuid="f301f390-09cb-4e80-adf9-a13c00411839" componentID="9b66ab13-4d1b-469a-88c6-b807fcf1df16" editorHeight="551" editorLeft="606" editorTop="245" editorWidth="708" name="Distortion">
              <channelMap direction="input">
                <channel index="0" sourceIndex="0"/>
                <channel index="1" sourceIndex="1"/>
              </channelMap>
              <channelMap direction="output">
                <channel index="0" sourceIndex="0"/>
                <channel index="1" sourceIndex="1"/>
              </channelMap>
              <presetChunkData><![CDATA[BSBuYWZldFMHAAAAAQAAAAAAAAAAAAAAAAAAAAAAcMIAAQFABgAAAAAAgAAAekOqqj9CAAB6Q1VVaUIBgO1CrCr+QqpqoEKqiiNDBOArQwAAekMAAAAAAACAvwAAAAAAAAAAAAAAAAAAAAAAAAAAAAAAAAAAAAAAAAAAAAAAAAAAAAAAAAAAAAAAAAAAAAAAAAAAAAAAAAAAAAAAAAAAAAAAAAAAAAAAAAAAAAAAAAAAAAAAAAAAAAAAAAAAAAAAAAAAAAAAAAAAAAAAAAAAAAAAAAAAAAAAAAAAAAAAAAAAAAAAAAAAAAAAAAAAAAAAAAAAAAAAAAAAAAAAAAAAAAAAAAAAAAAAAAAAAAAAAAAAAAAAAAAAAAAAAAAAAAAAAAAAAAAAAAAAAAAAAAAAAAAAAAAAAAAAAAAAAAAAAAAAAAAAAAAAAAAAAAAAAAAAAAAAAAAAAAAAAAAAAAAAAAAAAAAAAAAAAAAAAAAAAAAAAAAAAAAAAAAAAAAAAAAAAAAAAAAAAAAAAAAAAAAAAAAAAAAAAAAAAAAAAAAAAAAAAAAAAAAAAAAAAAAAAAAAAAAAAAAAAAAAAAAAAAAAAAAAAAAAAAAAAAAAAAAAAAAAAAAAAAAAAAAAAAAAAAAAAAAAAAAAAAAAAAAAAAAAAAAAAAAAAAAAAAAAAAAAAAAAAAAAAAAAAAAAAAAAAAAAAAAAAAAAAAAAAAAAAAAAAAAAAAAAAAAAAAAAAAAAAAAAAAAAAAAAAAAAAAAAAAAAAAAAAAAAAAAAAAAAAAAAAAAAAAAAAAAAAAAAAAAAAAAAAAAAAAAAAAAAAAAAAAAAAAAAAAAAAAAAAAAAAAAAAAAAAAAAAAAAAAAAAAAAAAAAAAAAAAAAAAAAAAAAAAAAAAAAAAAAAAAAAAAAAAAAAAAAAAAAAAAAAAAAAAAAAAAAAAAAAAAAAAAAAAAAAAAAAAAAAAAAAAAAAAAAAAAAAAAAAAAAAAAAAAAAAAAAAAAAAAAAAAAAAAAAAAAAAAAAAAAAAAAAAAAAAAAAAAAAAAAAAAAAAAAAAAAAAAAAAAAAAAAAAAAAAAAAAAAAAAAAAAAAAAAAAAAAAAAAAAAAAAAAAAAAAAAAAACAAAB6Q1ZVN0GrKjNDrKpYQlaV1kKqKgFDVFVQQq/qRUP+f1RCAAB6QwAAAAAAAIC/AAAAAAAAAAAAAAAAAAAAAAAAAAAAAAAAAAAAAAAAAAAAAAAAAAAAAAAAAAAAAAAAAAAAAAAAAAAAAAAAAAAAAAAAAAAAAAAAAAAAAAAAAAAAAAAAAAAAAAAAAAAAAAAAAAAAAAAAAAAAAAAAAAAAAAAAAAAAAAAAAAAAAAAAAAAAAAAAAAAAAAAAAAAAAAAAAAAAAAAAAAAAAAAAAAAAAAAAAAAAAAAAAAAAAAAAAAAAAAAAAAAAAAAAAAAAAAAAAAAAAAAAAAAAAAAAAAAAAAAAAAAAAAAAAAAAAAAAAAAAAAAAAAAAAAAAAAAAAAAAAAAAAAAAAAAAAAAAAAAAAAAAAAAAAAAAAAAAAAAAAAAAAAAAAAAAAAAAAAAAAAAAAAAAAAAAAAAAAAAAAAAAAAAAAAAAAAAAAAAAAAAAAAAAAAAAAAAAAAAAAAAAAAAAAAAAAAAAAAAAAAAAAAAAAAAAAAAAAAAAAAAAAAAAAAAAAAAAAAAAAAAAAAAAAAAAAAAAAAAAAAAAAAAAAAAAAAAAAAAAAAAAAAAAAAAAAAAAAAAAAAAAAAAAAAAAAAAAAAAAAAAAAAAAAAAAAAAAAAAAAAAAAAAAAAAAAAAAAAAAAAAAAAAAAAAAAAAAAAAAAAAAAAAAAAAAAAAAAAAAAAAAAAAAAAAAAAAAAAAAAAAAAAAAAAAAAAAAAAAAAAAAAAAAAAAAAAAAAAAAAAAAAAAAAAAAAAAAAAAAAAAAAAAAAAAAAAAAAAAAAAAAAAAAAAAAAAAAAAAAAAAAAAAAAAAAAAAAAAAAAAAAAAAAAAAAAAAAAAAAAAAAAAAAAAAAAAAAAAAAAAAAAAAAAAAAAAAAAAAAAAAAAAAAAAAAAAAAAAAAAAAAAAAAAAAAAAAAAAAAAAAAAAAAAAAAAAAAAAAAAAAAAAAAAAAAAAAAAAAAAAAAAAAAAAAAAAAAAAAAAAAAAAAAAAAAAAAAAAAAAAAAAAAAAAAAAAAAAA==]]></presetChunkData>
            </component>
          </slot>
        </effectsRack>
        <editParameter parameterIndex="0" slotIndex="4294967280"/>
        <audioClip clipAutoCrossfade="true" crossFadeHeadClipID="-1" crossFadeTailClipID="-1" endPoint="96000" fileID="3" hue="-1" id="0" lockedInTime="false" looped="false" name="Bounce_12" offline="false" select="false" sourceInPoint="0" sourceOutPoint="24000" startPoint="72000" zOrder="55">
          <component componentGuid="54d8737a-d09c-4ca9-bc50-3730b715c125" componentID="Audition.Fader" id="clipGain" name="volume" powered="true">
            <parameter index="0" name="volume" parameterValue="0.2227314"/>
            <parameter index="1" name="static gain" parameterValue="1"/>
          </component>
          <component componentGuid="9ee32bd9-def8-4242-b7eb-dc9dae4aece3" componentID="Audition.Mute" id="clipMute" name="Mute" powered="true">
            <parameter index="0" parameterValue="0"/>
            <parameter index="1" name="mute" parameterValue="0"/>
          </component>
          <component componentGuid="95ed13e9-586a-41aa-aaa6-d6c4e37944a2" componentID="Audition.StereoPanner" id="clipPan" name="StereoPanner" powered="true">
            <parameter index="0" name="Pan" parameterValue="0"/>
          </component>
          <fadeIn crossFadeLinkType="linkedAsymmetric" endPoint="0" shape="0" startPoint="0" type="cosine"/>
          <fadeOut crossFadeLinkType="linkedAsymmetric" endPoint="24000" shape="0" startPoint="24000" type="cosine"/>
          <editParameter parameterIndex="0" slotIndex="4294967281"/>
          <editParameter parameterIndex="0" slotIndex="4294967280"/>
          <channelMap>
            <channel index="0" sourceIndex="0"/>
            <channel index="1" sourceIndex="1"/>
          </channelMap>
        </audioClip>
        <audioClip clipAutoCrossfade="true" crossFadeHeadClipID="-1" crossFadeTailClipID="-1" endPoint="120830" fileID="3" hue="-1" id="1" lockedInTime="false" looped="false" name="Bounce_12" offline="false" select="false" sourceInPoint="0" sourceOutPoint="24000" startPoint="96830" zOrder="56">
          <component componentGuid="76a055a7-3894-41d4-803f-97e7e85cfabf" componentID="Audition.Fader" id="clipGain" name="volume" powered="true">
            <parameter index="0" name="volume" parameterValue="0.2227314"/>
            <parameter index="1" name="static gain" parameterValue="1"/>
          </component>
          <component componentGuid="beed0c0a-10dc-4435-9dd1-23c043fc3121" componentID="Audition.Mute" id="clipMute" name="Mute" powered="true">
            <parameter index="0" parameterValue="0"/>
            <parameter index="1" name="mute" parameterValue="0"/>
          </component>
          <component componentGuid="678f45aa-7d14-4e4e-940f-5ef42c555ee6" componentID="Audition.StereoPanner" id="clipPan" name="StereoPanner" powered="true">
            <parameter index="0" name="Pan" parameterValue="0"/>
          </component>
          <fadeIn crossFadeLinkType="linkedAsymmetric" endPoint="0" shape="0" startPoint="0" type="cosine"/>
          <fadeOut crossFadeLinkType="linkedAsymmetric" endPoint="24000" shape="0" startPoint="24000" type="cosine"/>
          <editParameter parameterIndex="0" slotIndex="4294967281"/>
          <editParameter parameterIndex="0" slotIndex="4294967280"/>
          <channelMap>
            <channel index="0" sourceIndex="0"/>
            <channel index="1" sourceIndex="1"/>
          </channelMap>
        </audioClip>
        <audioClip clipAutoCrossfade="true" crossFadeHeadClipID="-1" crossFadeTailClipID="-1" endPoint="216830" fileID="3" hue="-1" id="2" lockedInTime="false" looped="false" name="Bounce_12" offline="false" select="false" sourceInPoint="0" sourceOutPoint="24000" startPoint="192830" zOrder="69">
          <component componentGuid="0619d189-7905-4b54-8dac-fdbfbebfc4f2" componentID="Audition.Fader" id="clipGain" name="volume" powered="true">
            <parameter index="0" name="volume" parameterValue="0.2227314"/>
            <parameter index="1" name="static gain" parameterValue="1"/>
          </component>
          <component componentGuid="dfc3ea99-68af-4ede-be0a-0cc3574e09e1" componentID="Audition.Mute" id="clipMute" name="Mute" powered="true">
            <parameter index="0" parameterValue="0"/>
            <parameter index="1" name="mute" parameterValue="0"/>
          </component>
          <component componentGuid="8b3b9a6c-61ac-43b6-9781-87bd97a5ab46" componentID="Audition.StereoPanner" id="clipPan" name="StereoPanner" powered="true">
            <parameter index="0" name="Pan" parameterValue="0"/>
          </component>
          <fadeIn crossFadeLinkType="linkedAsymmetric" endPoint="0" shape="0" startPoint="0" type="cosine"/>
          <fadeOut crossFadeLinkType="linkedAsymmetric" endPoint="24000" shape="0" startPoint="24000" type="cosine"/>
          <editParameter parameterIndex="0" slotIndex="4294967281"/>
          <editParameter parameterIndex="0" slotIndex="4294967280"/>
          <channelMap>
            <channel index="0" sourceIndex="0"/>
            <channel index="1" sourceIndex="1"/>
          </channelMap>
        </audioClip>
        <audioClip clipAutoCrossfade="true" crossFadeHeadClipID="-1" crossFadeTailClipID="-1" endPoint="264830" fileID="3" hue="-1" id="3" lockedInTime="false" looped="false" name="Bounce_12" offline="false" select="false" sourceInPoint="0" sourceOutPoint="24000" startPoint="240830" zOrder="57">
          <component componentGuid="b39df545-33c1-4361-9e33-f9f4ad28331f" componentID="Audition.Fader" id="clipGain" name="volume" powered="true">
            <parameter index="0" name="volume" parameterValue="0.2227314"/>
            <parameter index="1" name="static gain" parameterValue="1"/>
          </component>
          <component componentGuid="ed260769-0588-4dd1-8f9e-22429268b6be" componentID="Audition.Mute" id="clipMute" name="Mute" powered="true">
            <parameter index="0" parameterValue="0"/>
            <parameter index="1" name="mute" parameterValue="0"/>
          </component>
          <component componentGuid="7fd37e2f-74c5-4b51-8faf-d3bb415dbdbd" componentID="Audition.StereoPanner" id="clipPan" name="StereoPanner" powered="true">
            <parameter index="0" name="Pan" parameterValue="0"/>
          </component>
          <fadeIn crossFadeLinkType="linkedAsymmetric" endPoint="0" shape="0" startPoint="0" type="cosine"/>
          <fadeOut crossFadeLinkType="linkedAsymmetric" endPoint="24000" shape="0" startPoint="24000" type="cosine"/>
          <editParameter parameterIndex="0" slotIndex="4294967281"/>
          <editParameter parameterIndex="0" slotIndex="4294967280"/>
          <channelMap>
            <channel index="0" sourceIndex="0"/>
            <channel index="1" sourceIndex="1"/>
          </channelMap>
        </audioClip>
        <audioClip clipAutoCrossfade="true" crossFadeHeadClipID="-1" crossFadeTailClipID="-1" endPoint="288830" fileID="3" hue="-1" id="4" lockedInTime="false" looped="false" name="Bounce_12" offline="false" select="false" sourceInPoint="0" sourceOutPoint="24000" startPoint="264830" zOrder="58">
          <component componentGuid="2cb310db-5aa9-4c0c-86cf-a03a25f0f872" componentID="Audition.Fader" id="clipGain" name="volume" powered="true">
            <parameter index="0" name="volume" parameterValue="0.2227314"/>
            <parameter index="1" name="static gain" parameterValue="1"/>
          </component>
          <component componentGuid="f897e23b-3880-426b-a1ef-e158d6ac3c5a" componentID="Audition.Mute" id="clipMute" name="Mute" powered="true">
            <parameter index="0" parameterValue="0"/>
            <parameter index="1" name="mute" parameterValue="0"/>
          </component>
          <component componentGuid="d76fb849-abb9-4019-8678-5506df5fd87d" componentID="Audition.StereoPanner" id="clipPan" name="StereoPanner" powered="true">
            <parameter index="0" name="Pan" parameterValue="0"/>
          </component>
          <fadeIn crossFadeLinkType="linkedAsymmetric" endPoint="0" shape="0" startPoint="0" type="cosine"/>
          <fadeOut crossFadeLinkType="linkedAsymmetric" endPoint="24000" shape="0" startPoint="24000" type="cosine"/>
          <editParameter parameterIndex="0" slotIndex="4294967281"/>
          <editParameter parameterIndex="0" slotIndex="4294967280"/>
          <channelMap>
            <channel index="0" sourceIndex="0"/>
            <channel index="1" sourceIndex="1"/>
          </channelMap>
        </audioClip>
        <audioClip clipAutoCrossfade="true" crossFadeHeadClipID="-1" crossFadeTailClipID="-1" endPoint="384830" fileID="3" hue="-1" id="5" lockedInTime="false" looped="false" name="Bounce_12" offline="false" select="false" sourceInPoint="0" sourceOutPoint="24000" startPoint="360830" zOrder="59">
          <component componentGuid="f3ca79cf-bdb4-48bd-909d-4f6b093a2c18" componentID="Audition.Fader" id="clipGain" name="volume" powered="true">
            <parameter index="0" name="volume" parameterValue="0.2227314"/>
            <parameter index="1" name="static gain" parameterValue="1"/>
          </component>
          <component componentGuid="dfc02c51-06bc-442a-b330-0981426a7a25" componentID="Audition.Mute" id="clipMute" name="Mute" powered="true">
            <parameter index="0" parameterValue="0"/>
            <parameter index="1" name="mute" parameterValue="0"/>
          </component>
          <component componentGuid="d6b1daa6-db2e-4de7-a7fa-0df4a1756905" componentID="Audition.StereoPanner" id="clipPan" name="StereoPanner" powered="true">
            <parameter index="0" name="Pan" parameterValue="0"/>
          </component>
          <fadeIn crossFadeLinkType="linkedAsymmetric" endPoint="0" shape="0" startPoint="0" type="cosine"/>
          <fadeOut crossFadeLinkType="linkedAsymmetric" endPoint="24000" shape="0" startPoint="24000" type="cosine"/>
          <editParameter parameterIndex="0" slotIndex="4294967281"/>
          <editParameter parameterIndex="0" slotIndex="4294967280"/>
          <channelMap>
            <channel index="0" sourceIndex="0"/>
            <channel index="1" sourceIndex="1"/>
          </channelMap>
        </audioClip>
        <audioClip clipAutoCrossfade="true" crossFadeHeadClipID="-1" crossFadeTailClipID="-1" endPoint="408830" fileID="3" hue="-1" id="6" lockedInTime="false" looped="false" name="Bounce_12" offline="false" select="false" sourceInPoint="0" sourceOutPoint="24000" startPoint="384830" zOrder="60">
          <component componentGuid="f079438b-c0d6-4bd5-9807-bafa4d8af39a" componentID="Audition.Fader" id="clipGain" name="volume" powered="true">
            <parameter index="0" name="volume" parameterValue="0.2227314"/>
            <parameter index="1" name="static gain" parameterValue="1"/>
          </component>
          <component componentGuid="6b7ef57d-15f7-4eff-b78b-b108d3b7778b" componentID="Audition.Mute" id="clipMute" name="Mute" powered="true">
            <parameter index="0" parameterValue="0"/>
            <parameter index="1" name="mute" parameterValue="0"/>
          </component>
          <component componentGuid="27d9175d-3c7a-46e7-b19a-f506f6cca07f" componentID="Audition.StereoPanner" id="clipPan" name="StereoPanner" powered="true">
            <parameter index="0" name="Pan" parameterValue="0"/>
          </component>
          <fadeIn crossFadeLinkType="linkedAsymmetric" endPoint="0" shape="0" startPoint="0" type="cosine"/>
          <fadeOut crossFadeLinkType="linkedAsymmetric" endPoint="24000" shape="0" startPoint="24000" type="cosine"/>
          <editParameter parameterIndex="0" slotIndex="4294967281"/>
          <editParameter parameterIndex="0" slotIndex="4294967280"/>
          <channelMap>
            <channel index="0" sourceIndex="0"/>
            <channel index="1" sourceIndex="1"/>
          </channelMap>
        </audioClip>
        <audioClip clipAutoCrossfade="true" crossFadeHeadClipID="-1" crossFadeTailClipID="-1" endPoint="456830" fileID="3" hue="-1" id="7" lockedInTime="false" looped="false" name="Bounce_12" offline="false" select="false" sourceInPoint="0" sourceOutPoint="24000" startPoint="432830" zOrder="61">
          <component componentGuid="db169a71-cb2a-45c1-a269-68b1455df024" componentID="Audition.Fader" id="clipGain" name="volume" powered="true">
            <parameter index="0" name="volume" parameterValue="0.2227314"/>
            <parameter index="1" name="static gain" parameterValue="1"/>
          </component>
          <component componentGuid="51cd562c-b4b5-48b5-90ec-e5427443e72c" componentID="Audition.Mute" id="clipMute" name="Mute" powered="true">
            <parameter index="0" parameterValue="0"/>
            <parameter index="1" name="mute" parameterValue="0"/>
          </component>
          <component componentGuid="1e918729-9c0d-47a4-9b53-e237ce58ce81" componentID="Audition.StereoPanner" id="clipPan" name="StereoPanner" powered="true">
            <parameter index="0" name="Pan" parameterValue="0"/>
          </component>
          <fadeIn crossFadeLinkType="linkedAsymmetric" endPoint="0" shape="0" startPoint="0" type="cosine"/>
          <fadeOut crossFadeLinkType="linkedAsymmetric" endPoint="24000" shape="0" startPoint="24000" type="cosine"/>
          <editParameter parameterIndex="0" slotIndex="4294967281"/>
          <editParameter parameterIndex="0" slotIndex="4294967280"/>
          <channelMap>
            <channel index="0" sourceIndex="0"/>
            <channel index="1" sourceIndex="1"/>
          </channelMap>
        </audioClip>
        <audioClip clipAutoCrossfade="true" crossFadeHeadClipID="-1" crossFadeTailClipID="-1" endPoint="480830" fileID="3" hue="-1" id="8" lockedInTime="false" looped="false" name="Bounce_12" offline="false" select="false" sourceInPoint="0" sourceOutPoint="24000" startPoint="456830" zOrder="62">
          <component componentGuid="2fae467e-dba7-4efb-aa13-cc49db6bf220" componentID="Audition.Fader" id="clipGain" name="volume" powered="true">
            <parameter index="0" name="volume" parameterValue="0.2227314"/>
            <parameter index="1" name="static gain" parameterValue="1"/>
          </component>
          <component componentGuid="3404c3f0-3604-45e6-b98c-4f1b4e8c29e6" componentID="Audition.Mute" id="clipMute" name="Mute" powered="true">
            <parameter index="0" parameterValue="0"/>
            <parameter index="1" name="mute" parameterValue="0"/>
          </component>
          <component componentGuid="33527d0d-8f5b-4e5a-9aed-45c07215bd89" componentID="Audition.StereoPanner" id="clipPan" name="StereoPanner" powered="true">
            <parameter index="0" name="Pan" parameterValue="0"/>
          </component>
          <fadeIn crossFadeLinkType="linkedAsymmetric" endPoint="0" shape="0" startPoint="0" type="cosine"/>
          <fadeOut crossFadeLinkType="linkedAsymmetric" endPoint="24000" shape="0" startPoint="24000" type="cosine"/>
          <editParameter parameterIndex="0" slotIndex="4294967281"/>
          <editParameter parameterIndex="0" slotIndex="4294967280"/>
          <channelMap>
            <channel index="0" sourceIndex="0"/>
            <channel index="1" sourceIndex="1"/>
          </channelMap>
        </audioClip>
        <audioClip clipAutoCrossfade="true" crossFadeHeadClipID="-1" crossFadeTailClipID="-1" endPoint="576830" fileID="3" hue="-1" id="9" lockedInTime="false" looped="false" name="Bounce_12" offline="false" select="false" sourceInPoint="0" sourceOutPoint="24000" startPoint="552830" zOrder="63">
          <component componentGuid="d671d31f-0b16-40b7-9ef0-e054de3dfcb4" componentID="Audition.Fader" id="clipGain" name="volume" powered="true">
            <parameter index="0" name="volume" parameterValue="0.2227314"/>
            <parameter index="1" name="static gain" parameterValue="1"/>
          </component>
          <component componentGuid="8dbb4e09-8fb5-4d9e-9be7-4642313ee384" componentID="Audition.Mute" id="clipMute" name="Mute" powered="true">
            <parameter index="0" parameterValue="0"/>
            <parameter index="1" name="mute" parameterValue="0"/>
          </component>
          <component componentGuid="eba28489-6ead-4761-b564-5bcb82d9a02f" componentID="Audition.StereoPanner" id="clipPan" name="StereoPanner" powered="true">
            <parameter index="0" name="Pan" parameterValue="0"/>
          </component>
          <fadeIn crossFadeLinkType="linkedAsymmetric" endPoint="0" shape="0" startPoint="0" type="cosine"/>
          <fadeOut crossFadeLinkType="linkedAsymmetric" endPoint="24000" shape="0" startPoint="24000" type="cosine"/>
          <editParameter parameterIndex="0" slotIndex="4294967281"/>
          <editParameter parameterIndex="0" slotIndex="4294967280"/>
          <channelMap>
            <channel index="0" sourceIndex="0"/>
            <channel index="1" sourceIndex="1"/>
          </channelMap>
        </audioClip>
        <audioClip clipAutoCrossfade="true" crossFadeHeadClipID="-1" crossFadeTailClipID="-1" endPoint="600830" fileID="3" hue="-1" id="10" lockedInTime="false" looped="false" name="Bounce_12" offline="false" select="false" sourceInPoint="0" sourceOutPoint="24000" startPoint="576830" zOrder="64">
          <component componentGuid="51ac084a-6101-42e3-afbb-9d8616fc5b9b" componentID="Audition.Fader" id="clipGain" name="volume" powered="true">
            <parameter index="0" name="volume" parameterValue="0.2227314"/>
            <parameter index="1" name="static gain" parameterValue="1"/>
          </component>
          <component componentGuid="4bfdfdf2-dbc0-4319-8de8-0e7ab5381092" componentID="Audition.Mute" id="clipMute" name="Mute" powered="true">
            <parameter index="0" parameterValue="0"/>
            <parameter index="1" name="mute" parameterValue="0"/>
          </component>
          <component componentGuid="a57f5a61-3a46-43c6-84d3-6f7420f12c96" componentID="Audition.StereoPanner" id="clipPan" name="StereoPanner" powered="true">
            <parameter index="0" name="Pan" parameterValue="0"/>
          </component>
          <fadeIn crossFadeLinkType="linkedAsymmetric" endPoint="0" shape="0" startPoint="0" type="cosine"/>
          <fadeOut crossFadeLinkType="linkedAsymmetric" endPoint="24000" shape="0" startPoint="24000" type="cosine"/>
          <editParameter parameterIndex="0" slotIndex="4294967281"/>
          <editParameter parameterIndex="0" slotIndex="4294967280"/>
          <channelMap>
            <channel index="0" sourceIndex="0"/>
            <channel index="1" sourceIndex="1"/>
          </channelMap>
        </audioClip>
        <audioClip clipAutoCrossfade="true" crossFadeHeadClipID="-1" crossFadeTailClipID="-1" endPoint="672830" fileID="3" hue="-1" id="11" lockedInTime="false" looped="false" name="Bounce_12" offline="false" select="false" sourceInPoint="0" sourceOutPoint="24000" startPoint="648830" zOrder="65">
          <component componentGuid="91a3a95d-b771-40e4-a714-15dae608148a" componentID="Audition.Fader" id="clipGain" name="volume" powered="true">
            <parameter index="0" name="volume" parameterValue="0.2227314"/>
            <parameter index="1" name="static gain" parameterValue="1"/>
          </component>
          <component componentGuid="f442566f-62b7-4b4f-a0bb-41d3331e4c02" componentID="Audition.Mute" id="clipMute" name="Mute" powered="true">
            <parameter index="0" parameterValue="0"/>
            <parameter index="1" name="mute" parameterValue="0"/>
          </component>
          <component componentGuid="05385d42-f285-4fd6-b842-51094ba63abb" componentID="Audition.StereoPanner" id="clipPan" name="StereoPanner" powered="true">
            <parameter index="0" name="Pan" parameterValue="0"/>
          </component>
          <fadeIn crossFadeLinkType="linkedAsymmetric" endPoint="0" shape="0" startPoint="0" type="cosine"/>
          <fadeOut crossFadeLinkType="linkedAsymmetric" endPoint="24000" shape="0" startPoint="24000" type="cosine"/>
          <editParameter parameterIndex="0" slotIndex="4294967281"/>
          <editParameter parameterIndex="0" slotIndex="4294967280"/>
          <channelMap>
            <channel index="0" sourceIndex="0"/>
            <channel index="1" sourceIndex="1"/>
          </channelMap>
        </audioClip>
        <audioClip clipAutoCrossfade="true" crossFadeHeadClipID="-1" crossFadeTailClipID="-1" endPoint="696830" fileID="3" hue="-1" id="12" lockedInTime="false" looped="false" name="Bounce_12" offline="false" select="false" sourceInPoint="0" sourceOutPoint="24000" startPoint="672830" zOrder="66">
          <component componentGuid="c4476e90-b955-4c26-8ad9-d0cb20216a2d" componentID="Audition.Fader" id="clipGain" name="volume" powered="true">
            <parameter index="0" name="volume" parameterValue="0.2227314"/>
            <parameter index="1" name="static gain" parameterValue="1"/>
          </component>
          <component componentGuid="79aa9203-0c4e-40d3-8aa5-d4ca743179e7" componentID="Audition.Mute" id="clipMute" name="Mute" powered="true">
            <parameter index="0" parameterValue="0"/>
            <parameter index="1" name="mute" parameterValue="0"/>
          </component>
          <component componentGuid="37d7d0ca-4a2a-47bc-a5ac-78d1db02e9e1" componentID="Audition.StereoPanner" id="clipPan" name="StereoPanner" powered="true">
            <parameter index="0" name="Pan" parameterValue="0"/>
          </component>
          <fadeIn crossFadeLinkType="linkedAsymmetric" endPoint="0" shape="0" startPoint="0" type="cosine"/>
          <fadeOut crossFadeLinkType="linkedAsymmetric" endPoint="24000" shape="0" startPoint="24000" type="cosine"/>
          <editParameter parameterIndex="0" slotIndex="4294967281"/>
          <editParameter parameterIndex="0" slotIndex="4294967280"/>
          <channelMap>
            <channel index="0" sourceIndex="0"/>
            <channel index="1" sourceIndex="1"/>
          </channelMap>
        </audioClip>
        <audioClip clipAutoCrossfade="true" crossFadeHeadClipID="-1" crossFadeTailClipID="-1" endPoint="792830" fileID="3" hue="-1" id="13" lockedInTime="false" looped="false" name="Bounce_12" offline="false" select="false" sourceInPoint="0" sourceOutPoint="24000" startPoint="768830" zOrder="70">
          <component componentGuid="3b9e49a0-d5aa-4d37-8650-9ef9d46c7c33" componentID="Audition.Fader" id="clipGain" name="volume" powered="true">
            <parameter index="0" name="volume" parameterValue="0.2227314"/>
            <parameter index="1" name="static gain" parameterValue="1"/>
          </component>
          <component componentGuid="85ec0369-3059-477c-be3d-5b7886b71d21" componentID="Audition.Mute" id="clipMute" name="Mute" powered="true">
            <parameter index="0" parameterValue="0"/>
            <parameter index="1" name="mute" parameterValue="0"/>
          </component>
          <component componentGuid="c56e868c-31c7-4477-9eea-44643c065523" componentID="Audition.StereoPanner" id="clipPan" name="StereoPanner" powered="true">
            <parameter index="0" name="Pan" parameterValue="0"/>
          </component>
          <fadeIn crossFadeLinkType="linkedAsymmetric" endPoint="0" shape="0" startPoint="0" type="cosine"/>
          <fadeOut crossFadeLinkType="linkedAsymmetric" endPoint="24000" shape="0" startPoint="24000" type="cosine"/>
          <editParameter parameterIndex="0" slotIndex="4294967281"/>
          <editParameter parameterIndex="0" slotIndex="4294967280"/>
          <channelMap>
            <channel index="0" sourceIndex="0"/>
            <channel index="1" sourceIndex="1"/>
          </channelMap>
        </audioClip>
        <audioClip clipAutoCrossfade="true" crossFadeHeadClipID="-1" crossFadeTailClipID="-1" endPoint="864830" fileID="3" hue="-1" id="14" lockedInTime="false" looped="false" name="Bounce_12" offline="false" select="false" sourceInPoint="0" sourceOutPoint="24000" startPoint="840830" zOrder="67">
          <component componentGuid="075f8fbd-91b5-47c4-b6df-ac1a2792f396" componentID="Audition.Fader" id="clipGain" name="volume" powered="true">
            <parameter index="0" name="volume" parameterValue="0.2227314"/>
            <parameter index="1" name="static gain" parameterValue="1"/>
          </component>
          <component componentGuid="1862af62-7de0-4946-a908-41dd72010ad0" componentID="Audition.Mute" id="clipMute" name="Mute" powered="true">
            <parameter index="0" parameterValue="0"/>
            <parameter index="1" name="mute" parameterValue="0"/>
          </component>
          <component componentGuid="de2ada58-3f3a-4c93-a213-0ab8a2f6b16a" componentID="Audition.StereoPanner" id="clipPan" name="StereoPanner" powered="true">
            <parameter index="0" name="Pan" parameterValue="0"/>
          </component>
          <fadeIn crossFadeLinkType="linkedAsymmetric" endPoint="0" shape="0" startPoint="0" type="cosine"/>
          <fadeOut crossFadeLinkType="linkedAsymmetric" endPoint="24000" shape="0" startPoint="24000" type="cosine"/>
          <editParameter parameterIndex="0" slotIndex="4294967281"/>
          <editParameter parameterIndex="0" slotIndex="4294967280"/>
          <channelMap>
            <channel index="0" sourceIndex="0"/>
            <channel index="1" sourceIndex="1"/>
          </channelMap>
        </audioClip>
        <audioClip clipAutoCrossfade="true" crossFadeHeadClipID="-1" crossFadeTailClipID="-1" endPoint="888830" fileID="3" hue="-1" id="15" lockedInTime="false" looped="false" name="Bounce_12" offline="false" select="false" sourceInPoint="0" sourceOutPoint="24000" startPoint="864830" zOrder="68">
          <component componentGuid="babac3b3-73b7-4641-b087-4e066059807a" componentID="Audition.Fader" id="clipGain" name="volume" powered="true">
            <parameter index="0" name="volume" parameterValue="0.2227314"/>
            <parameter index="1" name="static gain" parameterValue="1"/>
          </component>
          <component componentGuid="c636fb1c-554d-4600-8b16-d80305740d3f" componentID="Audition.Mute" id="clipMute" name="Mute" powered="true">
            <parameter index="0" parameterValue="0"/>
            <parameter index="1" name="mute" parameterValue="0"/>
          </component>
          <component componentGuid="71c4392b-24cf-4b11-8520-2cb922568a8b" componentID="Audition.StereoPanner" id="clipPan" name="StereoPanner" powered="true">
            <parameter index="0" name="Pan" parameterValue="0"/>
          </component>
          <fadeIn crossFadeLinkType="linkedAsymmetric" endPoint="0" shape="0" startPoint="0" type="cosine"/>
          <fadeOut crossFadeLinkType="linkedAsymmetric" endPoint="24000" shape="0" startPoint="24000" type="cosine"/>
          <editParameter parameterIndex="0" slotIndex="4294967281"/>
          <editParameter parameterIndex="0" slotIndex="4294967280"/>
          <channelMap>
            <channel index="0" sourceIndex="0"/>
            <channel index="1" sourceIndex="1"/>
          </channelMap>
        </audioClip>
        <audioClip clipAutoCrossfade="true" crossFadeHeadClipID="-1" crossFadeTailClipID="-1" endPoint="912830" fileID="3" hue="-1" id="16" lockedInTime="false" looped="false" name="Bounce_12" offline="false" select="false" sourceInPoint="0" sourceOutPoint="24000" startPoint="888830" zOrder="72">
          <component componentGuid="ccca35fb-15f5-497a-941b-5f3e2500c732" componentID="Audition.Fader" id="clipGain" name="volume" powered="true">
            <parameter index="0" name="volume" parameterValue="0.2227314"/>
            <parameter index="1" name="static gain" parameterValue="1"/>
          </component>
          <component componentGuid="4e60e5b6-36d2-4b75-9252-861b8f05b295" componentID="Audition.Mute" id="clipMute" name="Mute" powered="true">
            <parameter index="0" parameterValue="0"/>
            <parameter index="1" name="mute" parameterValue="0"/>
          </component>
          <component componentGuid="44d5751b-03b0-4c0d-b5e7-79867de3e0fe" componentID="Audition.StereoPanner" id="clipPan" name="StereoPanner" powered="true">
            <parameter index="0" name="Pan" parameterValue="0"/>
          </component>
          <fadeIn crossFadeLinkType="linkedAsymmetric" endPoint="0" shape="0" startPoint="0" type="cosine"/>
          <fadeOut crossFadeLinkType="linkedAsymmetric" endPoint="24000" shape="0" startPoint="24000" type="cosine"/>
          <editParameter parameterIndex="0" slotIndex="4294967281"/>
          <editParameter parameterIndex="0" slotIndex="4294967280"/>
          <channelMap>
            <channel index="0" sourceIndex="0"/>
            <channel index="1" sourceIndex="1"/>
          </channelMap>
        </audioClip>
        <audioClip clipAutoCrossfade="true" crossFadeHeadClipID="-1" crossFadeTailClipID="-1" endPoint="984000" fileID="3" hue="-1" id="17" lockedInTime="false" looped="false" name="Bounce_12" offline="false" select="false" sourceInPoint="0" sourceOutPoint="24000" startPoint="960000" zOrder="71">
          <component componentGuid="515b250c-a64e-468d-a6bf-46137522294a" componentID="Audition.Fader" id="clipGain" name="volume" powered="true">
            <parameter index="0" name="volume" parameterValue="0.2227314"/>
            <parameter index="1" name="static gain" parameterValue="1"/>
          </component>
          <component componentGuid="574cf362-209e-4462-906a-f4b592e66c63" componentID="Audition.Mute" id="clipMute" name="Mute" powered="true">
            <parameter index="0" parameterValue="0"/>
            <parameter index="1" name="mute" parameterValue="0"/>
          </component>
          <component componentGuid="645e04ae-b123-4714-b6f0-ffd7f79f8899" componentID="Audition.StereoPanner" id="clipPan" name="StereoPanner" powered="true">
            <parameter index="0" name="Pan" parameterValue="0"/>
          </component>
          <fadeIn crossFadeLinkType="linkedAsymmetric" endPoint="0" shape="0" startPoint="0" type="cosine"/>
          <fadeOut crossFadeLinkType="linkedAsymmetric" endPoint="24000" shape="0" startPoint="24000" type="cosine"/>
          <editParameter parameterIndex="0" slotIndex="4294967281"/>
          <editParameter parameterIndex="0" slotIndex="4294967280"/>
          <channelMap>
            <channel index="0" sourceIndex="0"/>
            <channel index="1" sourceIndex="1"/>
          </channelMap>
        </audioClip>
      </audioTrack>
      <audioTrack automationLaneOpenState="false" id="10024" index="8" select="false" visible="true">
        <trackParameters trackHeight="93" trackHue="-1" trackMinimized="false">
          <name>Bounce_1 1 1 1</name>
        </trackParameters>
        <trackAudioParameters audioChannelType="stereo" automationMode="1" monitoring="false" recordArmed="false" solo="false" soloSafe="false">
          <trackOutput outputID="10000" type="trackID"/>
          <trackInput inputID="1"/>
          <component componentGuid="ef350b62-d875-4720-8c4a-5968b0358de8" componentID="Audition.Fader" id="trackFader" name="volume" powered="true">
            <parameter index="0" name="volume" parameterValue="0.2511886"/>
            <parameter index="1" name="static gain" parameterValue="1"/>
          </component>
          <component componentGuid="4356aa08-b8dc-49f9-9115-9c3ea8d7fb55" componentID="Audition.Mute" id="trackMute" name="Mute" powered="true">
            <parameter index="0" parameterValue="0"/>
            <parameter index="1" name="mute" parameterValue="0"/>
          </component>
          <component componentGuid="6a94c611-3b95-47f3-ae06-f8356d2e62c1" componentID="Audition.StereoPanner" id="trackPan" name="StereoPanner" powered="true">
            <parameter index="0" name="Pan" parameterValue="0"/>
          </component>
          <component componentGuid="46d8a79b-1224-40f6-9914-fa4b699e4f21" componentID="Audition.EQ" id="trackEQ" name="EQ" powered="false">
            <parameter index="0" name="Low Shelf Frequency" parameterValue="0.000834"/>
            <parameter index="1" name="Low Shelf Gain" parameterValue="0.5"/>
            <parameter index="2" name="High Shelf Frequency" parameterValue="0.7497915"/>
            <parameter index="3" name="High Shelf Gain" parameterValue="0.5"/>
            <parameter index="4" name="EQ Band 1 Center Frequency" parameterValue="0.001251"/>
            <parameter index="5" name="EQ Band 1 Q" parameterValue="0.0002"/>
            <parameter index="6" name="EQ Band 1 Gain" parameterValue="0.5"/>
            <parameter index="7" name="EQ Band 1 Enable" parameterValue="1"/>
            <parameter index="8" name="EQ Band 2 Center Frequency" parameterValue="0.0075063"/>
            <parameter index="9" name="EQ Band 2 Q" parameterValue="0.0002"/>
            <parameter index="10" name="EQ Band 2 Gain" parameterValue="0.5"/>
            <parameter index="11" name="EQ Band 2 Enable" parameterValue="1"/>
            <parameter index="12" name="EQ Band 3 Center Frequency" parameterValue="0.0325271"/>
            <parameter index="13" name="EQ Band 3 Q" parameterValue="0.0002"/>
            <parameter index="14" name="EQ Band 3 Gain" parameterValue="0.5"/>
            <parameter index="15" name="EQ Band 3 Enable" parameterValue="1"/>
            <parameter index="16" name="EQ Band 4 Center Frequency" parameterValue="0.1326105"/>
            <parameter index="17" name="EQ Band 4 Q" parameterValue="0.0002"/>
            <parameter index="18" name="EQ Band 4 Gain" parameterValue="0.5"/>
            <parameter index="19" name="EQ Band 4 Enable" parameterValue="1"/>
            <parameter index="20" name="EQ Band 5 Center Frequency" parameterValue="0.5329441"/>
            <parameter index="21" name="EQ Band 5 Q" parameterValue="0.0002"/>
            <parameter index="22" name="EQ Band 5 Gain" parameterValue="0.5"/>
            <parameter index="23" name="EQ Band 5 Enable" parameterValue="1"/>
            <parameter index="24" name="Master Gain" parameterValue="0.6666667"/>
            <parameter index="25" name="ConstantQ" parameterValue="1"/>
            <parameter index="26" name="Low Shelf Filter Order" parameterValue="0"/>
            <parameter index="27" name="High Shelf Filter Order" parameterValue="0"/>
            <parameter index="28" name="Ultra-Quiet Mode" parameterValue="0"/>
            <parameter index="29" name="Low Shelf Enable" parameterValue="1"/>
            <parameter index="30" name="High Shelf Enable" parameterValue="1"/>
            <parameter index="31" name="Original Sample Rate" parameterValue="0.25"/>
            <parameter index="32" name="EQ Band 1 Bandwidth" parameterValue="0.0025"/>
            <parameter index="33" name="EQ Band 2 Bandwidth" parameterValue="0.01"/>
            <parameter index="34" name="EQ Band 3 Bandwidth" parameterValue="0.04"/>
            <parameter index="35" name="EQ Band 4 Bandwidth" parameterValue="0.16"/>
            <parameter index="36" name="EQ Band 5 Bandwidth" parameterValue="0.64"/>
            <parameter index="37" name="High-Pass Filter Enable" parameterValue="0"/>
            <parameter index="38" name="High-Pass Cutoff Frequency" parameterValue="0"/>
            <parameter index="39" name="High-Pass Slope" parameterValue="0.4"/>
            <parameter index="40" name="Low-Pass Filter Enable" parameterValue="0"/>
            <parameter index="41" name="Low-Pass Cutoff Frequency" parameterValue="0.8331943"/>
            <parameter index="42" name="Low-Pass Slope" parameterValue="0.4"/>
            <parameter index="43" name="Bypass" parameterValue="0"/>
            <parameter index="44" name="LowGraphRange" parameterValue="1"/>
          </component>
        </trackAudioParameters>
        <effectsRack preFader="true">
          <component componentGuid="2e877175-b316-4c6e-893f-dcd52c337bcb" id="rackMix" powered="true">
            <parameter index="0" parameterValue="0"/>
            <parameter index="1" parameterValue="0"/>
          </component>
          <component componentGuid="a8374387-06bf-4408-8e03-0ece69ecbf6f" id="rackInput" powered="true">
            <parameter index="0" parameterValue="1"/>
            <parameter index="1" parameterValue="0"/>
          </component>
          <component componentGuid="7eeb5246-1138-4b98-ba55-5cb1beb3968f" id="rackOutput" powered="true">
            <parameter index="0" parameterValue="1"/>
            <parameter index="1" parameterValue="0"/>
          </component>
          <slot powered="true" slotIndex="0">
            <component componentGuid="583fb44d-5587-4bad-a942-4e14b0489426" componentID="4f327230-f04c-4c34-9ea5-a998b4459221" name="FFT Filter">
              <channelMap direction="input">
                <channel index="0" sourceIndex="0"/>
                <channel index="1" sourceIndex="1"/>
              </channelMap>
              <channelMap direction="output">
                <channel index="0" sourceIndex="0"/>
                <channel index="1" sourceIndex="1"/>
              </channelMap>
              <presetChunkData><![CDATA[AIA7RwAAAAD+Qqw9AADAPgAAAAAOdFo6AACAPwAAAAAAAIA/AADgQNOmWjoAAAAABLHaOpeSVj9xKzg9+IcAP12XGj4R8H4/+Eb4PgAAgD8VP3w/AACAPwAAgD8AAEA/]]></presetChunkData>
            </component>
          </slot>
          <slot powered="true" slotIndex="1">
            <component componentGuid="ff761df5-129a-4eac-9705-4c71cf79c6a3" componentID="164b4e8a-7105-406b-b23b-1ef2cc4d8957" editorHeight="439" editorLeft="705" editorTop="301" editorWidth="511" name="Pitch Shifter">
              <channelMap direction="input">
                <channel index="0" sourceIndex="0"/>
                <channel index="1" sourceIndex="1"/>
              </channelMap>
              <channelMap direction="output">
                <channel index="0" sourceIndex="0"/>
                <channel index="1" sourceIndex="1"/>
              </channelMap>
              <parameter index="0" name="Transpose Ratio" parameterValue="0.0866404"/>
              <parameter index="1" name="Precision" parameterValue="1"/>
              <parameter index="2" name="Frequency" parameterValue="0.1010587"/>
              <parameter index="3" name="Overlapping" parameterValue="0.6491907"/>
              <parameter index="4" name="Use Default Setting" parameterValue="0.75"/>
            </component>
          </slot>
          <slot powered="true" slotIndex="2">
            <component componentGuid="0ab577a6-3124-4864-9142-0de7fd76cf90" componentID="9b66ab13-4d1b-469a-88c6-b807fcf1df16" editorHeight="551" editorLeft="606" editorTop="245" editorWidth="708" name="Distortion">
              <channelMap direction="input">
                <channel index="0" sourceIndex="0"/>
                <channel index="1" sourceIndex="1"/>
              </channelMap>
              <channelMap direction="output">
                <channel index="0" sourceIndex="0"/>
                <channel index="1" sourceIndex="1"/>
              </channelMap>
              <presetChunkData><![CDATA[BSBuYWZldFMHAAAAAQAAAAAAAAAAAAAAAAAAAAAAcMIAAQFABgAAAAAAgAAAekMAABZCV1U3Q1VVaUIBgO1CrCr+QqpqoEKqiiNDB+ArQwAAekMAAAAAAACAvwAAAAAAAAAAAAAAAAAAAAAAAAAAAAAAAAAAAAAAAAAAAAAAAAAAAAAAAAAAAAAAAAAAAAAAAAAAAAAAAAAAAAAAAAAAAAAAAAAAAAAAAAAAAAAAAAAAAAAAAAAAAAAAAAAAAAAAAAAAAAAAAAAAAAAAAAAAAAAAAAAAAAAAAAAAAAAAAAAAAAAAAAAAAAAAAAAAAAAAAAAAAAAAAAAAAAAAAAAAAAAAAAAAAAAAAAAAAAAAAAAAAAAAAAAAAAAAAAAAAAAAAAAAAAAAAAAAAAAAAAAAAAAAAAAAAAAAAAAAAAAAAAAAAAAAAAAAAAAAAAAAAAAAAAAAAAAAAAAAAAAAAAAAAAAAAAAAAAAAAAAAAAAAAAAAAAAAAAAAAAAAAAAAAAAAAAAAAAAAAAAAAAAAAAAAAAAAAAAAAAAAAAAAAAAAAAAAAAAAAAAAAAAAAAAAAAAAAAAAAAAAAAAAAAAAAAAAAAAAAAAAAAAAAAAAAAAAAAAAAAAAAAAAAAAAAAAAAAAAAAAAAAAAAAAAAAAAAAAAAAAAAAAAAAAAAAAAAAAAAAAAAAAAAAAAAAAAAAAAAAAAAAAAAAAAAAAAAAAAAAAAAAAAAAAAAAAAAAAAAAAAAAAAAAAAAAAAAAAAAAAAAAAAAAAAAAAAAAAAAAAAAAAAAAAAAAAAAAAAAAAAAAAAAAAAAAAAAAAAAAAAAAAAAAAAAAAAAAAAAAAAAAAAAAAAAAAAAAAAAAAAAAAAAAAAAAAAAAAAAAAAAAAAAAAAAAAAAAAAAAAAAAAAAAAAAAAAAAAAAAAAAAAAAAAAAAAAAAAAAAAAAAAAAAAAAAAAAAAAAAAAAAAAAAAAAAAAAAAAAAAAAAAAAAAAAAAAAAAAAAAAAAAAAAAAAAAAAAAAAAAAAAAAAAAAAAAAAAAAAAAAAAAAAAAAAAAAAAAAAAAAAAAAAAAAAAAAAAAAAAAAAAAAAAAAAAAAAAAAAAAAAAAAAAAAAAAAAAAAAACAAAB6QwAAFkGqqj9Dr6pYQlaV1kKqKgFDVFVQQrLqRUP+f1RCAAB6QwAAAAAAAIC/AAAAAAAAAAAAAAAAAAAAAAAAAAAAAAAAAAAAAAAAAAAAAAAAAAAAAAAAAAAAAAAAAAAAAAAAAAAAAAAAAAAAAAAAAAAAAAAAAAAAAAAAAAAAAAAAAAAAAAAAAAAAAAAAAAAAAAAAAAAAAAAAAAAAAAAAAAAAAAAAAAAAAAAAAAAAAAAAAAAAAAAAAAAAAAAAAAAAAAAAAAAAAAAAAAAAAAAAAAAAAAAAAAAAAAAAAAAAAAAAAAAAAAAAAAAAAAAAAAAAAAAAAAAAAAAAAAAAAAAAAAAAAAAAAAAAAAAAAAAAAAAAAAAAAAAAAAAAAAAAAAAAAAAAAAAAAAAAAAAAAAAAAAAAAAAAAAAAAAAAAAAAAAAAAAAAAAAAAAAAAAAAAAAAAAAAAAAAAAAAAAAAAAAAAAAAAAAAAAAAAAAAAAAAAAAAAAAAAAAAAAAAAAAAAAAAAAAAAAAAAAAAAAAAAAAAAAAAAAAAAAAAAAAAAAAAAAAAAAAAAAAAAAAAAAAAAAAAAAAAAAAAAAAAAAAAAAAAAAAAAAAAAAAAAAAAAAAAAAAAAAAAAAAAAAAAAAAAAAAAAAAAAAAAAAAAAAAAAAAAAAAAAAAAAAAAAAAAAAAAAAAAAAAAAAAAAAAAAAAAAAAAAAAAAAAAAAAAAAAAAAAAAAAAAAAAAAAAAAAAAAAAAAAAAAAAAAAAAAAAAAAAAAAAAAAAAAAAAAAAAAAAAAAAAAAAAAAAAAAAAAAAAAAAAAAAAAAAAAAAAAAAAAAAAAAAAAAAAAAAAAAAAAAAAAAAAAAAAAAAAAAAAAAAAAAAAAAAAAAAAAAAAAAAAAAAAAAAAAAAAAAAAAAAAAAAAAAAAAAAAAAAAAAAAAAAAAAAAAAAAAAAAAAAAAAAAAAAAAAAAAAAAAAAAAAAAAAAAAAAAAAAAAAAAAAAAAAAAAAAAAAAAAAAAAAAAAAAAAAAAAAAAAAAAAAAAAAAAAAAAAAAAAAAAAAAAAAAAA==]]></presetChunkData>
            </component>
          </slot>
        </effectsRack>
        <editParameter parameterIndex="0" slotIndex="4294967280"/>
        <audioClip clipAutoCrossfade="true" crossFadeHeadClipID="-1" crossFadeTailClipID="-1" endPoint="96830" fileID="3" hue="-1" id="0" lockedInTime="false" looped="false" name="Bounce_12" offline="false" select="false" sourceInPoint="0" sourceOutPoint="24000" startPoint="72830" zOrder="73">
          <component componentGuid="f6dfe094-8478-427a-8fb2-7bd6a1784bb8" componentID="Audition.Fader" id="clipGain" name="volume" powered="true">
            <parameter index="0" name="volume" parameterValue="0.2227314"/>
            <parameter index="1" name="static gain" parameterValue="1"/>
          </component>
          <component componentGuid="e02000ea-8fb9-4880-95d1-bdeee61a56c9" componentID="Audition.Mute" id="clipMute" name="Mute" powered="true">
            <parameter index="0" parameterValue="0"/>
            <parameter index="1" name="mute" parameterValue="0"/>
          </component>
          <component componentGuid="c1f9e6e2-e641-4445-99b8-9697ea867545" componentID="Audition.StereoPanner" id="clipPan" name="StereoPanner" powered="true">
            <parameter index="0" name="Pan" parameterValue="0"/>
          </component>
          <fadeIn crossFadeLinkType="linkedAsymmetric" endPoint="0" shape="0" startPoint="0" type="cosine"/>
          <fadeOut crossFadeLinkType="linkedAsymmetric" endPoint="24000" shape="0" startPoint="24000" type="cosine"/>
          <editParameter parameterIndex="0" slotIndex="4294967281"/>
          <editParameter parameterIndex="0" slotIndex="4294967280"/>
          <channelMap>
            <channel index="0" sourceIndex="0"/>
            <channel index="1" sourceIndex="1"/>
          </channelMap>
        </audioClip>
        <audioClip clipAutoCrossfade="true" crossFadeHeadClipID="-1" crossFadeTailClipID="-1" endPoint="120830" fileID="3" hue="-1" id="1" lockedInTime="false" looped="false" name="Bounce_12" offline="false" select="false" sourceInPoint="0" sourceOutPoint="24000" startPoint="96830" zOrder="74">
          <component componentGuid="bf4a5641-5a01-4f61-aa8d-c2bab9dd2159" componentID="Audition.Fader" id="clipGain" name="volume" powered="true">
            <parameter index="0" name="volume" parameterValue="0.2227314"/>
            <parameter index="1" name="static gain" parameterValue="1"/>
          </component>
          <component componentGuid="5aa5b242-d9ca-403e-a08f-f6bbccff9b47" componentID="Audition.Mute" id="clipMute" name="Mute" powered="true">
            <parameter index="0" parameterValue="0"/>
            <parameter index="1" name="mute" parameterValue="0"/>
          </component>
          <component componentGuid="e910324e-f0a6-40ca-b8be-4523e266df8c" componentID="Audition.StereoPanner" id="clipPan" name="StereoPanner" powered="true">
            <parameter index="0" name="Pan" parameterValue="0"/>
          </component>
          <fadeIn crossFadeLinkType="linkedAsymmetric" endPoint="0" shape="0" startPoint="0" type="cosine"/>
          <fadeOut crossFadeLinkType="linkedAsymmetric" endPoint="24000" shape="0" startPoint="24000" type="cosine"/>
          <editParameter parameterIndex="0" slotIndex="4294967281"/>
          <editParameter parameterIndex="0" slotIndex="4294967280"/>
          <channelMap>
            <channel index="0" sourceIndex="0"/>
            <channel index="1" sourceIndex="1"/>
          </channelMap>
        </audioClip>
        <audioClip clipAutoCrossfade="true" crossFadeHeadClipID="-1" crossFadeTailClipID="-1" endPoint="216830" fileID="3" hue="-1" id="2" lockedInTime="false" looped="false" name="Bounce_12" offline="false" select="false" sourceInPoint="0" sourceOutPoint="24000" startPoint="192830" zOrder="87">
          <component componentGuid="d9d016f9-96c5-428d-bb7e-01c26b263e22" componentID="Audition.Fader" id="clipGain" name="volume" powered="true">
            <parameter index="0" name="volume" parameterValue="0.2227314"/>
            <parameter index="1" name="static gain" parameterValue="1"/>
          </component>
          <component componentGuid="ecd23315-c8a5-4ba5-b2f0-c712771ec099" componentID="Audition.Mute" id="clipMute" name="Mute" powered="true">
            <parameter index="0" parameterValue="0"/>
            <parameter index="1" name="mute" parameterValue="0"/>
          </component>
          <component componentGuid="3cc2a76e-d02b-46c4-bfbc-8f5d2720793e" componentID="Audition.StereoPanner" id="clipPan" name="StereoPanner" powered="true">
            <parameter index="0" name="Pan" parameterValue="0"/>
          </component>
          <fadeIn crossFadeLinkType="linkedAsymmetric" endPoint="0" shape="0" startPoint="0" type="cosine"/>
          <fadeOut crossFadeLinkType="linkedAsymmetric" endPoint="24000" shape="0" startPoint="24000" type="cosine"/>
          <editParameter parameterIndex="0" slotIndex="4294967281"/>
          <editParameter parameterIndex="0" slotIndex="4294967280"/>
          <channelMap>
            <channel index="0" sourceIndex="0"/>
            <channel index="1" sourceIndex="1"/>
          </channelMap>
        </audioClip>
        <audioClip clipAutoCrossfade="true" crossFadeHeadClipID="-1" crossFadeTailClipID="-1" endPoint="264830" fileID="3" hue="-1" id="3" lockedInTime="false" looped="false" name="Bounce_12" offline="false" select="false" sourceInPoint="0" sourceOutPoint="24000" startPoint="240830" zOrder="75">
          <component componentGuid="a917a2ca-abba-473e-8398-182523e460f3" componentID="Audition.Fader" id="clipGain" name="volume" powered="true">
            <parameter index="0" name="volume" parameterValue="0.2227314"/>
            <parameter index="1" name="static gain" parameterValue="1"/>
          </component>
          <component componentGuid="db7e71a2-83e5-4a41-8466-05a629f30744" componentID="Audition.Mute" id="clipMute" name="Mute" powered="true">
            <parameter index="0" parameterValue="0"/>
            <parameter index="1" name="mute" parameterValue="0"/>
          </component>
          <component componentGuid="8c245afb-75c8-4357-b8ab-e25052560a38" componentID="Audition.StereoPanner" id="clipPan" name="StereoPanner" powered="true">
            <parameter index="0" name="Pan" parameterValue="0"/>
          </component>
          <fadeIn crossFadeLinkType="linkedAsymmetric" endPoint="0" shape="0" startPoint="0" type="cosine"/>
          <fadeOut crossFadeLinkType="linkedAsymmetric" endPoint="24000" shape="0" startPoint="24000" type="cosine"/>
          <editParameter parameterIndex="0" slotIndex="4294967281"/>
          <editParameter parameterIndex="0" slotIndex="4294967280"/>
          <channelMap>
            <channel index="0" sourceIndex="0"/>
            <channel index="1" sourceIndex="1"/>
          </channelMap>
        </audioClip>
        <audioClip clipAutoCrossfade="true" crossFadeHeadClipID="-1" crossFadeTailClipID="-1" endPoint="288830" fileID="3" hue="-1" id="4" lockedInTime="false" looped="false" name="Bounce_12" offline="false" select="false" sourceInPoint="0" sourceOutPoint="24000" startPoint="264830" zOrder="76">
          <component componentGuid="8105dcd6-dc7d-45fe-a003-37411751fe4c" componentID="Audition.Fader" id="clipGain" name="volume" powered="true">
            <parameter index="0" name="volume" parameterValue="0.2227314"/>
            <parameter index="1" name="static gain" parameterValue="1"/>
          </component>
          <component componentGuid="fe8b84f7-10e4-4afa-a54f-81610328b551" componentID="Audition.Mute" id="clipMute" name="Mute" powered="true">
            <parameter index="0" parameterValue="0"/>
            <parameter index="1" name="mute" parameterValue="0"/>
          </component>
          <component componentGuid="6c58566e-90fa-4e23-ba5a-1959e545af1a" componentID="Audition.StereoPanner" id="clipPan" name="StereoPanner" powered="true">
            <parameter index="0" name="Pan" parameterValue="0"/>
          </component>
          <fadeIn crossFadeLinkType="linkedAsymmetric" endPoint="0" shape="0" startPoint="0" type="cosine"/>
          <fadeOut crossFadeLinkType="linkedAsymmetric" endPoint="24000" shape="0" startPoint="24000" type="cosine"/>
          <editParameter parameterIndex="0" slotIndex="4294967281"/>
          <editParameter parameterIndex="0" slotIndex="4294967280"/>
          <channelMap>
            <channel index="0" sourceIndex="0"/>
            <channel index="1" sourceIndex="1"/>
          </channelMap>
        </audioClip>
        <audioClip clipAutoCrossfade="true" crossFadeHeadClipID="-1" crossFadeTailClipID="-1" endPoint="384830" fileID="3" hue="-1" id="5" lockedInTime="false" looped="false" name="Bounce_12" offline="false" select="false" sourceInPoint="0" sourceOutPoint="24000" startPoint="360830" zOrder="77">
          <component componentGuid="bbcc9e73-8140-4645-a5c9-06986883d3a4" componentID="Audition.Fader" id="clipGain" name="volume" powered="true">
            <parameter index="0" name="volume" parameterValue="0.2227314"/>
            <parameter index="1" name="static gain" parameterValue="1"/>
          </component>
          <component componentGuid="ede2fa25-a83d-4846-9449-a95d35aa0115" componentID="Audition.Mute" id="clipMute" name="Mute" powered="true">
            <parameter index="0" parameterValue="0"/>
            <parameter index="1" name="mute" parameterValue="0"/>
          </component>
          <component componentGuid="4b6b9e34-fc47-4917-ba8f-0321571098e0" componentID="Audition.StereoPanner" id="clipPan" name="StereoPanner" powered="true">
            <parameter index="0" name="Pan" parameterValue="0"/>
          </component>
          <fadeIn crossFadeLinkType="linkedAsymmetric" endPoint="0" shape="0" startPoint="0" type="cosine"/>
          <fadeOut crossFadeLinkType="linkedAsymmetric" endPoint="24000" shape="0" startPoint="24000" type="cosine"/>
          <editParameter parameterIndex="0" slotIndex="4294967281"/>
          <editParameter parameterIndex="0" slotIndex="4294967280"/>
          <channelMap>
            <channel index="0" sourceIndex="0"/>
            <channel index="1" sourceIndex="1"/>
          </channelMap>
        </audioClip>
        <audioClip clipAutoCrossfade="true" crossFadeHeadClipID="-1" crossFadeTailClipID="-1" endPoint="408830" fileID="3" hue="-1" id="6" lockedInTime="false" looped="false" name="Bounce_12" offline="false" select="false" sourceInPoint="0" sourceOutPoint="24000" startPoint="384830" zOrder="78">
          <component componentGuid="eef9ba50-110f-43ff-8292-c8847ed15d62" componentID="Audition.Fader" id="clipGain" name="volume" powered="true">
            <parameter index="0" name="volume" parameterValue="0.2227314"/>
            <parameter index="1" name="static gain" parameterValue="1"/>
          </component>
          <component componentGuid="6db0f11a-ed3b-4886-a651-c4068a4400fc" componentID="Audition.Mute" id="clipMute" name="Mute" powered="true">
            <parameter index="0" parameterValue="0"/>
            <parameter index="1" name="mute" parameterValue="0"/>
          </component>
          <component componentGuid="e59a3de4-6faa-4317-9424-48c13da25025" componentID="Audition.StereoPanner" id="clipPan" name="StereoPanner" powered="true">
            <parameter index="0" name="Pan" parameterValue="0"/>
          </component>
          <fadeIn crossFadeLinkType="linkedAsymmetric" endPoint="0" shape="0" startPoint="0" type="cosine"/>
          <fadeOut crossFadeLinkType="linkedAsymmetric" endPoint="24000" shape="0" startPoint="24000" type="cosine"/>
          <editParameter parameterIndex="0" slotIndex="4294967281"/>
          <editParameter parameterIndex="0" slotIndex="4294967280"/>
          <channelMap>
            <channel index="0" sourceIndex="0"/>
            <channel index="1" sourceIndex="1"/>
          </channelMap>
        </audioClip>
        <audioClip clipAutoCrossfade="true" crossFadeHeadClipID="-1" crossFadeTailClipID="-1" endPoint="456830" fileID="3" hue="-1" id="7" lockedInTime="false" looped="false" name="Bounce_12" offline="false" select="false" sourceInPoint="0" sourceOutPoint="24000" startPoint="432830" zOrder="79">
          <component componentGuid="b8df8a82-b828-404f-ac13-8115e387d1fb" componentID="Audition.Fader" id="clipGain" name="volume" powered="true">
            <parameter index="0" name="volume" parameterValue="0.2227314"/>
            <parameter index="1" name="static gain" parameterValue="1"/>
          </component>
          <component componentGuid="e5c9689d-3fd6-4dfa-8db5-7a65d1f560a1" componentID="Audition.Mute" id="clipMute" name="Mute" powered="true">
            <parameter index="0" parameterValue="0"/>
            <parameter index="1" name="mute" parameterValue="0"/>
          </component>
          <component componentGuid="5182aaed-3149-48d1-bb32-9a1c056d6752" componentID="Audition.StereoPanner" id="clipPan" name="StereoPanner" powered="true">
            <parameter index="0" name="Pan" parameterValue="0"/>
          </component>
          <fadeIn crossFadeLinkType="linkedAsymmetric" endPoint="0" shape="0" startPoint="0" type="cosine"/>
          <fadeOut crossFadeLinkType="linkedAsymmetric" endPoint="24000" shape="0" startPoint="24000" type="cosine"/>
          <editParameter parameterIndex="0" slotIndex="4294967281"/>
          <editParameter parameterIndex="0" slotIndex="4294967280"/>
          <channelMap>
            <channel index="0" sourceIndex="0"/>
            <channel index="1" sourceIndex="1"/>
          </channelMap>
        </audioClip>
        <audioClip clipAutoCrossfade="true" crossFadeHeadClipID="-1" crossFadeTailClipID="-1" endPoint="480830" fileID="3" hue="-1" id="8" lockedInTime="false" looped="false" name="Bounce_12" offline="false" select="false" sourceInPoint="0" sourceOutPoint="24000" startPoint="456830" zOrder="80">
          <component componentGuid="e92baa90-f64b-475c-8835-4f3024762bf5" componentID="Audition.Fader" id="clipGain" name="volume" powered="true">
            <parameter index="0" name="volume" parameterValue="0.2227314"/>
            <parameter index="1" name="static gain" parameterValue="1"/>
          </component>
          <component componentGuid="893f2093-40d2-4f41-910e-1fabf55dcf41" componentID="Audition.Mute" id="clipMute" name="Mute" powered="true">
            <parameter index="0" parameterValue="0"/>
            <parameter index="1" name="mute" parameterValue="0"/>
          </component>
          <component componentGuid="f20837df-82e2-4cb2-bc54-65cb010b056e" componentID="Audition.StereoPanner" id="clipPan" name="StereoPanner" powered="true">
            <parameter index="0" name="Pan" parameterValue="0"/>
          </component>
          <fadeIn crossFadeLinkType="linkedAsymmetric" endPoint="0" shape="0" startPoint="0" type="cosine"/>
          <fadeOut crossFadeLinkType="linkedAsymmetric" endPoint="24000" shape="0" startPoint="24000" type="cosine"/>
          <editParameter parameterIndex="0" slotIndex="4294967281"/>
          <editParameter parameterIndex="0" slotIndex="4294967280"/>
          <channelMap>
            <channel index="0" sourceIndex="0"/>
            <channel index="1" sourceIndex="1"/>
          </channelMap>
        </audioClip>
        <audioClip clipAutoCrossfade="true" crossFadeHeadClipID="-1" crossFadeTailClipID="-1" endPoint="576830" fileID="3" hue="-1" id="9" lockedInTime="false" looped="false" name="Bounce_12" offline="false" select="false" sourceInPoint="0" sourceOutPoint="24000" startPoint="552830" zOrder="81">
          <component componentGuid="be5a55fe-441a-4b4f-a6b7-06be99ecd3c9" componentID="Audition.Fader" id="clipGain" name="volume" powered="true">
            <parameter index="0" name="volume" parameterValue="0.2227314"/>
            <parameter index="1" name="static gain" parameterValue="1"/>
          </component>
          <component componentGuid="354033c4-fe60-46b9-9bfd-3fa1abe36bd5" componentID="Audition.Mute" id="clipMute" name="Mute" powered="true">
            <parameter index="0" parameterValue="0"/>
            <parameter index="1" name="mute" parameterValue="0"/>
          </component>
          <component componentGuid="7d69ddcb-0acc-4235-a914-9ed3c87a6284" componentID="Audition.StereoPanner" id="clipPan" name="StereoPanner" powered="true">
            <parameter index="0" name="Pan" parameterValue="0"/>
          </component>
          <fadeIn crossFadeLinkType="linkedAsymmetric" endPoint="0" shape="0" startPoint="0" type="cosine"/>
          <fadeOut crossFadeLinkType="linkedAsymmetric" endPoint="24000" shape="0" startPoint="24000" type="cosine"/>
          <editParameter parameterIndex="0" slotIndex="4294967281"/>
          <editParameter parameterIndex="0" slotIndex="4294967280"/>
          <channelMap>
            <channel index="0" sourceIndex="0"/>
            <channel index="1" sourceIndex="1"/>
          </channelMap>
        </audioClip>
        <audioClip clipAutoCrossfade="true" crossFadeHeadClipID="-1" crossFadeTailClipID="-1" endPoint="600830" fileID="3" hue="-1" id="10" lockedInTime="false" looped="false" name="Bounce_12" offline="false" select="false" sourceInPoint="0" sourceOutPoint="24000" startPoint="576830" zOrder="82">
          <component componentGuid="38501ced-1c6f-45f9-a6c8-16b76d66eec2" componentID="Audition.Fader" id="clipGain" name="volume" powered="true">
            <parameter index="0" name="volume" parameterValue="0.2227314"/>
            <parameter index="1" name="static gain" parameterValue="1"/>
          </component>
          <component componentGuid="aa0d5574-9cad-41aa-97f4-4d33f6c544b8" componentID="Audition.Mute" id="clipMute" name="Mute" powered="true">
            <parameter index="0" parameterValue="0"/>
            <parameter index="1" name="mute" parameterValue="0"/>
          </component>
          <component componentGuid="d45de8b1-834b-4ce7-9223-2015674d63b3" componentID="Audition.StereoPanner" id="clipPan" name="StereoPanner" powered="true">
            <parameter index="0" name="Pan" parameterValue="0"/>
          </component>
          <fadeIn crossFadeLinkType="linkedAsymmetric" endPoint="0" shape="0" startPoint="0" type="cosine"/>
          <fadeOut crossFadeLinkType="linkedAsymmetric" endPoint="24000" shape="0" startPoint="24000" type="cosine"/>
          <editParameter parameterIndex="0" slotIndex="4294967281"/>
          <editParameter parameterIndex="0" slotIndex="4294967280"/>
          <channelMap>
            <channel index="0" sourceIndex="0"/>
            <channel index="1" sourceIndex="1"/>
          </channelMap>
        </audioClip>
        <audioClip clipAutoCrossfade="true" crossFadeHeadClipID="-1" crossFadeTailClipID="-1" endPoint="672830" fileID="3" hue="-1" id="11" lockedInTime="false" looped="false" name="Bounce_12" offline="false" select="false" sourceInPoint="0" sourceOutPoint="24000" startPoint="648830" zOrder="83">
          <component componentGuid="1a208e9d-31bb-449a-880c-1935d8bcc511" componentID="Audition.Fader" id="clipGain" name="volume" powered="true">
            <parameter index="0" name="volume" parameterValue="0.2227314"/>
            <parameter index="1" name="static gain" parameterValue="1"/>
          </component>
          <component componentGuid="88d516ca-33fa-4193-9c42-bf8cc513773a" componentID="Audition.Mute" id="clipMute" name="Mute" powered="true">
            <parameter index="0" parameterValue="0"/>
            <parameter index="1" name="mute" parameterValue="0"/>
          </component>
          <component componentGuid="98f46d23-154a-4370-9d87-d3141c74ed0f" componentID="Audition.StereoPanner" id="clipPan" name="StereoPanner" powered="true">
            <parameter index="0" name="Pan" parameterValue="0"/>
          </component>
          <fadeIn crossFadeLinkType="linkedAsymmetric" endPoint="0" shape="0" startPoint="0" type="cosine"/>
          <fadeOut crossFadeLinkType="linkedAsymmetric" endPoint="24000" shape="0" startPoint="24000" type="cosine"/>
          <editParameter parameterIndex="0" slotIndex="4294967281"/>
          <editParameter parameterIndex="0" slotIndex="4294967280"/>
          <channelMap>
            <channel index="0" sourceIndex="0"/>
            <channel index="1" sourceIndex="1"/>
          </channelMap>
        </audioClip>
        <audioClip clipAutoCrossfade="true" crossFadeHeadClipID="-1" crossFadeTailClipID="-1" endPoint="696830" fileID="3" hue="-1" id="12" lockedInTime="false" looped="false" name="Bounce_12" offline="false" select="false" sourceInPoint="0" sourceOutPoint="24000" startPoint="672830" zOrder="84">
          <component componentGuid="80e8b743-58f8-4db8-ac61-4aa2ae18bb69" componentID="Audition.Fader" id="clipGain" name="volume" powered="true">
            <parameter index="0" name="volume" parameterValue="0.2227314"/>
            <parameter index="1" name="static gain" parameterValue="1"/>
          </component>
          <component componentGuid="2a207643-94bd-451a-bde5-9b74fec65d57" componentID="Audition.Mute" id="clipMute" name="Mute" powered="true">
            <parameter index="0" parameterValue="0"/>
            <parameter index="1" name="mute" parameterValue="0"/>
          </component>
          <component componentGuid="9bef091f-6fc4-47f5-8e7a-b0da565c9ae9" componentID="Audition.StereoPanner" id="clipPan" name="StereoPanner" powered="true">
            <parameter index="0" name="Pan" parameterValue="0"/>
          </component>
          <fadeIn crossFadeLinkType="linkedAsymmetric" endPoint="0" shape="0" startPoint="0" type="cosine"/>
          <fadeOut crossFadeLinkType="linkedAsymmetric" endPoint="24000" shape="0" startPoint="24000" type="cosine"/>
          <editParameter parameterIndex="0" slotIndex="4294967281"/>
          <editParameter parameterIndex="0" slotIndex="4294967280"/>
          <channelMap>
            <channel index="0" sourceIndex="0"/>
            <channel index="1" sourceIndex="1"/>
          </channelMap>
        </audioClip>
        <audioClip clipAutoCrossfade="true" crossFadeHeadClipID="-1" crossFadeTailClipID="-1" endPoint="792830" fileID="3" hue="-1" id="13" lockedInTime="false" looped="false" name="Bounce_12" offline="false" select="false" sourceInPoint="0" sourceOutPoint="24000" startPoint="768830" zOrder="88">
          <component componentGuid="c337331f-a5bf-4935-a10e-b8d6e0906a30" componentID="Audition.Fader" id="clipGain" name="volume" powered="true">
            <parameter index="0" name="volume" parameterValue="0.2227314"/>
            <parameter index="1" name="static gain" parameterValue="1"/>
          </component>
          <component componentGuid="042cd61c-f161-4a0b-ae86-eada5333e1d7" componentID="Audition.Mute" id="clipMute" name="Mute" powered="true">
            <parameter index="0" parameterValue="0"/>
            <parameter index="1" name="mute" parameterValue="0"/>
          </component>
          <component componentGuid="2869ed02-d04b-476e-93d7-a365f254257d" componentID="Audition.StereoPanner" id="clipPan" name="StereoPanner" powered="true">
            <parameter index="0" name="Pan" parameterValue="0"/>
          </component>
          <fadeIn crossFadeLinkType="linkedAsymmetric" endPoint="0" shape="0" startPoint="0" type="cosine"/>
          <fadeOut crossFadeLinkType="linkedAsymmetric" endPoint="24000" shape="0" startPoint="24000" type="cosine"/>
          <editParameter parameterIndex="0" slotIndex="4294967281"/>
          <editParameter parameterIndex="0" slotIndex="4294967280"/>
          <channelMap>
            <channel index="0" sourceIndex="0"/>
            <channel index="1" sourceIndex="1"/>
          </channelMap>
        </audioClip>
        <audioClip clipAutoCrossfade="true" crossFadeHeadClipID="-1" crossFadeTailClipID="-1" endPoint="864830" fileID="3" hue="-1" id="14" lockedInTime="false" looped="false" name="Bounce_12" offline="false" select="false" sourceInPoint="0" sourceOutPoint="24000" startPoint="840830" zOrder="85">
          <component componentGuid="d081af54-1c95-4c45-9f94-7dd6712d01d3" componentID="Audition.Fader" id="clipGain" name="volume" powered="true">
            <parameter index="0" name="volume" parameterValue="0.2227314"/>
            <parameter index="1" name="static gain" parameterValue="1"/>
          </component>
          <component componentGuid="64b3b360-37ab-42a5-8a14-add037abbf3f" componentID="Audition.Mute" id="clipMute" name="Mute" powered="true">
            <parameter index="0" parameterValue="0"/>
            <parameter index="1" name="mute" parameterValue="0"/>
          </component>
          <component componentGuid="ddec99ca-5c35-4ec2-8932-26bc94173feb" componentID="Audition.StereoPanner" id="clipPan" name="StereoPanner" powered="true">
            <parameter index="0" name="Pan" parameterValue="0"/>
          </component>
          <fadeIn crossFadeLinkType="linkedAsymmetric" endPoint="0" shape="0" startPoint="0" type="cosine"/>
          <fadeOut crossFadeLinkType="linkedAsymmetric" endPoint="24000" shape="0" startPoint="24000" type="cosine"/>
          <editParameter parameterIndex="0" slotIndex="4294967281"/>
          <editParameter parameterIndex="0" slotIndex="4294967280"/>
          <channelMap>
            <channel index="0" sourceIndex="0"/>
            <channel index="1" sourceIndex="1"/>
          </channelMap>
        </audioClip>
        <audioClip clipAutoCrossfade="true" crossFadeHeadClipID="-1" crossFadeTailClipID="-1" endPoint="888830" fileID="3" hue="-1" id="15" lockedInTime="false" looped="false" name="Bounce_12" offline="false" select="false" sourceInPoint="0" sourceOutPoint="24000" startPoint="864830" zOrder="86">
          <component componentGuid="2f9c8b15-2d6c-4f47-9db4-6e0ca890ecb5" componentID="Audition.Fader" id="clipGain" name="volume" powered="true">
            <parameter index="0" name="volume" parameterValue="0.2227314"/>
            <parameter index="1" name="static gain" parameterValue="1"/>
          </component>
          <component componentGuid="5f4e1fc4-b036-4b19-8f64-eaed24b4642a" componentID="Audition.Mute" id="clipMute" name="Mute" powered="true">
            <parameter index="0" parameterValue="0"/>
            <parameter index="1" name="mute" parameterValue="0"/>
          </component>
          <component componentGuid="a65e18a6-dd60-4a99-b99d-42d01a654d1f" componentID="Audition.StereoPanner" id="clipPan" name="StereoPanner" powered="true">
            <parameter index="0" name="Pan" parameterValue="0"/>
          </component>
          <fadeIn crossFadeLinkType="linkedAsymmetric" endPoint="0" shape="0" startPoint="0" type="cosine"/>
          <fadeOut crossFadeLinkType="linkedAsymmetric" endPoint="24000" shape="0" startPoint="24000" type="cosine"/>
          <editParameter parameterIndex="0" slotIndex="4294967281"/>
          <editParameter parameterIndex="0" slotIndex="4294967280"/>
          <channelMap>
            <channel index="0" sourceIndex="0"/>
            <channel index="1" sourceIndex="1"/>
          </channelMap>
        </audioClip>
        <audioClip clipAutoCrossfade="true" crossFadeHeadClipID="-1" crossFadeTailClipID="-1" endPoint="912830" fileID="3" hue="-1" id="16" lockedInTime="false" looped="false" name="Bounce_12" offline="false" select="false" sourceInPoint="0" sourceOutPoint="24000" startPoint="888830" zOrder="90">
          <component componentGuid="83321b49-1996-4eab-ad44-70cdb0363d37" componentID="Audition.Fader" id="clipGain" name="volume" powered="true">
            <parameter index="0" name="volume" parameterValue="0.2227314"/>
            <parameter index="1" name="static gain" parameterValue="1"/>
          </component>
          <component componentGuid="7353c7e2-ba9d-4725-b577-6225f4647b68" componentID="Audition.Mute" id="clipMute" name="Mute" powered="true">
            <parameter index="0" parameterValue="0"/>
            <parameter index="1" name="mute" parameterValue="0"/>
          </component>
          <component componentGuid="cf4b6807-ef05-49ad-aae2-122e7e644eea" componentID="Audition.StereoPanner" id="clipPan" name="StereoPanner" powered="true">
            <parameter index="0" name="Pan" parameterValue="0"/>
          </component>
          <fadeIn crossFadeLinkType="linkedAsymmetric" endPoint="0" shape="0" startPoint="0" type="cosine"/>
          <fadeOut crossFadeLinkType="linkedAsymmetric" endPoint="24000" shape="0" startPoint="24000" type="cosine"/>
          <editParameter parameterIndex="0" slotIndex="4294967281"/>
          <editParameter parameterIndex="0" slotIndex="4294967280"/>
          <channelMap>
            <channel index="0" sourceIndex="0"/>
            <channel index="1" sourceIndex="1"/>
          </channelMap>
        </audioClip>
        <audioClip clipAutoCrossfade="true" crossFadeHeadClipID="-1" crossFadeTailClipID="-1" endPoint="984830" fileID="3" hue="-1" id="17" lockedInTime="false" looped="false" name="Bounce_12" offline="false" select="false" sourceInPoint="0" sourceOutPoint="24000" startPoint="960830" zOrder="89">
          <component componentGuid="123a2f9b-dd66-4894-b16d-4de338953315" componentID="Audition.Fader" id="clipGain" name="volume" powered="true">
            <parameter index="0" name="volume" parameterValue="0.2227314"/>
            <parameter index="1" name="static gain" parameterValue="1"/>
          </component>
          <component componentGuid="910b2121-fd01-432f-8543-1c1814a3a1a2" componentID="Audition.Mute" id="clipMute" name="Mute" powered="true">
            <parameter index="0" parameterValue="0"/>
            <parameter index="1" name="mute" parameterValue="0"/>
          </component>
          <component componentGuid="014102d7-c75d-4ab0-87b4-64c7fd99c3e4" componentID="Audition.StereoPanner" id="clipPan" name="StereoPanner" powered="true">
            <parameter index="0" name="Pan" parameterValue="0"/>
          </component>
          <fadeIn crossFadeLinkType="linkedAsymmetric" endPoint="0" shape="0" startPoint="0" type="cosine"/>
          <fadeOut crossFadeLinkType="linkedAsymmetric" endPoint="24000" shape="0" startPoint="24000" type="cosine"/>
          <editParameter parameterIndex="0" slotIndex="4294967281"/>
          <editParameter parameterIndex="0" slotIndex="4294967280"/>
          <channelMap>
            <channel index="0" sourceIndex="0"/>
            <channel index="1" sourceIndex="1"/>
          </channelMap>
        </audioClip>
      </audioTrack>
      <audioTrack automationLaneOpenState="false" id="10029" index="9" select="false" visible="true">
        <trackParameters trackHeight="93" trackHue="-1" trackMinimized="false">
          <name>Bounce_13</name>
        </trackParameters>
        <trackAudioParameters audioChannelType="stereo" automationMode="1" monitoring="false" recordArmed="false" solo="false" soloSafe="false">
          <trackOutput outputID="10000" type="trackID"/>
          <trackInput inputID="1"/>
          <component componentGuid="f7f45d56-a4ce-4f96-91c1-1af688e28ea1" componentID="Audition.Fader" id="trackFader" name="volume" powered="true">
            <parameter index="0" name="volume" parameterValue="0.5623413"/>
            <parameter index="1" name="static gain" parameterValue="1"/>
          </component>
          <component componentGuid="8f79f73d-434d-4838-86a9-757fee4aa188" componentID="Audition.Mute" id="trackMute" name="Mute" powered="true">
            <parameter index="0" parameterValue="0"/>
            <parameter index="1" name="mute" parameterValue="0"/>
          </component>
          <component componentGuid="8df56014-2010-41dc-9516-e39b3ddf5f6d" componentID="Audition.StereoPanner" id="trackPan" name="StereoPanner" powered="true">
            <parameter index="0" name="Pan" parameterValue="0"/>
          </component>
          <component componentGuid="379c9b84-4629-4338-9f44-d116255195c7" componentID="Audition.EQ" id="trackEQ" name="EQ" powered="false">
            <parameter index="0" name="Low Shelf Frequency" parameterValue="0.000834"/>
            <parameter index="1" name="Low Shelf Gain" parameterValue="0.5"/>
            <parameter index="2" name="High Shelf Frequency" parameterValue="0.7497915"/>
            <parameter index="3" name="High Shelf Gain" parameterValue="0.5"/>
            <parameter index="4" name="EQ Band 1 Center Frequency" parameterValue="0.001251"/>
            <parameter index="5" name="EQ Band 1 Q" parameterValue="0.0002"/>
            <parameter index="6" name="EQ Band 1 Gain" parameterValue="0.5"/>
            <parameter index="7" name="EQ Band 1 Enable" parameterValue="1"/>
            <parameter index="8" name="EQ Band 2 Center Frequency" parameterValue="0.0075063"/>
            <parameter index="9" name="EQ Band 2 Q" parameterValue="0.0002"/>
            <parameter index="10" name="EQ Band 2 Gain" parameterValue="0.5"/>
            <parameter index="11" name="EQ Band 2 Enable" parameterValue="1"/>
            <parameter index="12" name="EQ Band 3 Center Frequency" parameterValue="0.0325271"/>
            <parameter index="13" name="EQ Band 3 Q" parameterValue="0.0002"/>
            <parameter index="14" name="EQ Band 3 Gain" parameterValue="0.5"/>
            <parameter index="15" name="EQ Band 3 Enable" parameterValue="1"/>
            <parameter index="16" name="EQ Band 4 Center Frequency" parameterValue="0.1326105"/>
            <parameter index="17" name="EQ Band 4 Q" parameterValue="0.0002"/>
            <parameter index="18" name="EQ Band 4 Gain" parameterValue="0.5"/>
            <parameter index="19" name="EQ Band 4 Enable" parameterValue="1"/>
            <parameter index="20" name="EQ Band 5 Center Frequency" parameterValue="0.5329441"/>
            <parameter index="21" name="EQ Band 5 Q" parameterValue="0.0002"/>
            <parameter index="22" name="EQ Band 5 Gain" parameterValue="0.5"/>
            <parameter index="23" name="EQ Band 5 Enable" parameterValue="1"/>
            <parameter index="24" name="Master Gain" parameterValue="0.6666667"/>
            <parameter index="25" name="ConstantQ" parameterValue="1"/>
            <parameter index="26" name="Low Shelf Filter Order" parameterValue="0"/>
            <parameter index="27" name="High Shelf Filter Order" parameterValue="0"/>
            <parameter index="28" name="Ultra-Quiet Mode" parameterValue="0"/>
            <parameter index="29" name="Low Shelf Enable" parameterValue="1"/>
            <parameter index="30" name="High Shelf Enable" parameterValue="1"/>
            <parameter index="31" name="Original Sample Rate" parameterValue="0.25"/>
            <parameter index="32" name="EQ Band 1 Bandwidth" parameterValue="0.0025"/>
            <parameter index="33" name="EQ Band 2 Bandwidth" parameterValue="0.01"/>
            <parameter index="34" name="EQ Band 3 Bandwidth" parameterValue="0.04"/>
            <parameter index="35" name="EQ Band 4 Bandwidth" parameterValue="0.16"/>
            <parameter index="36" name="EQ Band 5 Bandwidth" parameterValue="0.64"/>
            <parameter index="37" name="High-Pass Filter Enable" parameterValue="0"/>
            <parameter index="38" name="High-Pass Cutoff Frequency" parameterValue="0"/>
            <parameter index="39" name="High-Pass Slope" parameterValue="0.4"/>
            <parameter index="40" name="Low-Pass Filter Enable" parameterValue="0"/>
            <parameter index="41" name="Low-Pass Cutoff Frequency" parameterValue="0.8331943"/>
            <parameter index="42" name="Low-Pass Slope" parameterValue="0.4"/>
            <parameter index="43" name="Bypass" parameterValue="0"/>
            <parameter index="44" name="LowGraphRange" parameterValue="1"/>
          </component>
        </trackAudioParameters>
        <effectsRack preFader="true">
          <component componentGuid="cb86e71a-017f-4298-93dd-e79d4af08693" id="rackMix" powered="true">
            <parameter index="0" parameterValue="0"/>
            <parameter index="1" parameterValue="0"/>
          </component>
          <component componentGuid="678f0a98-6921-46d1-a46b-673da8995be0" id="rackInput" powered="true">
            <parameter index="0" parameterValue="1"/>
            <parameter index="1" parameterValue="0"/>
          </component>
          <component componentGuid="365c50b7-89f9-44f1-848c-fbb1f9dc9f2b" id="rackOutput" powered="true">
            <parameter index="0" parameterValue="1"/>
            <parameter index="1" parameterValue="0"/>
          </component>
          <slot powered="true" slotIndex="0">
            <component componentGuid="bc1df450-42a4-44dc-92d2-47cb3573f139" componentID="164b4e8a-7105-406b-b23b-1ef2cc4d8957" editorHeight="439" editorLeft="705" editorTop="301" editorWidth="511" name="Pitch Shifter">
              <channelMap direction="input">
                <channel index="0" sourceIndex="0"/>
                <channel index="1" sourceIndex="1"/>
              </channelMap>
              <channelMap direction="output">
                <channel index="0" sourceIndex="0"/>
                <channel index="1" sourceIndex="1"/>
              </channelMap>
              <parameter index="0" name="Transpose Ratio" parameterValue="0"/>
              <parameter index="1" name="Precision" parameterValue="1"/>
              <parameter index="2" name="Frequency" parameterValue="0.1081536"/>
              <parameter index="3" name="Overlapping" parameterValue="0.6791464"/>
              <parameter index="4" name="Use Default Setting" parameterValue="0.75"/>
            </component>
          </slot>
          <slot powered="true" slotIndex="1">
            <component componentGuid="ee304da9-4f70-48d7-8196-59594af92922" componentID="99c2e75f-0bdb-48d8-8b51-2bac2e26b2cf" editorHeight="416" editorLeft="729" editorTop="312" editorWidth="463" name="Convolution Reverb">
              <channelMap direction="input">
                <channel index="0" sourceIndex="0"/>
                <channel index="1" sourceIndex="1"/>
              </channelMap>
              <channelMap direction="output">
                <channel index="0" sourceIndex="0"/>
                <channel index="1" sourceIndex="1"/>
              </channelMap>
              <presetChunkData><![CDATA[BiBuYWZldFMIAAAAAQAAAAAASEIAAMhCAACMQgAAkkIAAAAAAADIQgAAQMACAAAAACAAAAAAAAAAAAAAAAAAAAAAAAAAAAAAAAAAAAAAAAAAAAAAAAAAAAAAAAAAAAAAAAAAAAAAAAAAAAAAAAAAAAAAAAAAAAAAAAAAAAAAAAAAAAAAAAAAAAAAAAAAAAAAAAAAAAAAAAAAAAAAAAAAAAAAAAAAAAAAAAAAAAAAAAAAAAAAAAAAAAAAAAAAAAAAAAAAAAAAAAAAAAAAAAAAAAAAAAAAAAAAAAAAAAAAAAAAAAAAAAAAAAAAAAAAAAAAAAAAAAAAAAAAAAAAAAAAAAAAAAAAAAAAAAAAAAAAAAAAAAAAAAAAAAAAAAAAAAAAAAAAAAAAAAAAAAAAAAAAAAAAAAAAAAAAAAAAAAAAAAAAAAAAAAAAAAAAAAAAAAAAAAAAAAAAAAAAAAAAAAAAAAAAAAAAAAAAAAAAAAAAAAAAAAAAAAAAAAAAAAAAAAAAAAAAAAAAAAAAAAAAAAAAAAAAAAAAAAAAAAAAAAAAAAAAAAAAAAAAAAAAAAAAAAAAAAAAAAAAAAAAAAAAAAAAAAAAAAAAAAAAAAAAAAAAAAAAAAAAAAAAAAAAAAAAAAAAAAAAAAAAAAAAAAAAAAAAAAAAAAAAAAAAAAAAAAAAAAAAAAAAAAAAAAAAAAAAAAAAAAAAAAAAAAAAAAAAAAAAAAAAAAAAAAAAAAAAAAAAAAAAAAAAAAAAAAAAAAAAAAAAAAAAAAAAAAAAAAAAAAAAAAAAAAAAAAAAAAAAAAAAAAAAAAAAAAAAAAAAAAAAAAAAAAAAAAAAAAAAAAAAAAAAAAAAAAAAAAAAAAAAAAAAAAAAAAAAAAAAAAAAAAAAAAAAAAAAAAAAAAAAAAAAAAAAAAAAAAAAAAAAAAAAAAAAAAAAAAAAAAAAAAAAAAAAAAAAAAAAAAAAAAAAAAAAAAAAAAAAAAAAAAAAAAAAAAAAAAAAAAAAAAAAAAAAAAAAAAAAAAAAAAAAAAAAAAAAAAAAAAAAAAAAAAAAAAAAAAAAAAAAAAAAAAAAAAAAAAAAAAAAAAAAAAAAAAAAAAAAAAAAAAAAAAAAAAAAAAAAAAAAAAAAAAAAAAAAAAAAAAAAAAAAAAAAAAAAAAAAAAAAAAAAAAAAAAAAAAAAAAAAAAAAAAAAAAAAAAAAAAAAAAAAAAAAAAAAAAAAAAAAAAAAAAAAAAAAAAAAAAAAAAAAAAAAAAAAAAAAAAAAAAAAAAAAAAAAAAAAAAAAAAAAAAAAAAAAAAAAAAAAAAAAAAAAAAAAAAAAAAAAAAAAAAAAAAAAAAAAAAAAAAAAAAAAAAAAAAAAAAAAAAAAAAAAAAAAAAAAAAAAAAAAAAAAAAAAAAAAAAAAAAAAAAAAAAAAAAAAAAAAAAAAAAAAAAAAAAAAAAAAAAAAAAAAAAAAAAAAAAAAAAAAAAAAAAAAAAAAAAAAAAAAAAAAAAAAAAAAAAAAAAAAAAAAAAAAAAAAAAAAAAAAAAAAAAAAAAAAAAAAAAAAAAAAAAAAAAAAAAAAAAAAAAAAAAAAAAAAAAAAAAAAAAAAAAAAAAAAAAAAAAAAAAAAAAAAAAAAAAAAAAAAAAAAAAAAAAAAAAAAAAAAAAAAAAAAAAAAAAAAAAAAAAAAAAAAAAAAAAAAAAAAAAAAAAAAAAAAAAAAAAAAAAAAAAAAAAAAAAAAAAAAAAAAAAAAAAAAAAAAAAAAAAAAAAAAAAAAAAAAAAAAAAAAAAAAAAAAAAAAAAAAAAAAAAAAAAAAAAAAAAAAAAAAAAAAAAAAAAAAAAAAAAAAAAAAAAAAAAAAAAAAAAAAAAAAAAAAAAAAAAAAAAAAAAAAAAAAAAAAAAAAAAAAAAAAAAAAAAAAAAAAAAAAAAAAAAAAAAAAAAAAAAAAAAAAAAAAAAAAAAAAAAAAAAAAAAAAAAAAAAAAAAAAAAAAAAAAAAAAAAAAAAAAAAAAAAAAAAAAAAAAAAAAAAAAAAAAAAAAAAAAAAAAAAAAAAAAAAAAAAAAAAAAAAAAAAAAAAAAAAAAAAAAAAAAAAAAAAAAAAAAAAAAAAAAAAAAAAAAAAAAAAAAAAAAAAAAAAAAAAAAAAAAAAAAAAAAAAAAAAAAAAAAAAAAAAAAAAAAAAAAAAAAAAAAAAAAAAAAAAAAAAAAAAAAAAAAAAAAAAAAAAAAAAAAAAAAAAAAAAAAAAAAAAAAAAAAAAAAAAAAAAAAAAAAAAAAAAAAAAAAAAAAAAAAAAAAAAAAAAAAAAAAAAAAAAAAAAAAAAAAAAAAAAAAAAAAAAAAAAAAAAAAAAAAAAAAAAAAAAAAAAAAAAAAAAAAAAAAAAAAAAAAAAAAAAAAAAAAAAAAAAAAAAAAAAAAAAAAAAAAAAAAAAAAAAAAAAAAAAAAAAAAAAAAAAAAAAAAAAAAAAAAAAAAAAAAAAAAAAAAAAAAAAAAAAAAAAAAAAAAAAAAAAAAAAAAAAAAAAAAAAAAAAAAAAAAAAAAAAAAAAAAAAAAAAAAAAAAAAAAAAAAAAAAAAAAAAAAAAAAAAAAAAAAAAAAAAAAAAAAAAAAAAAAAAAAAAAAAAAAAAAAAAAAAAAAAAAAAAAAAAAAAAAAAAAAAAAAAAAAAAAAAAAAAAAAAAAAAAAAAAAAAAAAAAAAAAAAAAAAAAAAAAAAAAAAAAAAAAAAAAAAAAAAAAAAAAAAAAAAAAAAAAAAAAAAAAAAAAAAAAAAAAAAAAAAAAAAAAAAAAAAAAAAAAAAAAAAAAAAAAAAAAAAAAAAAAAAAAAAAAAAAAAAAAAAAAAAAAAAAAAAAAAAAAAAAAAAAAAAAAAAAAAAAAAAAAAAAAAAAAAAAAAAAAAAAAAAAAAAAAAAAAAAAAAAAAAAAAAAAAAAAAAAAAAAAAAAAAAAAAAAAAAAAAAAAAAAAAAAAAAAAAAAAAAAAAAAAAAAAAAAAAAAAAAAAAAAAAAAAAAAAAAAAAAAAAAAAAAAAAAAAAAAAAAAAAAAAAAAAAAAAAAAAAAAAAAAAAAAAAAAAAAAAAAAAAAAAAAAAAAAAAAAAAAAAAAAAAAAAAAAAAAAAAAAAAAAAAAAAAAAAAAAAAAAAAAAAAAAAAAAAAAAAAAAAAAAAAAAAAAAAAAAAAAAAAAAAAAAAAAAAAAAAAAAAAAAAAAAAAAAAAAAAAAAAAAAAAAAAAAAAAAAAAAAAAAAAAAAAAAAAAAAAAAAAAAAAAAAAAAAAAAAAAAAAAAAAAAAAAAAAAAAAAAAAAAAAAAAAAAAAAAAAAAAAAAAAAAAAAAAAAAAAAAAAAAAAAAAAAAAAAAAAAAAAAAAAAAAAAAAAAAAAAAAAAAAAAAAAAAAAAAAAAAAAAAAAAAAAAAAAAAAAAAAAAAAAAAAAAAAAAAAAAAAAAAAAAAAAAAAAAAAAAAAAAAAAAAAAAAAAAAAAAAAAAAAAAAAAAAAAAAAAAAAAAAAAAAAAAAAAAAAAAAAAAAAAAAAAAAAAAAAAAAAAAAAAAAAAAAAAAAAAAAAAAAAAAAAAAAAAAAAAAAAAAAAAAAAAAAAAAAAAAAAAAAAAAAAAAAAAAAAAAAAAAAAAAAAAAAAAAAAAAAAAAAAAAAAAAAAAAAAAAAAAAAAAAAAAAAAAAAAAAAAAAAAAAAAAAAAAAAAAAAAAAAAAAAAAAAAAAAAAAAAAAAAAAAAAAAAAAAAAAAAAAAAAAAAAAAAAAAAAAAAAAAAAAAAAAAAAAAAAAAAAAAAAAAAAAAAAAAAAAAAAAAAAAAAAAAAAAAAAAAAAAAAAAAAAAAAAAAAAAAAAAAAAAAAAAAAAAAAAAAAAAAAAAAAAAAAAAAAAAAAAAAAAAAAAAAAAAAAAAAAAAAAAAAAAAAAAAAAAAAAAAAAAAAAAAAAAAAAAAAAAAAAAAAAAAAAAAAAAAAAAAAAAAAAAAAAAAAAAAAAAAAAAAAAAAAAAAAAAAAAAAAAAAAAAAAAAAAAAAAAAAAAAAAAAAAAAAAAAAAAAAAAAAAAAAAAAAAAAAAAAAAAAAAAAAAAAAAAAAAAAAAAAAAAAAAAAAAAAAAAAAAAAAAAAAAAAAAAAAAAAAAAAAAAAAAAAAAAAAAAAAAAAAAAAAAAAAAAAAAAAAAAAAAAAAAAAAAAAAAAAAAAAAAAAAAAAAAAAAAAAAAAAAAAAAAAAAAAAAAAAAAAAAAAAAAAAAAAAAAAAAAAAAAAAAAAAAAAAAAAAAAAAAAAAAAAAAAAAAAAAAAAAAAAAAAAAAAAAAAAAAAAAAAAAAAAAAAAAAAAAAAAAAAAAAAAAAAAAAAAAAAAAAAAAAAAAAAAAAAAAAAAAAAAAAAAAAAAAAAAAAAAAAAAAAAAAAAAAAAAAAAAAAAAAAAAAAAAAAAAAAAAAAAAAAAAAAAAAAAAAAAAAAAAAAAAAAAAAAAAAAAAAAAAAAAAAAAAAAAAAAAAAAAAAAAAAAAAAAAAAAAAAAAAAAAAAAAAAAAAAAAAAAAAAAAAAAAAAAAAAAAAAAAAAAAAAAAAAAAAAAAAAAAAAAAAAAAAAAAAAAAAAAAAAAAAAAAAAAAAAAAAAAAAAAAAAAAAAAAAAAAAAAAAAAAAAAAAAAAAAAAAAAAAAAAAAAAAAAAAAAAAAAAAAAAAAAAAAAAAAAAAAAAAAAAAAAAAAAAAAAAAAAAAAAAAAAAAAAAAAAAAAAAAAAAAAAAAAAAAAAAAAAAAAAAAAAAAAAAAAAAAAAAAAAAAAAAAAAAAAAAAAAAAAAAAAAAAAAAAAAAAAAAAAAAAAAAAAAAAAAAAAAAAAAAAAAAAAAAAAAAAAAAAAAAAAAAAAAAAAAAAAAAAAAAAAAAAAAAAAAAAAAAAAAAAAAAAAAAAAAAAAAAAAAAAAAAAAAAAAAAAAAAAAAAAAAAAAAAAAAAAAAAAAAAAAAAAAAAAAAAAAAAAAAAAAAAAAAAAAAAAAAAAAAAAAAAAAAAAAAAAAAAAAAAAAAAAAAAAAAAAAAAAAAAAAAAAAAAAAAAAAAAAAAAAAAAAAAAAAAAAAAAAAAAAAAAAAAAAAAAAAAAAAAAAAAAAAAAAAAAAAAAAAAAAAAAAAAAAAAAAAAAAAAAAAAAAAAAAAAAAAAAAAAAAAAAAAAAAAAAAAAAAAAAAAAAAAAAAAAAAAAAAAAAAAAAAAAAAAAAAAAAAAAAAAAAAAAAAAAAAAAAAAAAAAAAAAAAAAAAAAAAAAAAAAAAAAAAAAAAAAAAAAAAAAAAAAAAAAAAAAAAAAAAAAAAAAAAAAAAAAAAAAAAAAAAAAAAAAAAAAAAAAAAAAAAAAAAAAAAAAAAAAAAAAAAAAAAAAAAAAAAAAAAAAAAAAAAAAAAAAAAAAAAAAAAAAAAAAAAAAAAAAAAAAAAAAAAAAAAAAAAAAAAAAAAAAAAAAAAAAAAAAAAAAAAAAAAAAAAAAAAAAAAAAAAAAAAAAAAAAAAAAAAAAAAAAAAAAAAAAAAAAAAAAAAAAAAAAAAAAAAAAAAAAAAAAAAAAAAAAAAAAAAAAAAAAAAAAAAAAAAAAAAAAAAAAAAAAAAAAAAAAAAAAAAAAAAAAAAAAAAAAAAAAAAAAAAAAAAAAAAAAAAAAAAAAAAAAAAAAAAAAAAAAAAAAAAAAAAAAAAAAAAAAAAAAAAAAAAAAAAAAAAAAAAAAAAAAAAAAAAAAAAAAAAAAAAAAAAAAAAAAAAAAAAAAAAAAAAAAAAAAAAAAAAAAAAAAAAAAAAAAAAAAAAAAAAAAAAAAAAAAAAAAAAAAAAAAAAAAAAAAAAAAAAAAAAAAAAAAAAAAAAAAAAAAAAAAAAAAAAAAAAAAAAAAAAAAAAAAAAAAAAAAAAAAAAAAAAAAAAAAAAAAAAAAAAAAAAAAAAAAAAAAAAAAAAAAAAAAAAAAAAAAAAAAAAAAAAAAAAAAAAAAAAAAAAAAAAAAAAAAAAAAAAAAAAAAAAAAAAAAAAAAAAAAAAAAAAAAAAAAAAAAAAAAAAAAAAAAAAAAAAAAAAAAAAAAAAAAAAAAAAAAAAAAAAAAAAAAAAAAAAAAAAAAAAAAAAAAAAAAAAAAAAAAAAAAAAAAAAAAAAAAAAAAAAAAAAAAAAAAAAAAAAAAAAAAAAAAAAAAAAAAAAAAAAAAAAAAAAAAAAAAAAAAAAAAAAAAAAAAAAAAAAAAAAAAAAAAAAAAAAAAAAAAAAAAAAAAAAAAAAAAAAAAAAAAAAAAAAAAAAAAAAAAAAAAAAAAAAAAAAAAAAAAAAAAAAAAAAAAAAAAAAAAAAAAAAAAAAAAAAAAAAAAAAAAAAAAAAAAAAAAAAAAAAAAAAAAAAAAAAAAAAAAAAAAAAAAAAAAAAAAAAAAAAAAAAAAAAAAAAAAAAAAAAAAAAAAAAAAAAAAAAAAAAAAAAAAAAAAAAAAAAAAAAAAAAAAAAAAAAAAAAAAAAAAAAAAAAAAAAAAAAAAAAAAAAAAAAAAAAAAAAAAAAAAAAAAAAAAAAAAAAAAAAAAAAAAAAAAAAAAAAAAAAAAAAAAAAAAAAAAAAAAAAAAAAAAAAAAAAAAAAAAAAAAAAAAAAAAAAAAAAAAAAAAAAAAAAAAAAAAAAAAAAAAAAAAAAAAAAAAAAAAAAAAAAAAAAAAAAAAAAAAAAAAAAAAAAAAAAAAAAAAAAAAAAAAAAAAAAAAAAAAAAAAAAAAAAAAAAAAAAAAAAAAAAAAAAAAAAAAAAAAAAAAAAAAAAAAAAAAAAAAAAAAAAAAAAAAAAAAAAAAAAAAAAAAAAAAAAAAAAAAAAAAAAAAAAAAAAAAAAAAAAAAAAAAAAAAAAAAAAAAAAAAAAAAAAAAAAAAAAAAAAAAAAAAAAAAAAAAAAAAAAAAAAAAAAAAAAAAAAAAAAAAAAAAAAAAAAAAAAAAAAAAAAAAAAAAAAAAAAAAAAAAAAAAAAAAAAAAAAAAAAAAAAAAAAAAAAAAAAAAAAAAAAAAAAAAAAAAAAAAAAAAAAAAAAAAAAAAAAAAAAAAAAAAAAAAAAAAAAAAAAAAAAAAAAAAAAAAAAAAAAAAAAAAAAAAAAAAAAAAAAAAAAAAAAAAAAAAAAAAAAAAAAAAAAAAAAAAAAAAAAAAAAAAAAAAAAAAAAAAAAAAAAAAAAAAAAAAAAAAAAAAAAAAAAAAAAAAAAAAAAAAAAAAAAAAAAAAAAAAAAAAAAAAAAAAAAAAAAAAAAAAAAAAAAAAAAAAAAAAAAAAAAAAAAAAAAAAAAAAAAAAAAAAAAAAAAAAAAAAAAAAAAAAAAAAAAAAAAAAAAAAAAAAAAAAAAAAAAAAAAAAAAAAAAAAAAAAAAAAAAAAAAAAAAAAAAAAAAAAAAAAAAAAAAAAAAAAAAAAAAAAAAAAAAAAAAAAAAAAAAAAAAAAAAAAAAAAAAAAAAAAAAAAAAAAAAAAAAAAAAAAAAAAAAAAAAAAAAAAAAAAAAAAAAAAAAAAAAAAAAAAAAAAAAAAAAAAAAAAAAAAAAAAAAAAAAAAAAAAAAAAAAAAAAAAAAAAAAAAAAAAAAAAAAAAAAAAAAAAAAAAAAAAAAAAAAAAAAAAAAAAAAAAAAAAAAAAAAAAAAAAAAAAAAAAAAAAAAAAAAAAAAAAAAAAAAAAAAAAAAAAAAAAAAAAAAAAAAAAAAAAAAAAAAAAAAAAAAAAAAAAAAAAAAAAAAAAAAAAAAAAAAAAAAAAAAAAAAAAAAAAAAAAAAAAAAAAAAAAAAAAAAAAAAAAAAAAAAAAAAAAAAAAAAAAAAAAAAAAAAAAAAAAAAAAAAAAAAAAAAAAAAAAAAAAAAAAAAAAAAAAAAAAAAAAAAAAAAAAAAAAAAAAAAAAAAAAAAAAAAAAAAAAAAAAAAAAAAAAAAAAAAAAAAAAAAAAAAAAAAAAAAAAAAAAAAAAAAAAAAAAAAAAAAAAAAAAAAAAAAAAAAAAAAAAAAAAAAAAAAAAAAAAAAAAAAAAAAAAAAAAAAAAAAAAAAAAAAAAAAAAAAAAAAAAAAAAAAAAAAAAAAAAAAAAAAAAAAAAAAAAAAAAAAAAAAAAAAAAAAAAAAAAAAAAAAAAAAAAAAAAAAAAAAAAAAAAAAAAAAAAAAAAAAAAAAAAAAAAAAAAAAAAAAAAAAAAAAAAAAAAAAAAAAAAAAAAAAAAAAAAAAAAAAAAAAAAAAAAAAAAAAAAAAAAAAAAAAAAAAAAAAAAAAAAAAAAAAAAAAAAAAAAAAAAAAAAAAAAAAAAAAAAAAAAAAAAAAAAAAAAAAAAAAAAAAAAAAAAAAAAAAAAAAAAAAAAAAAAAAAAAAAAAAAAAAAAAAAAAAAAAAAAAAAAAAAAAAAAAAAAAAAAAAAAAAAAAAAAAAAAAAAAAAAAAAAAAAAAAAAAAAAAAAAAAAAAAAAAAAAAAAAAAAAAAAAAAAAAAAAAAAAAAAAAAAAAAAAAAAAAAAAAAAAAAAAAAAAAAAAAAAAAAAAAAAAAAAAAAAAAAAAAAAAAAAAAAAAAAAAAAAAAAAAAAAAAAAAAAAAAAAAAAAAAAAAAAAAAAAAAAAAAAAAAAAAAAAAAAAAAAAAAAAAAAAAAAAAAAAAAAAAAAAAAAAAAAAAAAAAAAAAAAAAAAAAAAAAAAAAAAAAAAAAAAAAAAAAAAAAAAAAAAAAAAAAAAAAAAAAAAAAAAAAAAAAAAAAAAAAAAAAAAAAAAAAAAAAAAAAAAAAAAAAAAAAAAAAAAAAAAAAAAAAAAAAAAAAAAAAAAAAAAAAAAAAAAAAAAAAAAAAAAAAAAAAAAAAAAAAAAAAAAAAAAAAAAAAAAAAAAAAAAAAAAAAAAAAAAAAAAAAAAAAAAAAAAAAAAAAAAAAAAAAAAAAAAAAAAAAAAAAAAAAAAAAAAAAAAAAAAAAAAAAAAAAAAAAAAAAAAAAAAAAAAAAAAAAAAAAAAAAAAAAAAAAAAAAAAAAAAAAAAAAAAAAAAAAAAAAAAAAAAAAAAAAAAAAAAAAAAAAAAAAAAAAAAAAAAAAAAAAAAAAAAAAAAAAAAAAAAAAAAAAAAAAAAAAAAAAAAAAAAAAAAAAAAAAAAAAAAAAAAAAAAAAAAAAAAAAAAAAAAAAAAAAAAAAAAAAAAAAAAAAAAAAAAAAAAAAAAAAAAAAAAAAAAAAAAAAAAAAAAAAAAAAAAAAAAAAAAAAAAAAAAAAAAAAAAAAAAAAAAAAAAAAAAAAAAAAAAAAAAAAAAAAAAAAAAAAAAAAAAAAAAAAAAAAAAAAAAAAAAAAAAAAAAAAAAAAAAAAAAAAAAAAAAAAAAAAAAAAAAAAAAAAAAAAAAAAAAAAAAAAAAAAAAAAAAAAAAAAAAAAAAAAAAAAAAAAAAAAAAAAAAAAAAAAAAAAAAAAAAAAAAAAAAAAAAAAAAAAAAAAAAAAAAAAAAAAAAAAAAAAAAAAAAAAAAAAAAAAAAAAAAAAAAAAAAAAAAAAAAAAAAAAAAAAAAAAAAAAAAAAAAAAAAAAAAAAAAAAAAAAAAAAAAAAAAAAAAAAAAAAAAAAAAAAAAAAAAAAAAAAAAAAAAAAAAAAAAAAAAAAAAAAAAAAAAAAAAAAAAAAAAAAAAAAAAAAAAAAAAAAAAAAAAAAAAAAAAAAAAAAAAAAAAAAAAAAAAAAAAAAAAAAAAAAAAAAAAAAAAAAAAAAAAAAAAAAAAAAAAAAAAAAAAAAAAAAAAAAAAAAAAAAAAAAAAAAAAAAAAAAAAAAAAAAAAAAAAAAAAAAAAAAAAAAAAAAAAAAAAAAAAAAAAAAAAAAAAAAAAAAAAAAAAAAAAAAAAAAAAAAAAAAAAAAAAAAAAAAAAAAAAAAAAAAAAAAAAAAAAAAAAAAAAAAAAAAAAAAAAAAAAAAAAAAAAAAAAAAAAAAAAAAAAAAAAAAAAAAAAAAAAAAAAAAAAAAAAAAAAAAAAAAAAAAAAAAAAAAAAAAAAAAAAAAAAAAAAAAAAAAAAAAAAAAAAAAAAAAAAAAAAAAAAAAAAAAAAAAAAAAAAAAAAAAAAAAAAAAAAAAAAAAAAAAAAAAAAAAAAAAAAAAAAAAAAAAAAAAAAAAAAAAAAAAAAAAAAAAAAAAAAAAAAAAAAAAAAAAAAAAAAAAAAAAAAAAAAAAAAAAAAAAAAAAAAAAAAAAAAAAAAAAAAAAAAAAAAAAAAAAAAAAAAAAAAAAAAAAAAAAAAAAAAAAAAAAAAAAAAAAAAAAAAAAAAAAAAAAAAAAAAAAAAAAAAAAAAAAAAAAAAAAAAAAAAAAAAAAAAAAAAAAAAAAAAAAAAAAAAAAAAAAAAAAAAAAAAAAAAAAAAAAAAAAAAAAAAAAAAAAAAAAAAAAAAAAAAAAAAAAAAAAAAAAAAAAAAAAAAAAAAAAAAAAAAAAAAAAAAAAAAAAAAAAAAAAAAAAAAAAAAAAAAAAAAAAAAAAAAAAAAAAAAAAAAAAAAAAAAAAAAAAAAAAAAAAAAAAAAAAAAAAAAAAAAAAAAAAAAAAAAAAAAAAAAAAAAAAAAAAAAAAAAAAAAAAAAAAAAAAAAAAAAAAAAAAAAAAAAAAAAAAAAAAAAAAAAAAAAAAAAAAAAAAAAAAAAAAAAAAAAAAAAAAAAAAAAAAAAAAAAAAAAAAAAAAAAAAAAAAAAAAAAAAAAAAAAAAAAAAAAAAAAAAAAAAAAAAAAAAAAAAAAAAAAAAAAAAAAAAAAAAAAAAAAAAAAAAAAAAAAAAAAAAAAAAAAAAAAAAAAAAAAAAAAAAAAAAAAAAAAAAAAAAAAAAAAAAAAAAAAAAAAAAAAAAAAAAAAAAAAAAAAAAAAAAAAAAAAAAAAAAAAAAAAAAAAAAAAAAAAAAAAAAAAAAAAAAAAAAAAAAAAAAAAAAAAAAAAAAAAAAAAAAAAAAAAAAAAAAAAAAAAAAAAAAAAAAAAAAAAAAAAAAAAAAAAAAAAAAAAAAAAAAAAAAAAAAAAAAAAAAAAAAAAAAAAAAAAAAAAAAAAAAAAAAAAAAAAAAAAAAAAAAAAAAAAAAAAAAAAAAAAAAAAAAAAAAAAAA]]></presetChunkData>
            </component>
          </slot>
        </effectsRack>
        <editParameter parameterIndex="0" slotIndex="4294967280"/>
        <audioClip clipAutoCrossfade="true" crossFadeHeadClipID="-1" crossFadeTailClipID="-1" endPoint="984830" fileID="4" hue="-1" id="0" lockedInTime="false" looped="false" name="Bounce_13" offline="false" select="false" sourceInPoint="0" sourceOutPoint="960830" startPoint="24000" zOrder="0">
          <component componentGuid="11de666f-1ed8-4626-a06c-0b6f77ef24d0" componentID="Audition.Fader" id="clipGain" name="volume" powered="true">
            <parameter index="0" name="volume" parameterValue="1"/>
            <parameter index="1" name="static gain" parameterValue="1"/>
          </component>
          <component componentGuid="12d9f7a3-23c5-48df-8cd4-001d164367de" componentID="Audition.Mute" id="clipMute" name="Mute" powered="true">
            <parameter index="0" parameterValue="0"/>
            <parameter index="1" name="mute" parameterValue="0"/>
          </component>
          <component componentGuid="c5a5d818-6aa5-468c-bb79-646cb24d8f0a" componentID="Audition.StereoPanner" id="clipPan" name="StereoPanner" powered="true">
            <parameter index="0" name="Pan" parameterValue="0"/>
          </component>
          <fadeIn crossFadeLinkType="linkedAsymmetric" endPoint="0" shape="0" startPoint="0" type="cosine"/>
          <fadeOut crossFadeLinkType="linkedAsymmetric" endPoint="960830" shape="0" startPoint="960830" type="cosine"/>
          <editParameter parameterIndex="0" slotIndex="4294967280"/>
          <editParameter parameterIndex="0" slotIndex="4294967281"/>
          <channelMap>
            <channel index="0" sourceIndex="0"/>
            <channel index="1" sourceIndex="1"/>
          </channelMap>
        </audioClip>
      </audioTrack>
      <audioTrack automationLaneOpenState="false" id="10031" index="10" select="false" visible="true">
        <trackParameters trackHeight="93" trackHue="-1" trackMinimized="false">
          <name>Bounce_15</name>
        </trackParameters>
        <trackAudioParameters audioChannelType="stereo" automationMode="1" monitoring="false" recordArmed="false" solo="false" soloSafe="false">
          <trackOutput outputID="10000" type="trackID"/>
          <trackInput inputID="1"/>
          <component componentGuid="c81549d0-a297-4a12-beea-87c529d17cd6" componentID="Audition.Fader" id="trackFader" name="volume" powered="true">
            <parameter index="0" name="volume" parameterValue="1"/>
            <parameter index="1" name="static gain" parameterValue="1"/>
          </component>
          <component componentGuid="df63826b-8f97-4473-90d0-d91107af3294" componentID="Audition.Mute" id="trackMute" name="Mute" powered="true">
            <parameter index="0" parameterValue="0"/>
            <parameter index="1" name="mute" parameterValue="1"/>
          </component>
          <component componentGuid="1b4de370-2772-41d0-8c96-e1f333b15bc6" componentID="Audition.StereoPanner" id="trackPan" name="StereoPanner" powered="true">
            <parameter index="0" name="Pan" parameterValue="0"/>
          </component>
          <component componentGuid="4bb46c7f-2a18-4fb3-863a-69d12baf365f" componentID="Audition.EQ" id="trackEQ" name="EQ" powered="false">
            <parameter index="0" name="Low Shelf Frequency" parameterValue="0.000834"/>
            <parameter index="1" name="Low Shelf Gain" parameterValue="0.5"/>
            <parameter index="2" name="High Shelf Frequency" parameterValue="0.7497915"/>
            <parameter index="3" name="High Shelf Gain" parameterValue="0.5"/>
            <parameter index="4" name="EQ Band 1 Center Frequency" parameterValue="0.001251"/>
            <parameter index="5" name="EQ Band 1 Q" parameterValue="0.0002"/>
            <parameter index="6" name="EQ Band 1 Gain" parameterValue="0.5"/>
            <parameter index="7" name="EQ Band 1 Enable" parameterValue="1"/>
            <parameter index="8" name="EQ Band 2 Center Frequency" parameterValue="0.0075063"/>
            <parameter index="9" name="EQ Band 2 Q" parameterValue="0.0002"/>
            <parameter index="10" name="EQ Band 2 Gain" parameterValue="0.5"/>
            <parameter index="11" name="EQ Band 2 Enable" parameterValue="1"/>
            <parameter index="12" name="EQ Band 3 Center Frequency" parameterValue="0.0325271"/>
            <parameter index="13" name="EQ Band 3 Q" parameterValue="0.0002"/>
            <parameter index="14" name="EQ Band 3 Gain" parameterValue="0.5"/>
            <parameter index="15" name="EQ Band 3 Enable" parameterValue="1"/>
            <parameter index="16" name="EQ Band 4 Center Frequency" parameterValue="0.1326105"/>
            <parameter index="17" name="EQ Band 4 Q" parameterValue="0.0002"/>
            <parameter index="18" name="EQ Band 4 Gain" parameterValue="0.5"/>
            <parameter index="19" name="EQ Band 4 Enable" parameterValue="1"/>
            <parameter index="20" name="EQ Band 5 Center Frequency" parameterValue="0.5329441"/>
            <parameter index="21" name="EQ Band 5 Q" parameterValue="0.0002"/>
            <parameter index="22" name="EQ Band 5 Gain" parameterValue="0.5"/>
            <parameter index="23" name="EQ Band 5 Enable" parameterValue="1"/>
            <parameter index="24" name="Master Gain" parameterValue="0.6666667"/>
            <parameter index="25" name="ConstantQ" parameterValue="1"/>
            <parameter index="26" name="Low Shelf Filter Order" parameterValue="0"/>
            <parameter index="27" name="High Shelf Filter Order" parameterValue="0"/>
            <parameter index="28" name="Ultra-Quiet Mode" parameterValue="0"/>
            <parameter index="29" name="Low Shelf Enable" parameterValue="1"/>
            <parameter index="30" name="High Shelf Enable" parameterValue="1"/>
            <parameter index="31" name="Original Sample Rate" parameterValue="0.25"/>
            <parameter index="32" name="EQ Band 1 Bandwidth" parameterValue="0.0025"/>
            <parameter index="33" name="EQ Band 2 Bandwidth" parameterValue="0.01"/>
            <parameter index="34" name="EQ Band 3 Bandwidth" parameterValue="0.04"/>
            <parameter index="35" name="EQ Band 4 Bandwidth" parameterValue="0.16"/>
            <parameter index="36" name="EQ Band 5 Bandwidth" parameterValue="0.64"/>
            <parameter index="37" name="High-Pass Filter Enable" parameterValue="0"/>
            <parameter index="38" name="High-Pass Cutoff Frequency" parameterValue="0"/>
            <parameter index="39" name="High-Pass Slope" parameterValue="0.4"/>
            <parameter index="40" name="Low-Pass Filter Enable" parameterValue="0"/>
            <parameter index="41" name="Low-Pass Cutoff Frequency" parameterValue="0.8331943"/>
            <parameter index="42" name="Low-Pass Slope" parameterValue="0.4"/>
            <parameter index="43" name="Bypass" parameterValue="0"/>
            <parameter index="44" name="LowGraphRange" parameterValue="1"/>
          </component>
        </trackAudioParameters>
        <effectsRack preFader="true">
          <component componentGuid="a7c0164b-2329-4e24-9b86-5523977242f7" id="rackMix" powered="true">
            <parameter index="0" parameterValue="0"/>
            <parameter index="1" parameterValue="0"/>
          </component>
          <component componentGuid="9b808813-75b8-4a35-95cd-9ec5ee49080a" id="rackInput" powered="true">
            <parameter index="0" parameterValue="1"/>
            <parameter index="1" parameterValue="0"/>
          </component>
          <component componentGuid="996c0bb6-c132-4d79-aaee-520b59b93692" id="rackOutput" powered="true">
            <parameter index="0" parameterValue="1"/>
            <parameter index="1" parameterValue="0"/>
          </component>
          <slot powered="true" slotIndex="0">
            <component componentGuid="d76e18a9-9cd2-4d8a-becf-b0fda4518101" componentID="3981e750-c8ae-40a2-889f-41a01c7efa03" editorHeight="667" editorLeft="653" editorTop="187" editorWidth="614" name="Multiband Compressor">
              <channelMap direction="input">
                <channel index="0" sourceIndex="0"/>
                <channel index="1" sourceIndex="1"/>
              </channelMap>
              <channelMap direction="output">
                <channel index="0" sourceIndex="0"/>
                <channel index="1" sourceIndex="1"/>
              </channelMap>
              <presetChunkData><![CDATA[AiBuYWZldFNoAAAAAAAAAAAAAAAAAAzCAAAAAAAAAAAAAABAAAAAQAAAAEAAAABAAAAgQQAAIEEAACBBAAAgQQAAyEIAAMhCAADIQgAAyEIAAAAAAAAAAAAAAAAAAAAAAAAAAAAAAAAAAAAAAAAAAAAAAAAAAAAAAAAAAAAAAAAAAIA/AACAPwAAAAAAAAAAAADwQgAA+kQAQBxGAAAAAAAAAAAAAAAAAAAAAAAAAAAAAAAAAAAAAAAAAAAAAAAAAAAAAAAAAAAAAAAAAAAAAAAAAAAAAIBAAAD6QwAAAAAAAAAAAAAAAAAAAAAAAAAAAAAAAAAAAAAAAAAAAAAAAAAAAAAAAAAAAAAAAAAAAAAAAAAAAAAAAAAAAAAAAAAAAAAAAAAAAAAAAAAAAAAAAAAAAAAAAAAAAAAAAAAAAAAAAAAAAAAAAAAAAAAAAAAAAAAAAAAAAAAAAAAAAAAAAAAAAAAAAAAAAAAAAAAAAAAAAAAAAAAAAAAAAAAAAAAAAAAAAAAAAAAAAAAAAAAAAAAAAAAAAAAAAAAAAAAAAAAAAAAAAAAAAAAAAAA=]]></presetChunkData>
            </component>
          </slot>
          <slot powered="true" slotIndex="1">
            <component componentGuid="d1204121-6309-4fcf-8091-37bdd367523d" componentID="4f327230-f04c-4c34-9ea5-a998b4459221" editorHeight="505" editorLeft="670" editorTop="268" editorWidth="580" name="FFT Filter">
              <channelMap direction="input">
                <channel index="0" sourceIndex="0"/>
                <channel index="1" sourceIndex="1"/>
              </channelMap>
              <channelMap direction="output">
                <channel index="0" sourceIndex="0"/>
                <channel index="1" sourceIndex="1"/>
              </channelMap>
              <presetChunkData><![CDATA[AIA7RwAAAAD+Qqw9AADAPgAAAAAOdFo6AACAPwAAAAAAAIA/AAAAQdOmWjoAAAAA0emIPKPXBT88INI8xqYTP1JJRj0z0Hw/dYbwPVPSWj8J5g8/+1QwP307RD9B80s+AACAPwAAAAA=]]></presetChunkData>
            </component>
          </slot>
        </effectsRack>
        <editParameter parameterIndex="0" slotIndex="4294967280"/>
        <audioClip clipAutoCrossfade="true" crossFadeHeadClipID="-1" crossFadeTailClipID="-1" endPoint="984830" fileID="5" hue="-1" id="0" lockedInTime="false" looped="false" name="Bounce_15" offline="false" select="false" sourceInPoint="0" sourceOutPoint="960830" startPoint="24000" zOrder="0">
          <component componentGuid="419a2d52-5943-4433-8c96-f6b15f44cc86" componentID="Audition.Fader" id="clipGain" name="volume" powered="true">
            <parameter index="0" name="volume" parameterValue="1"/>
            <parameter index="1" name="static gain" parameterValue="1"/>
          </component>
          <component componentGuid="c54fc713-6a0f-4f0c-bd3b-a86ff0bc52ef" componentID="Audition.Mute" id="clipMute" name="Mute" powered="true">
            <parameter index="0" parameterValue="0"/>
            <parameter index="1" name="mute" parameterValue="0"/>
          </component>
          <component componentGuid="8ac189ef-ccdd-4bce-b18b-37771ad2384e" componentID="Audition.StereoPanner" id="clipPan" name="StereoPanner" powered="true">
            <parameter index="0" name="Pan" parameterValue="0"/>
          </component>
          <fadeIn crossFadeLinkType="linkedAsymmetric" endPoint="0" shape="0" startPoint="0" type="cosine"/>
          <fadeOut crossFadeLinkType="linkedAsymmetric" endPoint="960830" shape="0" startPoint="960830" type="cosine"/>
          <editParameter parameterIndex="0" slotIndex="4294967280"/>
          <editParameter parameterIndex="0" slotIndex="4294967281"/>
          <channelMap>
            <channel index="0" sourceIndex="0"/>
            <channel index="1" sourceIndex="1"/>
          </channelMap>
        </audioClip>
      </audioTrack>
      <audioTrack automationLaneOpenState="false" id="10003" index="11" select="false" visible="true">
        <trackParameters trackHeight="93" trackHue="151.3865804672241211" trackMinimized="false">
          <name>Track 3</name>
        </trackParameters>
        <trackAudioParameters audioChannelType="stereo" automationMode="1" monitoring="false" recordArmed="false" solo="false" soloSafe="false">
          <trackOutput outputID="10000" type="trackID"/>
          <trackInput inputID="1"/>
          <component componentGuid="fee6c432-87e7-4183-9f4e-9ff652a3ef8d" componentID="Audition.Fader" id="trackFader" name="volume" powered="true">
            <parameter index="0" name="volume" parameterValue="1"/>
            <parameter index="1" name="static gain" parameterValue="1"/>
          </component>
          <component componentGuid="913a2782-bb4a-4755-8836-62912ab4d70e" componentID="Audition.Mute" id="trackMute" name="Mute" powered="true">
            <parameter index="0" parameterValue="0"/>
            <parameter index="1" name="mute" parameterValue="0"/>
          </component>
          <component componentGuid="19bcd02d-b77e-4916-b2db-2e43bd2eab4b" componentID="Audition.StereoPanner" id="trackPan" name="StereoPanner" powered="true">
            <parameter index="0" name="Pan" parameterValue="0"/>
          </component>
          <component componentGuid="7774b033-d7ed-47dd-9f95-fbdf8c5c3d58" componentID="Audition.EQ" id="trackEQ" name="EQ" powered="false">
            <parameter index="0" name="Low Shelf Frequency" parameterValue="0.000834"/>
            <parameter index="1" name="Low Shelf Gain" parameterValue="0.5"/>
            <parameter index="2" name="High Shelf Frequency" parameterValue="0.7497915"/>
            <parameter index="3" name="High Shelf Gain" parameterValue="0.5"/>
            <parameter index="4" name="EQ Band 1 Center Frequency" parameterValue="0.001251"/>
            <parameter index="5" name="EQ Band 1 Q" parameterValue="0.0002"/>
            <parameter index="6" name="EQ Band 1 Gain" parameterValue="0.5"/>
            <parameter index="7" name="EQ Band 1 Enable" parameterValue="1"/>
            <parameter index="8" name="EQ Band 2 Center Frequency" parameterValue="0.0075063"/>
            <parameter index="9" name="EQ Band 2 Q" parameterValue="0.0002"/>
            <parameter index="10" name="EQ Band 2 Gain" parameterValue="0.5"/>
            <parameter index="11" name="EQ Band 2 Enable" parameterValue="1"/>
            <parameter index="12" name="EQ Band 3 Center Frequency" parameterValue="0.0325271"/>
            <parameter index="13" name="EQ Band 3 Q" parameterValue="0.0002"/>
            <parameter index="14" name="EQ Band 3 Gain" parameterValue="0.5"/>
            <parameter index="15" name="EQ Band 3 Enable" parameterValue="1"/>
            <parameter index="16" name="EQ Band 4 Center Frequency" parameterValue="0.1326105"/>
            <parameter index="17" name="EQ Band 4 Q" parameterValue="0.0002"/>
            <parameter index="18" name="EQ Band 4 Gain" parameterValue="0.5"/>
            <parameter index="19" name="EQ Band 4 Enable" parameterValue="1"/>
            <parameter index="20" name="EQ Band 5 Center Frequency" parameterValue="0.5329441"/>
            <parameter index="21" name="EQ Band 5 Q" parameterValue="0.0002"/>
            <parameter index="22" name="EQ Band 5 Gain" parameterValue="0.5"/>
            <parameter index="23" name="EQ Band 5 Enable" parameterValue="1"/>
            <parameter index="24" name="Master Gain" parameterValue="0.6666667"/>
            <parameter index="25" name="ConstantQ" parameterValue="1"/>
            <parameter index="26" name="Low Shelf Filter Order" parameterValue="0"/>
            <parameter index="27" name="High Shelf Filter Order" parameterValue="0"/>
            <parameter index="28" name="Ultra-Quiet Mode" parameterValue="0"/>
            <parameter index="29" name="Low Shelf Enable" parameterValue="1"/>
            <parameter index="30" name="High Shelf Enable" parameterValue="1"/>
            <parameter index="31" name="Original Sample Rate" parameterValue="0.25"/>
            <parameter index="32" name="EQ Band 1 Bandwidth" parameterValue="0.0025"/>
            <parameter index="33" name="EQ Band 2 Bandwidth" parameterValue="0.01"/>
            <parameter index="34" name="EQ Band 3 Bandwidth" parameterValue="0.04"/>
            <parameter index="35" name="EQ Band 4 Bandwidth" parameterValue="0.16"/>
            <parameter index="36" name="EQ Band 5 Bandwidth" parameterValue="0.64"/>
            <parameter index="37" name="High-Pass Filter Enable" parameterValue="0"/>
            <parameter index="38" name="High-Pass Cutoff Frequency" parameterValue="0"/>
            <parameter index="39" name="High-Pass Slope" parameterValue="0.4"/>
            <parameter index="40" name="Low-Pass Filter Enable" parameterValue="0"/>
            <parameter index="41" name="Low-Pass Cutoff Frequency" parameterValue="0.8331943"/>
            <parameter index="42" name="Low-Pass Slope" parameterValue="0.4"/>
            <parameter index="43" name="Bypass" parameterValue="0"/>
            <parameter index="44" name="LowGraphRange" parameterValue="1"/>
          </component>
        </trackAudioParameters>
        <editParameter parameterIndex="0" slotIndex="4294967280"/>
      </audioTrack>
      <audioTrack automationLaneOpenState="false" id="10004" index="12" select="false" visible="true">
        <trackParameters trackHeight="93" trackHue="164.7288322448730469" trackMinimized="false">
          <name>Track 4</name>
        </trackParameters>
        <trackAudioParameters audioChannelType="stereo" automationMode="1" monitoring="false" recordArmed="false" solo="false" soloSafe="false">
          <trackOutput outputID="10000" type="trackID"/>
          <trackInput inputID="1"/>
          <component componentGuid="b8475e92-b818-4073-923f-3fa360945838" componentID="Audition.Fader" id="trackFader" name="volume" powered="true">
            <parameter index="0" name="volume" parameterValue="1"/>
            <parameter index="1" name="static gain" parameterValue="1"/>
          </component>
          <component componentGuid="93bb1222-791f-4d1e-8581-16235d2f4eb5" componentID="Audition.Mute" id="trackMute" name="Mute" powered="true">
            <parameter index="0" parameterValue="0"/>
            <parameter index="1" name="mute" parameterValue="0"/>
          </component>
          <component componentGuid="4d477c86-33dd-476b-b817-8ada8d10eebc" componentID="Audition.StereoPanner" id="trackPan" name="StereoPanner" powered="true">
            <parameter index="0" name="Pan" parameterValue="0"/>
          </component>
          <component componentGuid="4ae61971-c9d7-44f8-8118-6d515ee51025" componentID="Audition.EQ" id="trackEQ" name="EQ" powered="false">
            <parameter index="0" name="Low Shelf Frequency" parameterValue="0.000834"/>
            <parameter index="1" name="Low Shelf Gain" parameterValue="0.5"/>
            <parameter index="2" name="High Shelf Frequency" parameterValue="0.7497915"/>
            <parameter index="3" name="High Shelf Gain" parameterValue="0.5"/>
            <parameter index="4" name="EQ Band 1 Center Frequency" parameterValue="0.001251"/>
            <parameter index="5" name="EQ Band 1 Q" parameterValue="0.0002"/>
            <parameter index="6" name="EQ Band 1 Gain" parameterValue="0.5"/>
            <parameter index="7" name="EQ Band 1 Enable" parameterValue="1"/>
            <parameter index="8" name="EQ Band 2 Center Frequency" parameterValue="0.0075063"/>
            <parameter index="9" name="EQ Band 2 Q" parameterValue="0.0002"/>
            <parameter index="10" name="EQ Band 2 Gain" parameterValue="0.5"/>
            <parameter index="11" name="EQ Band 2 Enable" parameterValue="1"/>
            <parameter index="12" name="EQ Band 3 Center Frequency" parameterValue="0.0325271"/>
            <parameter index="13" name="EQ Band 3 Q" parameterValue="0.0002"/>
            <parameter index="14" name="EQ Band 3 Gain" parameterValue="0.5"/>
            <parameter index="15" name="EQ Band 3 Enable" parameterValue="1"/>
            <parameter index="16" name="EQ Band 4 Center Frequency" parameterValue="0.1326105"/>
            <parameter index="17" name="EQ Band 4 Q" parameterValue="0.0002"/>
            <parameter index="18" name="EQ Band 4 Gain" parameterValue="0.5"/>
            <parameter index="19" name="EQ Band 4 Enable" parameterValue="1"/>
            <parameter index="20" name="EQ Band 5 Center Frequency" parameterValue="0.5329441"/>
            <parameter index="21" name="EQ Band 5 Q" parameterValue="0.0002"/>
            <parameter index="22" name="EQ Band 5 Gain" parameterValue="0.5"/>
            <parameter index="23" name="EQ Band 5 Enable" parameterValue="1"/>
            <parameter index="24" name="Master Gain" parameterValue="0.6666667"/>
            <parameter index="25" name="ConstantQ" parameterValue="1"/>
            <parameter index="26" name="Low Shelf Filter Order" parameterValue="0"/>
            <parameter index="27" name="High Shelf Filter Order" parameterValue="0"/>
            <parameter index="28" name="Ultra-Quiet Mode" parameterValue="0"/>
            <parameter index="29" name="Low Shelf Enable" parameterValue="1"/>
            <parameter index="30" name="High Shelf Enable" parameterValue="1"/>
            <parameter index="31" name="Original Sample Rate" parameterValue="0.25"/>
            <parameter index="32" name="EQ Band 1 Bandwidth" parameterValue="0.0025"/>
            <parameter index="33" name="EQ Band 2 Bandwidth" parameterValue="0.01"/>
            <parameter index="34" name="EQ Band 3 Bandwidth" parameterValue="0.04"/>
            <parameter index="35" name="EQ Band 4 Bandwidth" parameterValue="0.16"/>
            <parameter index="36" name="EQ Band 5 Bandwidth" parameterValue="0.64"/>
            <parameter index="37" name="High-Pass Filter Enable" parameterValue="0"/>
            <parameter index="38" name="High-Pass Cutoff Frequency" parameterValue="0"/>
            <parameter index="39" name="High-Pass Slope" parameterValue="0.4"/>
            <parameter index="40" name="Low-Pass Filter Enable" parameterValue="0"/>
            <parameter index="41" name="Low-Pass Cutoff Frequency" parameterValue="0.8331943"/>
            <parameter index="42" name="Low-Pass Slope" parameterValue="0.4"/>
            <parameter index="43" name="Bypass" parameterValue="0"/>
            <parameter index="44" name="LowGraphRange" parameterValue="1"/>
          </component>
        </trackAudioParameters>
        <editParameter parameterIndex="0" slotIndex="4294967280"/>
      </audioTrack>
      <audioTrack automationLaneOpenState="false" id="10005" index="13" select="false" visible="true">
        <trackParameters trackHeight="93" trackHue="112.071533203125" trackMinimized="false">
          <name>Track 5</name>
        </trackParameters>
        <trackAudioParameters audioChannelType="stereo" automationMode="1" monitoring="false" recordArmed="false" solo="false" soloSafe="false">
          <trackOutput outputID="10000" type="trackID"/>
          <trackInput inputID="1"/>
          <component componentGuid="a0a69394-3ec3-4b8f-9b27-0c64265699e6" componentID="Audition.Fader" id="trackFader" name="volume" powered="true">
            <parameter index="0" name="volume" parameterValue="1"/>
            <parameter index="1" name="static gain" parameterValue="1"/>
          </component>
          <component componentGuid="0f9887cc-1fc1-44df-90af-eff46cbd272d" componentID="Audition.Mute" id="trackMute" name="Mute" powered="true">
            <parameter index="0" parameterValue="0"/>
            <parameter index="1" name="mute" parameterValue="0"/>
          </component>
          <component componentGuid="c7e030dd-93c3-4c81-a747-b1bdbc77368d" componentID="Audition.StereoPanner" id="trackPan" name="StereoPanner" powered="true">
            <parameter index="0" name="Pan" parameterValue="0"/>
          </component>
          <component componentGuid="f7bcf672-1ce6-4f16-965c-7d7ae7b22c02" componentID="Audition.EQ" id="trackEQ" name="EQ" powered="false">
            <parameter index="0" name="Low Shelf Frequency" parameterValue="0.000834"/>
            <parameter index="1" name="Low Shelf Gain" parameterValue="0.5"/>
            <parameter index="2" name="High Shelf Frequency" parameterValue="0.7497915"/>
            <parameter index="3" name="High Shelf Gain" parameterValue="0.5"/>
            <parameter index="4" name="EQ Band 1 Center Frequency" parameterValue="0.001251"/>
            <parameter index="5" name="EQ Band 1 Q" parameterValue="0.0002"/>
            <parameter index="6" name="EQ Band 1 Gain" parameterValue="0.5"/>
            <parameter index="7" name="EQ Band 1 Enable" parameterValue="1"/>
            <parameter index="8" name="EQ Band 2 Center Frequency" parameterValue="0.0075063"/>
            <parameter index="9" name="EQ Band 2 Q" parameterValue="0.0002"/>
            <parameter index="10" name="EQ Band 2 Gain" parameterValue="0.5"/>
            <parameter index="11" name="EQ Band 2 Enable" parameterValue="1"/>
            <parameter index="12" name="EQ Band 3 Center Frequency" parameterValue="0.0325271"/>
            <parameter index="13" name="EQ Band 3 Q" parameterValue="0.0002"/>
            <parameter index="14" name="EQ Band 3 Gain" parameterValue="0.5"/>
            <parameter index="15" name="EQ Band 3 Enable" parameterValue="1"/>
            <parameter index="16" name="EQ Band 4 Center Frequency" parameterValue="0.1326105"/>
            <parameter index="17" name="EQ Band 4 Q" parameterValue="0.0002"/>
            <parameter index="18" name="EQ Band 4 Gain" parameterValue="0.5"/>
            <parameter index="19" name="EQ Band 4 Enable" parameterValue="1"/>
            <parameter index="20" name="EQ Band 5 Center Frequency" parameterValue="0.5329441"/>
            <parameter index="21" name="EQ Band 5 Q" parameterValue="0.0002"/>
            <parameter index="22" name="EQ Band 5 Gain" parameterValue="0.5"/>
            <parameter index="23" name="EQ Band 5 Enable" parameterValue="1"/>
            <parameter index="24" name="Master Gain" parameterValue="0.6666667"/>
            <parameter index="25" name="ConstantQ" parameterValue="1"/>
            <parameter index="26" name="Low Shelf Filter Order" parameterValue="0"/>
            <parameter index="27" name="High Shelf Filter Order" parameterValue="0"/>
            <parameter index="28" name="Ultra-Quiet Mode" parameterValue="0"/>
            <parameter index="29" name="Low Shelf Enable" parameterValue="1"/>
            <parameter index="30" name="High Shelf Enable" parameterValue="1"/>
            <parameter index="31" name="Original Sample Rate" parameterValue="0.25"/>
            <parameter index="32" name="EQ Band 1 Bandwidth" parameterValue="0.0025"/>
            <parameter index="33" name="EQ Band 2 Bandwidth" parameterValue="0.01"/>
            <parameter index="34" name="EQ Band 3 Bandwidth" parameterValue="0.04"/>
            <parameter index="35" name="EQ Band 4 Bandwidth" parameterValue="0.16"/>
            <parameter index="36" name="EQ Band 5 Bandwidth" parameterValue="0.64"/>
            <parameter index="37" name="High-Pass Filter Enable" parameterValue="0"/>
            <parameter index="38" name="High-Pass Cutoff Frequency" parameterValue="0"/>
            <parameter index="39" name="High-Pass Slope" parameterValue="0.4"/>
            <parameter index="40" name="Low-Pass Filter Enable" parameterValue="0"/>
            <parameter index="41" name="Low-Pass Cutoff Frequency" parameterValue="0.8331943"/>
            <parameter index="42" name="Low-Pass Slope" parameterValue="0.4"/>
            <parameter index="43" name="Bypass" parameterValue="0"/>
            <parameter index="44" name="LowGraphRange" parameterValue="1"/>
          </component>
        </trackAudioParameters>
        <editParameter parameterIndex="0" slotIndex="4294967280"/>
      </audioTrack>
      <audioTrack automationLaneOpenState="false" id="10006" index="14" select="false" visible="true">
        <trackParameters trackHeight="93" trackHue="22.6021814346313477" trackMinimized="false">
          <name>Track 6</name>
        </trackParameters>
        <trackAudioParameters audioChannelType="stereo" automationMode="1" monitoring="false" recordArmed="false" solo="false" soloSafe="false">
          <trackOutput outputID="10000" type="trackID"/>
          <trackInput inputID="1"/>
          <component componentGuid="0d6db8b5-888c-4e1c-8e1c-34040c59d6bc" componentID="Audition.Fader" id="trackFader" name="volume" powered="true">
            <parameter index="0" name="volume" parameterValue="1"/>
            <parameter index="1" name="static gain" parameterValue="1"/>
          </component>
          <component componentGuid="594de14a-d0f7-4086-8e41-acd1199a9531" componentID="Audition.Mute" id="trackMute" name="Mute" powered="true">
            <parameter index="0" parameterValue="0"/>
            <parameter index="1" name="mute" parameterValue="0"/>
          </component>
          <component componentGuid="eab31d77-a63b-4d6a-8580-1608615aee23" componentID="Audition.StereoPanner" id="trackPan" name="StereoPanner" powered="true">
            <parameter index="0" name="Pan" parameterValue="0"/>
          </component>
          <component componentGuid="20cdf496-ba3a-42f8-8125-ea0cbaed6d68" componentID="Audition.EQ" id="trackEQ" name="EQ" powered="false">
            <parameter index="0" name="Low Shelf Frequency" parameterValue="0.000834"/>
            <parameter index="1" name="Low Shelf Gain" parameterValue="0.5"/>
            <parameter index="2" name="High Shelf Frequency" parameterValue="0.7497915"/>
            <parameter index="3" name="High Shelf Gain" parameterValue="0.5"/>
            <parameter index="4" name="EQ Band 1 Center Frequency" parameterValue="0.001251"/>
            <parameter index="5" name="EQ Band 1 Q" parameterValue="0.0002"/>
            <parameter index="6" name="EQ Band 1 Gain" parameterValue="0.5"/>
            <parameter index="7" name="EQ Band 1 Enable" parameterValue="1"/>
            <parameter index="8" name="EQ Band 2 Center Frequency" parameterValue="0.0075063"/>
            <parameter index="9" name="EQ Band 2 Q" parameterValue="0.0002"/>
            <parameter index="10" name="EQ Band 2 Gain" parameterValue="0.5"/>
            <parameter index="11" name="EQ Band 2 Enable" parameterValue="1"/>
            <parameter index="12" name="EQ Band 3 Center Frequency" parameterValue="0.0325271"/>
            <parameter index="13" name="EQ Band 3 Q" parameterValue="0.0002"/>
            <parameter index="14" name="EQ Band 3 Gain" parameterValue="0.5"/>
            <parameter index="15" name="EQ Band 3 Enable" parameterValue="1"/>
            <parameter index="16" name="EQ Band 4 Center Frequency" parameterValue="0.1326105"/>
            <parameter index="17" name="EQ Band 4 Q" parameterValue="0.0002"/>
            <parameter index="18" name="EQ Band 4 Gain" parameterValue="0.5"/>
            <parameter index="19" name="EQ Band 4 Enable" parameterValue="1"/>
            <parameter index="20" name="EQ Band 5 Center Frequency" parameterValue="0.5329441"/>
            <parameter index="21" name="EQ Band 5 Q" parameterValue="0.0002"/>
            <parameter index="22" name="EQ Band 5 Gain" parameterValue="0.5"/>
            <parameter index="23" name="EQ Band 5 Enable" parameterValue="1"/>
            <parameter index="24" name="Master Gain" parameterValue="0.6666667"/>
            <parameter index="25" name="ConstantQ" parameterValue="1"/>
            <parameter index="26" name="Low Shelf Filter Order" parameterValue="0"/>
            <parameter index="27" name="High Shelf Filter Order" parameterValue="0"/>
            <parameter index="28" name="Ultra-Quiet Mode" parameterValue="0"/>
            <parameter index="29" name="Low Shelf Enable" parameterValue="1"/>
            <parameter index="30" name="High Shelf Enable" parameterValue="1"/>
            <parameter index="31" name="Original Sample Rate" parameterValue="0.25"/>
            <parameter index="32" name="EQ Band 1 Bandwidth" parameterValue="0.0025"/>
            <parameter index="33" name="EQ Band 2 Bandwidth" parameterValue="0.01"/>
            <parameter index="34" name="EQ Band 3 Bandwidth" parameterValue="0.04"/>
            <parameter index="35" name="EQ Band 4 Bandwidth" parameterValue="0.16"/>
            <parameter index="36" name="EQ Band 5 Bandwidth" parameterValue="0.64"/>
            <parameter index="37" name="High-Pass Filter Enable" parameterValue="0"/>
            <parameter index="38" name="High-Pass Cutoff Frequency" parameterValue="0"/>
            <parameter index="39" name="High-Pass Slope" parameterValue="0.4"/>
            <parameter index="40" name="Low-Pass Filter Enable" parameterValue="0"/>
            <parameter index="41" name="Low-Pass Cutoff Frequency" parameterValue="0.8331943"/>
            <parameter index="42" name="Low-Pass Slope" parameterValue="0.4"/>
            <parameter index="43" name="Bypass" parameterValue="0"/>
            <parameter index="44" name="LowGraphRange" parameterValue="1"/>
          </component>
        </trackAudioParameters>
        <editParameter parameterIndex="0" slotIndex="4294967280"/>
      </audioTrack>
      <masterTrack automationLaneOpenState="false" id="10000" index="15" select="false" visible="true">
        <trackParameters trackHeight="93" trackHue="-1" trackMinimized="false">
          <name>Master</name>
        </trackParameters>
        <trackAudioParameters audioChannelType="stereo" automationMode="1" monitoring="false" recordArmed="false" solo="false" soloSafe="true">
          <trackOutput outputID="1" type="hardwareOutput"/>
          <trackInput inputID="-1"/>
          <component componentGuid="30a284e2-a39f-43e0-9878-768ae1639df5" componentID="Audition.Fader" id="trackFader" name="volume" powered="true">
            <parameter index="0" name="volume" parameterValue="1"/>
            <parameter index="1" name="static gain" parameterValue="1"/>
          </component>
          <component componentGuid="01b3ad97-bbf4-4d9f-b99b-2d278110fd5a" componentID="Audition.Mute" id="trackMute" name="Mute" powered="true">
            <parameter index="0" parameterValue="0"/>
            <parameter index="1" name="mute" parameterValue="0"/>
          </component>
          <component componentGuid="a5148cfb-e6e4-463d-a1cf-a68e8d01e266" componentID="Audition.StereoPanner" id="trackPan" name="StereoPanner" powered="true">
            <parameter index="0" name="Pan" parameterValue="0"/>
          </component>
          <component componentGuid="5cc5b2a7-6f3d-4ec0-81ee-3e5fbb03fa7f" componentID="Audition.EQ" id="trackEQ" name="EQ" powered="false">
            <parameter index="0" name="Low Shelf Frequency" parameterValue="0.000834"/>
            <parameter index="1" name="Low Shelf Gain" parameterValue="0.5"/>
            <parameter index="2" name="High Shelf Frequency" parameterValue="0.7497915"/>
            <parameter index="3" name="High Shelf Gain" parameterValue="0.5"/>
            <parameter index="4" name="EQ Band 1 Center Frequency" parameterValue="0.001251"/>
            <parameter index="5" name="EQ Band 1 Q" parameterValue="0.0002"/>
            <parameter index="6" name="EQ Band 1 Gain" parameterValue="0.5"/>
            <parameter index="7" name="EQ Band 1 Enable" parameterValue="1"/>
            <parameter index="8" name="EQ Band 2 Center Frequency" parameterValue="0.0075063"/>
            <parameter index="9" name="EQ Band 2 Q" parameterValue="0.0002"/>
            <parameter index="10" name="EQ Band 2 Gain" parameterValue="0.5"/>
            <parameter index="11" name="EQ Band 2 Enable" parameterValue="1"/>
            <parameter index="12" name="EQ Band 3 Center Frequency" parameterValue="0.0325271"/>
            <parameter index="13" name="EQ Band 3 Q" parameterValue="0.0002"/>
            <parameter index="14" name="EQ Band 3 Gain" parameterValue="0.5"/>
            <parameter index="15" name="EQ Band 3 Enable" parameterValue="1"/>
            <parameter index="16" name="EQ Band 4 Center Frequency" parameterValue="0.1326105"/>
            <parameter index="17" name="EQ Band 4 Q" parameterValue="0.0002"/>
            <parameter index="18" name="EQ Band 4 Gain" parameterValue="0.5"/>
            <parameter index="19" name="EQ Band 4 Enable" parameterValue="1"/>
            <parameter index="20" name="EQ Band 5 Center Frequency" parameterValue="0.5329441"/>
            <parameter index="21" name="EQ Band 5 Q" parameterValue="0.0002"/>
            <parameter index="22" name="EQ Band 5 Gain" parameterValue="0.5"/>
            <parameter index="23" name="EQ Band 5 Enable" parameterValue="1"/>
            <parameter index="24" name="Master Gain" parameterValue="0.6666667"/>
            <parameter index="25" name="ConstantQ" parameterValue="1"/>
            <parameter index="26" name="Low Shelf Filter Order" parameterValue="0"/>
            <parameter index="27" name="High Shelf Filter Order" parameterValue="0"/>
            <parameter index="28" name="Ultra-Quiet Mode" parameterValue="0"/>
            <parameter index="29" name="Low Shelf Enable" parameterValue="1"/>
            <parameter index="30" name="High Shelf Enable" parameterValue="1"/>
            <parameter index="31" name="Original Sample Rate" parameterValue="0.25"/>
            <parameter index="32" name="EQ Band 1 Bandwidth" parameterValue="0.0025"/>
            <parameter index="33" name="EQ Band 2 Bandwidth" parameterValue="0.01"/>
            <parameter index="34" name="EQ Band 3 Bandwidth" parameterValue="0.04"/>
            <parameter index="35" name="EQ Band 4 Bandwidth" parameterValue="0.16"/>
            <parameter index="36" name="EQ Band 5 Bandwidth" parameterValue="0.64"/>
            <parameter index="37" name="High-Pass Filter Enable" parameterValue="0"/>
            <parameter index="38" name="High-Pass Cutoff Frequency" parameterValue="0"/>
            <parameter index="39" name="High-Pass Slope" parameterValue="0.4"/>
            <parameter index="40" name="Low-Pass Filter Enable" parameterValue="0"/>
            <parameter index="41" name="Low-Pass Cutoff Frequency" parameterValue="0.8331943"/>
            <parameter index="42" name="Low-Pass Slope" parameterValue="0.4"/>
            <parameter index="43" name="Bypass" parameterValue="0"/>
            <parameter index="44" name="LowGraphRange" parameterValue="1"/>
          </component>
        </trackAudioParameters>
        <editParameter parameterIndex="0" slotIndex="4294967280"/>
      </masterTrack>
    </tracks>
    <sessionState ctiPosition="224065" smpteStart="0">
      <selectionState selectionDuration="0" selectionStart="224065"/>
      <viewState horizontalViewDuration="0" horizontalViewStart="0" trackControlsWidth="0" verticalScrollOffset="0"/>
      <timeFormatState beatsPerBar="4" beatsPerMinute="120" customFrameRate="12" linkToDefaultTimeSettings="true" noteLength="4" subdivisions="16" timeCodeDropFrame="false" timeCodeFrameRate="30" timeCodeNTSC="false" timeFormat="timeFormatDecimal"/>
      <mixingOptionState defaultPanModeLogarithmic="false" panPower="-3"/>
    </sessionState>
    <xmpMetadata><![CDATA[<?xpacket begin="﻿" id="W5M0MpCehiHzreSzNTczkc9d"?>
<x:xmpmeta xmlns:x="adobe:ns:meta/" x:xmptk="Adobe XMP Core 5.6-c144 79.162045, 2018/01/23-06:05:52        ">
   <rdf:RDF xmlns:rdf="http://www.w3.org/1999/02/22-rdf-syntax-ns#">
      <rdf:Description rdf:about=""
            xmlns:xmp="http://ns.adobe.com/xap/1.0/"
            xmlns:xmpMM="http://ns.adobe.com/xap/1.0/mm/"
            xmlns:stEvt="http://ns.adobe.com/xap/1.0/sType/ResourceEvent#"
            xmlns:stRef="http://ns.adobe.com/xap/1.0/sType/ResourceRef#"
            xmlns:dc="http://purl.org/dc/elements/1.1/"
            xmlns:xmpDM="http://ns.adobe.com/xmp/1.0/DynamicMedia/">
         <xmp:CreatorTool>Adobe Audition CC 2018.1 (Windows)</xmp:CreatorTool>
         <xmp:CreateDate>2022-01-22T13:38:32+11:00</xmp:CreateDate>
         <xmp:MetadataDate>2022-01-24T14:43:30+11:00</xmp:MetadataDate>
         <xmp:ModifyDate>2022-01-24T14:43:30+11:00</xmp:ModifyDate>
         <xmpMM:InstanceID>xmp.iid:8d914c2f-a98c-ff4a-8a2d-9c231a75b0c0</xmpMM:InstanceID>
         <xmpMM:DocumentID>xmp.did:8d914c2f-a98c-ff4a-8a2d-9c231a75b0c0</xmpMM:DocumentID>
         <xmpMM:OriginalDocumentID>xmp.did:7a1a50f6-de69-6946-8a6f-3d5c43ce8a34</xmpMM:OriginalDocumentID>
         <xmpMM:History>
            <rdf:Seq>
               <rdf:li rdf:parseType="Resource">
                  <stEvt:action>saved</stEvt:action>
                  <stEvt:instanceID>xmp.iid:7a1a50f6-de69-6946-8a6f-3d5c43ce8a34</stEvt:instanceID>
                  <stEvt:when>2022-01-22T13:38:33+11:00</stEvt:when>
                  <stEvt:softwareAgent>Adobe Audition CC 2018.1 (Windows)</stEvt:softwareAgent>
                  <stEvt:changed>/metadata</stEvt:changed>
               </rdf:li>
               <rdf:li rdf:parseType="Resource">
                  <stEvt:action>saved</stEvt:action>
                  <stEvt:instanceID>xmp.iid:a28ef744-b8f6-8f49-a9f6-de6e48a85046</stEvt:instanceID>
                  <stEvt:when>2022-01-22T14:31:08+11:00</stEvt:when>
                  <stEvt:softwareAgent>Adobe Audition CC 2018.1 (Windows)</stEvt:softwareAgent>
                  <stEvt:changed>/metadata</stEvt:changed>
               </rdf:li>
               <rdf:li rdf:parseType="Resource">
                  <stEvt:action>saved</stEvt:action>
                  <stEvt:instanceID>xmp.iid:fbd13892-800d-8848-bd5c-55600e9a8bed</stEvt:instanceID>
                  <stEvt:when>2022-01-22T14:31:09+11:00</stEvt:when>
                  <stEvt:softwareAgent>Adobe Audition CC 2018.1 (Windows)</stEvt:softwareAgent>
                  <stEvt:changed>/</stEvt:changed>
               </rdf:li>
               <rdf:li rdf:parseType="Resource">
                  <stEvt:action>saved</stEvt:action>
                  <stEvt:instanceID>xmp.iid:e7b7eea7-99d0-4742-8fb3-f6a21406f279</stEvt:instanceID>
                  <stEvt:when>2022-01-22T15:22:08+11:00</stEvt:when>
                  <stEvt:softwareAgent>Adobe Audition CC 2018.1 (Windows)</stEvt:softwareAgent>
                  <stEvt:changed>/metadata</stEvt:changed>
               </rdf:li>
               <rdf:li rdf:parseType="Resource">
                  <stEvt:action>saved</stEvt:action>
                  <stEvt:instanceID>xmp.iid:447dd843-513f-a24a-9943-55aab5487f1f</stEvt:instanceID>
                  <stEvt:when>2022-01-22T15:22:08+11:00</stEvt:when>
                  <stEvt:softwareAgent>Adobe Audition CC 2018.1 (Windows)</stEvt:softwareAgent>
                  <stEvt:changed>/</stEvt:changed>
               </rdf:li>
               <rdf:li rdf:parseType="Resource">
                  <stEvt:action>saved</stEvt:action>
                  <stEvt:instanceID>xmp.iid:8ec9aa1f-835a-f541-b1dd-117f937029a7</stEvt:instanceID>
                  <stEvt:when>2022-01-22T15:23:17+11:00</stEvt:when>
                  <stEvt:softwareAgent>Adobe Audition CC 2018.1 (Windows)</stEvt:softwareAgent>
                  <stEvt:changed>/metadata</stEvt:changed>
               </rdf:li>
               <rdf:li rdf:parseType="Resource">
                  <stEvt:action>saved</stEvt:action>
                  <stEvt:instanceID>xmp.iid:888d305a-35e7-3049-bb34-b05ae18b43de</stEvt:instanceID>
                  <stEvt:when>2022-01-22T15:23:17+11:00</stEvt:when>
                  <stEvt:softwareAgent>Adobe Audition CC 2018.1 (Windows)</stEvt:softwareAgent>
                  <stEvt:changed>/</stEvt:changed>
               </rdf:li>
               <rdf:li rdf:parseType="Resource">
                  <stEvt:action>saved</stEvt:action>
                  <stEvt:instanceID>xmp.iid:a2b0de6b-bb6d-e044-98c4-52178ae91267</stEvt:instanceID>
                  <stEvt:when>2022-01-22T20:58:49+11:00</stEvt:when>
                  <stEvt:softwareAgent>Adobe Audition CC 2018.1 (Windows)</stEvt:softwareAgent>
                  <stEvt:changed>/metadata</stEvt:changed>
               </rdf:li>
               <rdf:li rdf:parseType="Resource">
                  <stEvt:action>saved</stEvt:action>
                  <stEvt:instanceID>xmp.iid:40ecaeae-da48-384b-a312-ce8875083d00</stEvt:instanceID>
                  <stEvt:when>2022-01-22T20:58:49+11:00</stEvt:when>
                  <stEvt:softwareAgent>Adobe Audition CC 2018.1 (Windows)</stEvt:softwareAgent>
                  <stEvt:changed>/</stEvt:changed>
               </rdf:li>
               <rdf:li rdf:parseType="Resource">
                  <stEvt:action>saved</stEvt:action>
                  <stEvt:instanceID>xmp.iid:8713525f-0db1-8348-ba9c-1104938ef148</stEvt:instanceID>
                  <stEvt:when>2022-01-24T14:43:30+11:00</stEvt:when>
                  <stEvt:softwareAgent>Adobe Audition CC 2018.1 (Windows)</stEvt:softwareAgent>
                  <stEvt:changed>/metadata</stEvt:changed>
               </rdf:li>
               <rdf:li rdf:parseType="Resource">
                  <stEvt:action>saved</stEvt:action>
                  <stEvt:instanceID>xmp.iid:8d914c2f-a98c-ff4a-8a2d-9c231a75b0c0</stEvt:instanceID>
                  <stEvt:when>2022-01-24T14:43:30+11:00</stEvt:when>
                  <stEvt:softwareAgent>Adobe Audition CC 2018.1 (Windows)</stEvt:softwareAgent>
                  <stEvt:changed>/</stEvt:changed>
               </rdf:li>
            </rdf:Seq>
         </xmpMM:History>
         <xmpMM:DerivedFrom rdf:parseType="Resource">
            <stRef:instanceID>xmp.iid:8713525f-0db1-8348-ba9c-1104938ef148</stRef:instanceID>
            <stRef:documentID>xmp.did:40ecaeae-da48-384b-a312-ce8875083d00</stRef:documentID>
            <stRef:originalDocumentID>xmp.did:7a1a50f6-de69-6946-8a6f-3d5c43ce8a34</stRef:originalDocumentID>
         </xmpMM:DerivedFrom>
         <dc:format>application/xml</dc:format>
         <xmpDM:Tracks>
            <rdf:Bag>
               <rdf:li rdf:parseType="Resource">
                  <xmpDM:trackName>CuePoint Markers</xmpDM:trackName>
                  <xmpDM:trackType>Cue</xmpDM:trackType>
                  <xmpDM:frameRate>f48000</xmpDM:frameRate>
               </rdf:li>
               <rdf:li rdf:parseType="Resource">
                  <xmpDM:trackName>CD Track Markers</xmpDM:trackName>
                  <xmpDM:trackType>Track</xmpDM:trackType>
                  <xmpDM:frameRate>f48000</xmpDM:frameRate>
               </rdf:li>
               <rdf:li rdf:parseType="Resource">
                  <xmpDM:trackName>Subclip Markers</xmpDM:trackName>
                  <xmpDM:trackType>InOut</xmpDM:trackType>
                  <xmpDM:frameRate>f48000</xmpDM:frameRate>
               </rdf:li>
            </rdf:Bag>
         </xmpDM:Tracks>
      </rdf:Description>
   </rdf:RDF>
</x:xmpmeta>
                                                                                                    
                                                                                                    
                                                                                                    
                                                                                                    
                                                                                                    
                                                                                                    
                                                                                                    
                                                                                                    
                                                                                                    
                                                                                                    
                                                                                                    
                                                                                                    
                                                                                                    
                                                                                                    
                                                                                                    
                                                                                                    
                                                                                                    
                                                                                                    
                                                                                                    
                                                                                                    
                           
<?xpacket end="w"?>]]></xmpMetadata>
    <clipGroups/>
    <metronome enabled="false" pattern="downBeat subdivision subdivision subdivision " soundSet="sticks">
      <metronomeTrack automationLaneOpenState="false" id="40000" index="0" select="false" visible="false">
        <trackParameters trackHeight="77" trackHue="-1" trackMinimized="false">
          <name>Metronome</name>
        </trackParameters>
        <trackAudioParameters audioChannelType="mono" automationMode="1" monitoring="false" recordArmed="false" solo="false" soloSafe="true">
          <trackOutput outputID="10000" type="trackID"/>
          <trackInput inputID="-1"/>
          <component componentGuid="4fecfaa6-7af0-412d-86ee-9f48d41de22a" componentID="Audition.Fader" id="trackFader" name="volume" powered="true">
            <parameter index="0" name="volume" parameterValue="0.5011872"/>
            <parameter index="1" name="static gain" parameterValue="1"/>
          </component>
          <component componentGuid="79e59b16-c275-4a38-8e99-2dbcb9aebbc5" componentID="Audition.Mute" id="trackMute" name="Mute" powered="true">
            <parameter index="0" parameterValue="0"/>
            <parameter index="1" name="mute" parameterValue="0"/>
          </component>
          <component componentGuid="03210d90-7862-4288-9bbf-fabd39b9d178" componentID="Audition.StereoPanner" id="trackPan" name="StereoPanner" powered="true">
            <parameter index="0" name="Pan" parameterValue="0"/>
          </component>
          <component componentGuid="13debc90-d909-4409-ab76-699df1cc7128" componentID="Audition.EQ" id="trackEQ" name="EQ" powered="false">
            <parameter index="0" name="Low Shelf Frequency" parameterValue="0.000834"/>
            <parameter index="1" name="Low Shelf Gain" parameterValue="0.5"/>
            <parameter index="2" name="High Shelf Frequency" parameterValue="0.7497915"/>
            <parameter index="3" name="High Shelf Gain" parameterValue="0.5"/>
            <parameter index="4" name="EQ Band 1 Center Frequency" parameterValue="0.001251"/>
            <parameter index="5" name="EQ Band 1 Q" parameterValue="0.0002"/>
            <parameter index="6" name="EQ Band 1 Gain" parameterValue="0.5"/>
            <parameter index="7" name="EQ Band 1 Enable" parameterValue="1"/>
            <parameter index="8" name="EQ Band 2 Center Frequency" parameterValue="0.0075063"/>
            <parameter index="9" name="EQ Band 2 Q" parameterValue="0.0002"/>
            <parameter index="10" name="EQ Band 2 Gain" parameterValue="0.5"/>
            <parameter index="11" name="EQ Band 2 Enable" parameterValue="1"/>
            <parameter index="12" name="EQ Band 3 Center Frequency" parameterValue="0.0325271"/>
            <parameter index="13" name="EQ Band 3 Q" parameterValue="0.0002"/>
            <parameter index="14" name="EQ Band 3 Gain" parameterValue="0.5"/>
            <parameter index="15" name="EQ Band 3 Enable" parameterValue="1"/>
            <parameter index="16" name="EQ Band 4 Center Frequency" parameterValue="0.1326105"/>
            <parameter index="17" name="EQ Band 4 Q" parameterValue="0.0002"/>
            <parameter index="18" name="EQ Band 4 Gain" parameterValue="0.5"/>
            <parameter index="19" name="EQ Band 4 Enable" parameterValue="1"/>
            <parameter index="20" name="EQ Band 5 Center Frequency" parameterValue="0.5329441"/>
            <parameter index="21" name="EQ Band 5 Q" parameterValue="0.0002"/>
            <parameter index="22" name="EQ Band 5 Gain" parameterValue="0.5"/>
            <parameter index="23" name="EQ Band 5 Enable" parameterValue="1"/>
            <parameter index="24" name="Master Gain" parameterValue="0.6666667"/>
            <parameter index="25" name="ConstantQ" parameterValue="1"/>
            <parameter index="26" name="Low Shelf Filter Order" parameterValue="0"/>
            <parameter index="27" name="High Shelf Filter Order" parameterValue="0"/>
            <parameter index="28" name="Ultra-Quiet Mode" parameterValue="0"/>
            <parameter index="29" name="Low Shelf Enable" parameterValue="1"/>
            <parameter index="30" name="High Shelf Enable" parameterValue="1"/>
            <parameter index="31" name="Original Sample Rate" parameterValue="0.25"/>
            <parameter index="32" name="EQ Band 1 Bandwidth" parameterValue="0.0025"/>
            <parameter index="33" name="EQ Band 2 Bandwidth" parameterValue="0.01"/>
            <parameter index="34" name="EQ Band 3 Bandwidth" parameterValue="0.04"/>
            <parameter index="35" name="EQ Band 4 Bandwidth" parameterValue="0.16"/>
            <parameter index="36" name="EQ Band 5 Bandwidth" parameterValue="0.64"/>
            <parameter index="37" name="High-Pass Filter Enable" parameterValue="0"/>
            <parameter index="38" name="High-Pass Cutoff Frequency" parameterValue="0"/>
            <parameter index="39" name="High-Pass Slope" parameterValue="0.4"/>
            <parameter index="40" name="Low-Pass Filter Enable" parameterValue="0"/>
            <parameter index="41" name="Low-Pass Cutoff Frequency" parameterValue="0.8331943"/>
            <parameter index="42" name="Low-Pass Slope" parameterValue="0.4"/>
            <parameter index="43" name="Bypass" parameterValue="0"/>
            <parameter index="44" name="LowGraphRange" parameterValue="1"/>
          </component>
        </trackAudioParameters>
        <editParameter parameterIndex="0" slotIndex="4294967280"/>
      </metronomeTrack>
    </metronome>
    <properties>
      <property key="EssentialSoundConfigurations">[{"Guid":"a8b40e3e-13e7-4c1f-b382-96058f1f691d","Name":"$$$/app/Presets/DefaultPresetName=(Default)","PresetData":{"ModeID":"ambience","Models":{"model_loudness":{"DefaultLoudness":{"type":"float","value":-30},"LoudnessStandard":{"type":"std::uint32_t","value":0},"MaxLoudness":{"type":"float","value":-12},"MinLoudness":{"type":"float","value":-42}},"model_soundeffects":{"ReverbPresets":{"type":"tree::any","value":{"$$$/app/Presets/EssentialSound/ReverbPreset/LargeRoomAmbience=Large Room Ambience":{"type":"array::float","value":[0.051507499068975449,0.32432401180267334,0.29292899370193481,0.30000001192092896,0.20000000298023224,0,0.14285700023174286,0.40000000596046448,0.5,0.69999998807907104,0.30000001192092896,0.25125628709793091,0.03125]},"$$$/app/Presets/EssentialSound/ReverbPreset/OutsideAmbience=Outside Ambience":{"type":"array::float","value":[0.091708503663539886,0.043893899768590927,1,0.5,0.20000000298023224,0.80000001192092896,0.18367299437522888,1,0.5,0,0.80000001192092896,0.25125628709793091,0.03125]},"$$$/app/Presets/EssentialSound/ReverbPreset/RoomAmbience=Room Ambience":{"type":"array::float","value":[0.057788901031017303,0.44944900274276733,0.49494898319244385,0.89999997615814209,0.10000000149011612,0.15000000596046448,0.081632703542709351,0.40000000596046448,0.5,0.80000001192092896,0.20000000298023224,0.25125628709793091,0.03125]},"$$$/app/Presets/EssentialSound/ReverbPreset/WindEffect=Wind Effect":{"type":"array::float","value":[0.19597999751567841,0.6896899938583374,0.69696998596191406,0.25,0.5,0.5,0.23469400405883789,0.51999998092651367,0.5,0.75,0.25,0.25125628709793091,0.03125]}}}},"model_stereowidth":{},"model_volume":{"MaxGain":{"type":"float","value":15},"MinGain":{"type":"float","value":-60}}}},"Type":"1c19ca71-c24c-49cd-8dd5-2cc46018507a","Version":1},{"Guid":"58dc27a8-6a2a-480c-bd0c-4b45fff346a6","Name":"$$$/app/Presets/DefaultPresetName=(Default)","PresetData":{"ModeID":"dialog","Models":{"model_clarity":{"EQPresets":{"type":"tree::any","value":{"$$$/app/Presets/EssentialSound/EQPreset/BackgroundVoice=Background Voice":{"type":"array::float","value":[0.12099699676036835,0.5,0.39240506291389465,0,0.5,0.5,0.5,0.5,0.5,0.47827938199043274,0.45772689580917358,0.45778733491897583,0.47946760058403015,0.5,0]},"$$$/app/Presets/EssentialSound/EQPreset/Intercom=Intercom":{"type":"array::float","value":[0.19432899355888367,0.5,1,0,0.071499988436698914,0.071499988436698914,0.071499988436698914,0.40238627791404724,0.48571401834487915,0.5,0.55155748128890991,0.59602576494216919,0.22246670722961426,0.071499988436698914,0]},"$$$/app/Presets/EssentialSound/EQPreset/LockedInTheTrunk=Locked in the Trunk":{"type":"array::float","value":[0.12099699676036835,0.5,0.79746836423873901,0,0.5,0.5,0.5,0.5,0.5,0.32846158742904663,0.15721426904201508,0.15721426904201508,0.15721426904201508,0.15721426904201508,0]},"$$$/app/Presets/EssentialSound/EQPreset/OldRadio=Old Radio":{"type":"array::float","value":[0.12099699676036835,0.5,0.79746836423873901,0,0.15721426904201508,0.15721426904201508,0.15721426904201508,0.28442040085792542,0.48315632343292236,0.36498492956161499,0.52853888273239136,0.43511500954627991,0.27154684066772461,0.15721426904201508,0]},"$$$/app/Presets/EssentialSound/EQPreset/OnTheTelephone=On the Telephone":{"type":"array::float","value":[0.12099699676036835,0.5,0.39240506291389465,0,0.32864287495613098,0.32864287495613098,0.32864287495613098,0.32864287495613098,0.48571401834487915,0.53071397542953491,0.53071397542953491,0.48357096314430237,0.32864287495613098,0.32864287495613098,0]},"$$$/app/Presets/EssentialSound/EQPreset/OutsideOfTheRoom=Outside of the Room":{"type":"array::float","value":[0.12099699676036835,0.5,0.79746836423873901,0,0.42539370059967041,0.47865453362464905,0.5,0.5,0.48571401834487915,0.40073278546333313,0.25656309723854065,0.15721426904201508,0.15721426904201508,0.15721426904201508,0]},"$$$/app/Presets/EssentialSound/EQPreset/PodcastVoice=Podcast Voice":{"type":"array::float","value":[0.12099699676036835,0.5,0.39240506291389465,0,0.5,0.5,0.5,0.51789408922195435,0.50770342350006104,0.5,0.51789408922195435,0.528114914894104,0.5102812647819519,0.5,0]},"$$$/app/Presets/EssentialSound/EQPreset/SubtleBoostFemale=Subtle Boost (Female)":{"type":"array::float","value":[0.096553400158882141,0.5,0.29113924503326416,0,0.5,0.5,0.5,0.5,0.5,0.51933407783508301,0.54642897844314575,0.52706766128540039,0.5,0.5,0]},"$$$/app/Presets/EssentialSound/EQPreset/SubtleBoostMale=Subtle Boost (Male)":{"type":"array::float","value":[0.096553400158882141,0.5,0.29113924503326416,0,0.5,0.5,0.5,0.5,0.5,0.5135338306427002,0.54642897844314575,0.51933407783508301,0.5,0.5,0]},"$$$/app/Presets/EssentialSound/EQPreset/ThatPublicRadioSound=That Public Radio Sound":{"type":"array::float","value":[0.12099699676036835,0.5,0.79746836423873901,0,0.15721426904201508,0.15721426904201508,0.15721426904201508,0.36334344744682312,0.49468311667442322,0.5,0.5,0.5,0.5,0.5,0]},"$$$/app/Presets/EssentialSound/EQPreset/VocalPresence=Vocal Presence":{"type":"array::float","value":[0.096553400158882141,0.5,0.32489451766014099,0,0.3572143018245697,0.3572143018245697,0.46428570151329041,0.47857141494750977,0.4763694703578949,0.49570354819297791,0.55924957990646362,0.56523394584655762,0.50859290361404419,0.46992480754852295,0]}}}},"model_loudness":{"DefaultLoudness":{"type":"float","value":-23},"LoudnessStandard":{"type":"std::uint32_t","value":0},"MaxLoudness":{"type":"float","value":-12},"MinLoudness":{"type":"float","value":-42}},"model_restoration":{"ReduceNoiseMaxSetting":{"type":"array::float","value":[0.60000002384185791,0.40000000596046448,0.5,0.5,0.2465750128030777,0.60000002384185791,2048,0,0]},"ReduceNoiseMinSetting":{"type":"array::float","value":[0.375,0.20000000298023224,0.60000002384185791,0.5625,0.10958899557590485,0.30000001192092896,512,0,0]},"ReduceRumbleMaxSetting":{"type":"array::float","value":[1,0.084112152457237244,0.375,0,0,0.00083333335351198912,1,0,1,0.0390625,0.00083408987848088145,0,0.0041666668839752674,0.00022554649331141263,0.0046875001862645149,0.75,0.0052083334885537624,0.75,1,0.75,0.0040520834736526012,0.75,0.0042629167437553406,0.00022554649331141263,0.0064883334562182426,0.00022554649331141263,0.006866666954010725,0.75,0.0071704164147377014,0.00022554649331141263,0.01041458360850811,0.00022554649331141263,0.010900000110268593,0.75,0.011407917365431786,0.00022554649331141263,0.015606249682605267,0.00022554649331141263,0.016333334147930145,0.75,0.017094582319259644,0.00022554649331141263,0.026243748143315315,0.00022554649331141263,0.0274666678160429,0.75,0.028746666386723518,0.00022554649331141263,0.041658751666545868,0.00022554649331141263,0.043600000441074371,0.75,0.045631669461727142,0.00022554649331141263,0.062424581497907639,0.00022554649331141263,0.065333336591720581,0.75,0.068377502262592316,0.00022554649331141263,0.10497540980577469,0.00022554649331141263,0.1098666712641716,0.75,0.11498583108186722,0.00022554649331141263,0.16663584113121033,0.00022554649331141263,0.17440000176429749,0.75,0.18252624571323395,0.00022554649331141263,0.91874998807907104,0.00022554649331141263,1,0.00022554649331141263,0,0,0,0,0,0,0,0,0,0,0,0,0,0,0,0,0,0,0,0,0,0,0,0,0,0,0,0,0,0,0,0,0,0,0,0,0,0,0,0,0,0,0,0,0,0,0,0,0,0,0,0,0,0,0,0,0,0,0,0,0,0,0,0,0,0,0,0,0,0,0,0,0,0,0,0,0,0,0,0,0,0,0,0,0,0,0,0,0,0,0,0,0,0,0,0,0,0,0,0,0,0,0,0,0,0,0,0,0,0,0,0,0,0,0,0,0,0,0,0,0,0,0,0,0,0,0,0,0,0,0,0,0,0,0,0,0,0,0,0,0,0,0,0,0,0,0,0,0,0,0,0,0,0,0,0,0,0,0,0,0,0,0,0,0,0,0,0,0,0,0,0,0,0,0,0,0,0,0,0,0,0,0,0,0,0,0,0,0,0]},"ReduceRumbleMinSetting":{"type":"array::float","value":[1,0.084112152457237244,0.375,0,0,0.00083333335351198912,1,0,1,0.0390625,0.00083408987848088145,0.75,0.0041666668839752674,0.75,0.0046875001862645149,0.75,0.0052083334885537624,0.75,1,0.75,0.91874998807907104,0.61237245798110962,1,0.61237245798110962,0,0,0,0,0,0,0,0,0,0,0,0,0,0,0,0,0,0,0,0,0,0,0,0,0,0,0,0,0,0,0,0,0,0,0,0,0,0,0,0,0,0,0,0,0,0,0,0,0,0,0,0,0,0,0,0,0,0,0,0,0,0,0,0,0,0,0,0,0,0,0,0,0,0,0,0,0,0,0,0,0,0,0,0,0,0,0,0,0,0,0,0,0,0,0,0,0,0,0,0,0,0,0,0,0,0,0,0,0,0,0,0,0,0,0,0,0,0,0,0,0,0,0,0,0,0,0,0,0,0,0,0,0,0,0,0,0,0,0,0,0,0,0,0,0,0,0,0,0,0,0,0,0,0,0,0,0,0,0,0,0,0,0,0,0,0,0,0,0,0,0,0,0,0,0,0,0,0,0,0,0,0,0,0,0,0,0,0,0,0,0,0,0,0,0,0,0,0,0,0,0,0,0,0,0,0,0,0,0,0,0,0,0,0,0,0,0,0,0,0,0,0,0,0,0,0,0,0,0,0,0,0,0,0,0,0,0,0,0,0,0,0]},"ReduceSibilanceMaxSetting":{"type":"array::float","value":[0.5,0.19983997941017151,0.18367347121238708,0.26086956262588501,0.52702701091766357,0,1,0,0,0,0,0.75,1,1,0.40000000596046448]},"ReduceSibilanceMinSetting":{"type":"array::float","value":[0.875,0.19983997941017151,0.18367347121238708,0.19130434095859528,0.25675675272941589,0,1,0,0,0,0,0.75,1,1,0.40000000596046448]}},"model_soundeffects":{"ReverbPresets":{"type":"tree::any","value":{"$$$/app/Presets/EssentialSound/ReverbPreset/Auditorium=Auditorium":{"type":"array::float","value":[0.013047545216977596,0.15895412862300873,1,0.89999997615814209,0,0.52007436752319336,0.41663265228271484,0.46000000834465027,0.5,0.73000001907348633,0.15999999642372131,0.75376886129379272,0.03125]},"$$$/app/Presets/EssentialSound/ReverbPreset/Church=Church":{"type":"array::float","value":[0.032663315534591675,0.39939939975738525,0.79797977209091187,0.25,0.5,0.5,0.2297959178686142,0.72000002861022949,0.5,0.62999999523162842,0.87999999523162842,0.25125628709793091,0.03125]},"$$$/app/Presets/EssentialSound/ReverbPreset/LargeReflectiveRoom=Large Reflective Room":{"type":"array::float","value":[0.0074449013918638229,0.098988421261310577,0.79890537261962891,0.89999997615814209,0.10000000149011612,0.40110713243484497,0.060284845530986786,0.27522978186607361,0.5,0.73000001907348633,0.31999999284744263,0.25125628709793091,0.03125]},"$$$/app/Presets/EssentialSound/ReverbPreset/OutsideTheClub=Outside the Club":{"type":"array::float","value":[0.020615793764591217,0.050136558711528778,0.69696998596191406,0.25,0.094355784356594086,0.22242647409439087,0.1071428582072258,0.2800000011920929,0.5,0.73000001907348633,0.46000000834465027,0.25125628709793091,0.03125]},"$$$/app/Presets/EssentialSound/ReverbPreset/SmallDryRoom=Small Dry Room":{"type":"array::float","value":[0.24623115360736847,0.69975000619888306,0.29292899370193481,0.40000000596046448,0.20000000298023224,0.40000000596046448,0.039285715669393539,0.10000000149011612,0.5,1,0.5,0.75376886129379272,0.03125]},"$$$/app/Presets/EssentialSound/ReverbPreset/ThickenVoice=Thicken Voice":{"type":"array::float","value":[0.19597999751567841,0.23931467533111572,0.69696998596191406,0.25,0.5,0.53999996185302734,0.020408162847161293,0.20945435762405396,0.5,1,0.34999999403953552,0.25125628709793091,0.03125]},"$$$/app/Presets/EssentialSound/ReverbPreset/WarmRoom=Warm Room":{"type":"array::float","value":[0.020100502297282219,0.074074074625968933,0.49494948983192444,0.40000000596046448,0.74960309267044067,0.40000000596046448,0.1239795908331871,0.67000001668930054,0.5,0.85000002384185791,0.56000000238418579,0.25125628709793091,0.03125]},"$$$/app/Presets/EssentialSound/ReverbPreset/WarmVoice=Warm Voice":{"type":"array::float","value":[0.19597989320755005,0.89989989995956421,0,0.40000000596046448,0.20000000298023224,0.40000000596046448,0.10204081982374191,0.090000003576278687,0.5,1,0.30000001192092896,0.25125628709793091,0.03125]}}}},"model_volume":{"MaxGain":{"type":"float","value":15},"MinGain":{"type":"float","value":-60}}}},"Type":"1c19ca71-c24c-49cd-8dd5-2cc46018507a","Version":1},{"Guid":"353811fa-4179-435e-8e5e-23028ba15a7a","Name":"$$$/app/Presets/DefaultPresetName=(Default)","PresetData":{"ModeID":"generic","Models":{"model_volume":{"MaxGain":{"type":"float","value":15},"MinGain":{"type":"float","value":-60}}}},"Type":"1c19ca71-c24c-49cd-8dd5-2cc46018507a","Version":1},{"Guid":"31ba96a6-5d3e-4d89-b1e1-1dbe3c055d0c","Name":"$$$/app/Presets/DefaultPresetName=(Default)","PresetData":{"ModeID":"music","Models":{"model_ducking":{},"model_duration":{},"model_loudness":{"DefaultLoudness":{"type":"float","value":-25},"LoudnessStandard":{"type":"std::uint32_t","value":0},"MaxLoudness":{"type":"float","value":-12},"MinLoudness":{"type":"float","value":-42}},"model_volume":{"MaxGain":{"type":"float","value":15},"MinGain":{"type":"float","value":-60}}}},"Type":"1c19ca71-c24c-49cd-8dd5-2cc46018507a","Version":1},{"Guid":"cea63332-1adc-44a9-a6eb-5490f965859b","Name":"$$$/app/Presets/DefaultPresetName=(Default)","PresetData":{"ModeID":"sfx","Models":{"model_loudness":{"DefaultLoudness":{"type":"float","value":-21},"LoudnessStandard":{"type":"std::uint32_t","value":0},"MaxLoudness":{"type":"float","value":-12},"MinLoudness":{"type":"float","value":-42}},"model_pan":{},"model_soundeffects":{"ReverbPresets":{"type":"tree::any","value":{"$$$/app/Presets/EssentialSound/ReverbPreset/HeavyReverb=Heavy Reverb":{"type":"array::float","value":[0.13316600024700165,0.29929900169372559,1,0.95999997854232788,0.85000002384185791,0.5,0.51530599594116211,0.30000001192092896,0.5,0.5,0.5,0.25125628709793091,0.0625]},"$$$/app/Presets/EssentialSound/ReverbPreset/LightReverb=Light Reverb":{"type":"array::float","value":[0.095477402210235596,0.29929900169372559,0.090909101068973541,1,1,0.80000001192092896,0.22449000179767609,0.60000002384185791,0.5,0.69999998807907104,0.30000001192092896,0.25125628709793091,0.0625]},"$$$/app/Presets/EssentialSound/ReverbPreset/OutsideReverb=Outside Reverb":{"type":"array::float","value":[0.091708503663539886,0.043893899768590927,1,0.5,0.20000000298023224,0.80000001192092896,0.18367299437522888,1,0.5,0,0.80000001192092896,0.25125628709793091,0.0625]},"$$$/app/Presets/EssentialSound/ReverbPreset/RoomReverb=Room Reverb":{"type":"array::float","value":[0.057788901031017303,0.44944900274276733,0.49494898319244385,0.89999997615814209,0.10000000149011612,0.15000000596046448,0.081632703542709351,0.40000000596046448,0.5,0.80000001192092896,0.20000000298023224,0.25125628709793091,0.0625]}}}},"model_volume":{"MaxGain":{"type":"float","value":15},"MinGain":{"type":"float","value":-60}}}},"Type":"1c19ca71-c24c-49cd-8dd5-2cc46018507a","Version":1}]</property>
    </properties>
  </session>

  <files>
    <file absolutePath="C:\Creating\Game Making\Unity\Unity Projects\Project Files\Bedtime Story (VRC The Forgotten) [Udon]\Assets\Audio\Scenes\Unver Death Scene (She Burned)\Unver Death Scene (She Burned)_Recorded\Track 1_001.wav" id="0" mediaHandler="AmioWav" recoveryID="daeb5559-cbbe-4634-826c-19ae90e5aa9e" relativePath="../Unver Death Scene (She Burned)_Recorded/Track 1_001.wav"/>
    <file absolutePath="C:\Creating\Game Making\Unity\Unity Projects\Project Files\Bedtime Story (VRC The Forgotten) [Udon]\Assets\Audio\Scenes\Unver Death Scene (She Burned)\Unver Death Scene (She Burned)_Recorded\Track 2_002.wav" id="1" mediaHandler="AmioWav" recoveryID="c69977be-a5a7-4839-9217-675af8c9140c" relativePath="../Unver Death Scene (She Burned)_Recorded/Track 2_002.wav"/>
    <file absolutePath="C:\Creating\Game Making\Unity\Unity Projects\Project Files\Bedtime Story (VRC The Forgotten) [Udon]\Assets\Audio\Scenes\Unver Death Scene (She Burned)\Bounced Files\Bounce_1.wav" id="2" importerPrivateSettings="Compression:0:0;LargeFileSupport:0:0;SampleType:0:1;" mediaHandler="AmioWav" recoveryID="e6fbb05e-0a4c-4689-928e-e9ce94652cb5" relativePath="../Bounced Files/Bounce_1.wav"/>
    <file absolutePath="C:\Creating\Game Making\Unity\Unity Projects\Project Files\Bedtime Story (VRC The Forgotten) [Udon]\Assets\Audio\Scenes\Unver Death Scene (She Burned)\Bounced Files\Bounce_12.wav" id="3" importerPrivateSettings="Compression:0:0;LargeFileSupport:0:0;SampleType:0:1;" mediaHandler="AmioWav" recoveryID="6961b721-2514-467e-942d-04bbbb57d88c" relativePath="../Bounced Files/Bounce_12.wav"/>
    <file absolutePath="C:\Creating\Game Making\Unity\Unity Projects\Project Files\Bedtime Story (VRC The Forgotten) [Udon]\Assets\Audio\Scenes\Unver Death Scene (She Burned)\Bounced Files\Bounce_13.wav" id="4" importerPrivateSettings="Compression:0:0;LargeFileSupport:0:0;SampleType:0:1;" mediaHandler="AmioWav" recoveryID="a6c47245-2f1a-4133-8275-97d65cc56763" relativePath="../Bounced Files/Bounce_13.wav"/>
    <file absolutePath="C:\Creating\Game Making\Unity\Unity Projects\Project Files\Bedtime Story (VRC The Forgotten) [Udon]\Assets\Audio\Scenes\Unver Death Scene (She Burned)\Bounced Files\Bounce_15.wav" id="5" importerPrivateSettings="Compression:0:0;LargeFileSupport:0:0;SampleType:0:1;" mediaHandler="AmioWav" recoveryID="4fc23524-6d1e-43ae-b9f9-55777920bcc6" relativePath="../Bounced Files/Bounce_15.wav"/>
  </files>

  <audioDevice inputID="004B86D4-3025-40CA-802F-AACFED57A04C" outputID="4485476A-AFA6-44AB-A055-791894D85F54">
    <inputPort id="1" name="Default Stereo Input"/>
    <inputPort id="2" name="[01M] Headset Microphone (CORSAIR VOID ELITE Wireless Gaming Dongle) 1"/>
    <inputPort id="3" name="[02M] Headset Microphone (CORSAIR VOID ELITE Wireless Gaming Dongle) 2"/>
    <inputPort id="4" name="[01S] Headset Microphone (CORSAIR VOID ELITE Wireless Gaming Dongle) 1"/>
  </audioDevice>

</sesx>
